<?xml version="1.0" encoding="UTF-8"?>
<!-- Created with Inkscape (http://www.inkscape.org/) -->
<svg width="210mm" height="297mm" version="1.1" viewBox="0 0 210 297" xmlns="http://www.w3.org/2000/svg" xmlns:cc="http://creativecommons.org/ns#" xmlns:dc="http://purl.org/dc/elements/1.1/" xmlns:rdf="http://www.w3.org/1999/02/22-rdf-syntax-ns#">
 <metadata>
  <rdf:RDF>
   <cc:Work rdf:about="">
    <dc:format>image/svg+xml</dc:format>
    <dc:type rdf:resource="http://purl.org/dc/dcmitype/StillImage"/>
    <dc:title/>
   </cc:Work>
  </rdf:RDF>
 </metadata>
 <g fill="#ff0" stroke="#000" stroke-width="1.5875">
  <path d="m95.023 112.06c0.23487 0.0819 0.48801 0.12345 0.70462 0.24576 1.4946 0.84394 2.689 2.6999 3.6015 4.0629 1.1262 1.6821 2.7637 4.4615 3.7664 6.13 5.0632 8.7028 10.765 16.996 16.553 25.225 5.874 8.2964 11.897 16.485 17.836 24.735 3.8543 5.4027 7.828 10.719 11.804 16.032 1.2562 1.6159 2.5337 3.2306 3.3596 5.1153 0.63436 1.5236 0.76668 3.1686 0.87495 4.7964 0.0706 1.4381 0.087 2.8784 0.0987 4.3181-0.0781 0.58359 0.11844 1.2241 5e-3 1.8032-0.0325 0.16571-0.10539 0.32089-0.15807 0.48133-4.2187 3.8879-7.9456 3.9582-13.017 4.2899-2.2357 0.1274-4.4743 0.19762-6.7131 0.24147l4.3866-3.1944c2.1935-4e-3 4.3873-0.044 6.5771-0.18072 1.8177-0.13416 3.6456-0.24859 5.4359-0.61457 0.46671-0.0954 1.7482-0.66191 1.3845-0.35428-1.5837 1.3396-5.3281 3.0676-3.0822 2.014 0.0953-0.0627 0.23065-0.0884 0.28583-0.1882 0.1014-0.18344-0.0657-1.5349 0.0205-1.8147 0.0155-1.4362 0.0264-2.8732-0.0416-4.3084-0.0909-1.5662-0.20375-3.1525-0.81038-4.6196-0.77489-1.8536-1.9707-3.4828-3.1284-5.1122-3.7892-5.4362-7.6858-10.796-11.499-16.215-5.882-8.2887-11.873-16.499-17.762-24.782-1.5955-2.2622-4.4949-6.356-6.0624-8.6462-3.7012-5.4075-7.1788-10.964-10.671-16.507-1.1862-1.8709-2.5951-4.1686-3.9145-5.9874-0.85659-1.1809-2.1525-3.0468-3.617-3.6296-0.20688-0.0823-0.43947-0.072-0.65921-0.10794l4.4407-3.2264z" style="paint-order:markers stroke fill"/>
  <path d="m27.878 64.011c2.8214 0.04573 5.6434 0.04515 8.465 0.05131 2.6697 0.0053 5.3471 0.13102 7.9811-0.40329 1.6024-0.32504 2.461-0.6594 4.0037-1.1696 1.3217-0.5651 2.1683-0.89219 3.4256-1.56 0.46489-0.24691 1.8269-1.0463 1.3637-0.79626-5.4584 2.9466-3.6552 2.2505-1.8059 0.57313 1.1623-1.2444 1.7226-2.8482 2.256-4.4299 0.80215-2.6925 0.18776-1.6125 5.3831-3.3356 0.13987-0.04639 0.0919 0.28012 0.14374 0.41806 0.05599 0.149 0.11976 0.29495 0.17964 0.44243 0.54027 1.1486 1.3753 1.1492 2.5281 1.264 0.83504 0.04703 1.4939 0.12044 2.3426-0.0029 2.8104-0.40826 5.3399-1.9571 7.7776-3.2992-0.59659 0.32131-2.3008 1.409-1.7898 0.96393 0.7866-0.68506 1.7575-1.124 2.63-1.6957 3.0283-1.9843 6.016-4.0041 9.1404-5.8361 3.46-1.7817 7.1149-4.6126 11.207-5.0948 0.31503-0.03712 0.6337-0.03041 0.95054-0.04561 0.30835 0.0791 0.63187 0.11329 0.92505 0.23731 1.4633 0.61898 3.1103 2.5704 4.2058 3.7277 1.3538 1.4352 1.9888 2.1206 3.9468 2.485 2.3065 0.23348 4.6365 0.24398 6.951 0.1451 2.6252-0.29913 5.2546-0.50821 7.8945-0.60824 0.50532 0.02032 1.017-0.02141 1.516 0.06094 4.0555 0.66929 6.3524 4.6931 8.3558 7.8392 2.577 4.299 4.2331 9.0367 6.226 13.61 0.39143 0.64367 0.56639 1.6204 1.2128 2.1075 0.50554 0.381 1.371 0.33038 1.9504 0.37202 2.8217 0.21538 5.4789-0.84012 8.0819-1.7814 1.9928-0.75848 4.0485-1.3164 6.1666-1.5613 1.4871-0.11476 2.98-0.10558 4.4705-0.10431 0.21243 0.0011 0.42486 0.0021 0.63729 3e-3l-4.4156 3.2048c-0.21157-0.0011-0.42315-0.0021-0.63472-0.0032-1.4721-0.0059-2.9488-0.01275-4.414 0.15025-2.0645 0.28951-4.067 0.85828-6.0176 1.5933-2.6758 0.93843-5.4068 1.9093-8.2912 1.6431-0.60158-0.07228-1.0987-0.07843-1.6552-0.3351-1.0466-0.48268-1.3283-1.7267-1.7438-2.6842-1.8012-4.6281-3.3902-9.3659-6.0005-13.629-1.739-2.6555-3.5691-5.7532-6.7072-6.9531-1.1583-0.44288-1.8464-0.35332-3.0455-0.37394-2.6455 0.12845-5.2782 0.38094-7.9154 0.61856-2.3595 0.068-4.7418 0.09767-7.0855-0.21539-0.67794-0.16812-0.88343-0.17501-1.4941-0.48898-1.0467-0.53818-1.7749-1.478-2.593-2.2927-1.0263-1.0971-2.5867-2.9778-4.0495-3.4323-0.26845-0.08341-0.55658-0.07943-0.83486-0.11914-1.4644 0.15017-2.8332 0.51294-4.1978 1.0765-0.49649 0.20505-1.8888 0.99643-1.4702 0.65978 0.83584-0.67221 1.8284-1.122 2.7426-1.683-6.433 3.6719-12.296 8.245-18.877 11.68-3.2841 1.7732-6.6603 3.67-10.527 3.2006-1.3634-0.18357-2.2522-0.40734-2.8763-1.7253-0.14992-0.34796-0.37427-0.85659-0.35283-0.8713 1.5257-1.0468 3.202-1.855 4.8031-2.7825-0.04355 0.03908-0.10471 0.06478-0.13065 0.11723-0.1582 0.31992-0.15827 0.70462-0.31786 1.0224-0.56442 1.6356-1.0955 3.3127-2.1896 4.6874-2.2126 2.1821-4.3278 3.0724-7.3345 4.8298-1.5276 0.89284-3.1437 1.6157-4.8024 2.2283-1.6179 0.50232-2.3702 0.78901-4.0507 1.0936-2.6651 0.48313-5.3698 0.35245-8.0631 0.37139-2.8688 0.0062-5.7378 0.0062-8.6063 0.05131l4.4259-3.2156z" style="paint-order:markers stroke fill"/>
  <path d="m56.777 99.191c-0.06426 2.7105-0.07361 5.4221-0.08456 8.1333-0.02893 4.3218-0.06328 8.6415 0.10855 12.961 0.2961 5.908 1.1515 11.77 2.048 17.612 0.90615 5.7805 1.9784 11.535 3.0917 17.279 0.58168 3.2914 1.2947 6.5594 1.7939 9.8649 0.2974 2.0792 0.36857 4.1788 0.40615 6.2756 0.0024 0.31569 0.0047 0.63137 7e-3 0.94706l-4.8215 2.4607c-0.0019-0.31444-0.0035-0.62888-0.0053-0.94332-0.02143-2.0816-0.07301-4.1666-0.33512-6.2344-0.4527-3.3224-1.1018-6.6145-1.6328-9.9248-1.046-5.7727-2.0903-11.547-3.007-17.342-0.91666-5.8415-1.8081-11.701-2.1794-17.607-0.20899-4.3129-0.18169-8.6276-0.19036-12.945-0.01087-2.6824-0.01976-5.3654-0.08456-8.0471l4.8853-2.4892z" style="paint-order:markers stroke fill"/>
  <path d="m93.686 97.836c-5.5187-2.7502-11.476-4.5034-17.315-6.4322-9.3154-3.077-18.639-6.1467-27.778-9.7182-4.1259-1.8098-8.3789-3.4174-12.321-5.6179l4.5252-2.9387c3.7938 2.2674 7.895 3.9876 11.918 5.7933 9.0805 3.6636 18.372 6.7645 27.701 9.7322 6.005 1.9074 12.105 3.6471 17.865 6.2252l-4.5955 2.9563z" style="paint-order:markers stroke fill"/>
  <path d="m149.86 78.505c4.1269 3.2558 7.4778 7.3774 10.863 11.365 1.0502 1.2752 2.102 2.5489 3.1504 3.8255 2.0011 2.4366 5.5359 6.7753 7.5086 9.1271 4.3536 5.1902 8.8436 10.259 13.343 15.322 4.3107 4.7818 8.7365 9.4558 13.189 14.105l-4.0038 2.4398c-4.4204-4.6778-8.8172-9.3773-13.116-14.168-8.227-9.2581-16.342-18.61-24.303-28.099-3.4699-3.9031-6.9124-7.9925-11.243-10.979l4.6128-2.9388z" style="paint-order:markers stroke fill"/>
 </g>
</svg>
