<?xml version="1.0" encoding="UTF-8"?>
<!-- Created with Inkscape (http://www.inkscape.org/) -->
<svg width="91.281mm" height="89.426mm" version="1.1" viewBox="0 0 91.281 89.426" xmlns="http://www.w3.org/2000/svg" xmlns:cc="http://creativecommons.org/ns#" xmlns:dc="http://purl.org/dc/elements/1.1/" xmlns:rdf="http://www.w3.org/1999/02/22-rdf-syntax-ns#">
 <metadata>
  <rdf:RDF>
   <cc:Work rdf:about="">
    <dc:format>image/svg+xml</dc:format>
    <dc:type rdf:resource="http://purl.org/dc/dcmitype/StillImage"/>
    <dc:title/>
   </cc:Work>
  </rdf:RDF>
 </metadata>
 <g transform="translate(177.18 30.439)" fill="transparent" stroke-width="2">
  <g stroke="#f00">
   <polyline transform="matrix(.26458 0 0 .26458 -200.72 -30.504)" points="256 336"/>
   <polyline transform="matrix(.26458 0 0 .26458 -200.72 -30.504)" points="231 336 284 336"/>
   <polyline transform="matrix(.26458 0 0 .26458 -200.72 -30.504)" points="244 334"/>
   <polyline transform="matrix(.26458 0 0 .26458 -200.72 -30.504)" points="289 334 298 333"/>
   <polyline transform="matrix(.26458 0 0 .26458 -200.72 -30.504)" points="277 333"/>
   <polyline transform="matrix(.26458 0 0 .26458 -200.72 -30.504)" points="303 331"/>
   <polyline transform="matrix(.26458 0 0 .26458 -200.72 -30.504)" points="239 328"/>
   <polyline transform="matrix(.26458 0 0 .26458 -200.72 -30.504)" points="292 327"/>
   <polyline transform="matrix(.26458 0 0 .26458 -200.72 -30.504)" points="262 328 275 330"/>
   <polyline transform="matrix(.26458 0 0 .26458 -200.72 -30.504)" points="236 324"/>
   <polyline transform="matrix(.26458 0 0 .26458 -200.72 -30.504)" points="250 323 254 330"/>
   <polyline transform="matrix(.26458 0 0 .26458 -200.72 -30.504)" points="221 322 233 334"/>
   <polyline transform="matrix(.26458 0 0 .26458 -200.72 -30.504)" points="244 320"/>
   <polyline transform="matrix(.26458 0 0 .26458 -200.72 -30.504)" points="321 318 309 327"/>
   <polyline transform="matrix(.26458 0 0 .26458 -200.72 -30.504)" points="284 318 279 325"/>
   <polyline transform="matrix(.26458 0 0 .26458 -200.72 -30.504)" points="411 317"/>
   <polyline transform="matrix(.26458 0 0 .26458 -200.72 -30.504)" points="235 317 241 323"/>
   <polyline transform="matrix(.26458 0 0 .26458 -200.72 -30.504)" points="309 316"/>
   <polyline transform="matrix(.26458 0 0 .26458 -200.72 -30.504)" points="223 316"/>
   <polyline transform="matrix(.26458 0 0 .26458 -200.72 -30.504)" points="303 315"/>
   <polyline transform="matrix(.26458 0 0 .26458 -200.72 -30.504)" points="374 314"/>
   <polyline transform="matrix(.26458 0 0 .26458 -200.72 -30.504)" points="290 313"/>
   <polyline transform="matrix(.26458 0 0 .26458 -200.72 -30.504)" points="234 313"/>
   <polyline transform="matrix(.26458 0 0 .26458 -200.72 -30.504)" points="367 312 368 323"/>
   <polyline transform="matrix(.26458 0 0 .26458 -200.72 -30.504)" points="347 312 337 331"/>
   <polyline transform="matrix(.26458 0 0 .26458 -200.72 -30.504)" points="319 312 306 314"/>
   <polyline transform="matrix(.26458 0 0 .26458 -200.72 -30.504)" points="282 316 269 318"/>
   <polyline transform="matrix(.26458 0 0 .26458 -200.72 -30.504)" points="371 310"/>
   <polyline transform="matrix(.26458 0 0 .26458 -200.72 -30.504)" points="291 310"/>
   <polyline transform="matrix(.26458 0 0 .26458 -200.72 -30.504)" points="218 309"/>
   <polyline transform="matrix(.26458 0 0 .26458 -200.72 -30.504)" points="100 309 93 338"/>
   <polyline transform="matrix(.26458 0 0 .26458 -200.72 -30.504)" points="229 308"/>
   <polyline transform="matrix(.26458 0 0 .26458 -200.72 -30.504)" points="212 308"/>
   <polyline transform="matrix(.26458 0 0 .26458 -200.72 -30.504)" points="357 307 349 310"/>
   <polyline transform="matrix(.26458 0 0 .26458 -200.72 -30.504)" points="331 308 322 313"/>
   <polyline transform="matrix(.26458 0 0 .26458 -200.72 -30.504)" points="246 307"/>
   <polyline transform="matrix(.26458 0 0 .26458 -200.72 -30.504)" points="375 306"/>
   <polyline transform="matrix(.26458 0 0 .26458 -200.72 -30.504)" points="369 306"/>
   <polyline transform="matrix(.26458 0 0 .26458 -200.72 -30.504)" points="296 303"/>
   <polyline transform="matrix(.26458 0 0 .26458 -200.72 -30.504)" points="294 303"/>
   <polyline transform="matrix(.26458 0 0 .26458 -200.72 -30.504)" points="285 303 289 310"/>
   <polyline transform="matrix(.26458 0 0 .26458 -200.72 -30.504)" points="330 302"/>
   <polyline transform="matrix(.26458 0 0 .26458 -200.72 -30.504)" points="328 304"/>
   <polyline transform="matrix(.26458 0 0 .26458 -200.72 -30.504)" points="242 302 248 314"/>
   <polyline transform="matrix(.26458 0 0 .26458 -200.72 -30.504)" points="199 303 219 321"/>
   <polyline transform="matrix(.26458 0 0 .26458 -200.72 -30.504)" points="303 301 306 311"/>
   <polyline transform="matrix(.26458 0 0 .26458 -200.72 -30.504)" points="426 300"/>
   <polyline transform="matrix(.26458 0 0 .26458 -200.72 -30.504)" points="390 300"/>
   <polyline transform="matrix(.26458 0 0 .26458 -200.72 -30.504)" points="300 300"/>
   <polyline transform="matrix(.26458 0 0 .26458 -200.72 -30.504)" points="370 299 372 308"/>
   <polyline transform="matrix(.26458 0 0 .26458 -200.72 -30.504)" points="339 299"/>
   <polyline transform="matrix(.26458 0 0 .26458 -200.72 -30.504)" points="334 300"/>
   <polyline transform="matrix(.26458 0 0 .26458 -200.72 -30.504)" points="308 299"/>
   <polyline transform="matrix(.26458 0 0 .26458 -200.72 -30.504)" points="259 299 260 323"/>
   <polyline transform="matrix(.26458 0 0 .26458 -200.72 -30.504)" points="217 299"/>
   <polyline transform="matrix(.26458 0 0 .26458 -200.72 -30.504)" points="179 299"/>
   <polyline transform="matrix(.26458 0 0 .26458 -200.72 -30.504)" points="404 298"/>
   <polyline transform="matrix(.26458 0 0 .26458 -200.72 -30.504)" points="376 298"/>
   <polyline transform="matrix(.26458 0 0 .26458 -200.72 -30.504)" points="289 297"/>
   <polyline transform="matrix(.26458 0 0 .26458 -200.72 -30.504)" points="183 297"/>
   <polyline transform="matrix(.26458 0 0 .26458 -200.72 -30.504)" points="165 297"/>
   <polyline transform="matrix(.26458 0 0 .26458 -200.72 -30.504)" points="328 296"/>
   <polyline transform="matrix(.26458 0 0 .26458 -200.72 -30.504)" points="351 293 339 295"/>
   <polyline transform="matrix(.26458 0 0 .26458 -200.72 -30.504)" points="325 293 323 305"/>
   <polyline transform="matrix(.26458 0 0 .26458 -200.72 -30.504)" points="146 293"/>
   <polyline transform="matrix(.26458 0 0 .26458 -200.72 -30.504)" points="143 293"/>
   <polyline transform="matrix(.26458 0 0 .26458 -200.72 -30.504)" points="395 292"/>
   <polyline transform="matrix(.26458 0 0 .26458 -200.72 -30.504)" points="263 291 251 297"/>
  </g>
  <polyline transform="matrix(.26458 0 0 .26458 -200.72 -30.504)" points="319 290 298 295 315 300" stroke="#ffc700"/>
  <g stroke="#f00">
   <polyline transform="matrix(.26458 0 0 .26458 -200.72 -30.504)" points="387 289 382 301"/>
   <polyline transform="matrix(.26458 0 0 .26458 -200.72 -30.504)" points="353 289"/>
   <polyline transform="matrix(.26458 0 0 .26458 -200.72 -30.504)" points="168 289"/>
   <polyline transform="matrix(.26458 0 0 .26458 -200.72 -30.504)" points="147 289"/>
   <polyline transform="matrix(.26458 0 0 .26458 -200.72 -30.504)" points="139 288"/>
   <polyline transform="matrix(.26458 0 0 .26458 -200.72 -30.504)" points="263 289 275 289"/>
   <polyline transform="matrix(.26458 0 0 .26458 -200.72 -30.504)" points="163 286 175 301"/>
   <polyline transform="matrix(.26458 0 0 .26458 -200.72 -30.504)" points="313 285"/>
   <polyline transform="matrix(.26458 0 0 .26458 -200.72 -30.504)" points="385 284 376 286"/>
   <polyline transform="matrix(.26458 0 0 .26458 -200.72 -30.504)" points="355 283 346 286"/>
   <polyline transform="matrix(.26458 0 0 .26458 -200.72 -30.504)" points="334 283"/>
   <polyline transform="matrix(.26458 0 0 .26458 -200.72 -30.504)" points="177 283 187 297"/>
   <polyline transform="matrix(.26458 0 0 .26458 -200.72 -30.504)" points="144 282"/>
   <polyline transform="matrix(.26458 0 0 .26458 -200.72 -30.504)" points="268 281"/>
   <polyline transform="matrix(.26458 0 0 .26458 -200.72 -30.504)" points="331 280 325 290"/>
   <polyline transform="matrix(.26458 0 0 .26458 -200.72 -30.504)" points="310 281"/>
   <polyline transform="matrix(.26458 0 0 .26458 -200.72 -30.504)" points="299 281 277 285"/>
   <polyline transform="matrix(.26458 0 0 .26458 -200.72 -30.504)" points="134 280"/>
   <polyline transform="matrix(.26458 0 0 .26458 -200.72 -30.504)" points="378 278 417 291"/>
   <polyline transform="matrix(.26458 0 0 .26458 -200.72 -30.504)" points="352 279"/>
   <polyline transform="matrix(.26458 0 0 .26458 -200.72 -30.504)" points="288 278"/>
   <polyline transform="matrix(.26458 0 0 .26458 -200.72 -30.504)" points="188 278 196 299"/>
   <polyline transform="matrix(.26458 0 0 .26458 -200.72 -30.504)" points="415 277 419 284"/>
   <polyline transform="matrix(.26458 0 0 .26458 -200.72 -30.504)" points="346 277"/>
   <polyline transform="matrix(.26458 0 0 .26458 -200.72 -30.504)" points="320 277 319 287"/>
   <polyline transform="matrix(.26458 0 0 .26458 -200.72 -30.504)" points="254 277 253 288"/>
   <polyline transform="matrix(.26458 0 0 .26458 -200.72 -30.504)" points="233 277 232 285"/>
   <polyline transform="matrix(.26458 0 0 .26458 -200.72 -30.504)" points="365 276 357 284"/>
   <polyline transform="matrix(.26458 0 0 .26458 -200.72 -30.504)" points="227 276"/>
   <polyline transform="matrix(.26458 0 0 .26458 -200.72 -30.504)" points="167 276 174 293"/>
   <polyline transform="matrix(.26458 0 0 .26458 -200.72 -30.504)" points="374 275 373 299"/>
   <polyline transform="matrix(.26458 0 0 .26458 -200.72 -30.504)" points="340 276 332 277"/>
   <polyline transform="matrix(.26458 0 0 .26458 -200.72 -30.504)" points="217 275"/>
   <polyline transform="matrix(.26458 0 0 .26458 -200.72 -30.504)" points="146 275 160 299"/>
   <polyline transform="matrix(.26458 0 0 .26458 -200.72 -30.504)" points="194 274 194 287"/>
   <polyline transform="matrix(.26458 0 0 .26458 -200.72 -30.504)" points="129 274"/>
   <polyline transform="matrix(.26458 0 0 .26458 -200.72 -30.504)" points="151 273 161 286"/>
   <polyline transform="matrix(.26458 0 0 .26458 -200.72 -30.504)" points="225 273 234 272"/>
   <polyline transform="matrix(.26458 0 0 .26458 -200.72 -30.504)" points="170 272"/>
   <polyline transform="matrix(.26458 0 0 .26458 -200.72 -30.504)" points="144 272"/>
   <polyline transform="matrix(.26458 0 0 .26458 -200.72 -30.504)" points="279 271 271 280"/>
   <polyline transform="matrix(.26458 0 0 .26458 -200.72 -30.504)" points="403 270 412 275"/>
   <polyline transform="matrix(.26458 0 0 .26458 -200.72 -30.504)" points="245 270 237 273"/>
   <polyline transform="matrix(.26458 0 0 .26458 -200.72 -30.504)" points="364 269"/>
   <polyline transform="matrix(.26458 0 0 .26458 -200.72 -30.504)" points="328 268 322 276"/>
   <polyline transform="matrix(.26458 0 0 .26458 -200.72 -30.504)" points="136 267 138 276"/>
   <polyline transform="matrix(.26458 0 0 .26458 -200.72 -30.504)" points="208 266 214 293"/>
   <polyline transform="matrix(.26458 0 0 .26458 -200.72 -30.504)" points="125 266"/>
   <polyline transform="matrix(.26458 0 0 .26458 -200.72 -30.504)" points="138 265"/>
   <polyline transform="matrix(.26458 0 0 .26458 -200.72 -30.504)" points="272 264"/>
   <polyline transform="matrix(.26458 0 0 .26458 -200.72 -30.504)" points="233 264"/>
   <polyline transform="matrix(.26458 0 0 .26458 -200.72 -30.504)" points="382 267 397 275"/>
   <polyline transform="matrix(.26458 0 0 .26458 -200.72 -30.504)" points="306 262"/>
   <polyline transform="matrix(.26458 0 0 .26458 -200.72 -30.504)" points="213 260"/>
   <polyline transform="matrix(.26458 0 0 .26458 -200.72 -30.504)" points="329 259"/>
   <polyline transform="matrix(.26458 0 0 .26458 -200.72 -30.504)" points="159 256 154 266"/>
   <polyline transform="matrix(.26458 0 0 .26458 -200.72 -30.504)" points="261 255"/>
   <polyline transform="matrix(.26458 0 0 .26458 -200.72 -30.504)" points="209 254"/>
   <polyline transform="matrix(.26458 0 0 .26458 -200.72 -30.504)" points="346 253 340 264"/>
   <polyline transform="matrix(.26458 0 0 .26458 -200.72 -30.504)" points="329 253"/>
   <polyline transform="matrix(.26458 0 0 .26458 -200.72 -30.504)" points="292 253"/>
   <polyline transform="matrix(.26458 0 0 .26458 -200.72 -30.504)" points="291 255 235 265"/>
   <polyline transform="matrix(.26458 0 0 .26458 -200.72 -30.504)" points="148 253 147 270"/>
   <polyline transform="matrix(.26458 0 0 .26458 -200.72 -30.504)" points="304 252 276 264"/>
   <polyline transform="matrix(.26458 0 0 .26458 -200.72 -30.504)" points="406 250 418 253"/>
   <polyline transform="matrix(.26458 0 0 .26458 -200.72 -30.504)" points="319 249"/>
   <polyline transform="matrix(.26458 0 0 .26458 -200.72 -30.504)" points="306 248 237 255 220 275 237 255"/>
   <polyline transform="matrix(.26458 0 0 .26458 -200.72 -30.504)" points="176 246"/>
   <polyline transform="matrix(.26458 0 0 .26458 -200.72 -30.504)" points="145 246"/>
   <polyline transform="matrix(.26458 0 0 .26458 -200.72 -30.504)" points="142 246 137 257"/>
   <polyline transform="matrix(.26458 0 0 .26458 -200.72 -30.504)" points="119 246 125 264"/>
   <polyline transform="matrix(.26458 0 0 .26458 -200.72 -30.504)" points="127 245"/>
   <polyline transform="matrix(.26458 0 0 .26458 -200.72 -30.504)" points="399 244"/>
   <polyline transform="matrix(.26458 0 0 .26458 -200.72 -30.504)" points="246 246 236 249"/>
   <polyline transform="matrix(.26458 0 0 .26458 -200.72 -30.504)" points="362 243"/>
   <polyline transform="matrix(.26458 0 0 .26458 -200.72 -30.504)" points="246 243"/>
   <polyline transform="matrix(.26458 0 0 .26458 -200.72 -30.504)" points="238 242 226 252"/>
   <polyline transform="matrix(.26458 0 0 .26458 -200.72 -30.504)" points="227 245 208 252"/>
   <polyline transform="matrix(.26458 0 0 .26458 -200.72 -30.504)" points="249 242 295 245"/>
   <polyline transform="matrix(.26458 0 0 .26458 -200.72 -30.504)" points="151 240 150 252"/>
   <polyline transform="matrix(.26458 0 0 .26458 -200.72 -30.504)" points="165 239 162 278"/>
   <polyline transform="matrix(.26458 0 0 .26458 -200.72 -30.504)" points="143 239"/>
   <polyline transform="matrix(.26458 0 0 .26458 -200.72 -30.504)" points="123 239 124 247"/>
   <polyline transform="matrix(.26458 0 0 .26458 -200.72 -30.504)" points="366 237"/>
   <polyline transform="matrix(.26458 0 0 .26458 -200.72 -30.504)" points="167 237"/>
   <polyline transform="matrix(.26458 0 0 .26458 -200.72 -30.504)" points="371 236 372 275"/>
   <polyline transform="matrix(.26458 0 0 .26458 -200.72 -30.504)" points="124 236"/>
   <polyline transform="matrix(.26458 0 0 .26458 -200.72 -30.504)" points="306 235 329 249"/>
   <polyline transform="matrix(.26458 0 0 .26458 -200.72 -30.504)" points="143 236"/>
   <polyline transform="matrix(.26458 0 0 .26458 -200.72 -30.504)" points="272 234 240 241"/>
   <polyline transform="matrix(.26458 0 0 .26458 -200.72 -30.504)" points="136 233"/>
   <polyline transform="matrix(.26458 0 0 .26458 -200.72 -30.504)" points="144 232"/>
   <polyline transform="matrix(.26458 0 0 .26458 -200.72 -30.504)" points="315 230 289 235"/>
   <polyline transform="matrix(.26458 0 0 .26458 -200.72 -30.504)" points="249 229"/>
   <polyline transform="matrix(.26458 0 0 .26458 -200.72 -30.504)" points="137 229"/>
   <polyline transform="matrix(.26458 0 0 .26458 -200.72 -30.504)" points="123 228"/>
   <polyline transform="matrix(.26458 0 0 .26458 -200.72 -30.504)" points="257 227"/>
   <polyline transform="matrix(.26458 0 0 .26458 -200.72 -30.504)" points="140 229 158 235"/>
   <polyline transform="matrix(.26458 0 0 .26458 -200.72 -30.504)" points="285 226"/>
   <polyline transform="matrix(.26458 0 0 .26458 -200.72 -30.504)" points="278 226"/>
   <polyline transform="matrix(.26458 0 0 .26458 -200.72 -30.504)" points="262 226"/>
   <polyline transform="matrix(.26458 0 0 .26458 -200.72 -30.504)" points="137 226"/>
   <polyline transform="matrix(.26458 0 0 .26458 -200.72 -30.504)" points="388 225 392 234"/>
   <polyline transform="matrix(.26458 0 0 .26458 -200.72 -30.504)" points="248 225"/>
   <polyline transform="matrix(.26458 0 0 .26458 -200.72 -30.504)" points="134 228"/>
   <polyline transform="matrix(.26458 0 0 .26458 -200.72 -30.504)" points="410 224"/>
   <polyline transform="matrix(.26458 0 0 .26458 -200.72 -30.504)" points="240 224"/>
   <polyline transform="matrix(.26458 0 0 .26458 -200.72 -30.504)" points="115 224 110 232"/>
   <polyline transform="matrix(.26458 0 0 .26458 -200.72 -30.504)" points="262 224"/>
   <polyline transform="matrix(.26458 0 0 .26458 -200.72 -30.504)" points="231 221 219 243"/>
   <polyline transform="matrix(.26458 0 0 .26458 -200.72 -30.504)" points="375 220 371 233"/>
   <polyline transform="matrix(.26458 0 0 .26458 -200.72 -30.504)" points="362 220 367 235"/>
   <polyline transform="matrix(.26458 0 0 .26458 -200.72 -30.504)" points="379 220 388 222"/>
   <polyline transform="matrix(.26458 0 0 .26458 -200.72 -30.504)" points="289 219"/>
   <polyline transform="matrix(.26458 0 0 .26458 -200.72 -30.504)" points="278 220 287 225"/>
   <polyline transform="matrix(.26458 0 0 .26458 -200.72 -30.504)" points="245 219"/>
   <polyline transform="matrix(.26458 0 0 .26458 -200.72 -30.504)" points="364 218"/>
   <polyline transform="matrix(.26458 0 0 .26458 -200.72 -30.504)" points="139 218 148 224"/>
   <polyline transform="matrix(.26458 0 0 .26458 -200.72 -30.504)" points="134 218"/>
   <polyline transform="matrix(.26458 0 0 .26458 -200.72 -30.504)" points="242 216"/>
   <polyline transform="matrix(.26458 0 0 .26458 -200.72 -30.504)" points="234 216"/>
   <polyline transform="matrix(.26458 0 0 .26458 -200.72 -30.504)" points="230 217"/>
   <polyline transform="matrix(.26458 0 0 .26458 -200.72 -30.504)" points="268 215 271 230 287 235 271 230"/>
   <polyline transform="matrix(.26458 0 0 .26458 -200.72 -30.504)" points="260 214 256 221"/>
   <polyline transform="matrix(.26458 0 0 .26458 -200.72 -30.504)" points="129 214"/>
   <polyline transform="matrix(.26458 0 0 .26458 -200.72 -30.504)" points="207 213 199 231"/>
   <polyline transform="matrix(.26458 0 0 .26458 -200.72 -30.504)" points="157 213 164 220"/>
   <polyline transform="matrix(.26458 0 0 .26458 -200.72 -30.504)" points="363 212"/>
   <polyline transform="matrix(.26458 0 0 .26458 -200.72 -30.504)" points="226 212"/>
   <polyline transform="matrix(.26458 0 0 .26458 -200.72 -30.504)" points="358 211"/>
   <polyline transform="matrix(.26458 0 0 .26458 -200.72 -30.504)" points="258 211"/>
   <polyline transform="matrix(.26458 0 0 .26458 -200.72 -30.504)" points="368 209"/>
   <polyline transform="matrix(.26458 0 0 .26458 -200.72 -30.504)" points="131 209"/>
   <polyline transform="matrix(.26458 0 0 .26458 -200.72 -30.504)" points="110 209 103 228"/>
   <polyline transform="matrix(.26458 0 0 .26458 -200.72 -30.504)" points="391 208 386 215"/>
   <polyline transform="matrix(.26458 0 0 .26458 -200.72 -30.504)" points="351 208 357 215"/>
   <polyline transform="matrix(.26458 0 0 .26458 -200.72 -30.504)" points="257 208"/>
   <polyline transform="matrix(.26458 0 0 .26458 -200.72 -30.504)" points="244 208"/>
   <polyline transform="matrix(.26458 0 0 .26458 -200.72 -30.504)" points="424 207"/>
   <polyline transform="matrix(.26458 0 0 .26458 -200.72 -30.504)" points="221 207"/>
   <polyline transform="matrix(.26458 0 0 .26458 -200.72 -30.504)" points="420 206"/>
   <polyline transform="matrix(.26458 0 0 .26458 -200.72 -30.504)" points="318 206"/>
   <polyline transform="matrix(.26458 0 0 .26458 -200.72 -30.504)" points="183 206"/>
   <polyline transform="matrix(.26458 0 0 .26458 -200.72 -30.504)" points="226 205 234 214"/>
   <polyline transform="matrix(.26458 0 0 .26458 -200.72 -30.504)" points="432 204"/>
   <polyline transform="matrix(.26458 0 0 .26458 -200.72 -30.504)" points="358 203 361 211"/>
   <polyline transform="matrix(.26458 0 0 .26458 -200.72 -30.504)" points="186 203"/>
   <polyline transform="matrix(.26458 0 0 .26458 -200.72 -30.504)" points="393 202"/>
   <polyline transform="matrix(.26458 0 0 .26458 -200.72 -30.504)" points="320 202"/>
   <polyline transform="matrix(.26458 0 0 .26458 -200.72 -30.504)" points="190 202"/>
   <polyline transform="matrix(.26458 0 0 .26458 -200.72 -30.504)" points="427 201"/>
   <polyline transform="matrix(.26458 0 0 .26458 -200.72 -30.504)" points="404 201 405 218"/>
   <polyline transform="matrix(.26458 0 0 .26458 -200.72 -30.504)" points="220 202"/>
   <polyline transform="matrix(.26458 0 0 .26458 -200.72 -30.504)" points="89 201"/>
   <polyline transform="matrix(.26458 0 0 .26458 -200.72 -30.504)" points="388 200"/>
   <polyline transform="matrix(.26458 0 0 .26458 -200.72 -30.504)" points="280 202 271 209"/>
   <polyline transform="matrix(.26458 0 0 .26458 -200.72 -30.504)" points="278 202"/>
   <polyline transform="matrix(.26458 0 0 .26458 -200.72 -30.504)" points="212 200"/>
   <polyline transform="matrix(.26458 0 0 .26458 -200.72 -30.504)" points="101 200"/>
   <polyline transform="matrix(.26458 0 0 .26458 -200.72 -30.504)" points="270 202 257 201"/>
   <polyline transform="matrix(.26458 0 0 .26458 -200.72 -30.504)" points="260 201 269 202"/>
   <polyline transform="matrix(.26458 0 0 .26458 -200.72 -30.504)" points="363 197"/>
   <polyline transform="matrix(.26458 0 0 .26458 -200.72 -30.504)" points="418 196"/>
   <polyline transform="matrix(.26458 0 0 .26458 -200.72 -30.504)" points="127 196 135 206"/>
   <polyline transform="matrix(.26458 0 0 .26458 -200.72 -30.504)" points="413 195"/>
   <polyline transform="matrix(.26458 0 0 .26458 -200.72 -30.504)" points="310 195"/>
   <polyline transform="matrix(.26458 0 0 .26458 -200.72 -30.504)" points="388 194 377 205"/>
   <polyline transform="matrix(.26458 0 0 .26458 -200.72 -30.504)" points="359 194 361 204"/>
   <polyline transform="matrix(.26458 0 0 .26458 -200.72 -30.504)" points="251 194 248 207"/>
   <polyline transform="matrix(.26458 0 0 .26458 -200.72 -30.504)" points="195 194"/>
   <polyline transform="matrix(.26458 0 0 .26458 -200.72 -30.504)" points="187 194"/>
   <polyline transform="matrix(.26458 0 0 .26458 -200.72 -30.504)" points="132 191"/>
   <polyline transform="matrix(.26458 0 0 .26458 -200.72 -30.504)" points="412 190"/>
   <polyline transform="matrix(.26458 0 0 .26458 -200.72 -30.504)" points="387 189"/>
   <polyline transform="matrix(.26458 0 0 .26458 -200.72 -30.504)" points="270 189 280 199"/>
   <polyline transform="matrix(.26458 0 0 .26458 -200.72 -30.504)" points="263 189"/>
   <polyline transform="matrix(.26458 0 0 .26458 -200.72 -30.504)" points="199 188 190 191"/>
  </g>
  <polyline transform="matrix(.26458 0 0 .26458 -200.72 -30.504)" points="198 192 217 200 210 188" stroke="#ffb200"/>
  <g stroke="#f00">
   <polyline transform="matrix(.26458 0 0 .26458 -200.72 -30.504)" points="382 188 371 187"/>
   <polyline transform="matrix(.26458 0 0 .26458 -200.72 -30.504)" points="124 184"/>
   <polyline transform="matrix(.26458 0 0 .26458 -200.72 -30.504)" points="386 183"/>
   <polyline transform="matrix(.26458 0 0 .26458 -200.72 -30.504)" points="278 183 284 201"/>
   <polyline transform="matrix(.26458 0 0 .26458 -200.72 -30.504)" points="260 181 270 187"/>
   <polyline transform="matrix(.26458 0 0 .26458 -200.72 -30.504)" points="348 179"/>
   <polyline transform="matrix(.26458 0 0 .26458 -200.72 -30.504)" points="350 176"/>
   <polyline transform="matrix(.26458 0 0 .26458 -200.72 -30.504)" points="268 176 276 182"/>
  </g>
  <polyline transform="matrix(.26458 0 0 .26458 -200.72 -30.504)" points="232 175 226 193 242 208 229 196" stroke="#ff4800"/>
  <g stroke="#f00">
   <polyline transform="matrix(.26458 0 0 .26458 -200.72 -30.504)" points="407 174 405 199"/>
   <polyline transform="matrix(.26458 0 0 .26458 -200.72 -30.504)" points="427 173"/>
   <polyline transform="matrix(.26458 0 0 .26458 -200.72 -30.504)" points="340 172"/>
   <polyline transform="matrix(.26458 0 0 .26458 -200.72 -30.504)" points="229 170"/>
   <polyline transform="matrix(.26458 0 0 .26458 -200.72 -30.504)" points="421 170"/>
   <polyline transform="matrix(.26458 0 0 .26458 -200.72 -30.504)" points="342 169 348 175"/>
   <polyline transform="matrix(.26458 0 0 .26458 -200.72 -30.504)" points="323 169"/>
   <polyline transform="matrix(.26458 0 0 .26458 -200.72 -30.504)" points="429 167"/>
   <polyline transform="matrix(.26458 0 0 .26458 -200.72 -30.504)" points="295 171 313 169"/>
   <polyline transform="matrix(.26458 0 0 .26458 -200.72 -30.504)" points="432 166"/>
   <polyline transform="matrix(.26458 0 0 .26458 -200.72 -30.504)" points="318 166"/>
   <polyline transform="matrix(.26458 0 0 .26458 -200.72 -30.504)" points="434 165"/>
   <polyline transform="matrix(.26458 0 0 .26458 -200.72 -30.504)" points="189 165"/>
   <polyline transform="matrix(.26458 0 0 .26458 -200.72 -30.504)" points="420 164"/>
   <polyline transform="matrix(.26458 0 0 .26458 -200.72 -30.504)" points="319 164 341 167"/>
   <polyline transform="matrix(.26458 0 0 .26458 -200.72 -30.504)" points="216 164"/>
   <polyline transform="matrix(.26458 0 0 .26458 -200.72 -30.504)" points="119 164"/>
   <polyline transform="matrix(.26458 0 0 .26458 -200.72 -30.504)" points="358 162 362 195"/>
   <polyline transform="matrix(.26458 0 0 .26458 -200.72 -30.504)" points="431 161"/>
   <polyline transform="matrix(.26458 0 0 .26458 -200.72 -30.504)" points="349 161"/>
   <polyline transform="matrix(.26458 0 0 .26458 -200.72 -30.504)" points="253 161"/>
   <polyline transform="matrix(.26458 0 0 .26458 -200.72 -30.504)" points="123 161"/>
   <polyline transform="matrix(.26458 0 0 .26458 -200.72 -30.504)" points="415 160 407 166"/>
   <polyline transform="matrix(.26458 0 0 .26458 -200.72 -30.504)" points="346 159"/>
   <polyline transform="matrix(.26458 0 0 .26458 -200.72 -30.504)" points="172 159 189 181"/>
   <polyline transform="matrix(.26458 0 0 .26458 -200.72 -30.504)" points="355 158"/>
   <polyline transform="matrix(.26458 0 0 .26458 -200.72 -30.504)" points="180 158"/>
   <polyline transform="matrix(.26458 0 0 .26458 -200.72 -30.504)" points="422 157"/>
   <polyline transform="matrix(.26458 0 0 .26458 -200.72 -30.504)" points="191 157 200 169"/>
   <polyline transform="matrix(.26458 0 0 .26458 -200.72 -30.504)" points="282 153"/>
   <polyline transform="matrix(.26458 0 0 .26458 -200.72 -30.504)" points="197 153 204 167"/>
   <polyline transform="matrix(.26458 0 0 .26458 -200.72 -30.504)" points="188 153 177 155"/>
   <polyline transform="matrix(.26458 0 0 .26458 -200.72 -30.504)" points="205 152 210 164"/>
   <polyline transform="matrix(.26458 0 0 .26458 -200.72 -30.504)" points="323 151"/>
   <polyline transform="matrix(.26458 0 0 .26458 -200.72 -30.504)" points="363 150"/>
   <polyline transform="matrix(.26458 0 0 .26458 -200.72 -30.504)" points="242 150"/>
   <polyline transform="matrix(.26458 0 0 .26458 -200.72 -30.504)" points="222 150 221 160"/>
   <polyline transform="matrix(.26458 0 0 .26458 -200.72 -30.504)" points="347 149"/>
   <polyline transform="matrix(.26458 0 0 .26458 -200.72 -30.504)" points="344 149 348 158"/>
   <polyline transform="matrix(.26458 0 0 .26458 -200.72 -30.504)" points="318 149"/>
   <polyline transform="matrix(.26458 0 0 .26458 -200.72 -30.504)" points="218 149"/>
   <polyline transform="matrix(.26458 0 0 .26458 -200.72 -30.504)" points="209 149 213 161"/>
   <polyline transform="matrix(.26458 0 0 .26458 -200.72 -30.504)" points="170 149 177 153"/>
   <polyline transform="matrix(.26458 0 0 .26458 -200.72 -30.504)" points="411 148"/>
   <polyline transform="matrix(.26458 0 0 .26458 -200.72 -30.504)" points="127 148 120 160"/>
   <polyline transform="matrix(.26458 0 0 .26458 -200.72 -30.504)" points="280 147"/>
   <polyline transform="matrix(.26458 0 0 .26458 -200.72 -30.504)" points="197 148"/>
   <polyline transform="matrix(.26458 0 0 .26458 -200.72 -30.504)" points="184 146"/>
   <polyline transform="matrix(.26458 0 0 .26458 -200.72 -30.504)" points="271 145"/>
   <polyline transform="matrix(.26458 0 0 .26458 -200.72 -30.504)" points="232 145 234 174"/>
   <polyline transform="matrix(.26458 0 0 .26458 -200.72 -30.504)" points="345 144"/>
   <polyline transform="matrix(.26458 0 0 .26458 -200.72 -30.504)" points="416 142"/>
   <polyline transform="matrix(.26458 0 0 .26458 -200.72 -30.504)" points="315 145 327 142"/>
   <polyline transform="matrix(.26458 0 0 .26458 -200.72 -30.504)" points="130 142"/>
   <polyline transform="matrix(.26458 0 0 .26458 -200.72 -30.504)" points="282 140"/>
   <polyline transform="matrix(.26458 0 0 .26458 -200.72 -30.504)" points="261 140 266 155"/>
   <polyline transform="matrix(.26458 0 0 .26458 -200.72 -30.504)" points="352 139 358 155"/>
   <polyline transform="matrix(.26458 0 0 .26458 -200.72 -30.504)" points="415 138 404 148 412 160 404 148"/>
   <polyline transform="matrix(.26458 0 0 .26458 -200.72 -30.504)" points="311 137 306 153"/>
   <polyline transform="matrix(.26458 0 0 .26458 -200.72 -30.504)" points="231 137 241 141"/>
   <polyline transform="matrix(.26458 0 0 .26458 -200.72 -30.504)" points="296 136 295 145"/>
   <polyline transform="matrix(.26458 0 0 .26458 -200.72 -30.504)" points="407 135"/>
   <polyline transform="matrix(.26458 0 0 .26458 -200.72 -30.504)" points="309 137 293 149"/>
   <polyline transform="matrix(.26458 0 0 .26458 -200.72 -30.504)" points="283 135"/>
   <polyline transform="matrix(.26458 0 0 .26458 -200.72 -30.504)" points="265 135 270 143"/>
   <polyline transform="matrix(.26458 0 0 .26458 -200.72 -30.504)" points="238 135"/>
   <polyline transform="matrix(.26458 0 0 .26458 -200.72 -30.504)" points="177 135"/>
   <polyline transform="matrix(.26458 0 0 .26458 -200.72 -30.504)" points="295 134 289 149"/>
   <polyline transform="matrix(.26458 0 0 .26458 -200.72 -30.504)" points="233 134"/>
   <polyline transform="matrix(.26458 0 0 .26458 -200.72 -30.504)" points="299 132"/>
   <polyline transform="matrix(.26458 0 0 .26458 -200.72 -30.504)" points="248 132 249 144"/>
   <polyline transform="matrix(.26458 0 0 .26458 -200.72 -30.504)" points="224 132"/>
   <polyline transform="matrix(.26458 0 0 .26458 -200.72 -30.504)" points="181 132"/>
   <polyline transform="matrix(.26458 0 0 .26458 -200.72 -30.504)" points="127 132"/>
   <polyline transform="matrix(.26458 0 0 .26458 -200.72 -30.504)" points="417 131"/>
   <polyline transform="matrix(.26458 0 0 .26458 -200.72 -30.504)" points="309 131"/>
   <polyline transform="matrix(.26458 0 0 .26458 -200.72 -30.504)" points="255 131 263 136"/>
   <polyline transform="matrix(.26458 0 0 .26458 -200.72 -30.504)" points="244 131"/>
   <polyline transform="matrix(.26458 0 0 .26458 -200.72 -30.504)" points="236 130"/>
   <polyline transform="matrix(.26458 0 0 .26458 -200.72 -30.504)" points="188 130"/>
   <polyline transform="matrix(.26458 0 0 .26458 -200.72 -30.504)" points="345 129 347 143"/>
   <polyline transform="matrix(.26458 0 0 .26458 -200.72 -30.504)" points="275 129"/>
   <polyline transform="matrix(.26458 0 0 .26458 -200.72 -30.504)" points="249 129"/>
   <polyline transform="matrix(.26458 0 0 .26458 -200.72 -30.504)" points="246 128"/>
   <polyline transform="matrix(.26458 0 0 .26458 -200.72 -30.504)" points="285 128 273 141"/>
   <polyline transform="matrix(.26458 0 0 .26458 -200.72 -30.504)" points="232 127"/>
   <polyline transform="matrix(.26458 0 0 .26458 -200.72 -30.504)" points="206 127 181 140"/>
   <polyline transform="matrix(.26458 0 0 .26458 -200.72 -30.504)" points="356 126 358 136"/>
   <polyline transform="matrix(.26458 0 0 .26458 -200.72 -30.504)" points="312 127 327 139"/>
   <polyline transform="matrix(.26458 0 0 .26458 -200.72 -30.504)" points="313 127"/>
   <polyline transform="matrix(.26458 0 0 .26458 -200.72 -30.504)" points="255 126"/>
   <polyline transform="matrix(.26458 0 0 .26458 -200.72 -30.504)" points="218 126 230 126"/>
   <polyline transform="matrix(.26458 0 0 .26458 -200.72 -30.504)" points="164 126 193 300"/>
   <polyline transform="matrix(.26458 0 0 .26458 -200.72 -30.504)" points="310 125 292 127"/>
   <polyline transform="matrix(.26458 0 0 .26458 -200.72 -30.504)" points="213 125"/>
   <polyline transform="matrix(.26458 0 0 .26458 -200.72 -30.504)" points="418 124 429 160"/>
   <polyline transform="matrix(.26458 0 0 .26458 -200.72 -30.504)" points="290 124"/>
   <polyline transform="matrix(.26458 0 0 .26458 -200.72 -30.504)" points="222 124"/>
   <polyline transform="matrix(.26458 0 0 .26458 -200.72 -30.504)" points="286 123"/>
   <polyline transform="matrix(.26458 0 0 .26458 -200.72 -30.504)" points="260 123"/>
   <polyline transform="matrix(.26458 0 0 .26458 -200.72 -30.504)" points="415 121"/>
   <polyline transform="matrix(.26458 0 0 .26458 -200.72 -30.504)" points="331 121"/>
   <polyline transform="matrix(.26458 0 0 .26458 -200.72 -30.504)" points="235 121"/>
   <polyline transform="matrix(.26458 0 0 .26458 -200.72 -30.504)" points="200 121"/>
   <polyline transform="matrix(.26458 0 0 .26458 -200.72 -30.504)" points="169 121 167 129"/>
   <polyline transform="matrix(.26458 0 0 .26458 -200.72 -30.504)" points="134 121 129 140"/>
   <polyline transform="matrix(.26458 0 0 .26458 -200.72 -30.504)" points="339 120"/>
   <polyline transform="matrix(.26458 0 0 .26458 -200.72 -30.504)" points="416 119"/>
   <polyline transform="matrix(.26458 0 0 .26458 -200.72 -30.504)" points="309 119"/>
   <polyline transform="matrix(.26458 0 0 .26458 -200.72 -30.504)" points="308 120"/>
   <polyline transform="matrix(.26458 0 0 .26458 -200.72 -30.504)" points="208 119"/>
   <polyline transform="matrix(.26458 0 0 .26458 -200.72 -30.504)" points="281 118"/>
   <polyline transform="matrix(.26458 0 0 .26458 -200.72 -30.504)" points="248 118 244 125"/>
   <polyline transform="matrix(.26458 0 0 .26458 -200.72 -30.504)" points="215 118"/>
   <polyline transform="matrix(.26458 0 0 .26458 -200.72 -30.504)" points="213 118"/>
   <polyline transform="matrix(.26458 0 0 .26458 -200.72 -30.504)" points="290 116"/>
   <polyline transform="matrix(.26458 0 0 .26458 -200.72 -30.504)" points="230 116"/>
   <polyline transform="matrix(.26458 0 0 .26458 -200.72 -30.504)" points="135 115"/>
   <polyline transform="matrix(.26458 0 0 .26458 -200.72 -30.504)" points="411 114"/>
   <polyline transform="matrix(.26458 0 0 .26458 -200.72 -30.504)" points="311 114"/>
   <polyline transform="matrix(.26458 0 0 .26458 -200.72 -30.504)" points="274 113 286 114"/>
   <polyline transform="matrix(.26458 0 0 .26458 -200.72 -30.504)" points="183 114 199 119"/>
   <polyline transform="matrix(.26458 0 0 .26458 -200.72 -30.504)" points="426 112"/>
   <polyline transform="matrix(.26458 0 0 .26458 -200.72 -30.504)" points="319 112"/>
   <polyline transform="matrix(.26458 0 0 .26458 -200.72 -30.504)" points="271 112"/>
   <polyline transform="matrix(.26458 0 0 .26458 -200.72 -30.504)" points="259 112 248 121"/>
   <polyline transform="matrix(.26458 0 0 .26458 -200.72 -30.504)" points="407 111"/>
   <polyline transform="matrix(.26458 0 0 .26458 -200.72 -30.504)" points="303 110 290 114"/>
   <polyline transform="matrix(.26458 0 0 .26458 -200.72 -30.504)" points="178 110 173 119"/>
   <polyline transform="matrix(.26458 0 0 .26458 -200.72 -30.504)" points="173 110"/>
   <polyline transform="matrix(.26458 0 0 .26458 -200.72 -30.504)" points="270 109 258 128"/>
   <polyline transform="matrix(.26458 0 0 .26458 -200.72 -30.504)" points="328 108 331 117"/>
   <polyline transform="matrix(.26458 0 0 .26458 -200.72 -30.504)" points="313 107"/>
   <polyline transform="matrix(.26458 0 0 .26458 -200.72 -30.504)" points="192 109 206 119"/>
   <polyline transform="matrix(.26458 0 0 .26458 -200.72 -30.504)" points="182 107"/>
   <polyline transform="matrix(.26458 0 0 .26458 -200.72 -30.504)" points="176 107"/>
   <polyline transform="matrix(.26458 0 0 .26458 -200.72 -30.504)" points="410 106"/>
   <polyline transform="matrix(.26458 0 0 .26458 -200.72 -30.504)" points="396 106 404 110"/>
   <polyline transform="matrix(.26458 0 0 .26458 -200.72 -30.504)" points="316 104"/>
   <polyline transform="matrix(.26458 0 0 .26458 -200.72 -30.504)" points="285 104"/>
   <polyline transform="matrix(.26458 0 0 .26458 -200.72 -30.504)" points="218 104 216 113"/>
   <polyline transform="matrix(.26458 0 0 .26458 -200.72 -30.504)" points="304 103 309 117"/>
   <polyline transform="matrix(.26458 0 0 .26458 -200.72 -30.504)" points="221 103 224 117"/>
   <polyline transform="matrix(.26458 0 0 .26458 -200.72 -30.504)" points="308 102"/>
   <polyline transform="matrix(.26458 0 0 .26458 -200.72 -30.504)" points="278 102 272 110"/>
   <polyline transform="matrix(.26458 0 0 .26458 -200.72 -30.504)" points="265 102"/>
   <polyline transform="matrix(.26458 0 0 .26458 -200.72 -30.504)" points="194 102"/>
   <polyline transform="matrix(.26458 0 0 .26458 -200.72 -30.504)" points="397 101"/>
   <polyline transform="matrix(.26458 0 0 .26458 -200.72 -30.504)" points="199 101"/>
   <polyline transform="matrix(.26458 0 0 .26458 -200.72 -30.504)" points="186 104"/>
   <polyline transform="matrix(.26458 0 0 .26458 -200.72 -30.504)" points="402 100"/>
   <polyline transform="matrix(.26458 0 0 .26458 -200.72 -30.504)" points="167 102 176 101"/>
   <polyline transform="matrix(.26458 0 0 .26458 -200.72 -30.504)" points="289 99 280 105"/>
   <polyline transform="matrix(.26458 0 0 .26458 -200.72 -30.504)" points="196 99"/>
   <polyline transform="matrix(.26458 0 0 .26458 -200.72 -30.504)" points="308 98"/>
   <polyline transform="matrix(.26458 0 0 .26458 -200.72 -30.504)" points="266 97"/>
   <polyline transform="matrix(.26458 0 0 .26458 -200.72 -30.504)" points="216 97"/>
   <polyline transform="matrix(.26458 0 0 .26458 -200.72 -30.504)" points="344 96 348 129"/>
   <polyline transform="matrix(.26458 0 0 .26458 -200.72 -30.504)" points="313 96"/>
   <polyline transform="matrix(.26458 0 0 .26458 -200.72 -30.504)" points="279 96"/>
   <polyline transform="matrix(.26458 0 0 .26458 -200.72 -30.504)" points="339 95 336 113"/>
   <polyline transform="matrix(.26458 0 0 .26458 -200.72 -30.504)" points="260 95"/>
   <polyline transform="matrix(.26458 0 0 .26458 -200.72 -30.504)" points="203 95"/>
   <polyline transform="matrix(.26458 0 0 .26458 -200.72 -30.504)" points="176 95"/>
   <polyline transform="matrix(.26458 0 0 .26458 -200.72 -30.504)" points="187 94"/>
   <polyline transform="matrix(.26458 0 0 .26458 -200.72 -30.504)" points="388 93 397 99"/>
   <polyline transform="matrix(.26458 0 0 .26458 -200.72 -30.504)" points="213 93"/>
   <polyline transform="matrix(.26458 0 0 .26458 -200.72 -30.504)" points="128 93 132 100"/>
   <polyline transform="matrix(.26458 0 0 .26458 -200.72 -30.504)" points="338 92"/>
   <polyline transform="matrix(.26458 0 0 .26458 -200.72 -30.504)" points="266 92"/>
   <polyline transform="matrix(.26458 0 0 .26458 -200.72 -30.504)" points="252 93"/>
   <polyline transform="matrix(.26458 0 0 .26458 -200.72 -30.504)" points="125 92 127 126"/>
   <polyline transform="matrix(.26458 0 0 .26458 -200.72 -30.504)" points="318 91 328 106"/>
   <polyline transform="matrix(.26458 0 0 .26458 -200.72 -30.504)" points="168 90 161 126"/>
   <polyline transform="matrix(.26458 0 0 .26458 -200.72 -30.504)" points="387 89"/>
   <polyline transform="matrix(.26458 0 0 .26458 -200.72 -30.504)" points="342 89"/>
   <polyline transform="matrix(.26458 0 0 .26458 -200.72 -30.504)" points="208 89 201 93"/>
   <polyline transform="matrix(.26458 0 0 .26458 -200.72 -30.504)" points="280 88"/>
   <polyline transform="matrix(.26458 0 0 .26458 -200.72 -30.504)" points="318 87 313 94"/>
   <polyline transform="matrix(.26458 0 0 .26458 -200.72 -30.504)" points="314 85"/>
   <polyline transform="matrix(.26458 0 0 .26458 -200.72 -30.504)" points="307 85"/>
   <polyline transform="matrix(.26458 0 0 .26458 -200.72 -30.504)" points="279 84"/>
   <polyline transform="matrix(.26458 0 0 .26458 -200.72 -30.504)" points="321 83 325 93"/>
   <polyline transform="matrix(.26458 0 0 .26458 -200.72 -30.504)" points="282 83 304 96"/>
   <polyline transform="matrix(.26458 0 0 .26458 -200.72 -30.504)" points="170 83 175 93"/>
   <polyline transform="matrix(.26458 0 0 .26458 -200.72 -30.504)" points="128 83"/>
   <polyline transform="matrix(.26458 0 0 .26458 -200.72 -30.504)" points="253 82"/>
   <polyline transform="matrix(.26458 0 0 .26458 -200.72 -30.504)" points="178 82 184 99"/>
   <polyline transform="matrix(.26458 0 0 .26458 -200.72 -30.504)" points="376 79 384 88"/>
   <polyline transform="matrix(.26458 0 0 .26458 -200.72 -30.504)" points="282 79"/>
   <polyline transform="matrix(.26458 0 0 .26458 -200.72 -30.504)" points="181 79 186 86"/>
   <polyline transform="matrix(.26458 0 0 .26458 -200.72 -30.504)" points="290 78"/>
   <polyline transform="matrix(.26458 0 0 .26458 -200.72 -30.504)" points="381 77"/>
   <polyline transform="matrix(.26458 0 0 .26458 -200.72 -30.504)" points="138 77 132 94"/>
   <polyline transform="matrix(.26458 0 0 .26458 -200.72 -30.504)" points="277 79 249 77"/>
   <polyline transform="matrix(.26458 0 0 .26458 -200.72 -30.504)" points="248 75 220 77"/>
   <polyline transform="matrix(.26458 0 0 .26458 -200.72 -30.504)" points="215 73 215 84"/>
   <polyline transform="matrix(.26458 0 0 .26458 -200.72 -30.504)" points="283 71"/>
   <polyline transform="matrix(.26458 0 0 .26458 -200.72 -30.504)" points="217 71"/>
   <polyline transform="matrix(.26458 0 0 .26458 -200.72 -30.504)" points="373 68 379 78"/>
   <polyline transform="matrix(.26458 0 0 .26458 -200.72 -30.504)" points="310 68 311 86"/>
   <polyline transform="matrix(.26458 0 0 .26458 -200.72 -30.504)" points="139 64"/>
   <polyline transform="matrix(.26458 0 0 .26458 -200.72 -30.504)" points="213 63"/>
   <polyline transform="matrix(.26458 0 0 .26458 -200.72 -30.504)" points="144 63 138 75"/>
   <polyline transform="matrix(.26458 0 0 .26458 -200.72 -30.504)" points="364 58 373 66"/>
   <polyline transform="matrix(.26458 0 0 .26458 -200.72 -30.504)" points="139 53 138 61"/>
   <polyline transform="matrix(.26458 0 0 .26458 -200.72 -30.504)" points="148 51 144 60"/>
   <polyline transform="matrix(.26458 0 0 .26458 -200.72 -30.504)" points="343 31 363 55"/>
   <polyline transform="matrix(.26458 0 0 .26458 -200.72 -30.504)" points="164 31 150 50"/>
   <polyline transform="matrix(.26458 0 0 .26458 -200.72 -30.504)" points="152 30"/>
   <polyline transform="matrix(.26458 0 0 .26458 -200.72 -30.504)" points="185 25 175 29"/>
   <polyline transform="matrix(.26458 0 0 .26458 -200.72 -30.504)" points="328 19 342 29"/>
   <polyline transform="matrix(.26458 0 0 .26458 -200.72 -30.504)" points="161 15"/>
   <polyline transform="matrix(.26458 0 0 .26458 -200.72 -30.504)" points="166 8"/>
   <polyline transform="matrix(.26458 0 0 .26458 -200.72 -30.504)" points="326 6"/>
   <polyline transform="matrix(.26458 0 0 .26458 -200.72 -30.504)" points="304 2 326 18"/>
   <polyline transform="matrix(.26458 0 0 .26458 -200.72 -30.504)" points="206 2"/>
   <polyline transform="matrix(.26458 0 0 .26458 -200.72 -30.504)" points="196 1 165 28"/>
  </g>
 </g>
</svg>
