<svg xmlns="http://www.w3.org/2000/svg" width="48" height="48" viewBox="0 0 12.7 12.7">
  <defs/>
  <defs>
    <linearGradient id="icon-cancel_svg__a" x1="-1246.3" x2="-1005.1" y1="175.66" y2="175.66" gradientTransform="matrix(.0467 0 0 .0467 115.41 71.775)" gradientUnits="userSpaceOnUse">
      <stop offset="0" stop-color="#dc3d00" stop-opacity=".743"/>
    </linearGradient>
    <filter id="icon-cancel_svg__b" width="1.095" height="1.097" x="-.048" y="-.048" color-interpolation-filters="sRGB">
      <feGaussianBlur stdDeviation="1.304"/>
    </filter>
  </defs>
  <g stroke-linecap="round" stroke-linejoin="round">
    <path fill="#03f611" fill-opacity=".439" stroke="#f20b00" stroke-opacity=".984" stroke-width=".277" d="M.919 6.372L.92.717l11.111.002-.001 5.655-.001 5.656-11.111-.003z" opacity=".879" paint-order="markers fill stroke"/>
    <g fill-rule="evenodd" stroke-opacity=".889" paint-order="stroke markers fill">
      <path fill="#0a1dd3" stroke="#001000" stroke-width=".454" d="M1.07 6.32V.849h10.809v10.943H1.07zm6.972 2.566L9.36 10.1l.795-.795L7.61 6.787l2.437-2.616-.38-.397-.38-.396-2.55 2.542L5.54 4.72c-.658-.66-1.261-1.201-1.34-1.201-.08 0-.306.167-.502.372l-.356.372 2.53 2.52-.972 1.003c-1.605 1.656-1.541 1.54-1.09 2.01l.386.403L6.724 7.67z"/>
      <path fill="#0ac0d3" stroke="url(#icon-cancel_svg__a)" stroke-width="1.284" d="M57.426 79.979v-5.471h10.809V85.45H57.426zm4.337 2.669c.657-.66 1.237-1.201 1.287-1.201.05 0 .646.51 1.323 1.134.677.624 1.271 1.134 1.32 1.134.05 0 .266-.183.48-.407l.39-.407-1.232-1.213c-.678-.667-1.233-1.24-1.233-1.274 0-.034.51-.604 1.135-1.266.623-.663 1.132-1.242 1.13-1.288-.004-.046-.153-.263-.332-.483l-.327-.4-1.239 1.234c-.681.679-1.3 1.234-1.373 1.234-.074 0-.642-.51-1.262-1.134-.62-.624-1.194-1.134-1.273-1.134-.08 0-.308.17-.507.377l-.362.378 1.204 1.184c.663.65 1.205 1.248 1.205 1.327 0 .079-.455.592-1.01 1.14-1.304 1.288-1.343 1.363-.971 1.865.163.22.331.4.374.4.043 0 .616-.54 1.273-1.2z" transform="translate(-56.416 -73.6)"/>
    </g>
    <path fill="#03f611" fill-opacity=".439" stroke="#f20b00" stroke-opacity=".984" stroke-width="1.567" d="M-331.34 46.649V14.235h65.581v64.827h-65.581zm61.812 0V17.627h-58.42V75.67h58.42z" filter="url(#icon-cancel_svg__b)" opacity=".879" paint-order="markers fill stroke" transform="translate(59.054 -1.885) scale(.17653)"/>
  </g>
</svg>
