<svg xmlns="http://www.w3.org/2000/svg" width="32" height="32" viewBox="0 0 16 16">
  <defs/>
  <defs>
    <style id="current-color-scheme" type="text/css">
    </style>
  </defs>
  <path fill="currentColor" d="M11.004 3.982a1 1 0 00-.707.293L8.004 6.568 5.72 4.285a1 1 0 00-.01-.01 1 1 0 00-.701-.289L5 4a1 1 0 00-1 1 1 1 0 00.293.707L6.586 8l-2.293 2.293a1 1 0 00-.29.7 1 1 0 001 1 1 1 0 00.708-.294l2.293-2.293 2.283 2.283a1 1 0 00.717.303 1 1 0 001-1 1 1 0 00-.293-.707l-2.3-2.299 2.282-2.283a1 1 0 00.31-.72 1 1 0 00-1-1z" color="#eb0c00"/>
</svg>
