<svg xmlns="http://www.w3.org/2000/svg" xmlns:osb="http://www.openswatchbook.org/uri/2009/osb" xmlns:xlink="http://www.w3.org/1999/xlink" width="48" height="48" viewBox="0 0 12.7 12.7">
  <defs/>
  <defs>
    <linearGradient id="icon-add_svg__h" x1="-415.46" x2="-349.69" y1="46.838" y2="46.838" gradientUnits="userSpaceOnUse" href="#icon-add_svg__a"/>
    <linearGradient id="icon-add_svg__a" osb:paint="solid">
      <stop offset="0" stop-color="#141000"/>
    </linearGradient>
    <linearGradient id="icon-add_svg__i" x1="-415.9" x2="-349.13" y1="46.78" y2="46.78" gradientUnits="userSpaceOnUse" href="#icon-add_svg__b"/>
    <linearGradient id="icon-add_svg__b" osb:paint="solid">
      <stop offset="0" stop-color="#f20b00"/>
    </linearGradient>
    <linearGradient id="icon-add_svg__j" x1="-414.77" x2="-350.26" y1="46.78" y2="46.78" gradientUnits="userSpaceOnUse" href="#icon-add_svg__b"/>
    <linearGradient id="icon-add_svg__l" x1="-1566.3" x2="-1325.1" y1="177.09" y2="177.09" gradientUnits="userSpaceOnUse" href="#icon-add_svg__c"/>
    <linearGradient id="icon-add_svg__c" osb:paint="solid">
      <stop offset="0" stop-color="#0ae000"/>
    </linearGradient>
    <linearGradient id="icon-add_svg__m" x1="-1532" x2="-1362.7" y1="175.54" y2="175.54" gradientUnits="userSpaceOnUse" href="#icon-add_svg__c"/>
    <linearGradient id="icon-add_svg__n" x1="-1532" x2="-1362.7" y1="175.54" y2="175.54" gradientUnits="userSpaceOnUse" href="#icon-add_svg__d"/>
    <linearGradient id="icon-add_svg__d" osb:paint="solid">
      <stop offset="0" stop-color="#c5e000"/>
    </linearGradient>
    <linearGradient id="icon-add_svg__o" x1="-1532" x2="-1362.7" y1="175.54" y2="175.54" gradientUnits="userSpaceOnUse" href="#icon-add_svg__d"/>
    <linearGradient id="icon-add_svg__p" x1="-1532" x2="-1362.7" y1="175.53" y2="175.53" gradientUnits="userSpaceOnUse" href="#icon-add_svg__d"/>
    <linearGradient id="icon-add_svg__q" x1="-1532.1" x2="-1362.7" y1="175.46" y2="175.46" gradientUnits="userSpaceOnUse" href="#icon-add_svg__d"/>
    <linearGradient id="icon-add_svg__r" x1="-1532" x2="-1362.7" y1="175.45" y2="175.45" gradientUnits="userSpaceOnUse" href="#icon-add_svg__d"/>
    <linearGradient id="icon-add_svg__s" x1="-1532" x2="-1362.7" y1="175.51" y2="175.51" gradientUnits="userSpaceOnUse" href="#icon-add_svg__d"/>
    <linearGradient id="icon-add_svg__t" x1="-1532.2" x2="-1362.7" y1="175.65" y2="175.65" gradientUnits="userSpaceOnUse" href="#icon-add_svg__d"/>
    <linearGradient id="icon-add_svg__u" x1="-1532" x2="-1362.7" y1="175.92" y2="175.92" gradientUnits="userSpaceOnUse" href="#icon-add_svg__d"/>
    <linearGradient id="icon-add_svg__v" x1="-1531.7" x2="-1362.7" y1="176.04" y2="176.04" gradientUnits="userSpaceOnUse" href="#icon-add_svg__d"/>
    <linearGradient id="icon-add_svg__w" x1="-1531.4" x2="-1362.7" y1="176.25" y2="176.25" gradientUnits="userSpaceOnUse" href="#icon-add_svg__d"/>
    <linearGradient id="icon-add_svg__x" x1="-1531" x2="-1362.7" y1="176.57" y2="176.57" gradientUnits="userSpaceOnUse" href="#icon-add_svg__d"/>
    <linearGradient id="icon-add_svg__y" x1="-1530.5" x2="-1362.7" y1="176.75" y2="176.75" gradientUnits="userSpaceOnUse" href="#icon-add_svg__d"/>
    <linearGradient id="icon-add_svg__z" x1="-1530.6" x2="-1362.7" y1="177.13" y2="177.13" gradientUnits="userSpaceOnUse" href="#icon-add_svg__d"/>
    <linearGradient id="icon-add_svg__A" x1="-1530.4" x2="-1362.7" y1="177.43" y2="177.43" gradientUnits="userSpaceOnUse" href="#icon-add_svg__d"/>
    <linearGradient id="icon-add_svg__B" x1="-1529.8" x2="-1362.7" y1="177.52" y2="177.52" gradientUnits="userSpaceOnUse" href="#icon-add_svg__d"/>
    <linearGradient id="icon-add_svg__C" x1="-1529.4" x2="-1362.7" y1="177.82" y2="177.82" gradientUnits="userSpaceOnUse" href="#icon-add_svg__d"/>
    <linearGradient id="icon-add_svg__D" x1="-1529" x2="-1362.7" y1="178.18" y2="178.18" gradientUnits="userSpaceOnUse" href="#icon-add_svg__d"/>
    <linearGradient id="icon-add_svg__E" x1="-1528.6" x2="-1362.7" y1="178.37" y2="178.37" gradientUnits="userSpaceOnUse" href="#icon-add_svg__d"/>
    <linearGradient id="icon-add_svg__F" x1="-1528.2" x2="-1362.7" y1="178.95" y2="178.95" gradientUnits="userSpaceOnUse" href="#icon-add_svg__d"/>
    <linearGradient id="icon-add_svg__G" x1="-1527.3" x2="-1362.7" y1="180.07" y2="180.07" gradientUnits="userSpaceOnUse" href="#icon-add_svg__d"/>
    <linearGradient id="icon-add_svg__H" x1="-1526.6" x2="-1362.7" y1="180.69" y2="180.69" gradientUnits="userSpaceOnUse" href="#icon-add_svg__d"/>
    <linearGradient id="icon-add_svg__I" x1="-1525.4" x2="-1362.7" y1="182.96" y2="182.96" gradientUnits="userSpaceOnUse" href="#icon-add_svg__d"/>
    <linearGradient id="icon-add_svg__J" x1="-1533.4" x2="-1361.6" y1="175.55" y2="175.55" gradientUnits="userSpaceOnUse" href="#icon-add_svg__d"/>
    <linearGradient id="icon-add_svg__K" x1="-1460.3" x2="-1358.2" y1="214.02" y2="214.02" gradientUnits="userSpaceOnUse" href="#icon-add_svg__d"/>
    <linearGradient id="icon-add_svg__L" x1="-1562.1" x2="-1328.8" y1="177.05" y2="177.05" gradientUnits="userSpaceOnUse" href="#icon-add_svg__d"/>
    <linearGradient id="icon-add_svg__M" x1="-1521.2" x2="-1364.2" y1="188.06" y2="188.06" gradientUnits="userSpaceOnUse" href="#icon-add_svg__d"/>
    <linearGradient id="icon-add_svg__N" x1="-1517.4" x2="-1364.2" y1="190.37" y2="190.37" gradientUnits="userSpaceOnUse" href="#icon-add_svg__d"/>
    <linearGradient id="icon-add_svg__O" x1="-1512.8" x2="-1364.2" y1="192.64" y2="192.64" gradientUnits="userSpaceOnUse" href="#icon-add_svg__d"/>
    <linearGradient id="icon-add_svg__P" x1="-1507.1" x2="-1364.2" y1="194.95" y2="194.95" gradientUnits="userSpaceOnUse" href="#icon-add_svg__d"/>
    <linearGradient id="icon-add_svg__Q" x1="-1502.4" x2="-1364.1" y1="196.86" y2="196.86" gradientUnits="userSpaceOnUse" href="#icon-add_svg__d"/>
    <linearGradient id="icon-add_svg__R" x1="-1499.9" x2="-1364.1" y1="197.51" y2="197.51" gradientUnits="userSpaceOnUse" href="#icon-add_svg__d"/>
    <linearGradient id="icon-add_svg__S" x1="-1497" x2="-1364.5" y1="199.27" y2="199.27" gradientUnits="userSpaceOnUse" href="#icon-add_svg__d"/>
    <linearGradient id="icon-add_svg__T" x1="-1495.2" x2="-1365.2" y1="200.43" y2="200.43" gradientUnits="userSpaceOnUse" href="#icon-add_svg__d"/>
    <linearGradient id="icon-add_svg__U" x1="-1411.5" x2="-1406.1" y1="168.71" y2="168.71" gradientUnits="userSpaceOnUse" href="#icon-add_svg__d"/>
    <linearGradient id="icon-add_svg__V" x1="-1491.6" x2="-1365.5" y1="201.79" y2="201.79" gradientUnits="userSpaceOnUse" href="#icon-add_svg__d"/>
    <linearGradient id="icon-add_svg__W" x1="-1488.7" x2="-1365.9" y1="202.32" y2="202.32" gradientUnits="userSpaceOnUse" href="#icon-add_svg__d"/>
    <linearGradient id="icon-add_svg__X" x1="-1485.7" x2="-1366.5" y1="202.98" y2="202.98" gradientUnits="userSpaceOnUse" href="#icon-add_svg__d"/>
    <linearGradient id="icon-add_svg__Y" x1="-1482.7" x2="-1366.9" y1="203.51" y2="203.51" gradientUnits="userSpaceOnUse" href="#icon-add_svg__d"/>
    <linearGradient id="icon-add_svg__Z" x1="-1480.3" x2="-1367.3" y1="203.88" y2="203.88" gradientUnits="userSpaceOnUse" href="#icon-add_svg__d"/>
    <linearGradient id="icon-add_svg__aa" x1="-1478.5" x2="-1368.2" y1="204.69" y2="204.69" gradientUnits="userSpaceOnUse" href="#icon-add_svg__d"/>
    <linearGradient id="icon-add_svg__ab" x1="-1476.4" x2="-1368.8" y1="204.01" y2="204.01" gradientUnits="userSpaceOnUse" href="#icon-add_svg__d"/>
    <linearGradient id="icon-add_svg__ac" x1="-1474.3" x2="-1368.9" y1="204.58" y2="204.58" gradientUnits="userSpaceOnUse" href="#icon-add_svg__d"/>
    <linearGradient id="icon-add_svg__ad" x1="-1472.8" x2="-1370.2" y1="203.28" y2="203.28" gradientUnits="userSpaceOnUse" href="#icon-add_svg__d"/>
    <linearGradient id="icon-add_svg__ae" x1="-1471.8" x2="-1372" y1="201.06" y2="201.06" gradientUnits="userSpaceOnUse" href="#icon-add_svg__d"/>
    <linearGradient id="icon-add_svg__af" x1="-1470.3" x2="-1377" y1="199.11" y2="199.11" gradientUnits="userSpaceOnUse" href="#icon-add_svg__d"/>
    <linearGradient id="icon-add_svg__ag" x1="-1468.9" x2="-1381.6" y1="197.69" y2="197.69" gradientUnits="userSpaceOnUse" href="#icon-add_svg__d"/>
    <linearGradient id="icon-add_svg__ah" x1="-1466.6" x2="-1387.1" y1="196.1" y2="196.1" gradientUnits="userSpaceOnUse" href="#icon-add_svg__d"/>
    <linearGradient id="icon-add_svg__ai" x1="-1466" x2="-1392.5" y1="194.88" y2="194.88" gradientUnits="userSpaceOnUse" href="#icon-add_svg__d"/>
    <linearGradient id="icon-add_svg__aj" x1="-1464.1" x2="-1394.8" y1="192.27" y2="192.27" gradientUnits="userSpaceOnUse" href="#icon-add_svg__d"/>
    <linearGradient id="icon-add_svg__ak" x1="-1463.2" x2="-1398.6" y1="189.59" y2="189.59" gradientUnits="userSpaceOnUse" href="#icon-add_svg__d"/>
    <linearGradient id="icon-add_svg__al" x1="-1462.6" x2="-1402.6" y1="186.93" y2="186.93" gradientUnits="userSpaceOnUse" href="#icon-add_svg__d"/>
    <linearGradient id="icon-add_svg__am" x1="-1520.9" x2="-1362.7" y1="189.06" y2="189.06" gradientUnits="userSpaceOnUse" href="#icon-add_svg__e"/>
    <linearGradient id="icon-add_svg__e" osb:paint="solid">
      <stop offset="0" stop-color="#21e000"/>
    </linearGradient>
    <linearGradient id="icon-add_svg__an" x1="-1459.4" x2="-1437.4" y1="220.84" y2="220.84" gradientUnits="userSpaceOnUse" href="#icon-add_svg__e"/>
    <linearGradient id="icon-add_svg__ao" x1="-1511.8" x2="-1439.6" y1="161.89" y2="161.89" gradientUnits="userSpaceOnUse" href="#icon-add_svg__e"/>
    <linearGradient id="icon-add_svg__ap" x1="-1454.1" x2="-1439.6" y1="132" y2="132" gradientUnits="userSpaceOnUse">
      <stop offset="0" stop-color="#21e000"/>
      <stop offset="1" stop-color="#21e000" stop-opacity="0"/>
    </linearGradient>
    <linearGradient id="icon-add_svg__aq" x1="-1458.4" x2="-1438" y1="225.98" y2="225.98" gradientUnits="userSpaceOnUse" href="#icon-add_svg__e"/>
    <linearGradient id="icon-add_svg__ar" x1="-1458" x2="-1441.3" y1="158.19" y2="158.19" gradientUnits="userSpaceOnUse" href="#icon-add_svg__e"/>
    <linearGradient id="icon-add_svg__as" x1="-1442.1" x2="-1433.3" y1="190.74" y2="190.74" gradientUnits="userSpaceOnUse" href="#icon-add_svg__e"/>
    <linearGradient id="icon-add_svg__at" x1="-1461.9" x2="-1437.4" y1="156.24" y2="156.24" gradientUnits="userSpaceOnUse" href="#icon-add_svg__f"/>
    <linearGradient id="icon-add_svg__f" osb:paint="solid">
      <stop offset="0" stop-color="#218b00"/>
    </linearGradient>
    <linearGradient id="icon-add_svg__au" x1="-1442.1" x2="-1433.3" y1="203.54" y2="203.54" gradientUnits="userSpaceOnUse" href="#icon-add_svg__f"/>
    <linearGradient id="icon-add_svg__av" x1="-1439.4" x2="-1360.6" y1="173.58" y2="173.58" gradientUnits="userSpaceOnUse" href="#icon-add_svg__f"/>
    <linearGradient id="icon-add_svg__aw" x1="-1432.9" x2="-1358.5" y1="176.01" y2="176.01" gradientUnits="userSpaceOnUse" href="#icon-add_svg__f"/>
    <linearGradient id="icon-add_svg__ax" x1="-1514.9" x2="-1489.3" y1="183.77" y2="183.77" gradientUnits="userSpaceOnUse" href="#icon-add_svg__f"/>
    <linearGradient id="icon-add_svg__ay" x1="-1518.2" x2="-1487.4" y1="182.93" y2="182.93" gradientUnits="userSpaceOnUse" href="#icon-add_svg__f"/>
    <linearGradient id="icon-add_svg__az" x1="-1523.2" x2="-1510.6" y1="171.54" y2="171.54" gradientUnits="userSpaceOnUse" href="#icon-add_svg__f"/>
    <linearGradient id="icon-add_svg__aA" x1="-1539.6" x2="-1477.9" y1="163.74" y2="163.74" gradientUnits="userSpaceOnUse" href="#icon-add_svg__f"/>
    <linearGradient id="icon-add_svg__aB" x1="-1478.4" x2="-1460.6" y1="162.51" y2="162.51" gradientUnits="userSpaceOnUse" href="#icon-add_svg__f"/>
    <linearGradient id="icon-add_svg__aC" x1="-1469.2" x2="-1455.5" y1="181.79" y2="181.79" gradientUnits="userSpaceOnUse" href="#icon-add_svg__f"/>
    <linearGradient id="icon-add_svg__aD" x1="-1463.4" x2="-1435.5" y1="222.39" y2="222.39" gradientUnits="userSpaceOnUse" href="#icon-add_svg__f"/>
    <linearGradient id="icon-add_svg__aE" x1="-1455.1" x2="-1433.5" y1="220.49" y2="220.49" gradientUnits="userSpaceOnUse" href="#icon-add_svg__f"/>
    <linearGradient id="icon-add_svg__aF" x1="-1451" x2="-1430.9" y1="223.83" y2="223.83" gradientUnits="userSpaceOnUse" href="#icon-add_svg__f"/>
    <linearGradient id="icon-add_svg__aG" x1="-1459.3" x2="-1437.4" y1="116.15" y2="116.15" gradientUnits="userSpaceOnUse" href="#icon-add_svg__f"/>
    <linearGradient id="icon-add_svg__aH" x1="-1457.3" x2="-1437.4" y1="107.77" y2="107.77" gradientUnits="userSpaceOnUse" href="#icon-add_svg__f"/>
    <linearGradient id="icon-add_svg__aI" x1="-1456.1" x2="-1437.7" y1="101.51" y2="101.51" gradientUnits="userSpaceOnUse" href="#icon-add_svg__f"/>
    <linearGradient id="icon-add_svg__aJ" x1="-1564.1" x2="-1326.5" y1="176.55" y2="176.55" gradientUnits="userSpaceOnUse" href="#icon-add_svg__f"/>
    <linearGradient id="icon-add_svg__aK" x1="-1564.1" x2="-1326.5" y1="176.55" y2="176.55" gradientUnits="userSpaceOnUse" href="#icon-add_svg__g"/>
    <linearGradient id="icon-add_svg__g" osb:paint="solid">
      <stop offset="0" stop-color="#496300"/>
    </linearGradient>
    <linearGradient id="icon-add_svg__aL" x1="-1564.1" x2="-1326.5" y1="176.55" y2="176.55" gradientUnits="userSpaceOnUse">
      <stop offset="0" stop-color="#a5e458" stop-opacity=".672"/>
    </linearGradient>
    <linearGradient id="icon-add_svg__k" x1="-1541.5" x2="-1516.4" y1="136.8" y2="136.8" gradientUnits="userSpaceOnUse" href="#icon-add_svg__a"/>
    <linearGradient id="icon-add_svg__aM" x1="-398.55" x2="-355.83" y1="46.844" y2="46.844" gradientUnits="userSpaceOnUse" href="#icon-add_svg__g"/>
    <filter id="icon-add_svg__aN" width="1.095" height="1.097" x="-.048" y="-.048" color-interpolation-filters="sRGB">
      <feGaussianBlur stdDeviation="1.304"/>
    </filter>
  </defs>
  <path fill="#0ff" stroke="url(#icon-add_svg__h)" stroke-width=".265" d="M-415.46 13.954h65.768v65.768h-65.768z" opacity=".879" transform="translate(74.704 -1.933) scale(.17869)"/>
  <path fill="#03f611" fill-opacity=".439" stroke="url(#icon-add_svg__i)" stroke-linecap="round" stroke-linejoin="round" stroke-opacity=".984" stroke-width="1.567" d="M-415.11 46.78V13.989h65.204V79.57h-65.204z" opacity=".879" paint-order="markers fill stroke" transform="translate(74.704 -1.933) scale(.17869)"/>
  <path fill="#03f611" fill-opacity=".439" stroke="url(#icon-add_svg__j)" stroke-linecap="round" stroke-linejoin="round" stroke-opacity=".984" stroke-width="1.567" d="M-413.98 46.78V14.743h62.943v64.074h-62.943z" opacity=".879" paint-order="markers fill stroke" transform="translate(74.704 -1.933) scale(.17869)"/>
  <g fill="#0ac0d3" fill-rule="evenodd" stroke-linecap="round" stroke-linejoin="round" stroke-opacity=".889" paint-order="stroke markers fill">
    <path stroke="url(#icon-add_svg__l)" stroke-width="9.719" d="M-1561.4 177.09V61.38h231.43v231.43h-231.43zm125.71 48.571V187.09h77.143v-25.714h-77.143V87.09h-25.714v74.286h-74.286v25.714h74.286v77.143h25.714z" transform="matrix(.04728 0 0 .04728 74.704 -1.933)"/>
    <g stroke-width="2.565">
      <path stroke="url(#icon-add_svg__m)" d="M-1456.2 221.86l-.21-37.021-1.78-1.441c-1.696-1.373-3.452-1.442-37.143-1.442h-35.362v-15.838l35.634-.011c19.6-.006 36.008-.261 36.464-.566 2.406-1.606 2.564-3.988 2.564-38.59v-34.74h15.083v35.277c0 30.71.152 35.495 1.174 36.954l1.174 1.676h74.577v15.838h-73.223l-1.85 1.852-1.852 1.85v73.224h-15.042z" transform="matrix(.04728 0 0 .04728 74.704 -1.933)"/>
      <path stroke="url(#icon-add_svg__n)" d="M-1456 221.71v-37.169l-2.19-1.294c-1.985-1.172-5.486-1.294-37.331-1.294h-35.141v-15.838h36.108c32.658 0 36.207-.119 37.143-1.246.838-1.01 1.076-8.039 1.251-36.954l.217-35.708h15.027v35.033c0 24.98.251 35.585.875 36.954l.875 1.92h75.175v15.839h-73.646l-1.64 1.745c-1.637 1.743-1.64 1.802-1.64 38.463v36.717h-15.082z" transform="matrix(.04728 0 0 .04728 74.704 -1.933)"/>
      <path stroke="url(#icon-add_svg__n)" d="M-1456 221.64c0-33.712-.118-37.337-1.246-38.274-1.01-.839-8.09-1.075-37.331-1.245l-36.085-.21v-15.794h36.108c32.657 0 36.207-.12 37.143-1.247.837-1.008 1.08-8.06 1.27-36.954l.235-35.708h14.99v35.02c0 20.93.296 35.798.736 36.954l.735 1.935h75.454v15.838h-74.577l-1.174 1.676c-1.024 1.461-1.174 6.389-1.174 38.463v36.786h-15.083z" transform="matrix(.04728 0 0 .04728 74.704 -1.933)"/>
      <path stroke="url(#icon-add_svg__o)" d="M-1456 221.64c0-33.709-.118-37.337-1.246-38.274-1.01-.838-8.117-1.08-37.331-1.27l-36.085-.235v-15.745h36.108c32.657 0 36.207-.119 37.143-1.246.83-1 1.124-8.276 1.486-36.766.248-19.536.502-35.604.565-35.708.063-.104 3.34-.189 7.28-.189h7.164l.01 35.257c.01 19.392.215 36.021.465 36.954l.455 1.697h75.995v15.838h-75.175l-.875 1.921c-.626 1.374-.875 12.338-.875 38.463v36.542H-1456z" transform="matrix(.04728 0 0 .04728 74.704 -1.933)"/>
      <path stroke="url(#icon-add_svg__p)" d="M-1456 221.64c0-33.707-.118-37.337-1.246-38.274-1.001-.831-8.308-1.12-37.143-1.464-19.743-.236-35.982-.49-36.085-.566-.104-.075-.189-3.53-.189-7.678v-7.542h36.108c32.221 0 36.216-.13 37.112-1.21 1.071-1.29 2.011-26.205 2.135-56.584.072-17.555-.742-16.086 8.917-16.104l5.46-.01.196 36.766.196 36.766 76.548.39v15.825h-75.454l-.736 1.934c-.44 1.16-.735 16.554-.735 38.463v36.528H-1456z" transform="matrix(.04728 0 0 .04728 74.704 -1.933)"/>
      <path stroke="url(#icon-add_svg__q)" d="M-1456 221.64c0-33.714-.118-37.337-1.247-38.274-.99-.822-8.571-1.177-36.899-1.725-41.064-.794-36.489.42-36.507-9.68l-.01-5.845h36.108c27.977 0 36.28-.212 36.87-.942 1.431-1.77 1.864-9.134 2.34-39.878.367-23.646.702-30.976 1.453-31.727.58-.58 3.414-1.087 6.976-1.249l6-.272v74.068h76.925v15.838h-75.995l-.455 1.696c-.25.934-.46 18.241-.465 38.463l-.01 36.766h-15.083z" transform="matrix(.04728 0 0 .04728 74.704 -1.933)"/>
      <path stroke="url(#icon-add_svg__r)" d="M-1456 221.64c0-29.538-.202-37.406-.975-38.049-1.505-1.249-8.306-1.646-40.346-2.356-35.55-.788-33.342-.185-33.342-9.103v-6.016h36.108c38.543 0 37.05.148 38.077-3.771.271-1.037.831-15.8 1.244-32.806.413-17.007.93-32.005 1.15-33.33.452-2.73.933-2.95 8.076-3.667l5.09-.51v74.083h76.926v15.824l-76.548.391-.196 38.274-.195 38.274h-15.07z" transform="matrix(.04728 0 0 .04728 74.704 -1.933)"/>
      <path stroke="url(#icon-add_svg__s)" d="M-1456 221.64c0-28.895-.211-37.404-.943-37.977-1.853-1.45-5.076-1.69-32.995-2.455-15.555-.427-30.433-.973-33.062-1.214-6.616-.606-7.663-1.78-7.663-8.599v-5.28h35.02c20.103 0 35.816-.302 36.89-.71 1.029-.391 2.078-1.365 2.332-2.165s.94-16.428 1.524-34.728c.585-18.301 1.262-33.597 1.506-33.992.244-.395 2.048-.922 4.008-1.171s4.668-.624 6.016-.832l2.45-.378v73.977h76.926v15.838h-76.925v76.925H-1456z" transform="matrix(.04728 0 0 .04728 74.704 -1.933)"/>
      <path stroke="url(#icon-add_svg__t)" d="M-1456.2 221.37l-.196-37.51-1.996-.957c-1.383-.663-11.696-1.299-33.594-2.072-17.378-.613-32.678-1.33-33.998-1.595-3.37-.674-3.959-1.7-4.468-7.775l-.448-5.344h35.849c33.025 0 35.976-.104 37.46-1.32 1.558-1.276 1.647-2.278 2.695-30.355 1.184-31.742 1.603-39.178 2.244-39.818.232-.232 2.964-.821 6.07-1.308l5.647-.886v73.688h76.925v15.838h-76.925v76.925h-15.07z" transform="matrix(.04728 0 0 .04728 74.704 -1.933)"/>
      <path stroke="url(#icon-add_svg__u)" d="M-1456 221.29v-37.587l-1.82-.83c-1.699-.773-10.435-1.307-51.937-3.17-9.034-.406-17.09-1.094-17.903-1.528-1.574-.843-1.899-1.853-2.607-8.1l-.448-3.96h35.68c30.427 0 35.919-.166 37.29-1.126 1.964-1.376 2.076-2.635 3.689-41.484.637-15.347 1.394-28.131 1.68-28.41.516-.497 8.54-2.134 10.466-2.134.807 0 .992 6.835.992 36.577v36.577h76.925v15.838h-76.925v76.925H-1456z" transform="matrix(.04728 0 0 .04728 74.704 -1.933)"/>
      <path stroke="url(#icon-add_svg__v)" d="M-1456 221.19c0-35.116-.09-37.73-1.32-38.388-1.35-.723-16.935-1.8-45.062-3.114-20.01-.936-25.024-1.444-26.016-2.64-.437-.526-1.064-3.203-1.395-5.948l-.6-4.99h35.52c39.958 0 38.35.223 39.15-5.45.25-1.773.964-14.593 1.586-28.488.62-13.896 1.34-27.897 1.597-31.115.517-6.464.01-5.95 7.172-7.24l3.468-.625.489 12.891c.269 7.09.49 23.496.491 36.46v23.567h76.925v15.838h-76.925v76.925h-15.083z" transform="matrix(.04728 0 0 .04728 74.704 -1.933)"/>
      <path stroke="url(#icon-add_svg__w)" d="M-1456 221.19c0-36.308-.052-37.71-1.44-38.452-1.4-.75-19.667-2.1-51.617-3.814-8.65-.464-16.493-1.135-17.432-1.492-2.047-.778-2.37-1.522-3.061-7.057l-.533-4.266h34.73c20.164 0 35.522-.3 36.618-.718 1.038-.395 2.22-1.338 2.626-2.097.406-.758 1.448-15.453 2.315-32.654.867-17.2 1.748-32.029 1.957-32.95.454-2.003 1.95-2.877 6.1-3.564l3.098-.513.476 2.876c.261 1.582.48 7.458.485 13.058.01 5.6.233 20.617.507 33.372l.497 23.191h76.682v15.838h-76.925v76.925H-1456z" transform="matrix(.04728 0 0 .04728 74.704 -1.933)"/>
      <path stroke="url(#icon-add_svg__x)" d="M-1456 221.26c0-29.182-.211-37.788-.943-38.381-1.212-.983-13.729-2.106-40.16-3.602-28.858-1.634-29.94-1.778-31.012-4.114-.476-1.037-1.032-3.498-1.237-5.468l-.372-3.582h70.775l1.744-1.744c1.988-1.988 1.823-.346 4.205-41.931 1.037-18.095 1.72-25.471 2.426-26.168 1.334-1.316 7.278-2.602 7.838-1.696.239.387.733 16.048 1.097 34.801.365 18.754.676 34.691.692 35.417.027 1.24 2.375 1.32 38.492 1.32h38.463v15.838h-76.925v76.925H-1456z" transform="matrix(.04728 0 0 .04728 74.704 -1.933)"/>
      <path stroke="url(#icon-add_svg__y)" d="M-1456 221.26c0-29.176-.211-37.79-.943-38.393-1.395-1.15-12.3-2.215-40.537-3.96-13.896-.86-26.283-1.819-27.527-2.131-2.482-.623-4.027-3.714-4.105-8.212l-.043-2.45h70.782l1.463-1.86c1.782-2.267 2.086-4.879 3.558-30.57 1.29-22.525 2.387-35.951 3.02-36.975.615-.995 6.305-2.586 6.948-1.943.635.634 1.552 29.546 1.646 51.878.036 8.58.397 16.47.802 17.534l.735 1.935h76.208v15.838h-76.925v76.925H-1456z" transform="matrix(.04728 0 0 .04728 74.704 -1.933)"/>
      <path stroke="url(#icon-add_svg__z)" d="M-1456 221.26c0-30.483-.191-37.775-1.008-38.453-1.527-1.267-9.902-2.184-35.192-3.853-24.422-1.613-31.295-2.178-33.291-2.739-1.387-.389-2.604-3.04-3.34-7.273l-.492-2.829h71.775l1.05-2.074c1.564-3.09 1.88-5.671 3.122-25.453 1.772-28.222 2.754-39.863 3.48-41.229.784-1.473 5.045-2.6 6.046-1.598.379.379 1.022 15.43 1.43 33.448.406 18.018.938 33.693 1.181 34.833l.442 2.074h76.805v15.838h-76.925v76.925H-1456z" transform="matrix(.04728 0 0 .04728 74.704 -1.933)"/>
      <path stroke="url(#icon-add_svg__A)" d="M-1456 221.26c0-31.259-.178-37.764-1.052-38.489-1.724-1.43-8.41-2.198-36.616-4.204-33.672-2.394-32.365-2.193-33.57-5.179-.527-1.305-1.165-3.475-1.418-4.823l-.46-2.451h72.18l.794-2.074c1.483-3.869 1.622-5.076 3.143-27.34 2.772-40.571 2.8-40.724 7.25-40.724 1.594 0 1.688.373 2.131 8.484.255 4.666.8 20.145 1.212 34.397.412 14.252.935 26.215 1.163 26.584.235.379 17.172.672 38.833.672h38.419v15.838h-76.926v76.925H-1456z" transform="matrix(.04728 0 0 .04728 74.704 -1.933)"/>
      <path stroke="url(#icon-add_svg__B)" d="M-1456 221.19v-37.691l-1.697-1.087c-2.182-1.399-10.23-2.32-36.766-4.208-32.328-2.3-31.707-2.175-33.042-6.633-1.788-5.968-5.086-5.453 34.901-5.453 41.045 0 36.765.902 38.081-8.02.42-2.847 1.452-15.19 2.293-27.425 1.669-24.283 2.023-27.85 3.115-31.42.718-2.347 2.425-3.667 3.712-2.871 1.165.72 1.441 4.714 2.542 36.727.596 17.309 1.297 31.818 1.558 32.241.313.507 13.594.77 38.894.77h38.418v15.837h-76.925v76.925h-15.083z" transform="matrix(.04728 0 0 .04728 74.704 -1.933)"/>
      <path stroke="url(#icon-add_svg__C)" d="M-1456 220.91v-37.965l-1.946-.886c-2.973-1.355-9.765-2.128-37.558-4.274-14.054-1.085-26.749-2.374-28.212-2.864-2.099-.703-2.874-1.513-3.675-3.842-.558-1.623-.823-3.143-.588-3.377 1-1 13.813-1.487 40.458-1.537 29.059-.055 31.823-.309 32.592-2.996.535-1.87 1.8-15.832 3.494-38.537.85-11.407 1.916-22.211 2.367-24.01.832-3.31 2.368-4.701 3.71-3.36.41.41 1.221 13.376 1.836 29.324.606 15.724 1.356 30.965 1.665 33.868l.564 5.28 77.302.39v15.824h-76.925v76.925H-1456z" transform="matrix(.04728 0 0 .04728 74.704 -1.933)"/>
      <path stroke="url(#icon-add_svg__D)" d="M-1456.2 220.61l-.196-38.271-2.873-.941c-2.906-.952-11.987-1.918-44.39-4.722-9.82-.85-18.85-1.893-20.07-2.318-2.13-.742-3.935-3.328-3.935-5.636 0-.603.085-1.133.189-1.178s16.002-.47 35.33-.943c26.696-.653 35.427-1.096 36.324-1.84 1.481-1.231 1.607-2.249 4.347-35.22 2.258-27.164 3-32.052 4.865-32.052 1.316 0 1.694 4.388 3.049 35.446.606 13.896 1.314 27.046 1.574 29.224l.472 3.96h77.505v15.838h-76.924v76.925h-15.07z" transform="matrix(.04728 0 0 .04728 74.704 -1.933)"/>
      <path stroke="url(#icon-add_svg__E)" d="M-1456 220.44v-38.434l-2.828-.745c-3.931-1.036-12.826-2.086-32.618-3.85-28.67-2.555-31.866-2.998-33.678-4.66-1.934-1.773-2.762-4.359-1.52-4.747.485-.152 15.034-.654 32.33-1.116 17.296-.462 33.15-1.041 35.233-1.288 3.418-.404 3.86-.677 4.534-2.797.41-1.292 1.782-14.227 3.047-28.745 2.399-27.534 3.304-34.878 4.437-36.011 1.215-1.215 1.557 2.458 3.117 33.42.845 16.773 1.73 31.428 1.966 32.569l.43 2.074h77.56v15.838h-76.925v76.925h-15.083z" transform="matrix(.04728 0 0 .04728 74.704 -1.933)"/>
      <path stroke="url(#icon-add_svg__F)" d="M-1456.2 220.24l-.195-38.634-4.148-.931c-2.282-.513-13.141-1.802-24.133-2.866-36.756-3.558-38.606-3.834-40.537-6.058-.934-1.075-1.697-2.242-1.697-2.593 0-.83 9.46-1.355 42.114-2.336 14.659-.44 27.428-1.096 28.374-1.456.947-.36 1.916-1.442 2.155-2.406.239-.963 1.31-11.085 2.382-22.492 2.719-28.94 3.973-39.766 4.772-41.193.874-1.561 1.237 2.777 3.193 38.094.835 15.095 1.7 27.736 1.92 28.093.22.357 17.857.648 39.195.648h38.795v15.838h-76.925v76.925h-15.07z" transform="matrix(.04728 0 0 .04728 74.704 -1.933)"/>
      <path stroke="url(#icon-add_svg__G)" d="M-1456 220.09v-38.786l-3.96-.782c-4.043-.8-13.441-1.876-40.16-4.603-18.411-1.88-22.851-2.648-24.636-4.264-3.275-2.963-2.952-3.003 35.875-4.44 17.38-.644 32.205-1.494 32.944-1.889.738-.395 1.532-1.313 1.762-2.04.23-.726 1.615-13.176 3.077-27.666 3.414-33.825 3.48-34.365 4.252-34.365.357 0 .647.594.643 1.32-.02 3.489 3.132 54.676 3.61 58.637l.545 4.525 78.056.39v15.825h-76.925v76.925H-1456z" transform="matrix(.04728 0 0 .04728 74.704 -1.933)"/>
      <path stroke="url(#icon-add_svg__H)" d="M-1456.2 219.85l-.195-39.028-5.657-.906c-3.11-.498-17.025-2.121-30.92-3.607-26.229-2.805-30.15-3.454-31.625-5.23-1.672-2.014-5.131-1.718 49.347-4.232 12.813-.592 18.567-1.137 19.698-1.867 1.854-1.197 2.027-2.363 5.59-37.704 2.315-22.966 3.598-30.162 3.698-20.74.065 6.12 2.881 51.139 3.504 55.997l.458 3.582h78.292v15.838h-76.925v76.925h-15.07z" transform="matrix(.04728 0 0 .04728 74.704 -1.933)"/>
      <path stroke="url(#icon-add_svg__I)" d="M-1456 219.66c0-21.569-.255-39.219-.566-39.223-.31-.003-2.601-.332-5.09-.73-2.489-.399-15.215-1.93-28.281-3.405-27.575-3.11-32.81-3.928-33.953-5.305-1.18-1.422 1.392-1.674 30.559-2.994 32.314-1.463 36.32-1.811 38.135-3.31 1.668-1.378 2.264-5.366 5.654-37.796 1.105-10.577 2.257-19.5 2.56-19.83.302-.328.78 4.762 1.062 11.314.619 14.413 2.619 43.684 3.145 46.037l.38 1.697h78.404v15.838h-76.925v76.925h-15.083z" transform="matrix(.04728 0 0 .04728 74.704 -1.933)"/>
      <path stroke="url(#icon-add_svg__J)" d="M-1457.2 259.47c-.192-.532-.44-17.484-.551-37.671-.112-20.187-.486-36.986-.831-37.331s-16.296-.72-35.446-.83-35.592-.376-36.54-.587c-1.686-.375-1.716-.555-1.508-9.224l.213-8.841 36.327-.377c19.98-.208 36.597-.648 36.927-.978.33-.33.82-16.556 1.088-36.058.295-21.347.782-35.75 1.225-36.193.413-.413 4.176-.641 8.589-.52l7.853.217.395 36.577c.218 20.117.472 36.659.566 36.759.094.1 17.224.27 38.068.377l37.897.195v18.1l-37.301.196c-24.552.129-37.57.464-38.086.98-.512.512-.916 13.81-1.162 38.267l-.377 37.483-8.499.213c-6.386.16-8.585-.027-8.847-.754zm16.214-39.053v-38.463h76.925v-15.838h-39.217c-30.866 0-39.218-.2-39.225-.943 0-.518-.342-4.845-.75-9.615-1.11-12.966-3.013-46.107-3.013-52.483 0-3.223-.32-5.588-.754-5.588-.427 0-.754 2.16-.754 4.973 0 5.086-4.715 49.38-6.053 56.87-.408 2.28-1.264 4.535-1.903 5.01-1.655 1.227-5.512 1.658-22.588 2.52-21.68 1.097-44.72 2.384-45.995 2.572-2.104.308-1.931 1.02.53 2.184 2.673 1.263 9.94 2.324 39.81 5.811 10.576 1.235 20.958 2.46 23.07 2.723l3.838.478.498 26.05c.273 14.329.497 31.936.497 39.127v13.075h15.083zm-85.975-39.001a27.378 27.378 0 01-2.451-1.098c-.979-.504-1.32-.38-1.32.479 0 .815.724 1.14 2.451 1.098 1.348-.033 1.942-.248 1.32-.479zm72.023-88.453c.256-.415.107-.754-.333-.754s-.798.34-.798.754c0 .415.15.754.332.754s.543-.34.799-.754z" transform="matrix(.04728 0 0 .04728 74.704 -1.933)"/>
      <path stroke="url(#icon-add_svg__K)" d="M-1459 261.35c.048-1.566.236-2.289.417-1.605.462 1.738 2.52 2.129 11.282 2.14 5.213.008 7.878-.288 8.396-.932.475-.59.882-14.693 1.09-37.7.181-20.216.523-36.95.76-37.187.236-.236 3.52-.63 7.298-.874 3.779-.245 6.87-.688 6.87-.984s13.245-.79 29.433-1.095c22.632-.427 29.688-.344 30.535.359 1.712 1.42 1.992-.276 1.73-10.48-.177-6.936-.01-9.141.709-9.14.712 0 .943 2.767.943 11.314v11.313h-76.157l-.196 38.65-.195 38.652-23.002.416z" transform="matrix(.04728 0 0 .04728 74.704 -1.933)"/>
      <path stroke="url(#icon-add_svg__L)" d="M-1560.9 177.05V61.28h230.78v231.53h-230.78zm125.8 87.71c.68-.68.905-10.339.905-38.833v-37.928l75.794-.391v-26.396l-77.302-.39V86.89l-26.019.413-.196 36.766-.196 36.766h-73.893v26.396h73.909v38.117c0 29.42.215 38.362.942 39.188 1.255 1.425 24.654 1.625 26.056.223z" transform="matrix(.04728 0 0 .04728 74.704 -1.933)"/>
      <path stroke="url(#icon-add_svg__M)" d="M-1454.8 218.73c-.286-21.249-.766-38.867-1.065-39.15s-9.537-1.572-20.53-2.865c-23.732-2.79-43.862-5.456-43.55-5.767.122-.123 12.941-.924 28.485-1.78 15.545-.856 29.737-1.768 31.538-2.026 4.553-.653 6.756-2.83 7.627-7.54.57-3.088 3.719-30.034 4.747-40.628.12-1.244.485 2.49.81 8.296 1.161 20.755 2.758 38.372 3.55 39.165.544.545 13.249.876 39.23 1.021l38.427.215v12.754l-76.548.39-.196 38.275-.195 38.274h-11.81z" transform="matrix(.04728 0 0 .04728 74.704 -1.933)"/>
      <path stroke="url(#icon-add_svg__N)" d="M-1453.8 257.18c-.011-.104-.348-17.477-.75-38.608-.4-21.131-1.002-38.695-1.339-39.031s-13.962-2.299-30.28-4.362-29.798-3.88-29.956-4.038c-.157-.158 4.218-.519 9.725-.802 24.998-1.285 46.41-2.841 48.57-3.53 5.16-1.644 5.444-2.557 8.181-26.297 1.074-9.312 2.047-17.025 2.163-17.142.117-.117.628 6.402 1.136 14.486 1.1 17.508 2.24 27.604 3.232 28.636.46.477 14.84.841 39.151.992l38.426.238v12.722h-76.925v76.925h-5.656c-3.11 0-5.665-.085-5.677-.189z" transform="matrix(.04728 0 0 .04728 74.704 -1.933)"/>
      <path stroke="url(#icon-add_svg__O)" d="M-1452.8 256.87c-.699-.282-.947-3.536-.958-12.573-.025-20.707-1.461-64.123-2.143-64.805-.356-.356-12.936-2.29-27.956-4.3-15.02-2.009-27.448-3.792-27.618-3.962s7.405-.726 16.833-1.236c22.124-1.197 34.624-2.269 37.707-3.234 4.2-1.315 4.65-2.78 7.336-23.946 1.021-8.044 1.985-14.756 2.143-14.913.157-.157.527 4.22.822 9.725.724 13.514 2.432 27.772 3.447 28.79.571.57 12.78.969 39.067 1.273 21.03.243 38.322.498 38.426.565.104.068.189 2.839.189 6.157v6.033h-76.925v76.925l-4.714-.06c-2.592-.032-5.137-.23-5.656-.44z" transform="matrix(.04728 0 0 .04728 74.704 -1.933)"/>
      <path stroke="url(#icon-add_svg__P)" d="M-1449.7 256.82l-3.102-.284-.48-4.597c-.265-2.529-.483-11.42-.486-19.759-.01-19.457-1.38-51.917-2.233-52.77-.361-.362-11.714-2.221-25.229-4.132s-24.57-3.688-24.57-3.948c0-.26 4.666-.704 10.37-.986 14.48-.715 29.918-1.915 35.17-2.734 7.523-1.174 7.864-1.882 10.566-21.91.949-7.03 1.9-12.958 2.114-13.172.214-.214.623 3.615.91 8.51.695 11.885 2.347 24.257 3.377 25.287.875.875 31.804 1.88 61.277 1.99 17.835.068 16.46-.581 16.48 7.79l.01 4.336h-76.924v76.925l-2.074-.131a234.8 234.8 0 01-5.176-.416z" transform="matrix(.04728 0 0 .04728 74.704 -1.933)"/>
      <path stroke="url(#icon-add_svg__Q)" d="M-1447.5 256.77c-3.62-.173-4.763-.513-5.068-1.508-.217-.707-.746-15.54-1.176-32.96-.97-39.347-1.216-42.532-3.338-43.331-.87-.328-11.343-2.066-23.275-3.861-11.932-1.796-21.265-3.484-20.74-3.751s7.91-.901 16.413-1.408c19.297-1.15 27.033-2.09 29.287-3.559 2.697-1.757 3.837-5.433 5.607-18.075 1.611-11.509 2.815-14.94 2.815-8.027 0 4.986 2.071 22.208 2.949 24.515.647 1.704 1.279 1.958 6.082 2.44 2.947.296 19.924.76 37.726 1.03 24.272.369 32.602.727 33.306 1.43.516.517 1.08 3.145 1.25 5.84l.313 4.9h-77.087l-.196 38.274-.195 38.274z" transform="matrix(.04728 0 0 .04728 74.704 -1.933)"/>
      <path stroke="url(#icon-add_svg__R)" d="M-1450.9 256.11c-1.537-.408-1.812-4.481-2.918-43.235-.778-27.266-1.28-32.877-3.043-33.967-.5-.31-7.907-1.66-16.458-3.002s-17.754-2.849-20.45-3.349l-4.903-.909 3.394-.49c1.867-.27 8.994-.853 15.838-1.296 13.68-.884 20.898-1.827 23.675-3.092 2.687-1.224 4.052-5.094 6.026-17.082.975-5.925 1.988-10.987 2.25-11.25.264-.263.478 1.552.478 4.033 0 4.856 1.848 20.179 2.702 22.404.287.746 1.346 1.67 2.354 2.053 1.009.384 16.828 1.033 35.155 1.442 18.327.41 34.746.937 36.488 1.171 3.47.467 3.594.662 4.391 6.945l.502 3.959h-76.833l-.494 10.301c-.271 5.665-.494 22.804-.494 38.086v27.785l-3.205-.088c-1.763-.048-3.768-.236-4.455-.418z" transform="matrix(.04728 0 0 .04728 74.704 -1.933)"/>
      <path stroke="url(#icon-add_svg__S)" d="M-1448.2 256.07c-3.037-.277-3.138-.374-3.574-3.45-.246-1.742-.784-13.518-1.194-26.169-1.306-40.216-1.803-46.658-3.69-47.824-.334-.206-9.306-1.817-19.936-3.58-10.631-1.762-19.24-3.293-19.131-3.402.108-.109 6.968-.722 15.243-1.364 15.26-1.182 23.05-2.244 25.297-3.446 2.033-1.088 3.493-5.113 5.187-14.292 2.058-11.155 2.914-13.2 3.002-7.165.036 2.489.546 7.915 1.132 12.057 1.134 8 2.405 10.176 5.964 10.203 11.12.087 70.609 2.293 71.548 2.653.817.314 1.43 1.725 1.738 4 .262 1.934.641 4.11.841 4.835.344 1.245-1.828 1.32-38.042 1.32h-38.406l-.484 4.636c-.267 2.55-.485 19.688-.485 38.086 0 26.327-.2 33.422-.942 33.318-.519-.073-2.35-.26-4.069-.417z" transform="matrix(.04728 0 0 .04728 74.704 -1.933)"/>
      <path stroke="url(#icon-add_svg__T)" d="M-1450.7 254.85c-.52-.627-1.133-8.315-1.608-20.174-1.464-36.569-2.274-50.851-3.037-53.598l-.767-2.762-6.959-1.23c-3.827-.676-12.348-2.159-18.934-3.295l-11.976-2.067 15.37-1.346c17.825-1.561 22.285-2.296 24.141-3.975 1.662-1.504 3.2-6.185 4.865-14.804.702-3.63 1.568-6.599 1.926-6.599s.663 1.782.677 3.96c.043 6.521 1.977 15.724 3.656 17.403 1.392 1.392 3.003 1.548 22.1 2.129 37.178 1.13 52.852 2.008 53.461 2.994.803 1.3 1.656 7.5 1.107 8.049-.252.252-17.388.603-38.079.78-37.587.32-37.62.322-38.05 1.923-.236.881-.436 12.462-.443 25.736-.01 13.273-.234 29.479-.505 36.012l-.493 11.878h-2.806c-1.543 0-3.184-.456-3.647-1.013z" transform="matrix(.04728 0 0 .04728 74.704 -1.933)"/>
      <path stroke="url(#icon-add_svg__U)" d="M-1409.8 168.61c.734-.191 1.752-.179 2.263.028.51.206-.09.363-1.335.348-1.244-.016-1.662-.185-.928-.376z" transform="matrix(.04728 0 0 .04728 74.704 -1.933)"/>
      <path stroke="url(#icon-add_svg__V)" d="M-1449 255.12c-1.978-.799-2.247-3.099-3.312-28.293-1.276-30.184-2.307-45.155-3.244-47.097-.834-1.729-1.947-2.029-17.417-4.691-9.09-1.565-16.895-2.97-17.346-3.123-.451-.153 2.573-.525 6.721-.828 12.197-.889 25.738-2.613 27.76-3.535 2.426-1.105 4.127-4.968 6.2-14.077 1.785-7.845 2.151-7.726 2.922.951.221 2.489.932 6.296 1.58 8.461 1.072 3.589 1.432 4.006 4.071 4.716 1.592.429 8.536.824 15.431.877 9.166.072 12.893.369 13.863 1.105 1.57 1.192 4.123 1.352 5.152.323.711-.712 25.839.11 34.802 1.138 3.74.429 3.958.576 4.406 2.964 1.076 5.736 4.157 5.236-36.255 5.881-19.905.318-36.908.883-37.786 1.257-1.578.673-1.6 1.033-2.1 33.737-.278 18.182-.703 34.84-.943 37.017-.462 4.174-1.067 4.606-4.506 3.217z" transform="matrix(.04728 0 0 .04728 74.704 -1.933)"/>
      <path stroke="url(#icon-add_svg__W)" d="M-1450 253.2c-.398-1.046-1.239-12.67-1.87-25.83-1.422-29.685-2.525-45-3.41-47.327-.823-2.163-2.126-2.544-19.166-5.612-7.02-1.263-12.883-2.417-13.03-2.564-.147-.147 3.05-.504 7.106-.794 9.588-.685 23.524-2.612 25.14-3.477 1.787-.956 3.715-5.334 5.638-12.798 1.638-6.36 1.655-6.386 2.148-3.394 1.443 8.77 2.846 14.392 3.841 15.387 1.328 1.328 22.586 2.821 47.532 3.34 15.953.332 25.96 1.032 27.343 1.913.412.262.988 1.578 1.28 2.924.468 2.157.304 2.534-1.38 3.174-1.052.4-17.537 1.09-36.633 1.535-19.096.444-35.218.998-35.827 1.232-.609.233-1.284.987-1.5 1.674-.217.688-.728 16.72-1.136 35.628-.408 18.908-.959 34.943-1.224 35.635-.77 2.008-4.007 1.578-4.852-.645z" transform="matrix(.04728 0 0 .04728 74.704 -1.933)"/>
      <path stroke="url(#icon-add_svg__X)" d="M-1448.8 254.11c-1.234-.94-1.791-7.318-3.507-40.108-1.03-19.7-2.194-32.785-3.06-34.403-.94-1.754-3.765-2.596-17.23-5.13-6.306-1.187-11.624-2.315-11.817-2.508-.193-.193 2.796-.584 6.641-.87s10.481-1.056 14.745-1.715c6.601-1.02 7.974-1.478 9.238-3.085 1.422-1.809 5.176-12.445 5.333-15.112.042-.705.713 1.71 1.491 5.368 1.79 8.405 2.795 10.456 5.473 11.165 2.86.758 23.4 1.995 48.769 2.938 11.407.425 21.507.975 22.445 1.224 1.744.462 2.93 3.195 2.204 5.084-.454 1.185-6.638 1.54-48.013 2.762-18.71.552-25.5.996-26.217 1.712-.726.726-1.155 8.206-1.719 29.966-1.14 44.003-1.293 45.367-4.775 42.711z" transform="matrix(.04728 0 0 .04728 74.704 -1.933)"/>
      <path stroke="url(#icon-add_svg__Y)" d="M-1448.7 253.79c-.809-1.419-1.344-7.628-2.78-32.241-1.98-33.978-2.718-41.079-4.451-42.844-.9-.917-5.2-2.155-13.09-3.772-6.463-1.324-12.004-2.66-12.315-2.972-.311-.31 1.103-.58 3.143-.599 5.806-.054 22.04-2.678 23.365-3.776 1.6-1.328 3.627-5.437 5.273-10.69l1.354-4.32 1.636 6.518c1.074 4.282 2.176 6.955 3.21 7.793 2.127 1.722 4.78 1.927 58.084 4.482 8.418.403 15.59.909 15.935 1.123.943.582 1.458 3.139.836 4.146-.574.928-12.086 1.603-51.591 3.025-12.555.452-21.412 1.08-21.987 1.557-1.147.952-1.583 8.001-2.635 42.59-.417 13.689-.967 26.16-1.222 27.717-.42 2.548-1.907 3.766-2.764 2.262z" transform="matrix(.04728 0 0 .04728 74.704 -1.933)"/>
      <path stroke="url(#icon-add_svg__Z)" d="M-1448.7 252.36c-.693-3.598-1.201-10.127-2.779-35.718-1.707-27.704-2.634-36.046-4.197-37.781-1.272-1.412-3.894-2.22-14.636-4.514-8.887-1.898-11.006-2.947-5.995-2.97 8.138-.037 20.673-2.629 22.572-4.667.793-.852 2.378-4.113 3.52-7.247l2.08-5.699 1.226 4.855c1.479 5.852 2.536 7.95 4.547 9.027 1.95 1.043 12.214 1.833 44.45 3.42 14.31.704 26.782 1.566 27.716 1.916.94.352 1.697 1.273 1.697 2.066 0 1.911-1.734 2.139-23.756 3.116-44.381 1.97-48.96 2.271-49.977 3.288-1.072 1.072-1.725 11.434-3.164 50.24-.593 15.986-1.01 20.947-1.829 21.766-.91.91-1.118.756-1.475-1.098z" transform="matrix(.04728 0 0 .04728 74.704 -1.933)"/>
      <path stroke="url(#icon-add_svg__aa)" d="M-1448.8 249.63c-.263-2.173-1.318-16.338-2.345-31.478-2.639-38.924-2.692-39.236-6.972-40.93-1.551-.614-6.214-1.877-10.362-2.807-9.56-2.143-11.104-2.969-5.606-2.999 4.963-.027 11.714-1.147 16.81-2.789 3.413-1.099 3.807-1.496 5.759-5.806 1.152-2.544 2.334-5.305 2.628-6.134.413-1.167.872-.4 2.033 3.394 2.243 7.326 3.316 8.113 12.314 9.026 4.148.421 19.994 1.45 35.214 2.287 15.22.837 28.217 1.73 28.884 1.986.667.256 1.107 1.017.977 1.69-.304 1.583-3.743 1.943-29.25 3.062-31.929 1.4-42.444 2.197-43.547 3.3-1.169 1.17-2.062 13.055-3.185 42.376-.849 22.175-1.365 28.841-2.278 29.405-.327.202-.81-1.41-1.073-3.583z" transform="matrix(.04728 0 0 .04728 74.704 -1.933)"/>
      <path stroke="url(#icon-add_svg__ab)" d="M-1448.5 250.39c-.01-4.808-4.727-63.738-5.35-66.811-.45-2.215-1.413-4.624-2.143-5.353-.735-.735-5.158-2.262-9.925-3.426-4.73-1.155-8.87-2.343-9.201-2.64s2.214-.746 5.656-.998c6.39-.468 13.713-2.253 15.613-3.807.582-.476 2.058-3.072 3.28-5.768l2.221-4.902 1.623 4.454c2.905 7.98 2.582 7.9 41.97 10.227 31.928 1.886 34.692 2.157 34.692 3.397 0 1.423-3.485 1.78-29.502 3.031-29.992 1.442-41.49 2.424-42.714 3.648-.547.547-1.268 4.49-1.685 9.216-.585 6.627-3.025 54.58-3.025 59.443 0 .678-.34 1.232-.754 1.232s-.755-.424-.756-.943z" transform="matrix(.04728 0 0 .04728 74.704 -1.933)"/>
      <path stroke="url(#icon-add_svg__ac)" d="M-1448.5 247c0-4.184-3.402-47.844-4.527-58.127-1.108-10.128-1.716-11.002-9.243-13.293-3.418-1.04-7.329-2.113-8.691-2.384-1.363-.27-2.31-.66-2.104-.866.206-.205 3.392-.822 7.08-1.37 10.402-1.546 12.314-2.562 14.862-7.894 1.181-2.47 2.34-4.491 2.574-4.49.235.002 1.276 1.784 2.313 3.96 3.224 6.765 3.57 6.834 48.478 9.642 13.597.85 25.47 1.821 26.384 2.16 1.596.59 1.602.63.165 1.038-2.148.61-9.93 1.163-34.302 2.442-25.417 1.334-35.469 2.326-36.772 3.629-.525.525-1.284 3.823-1.687 7.33-.843 7.324-3.02 47.854-3.02 56.205 0 3.23-.32 5.6-.755 5.6-.415 0-.755-1.612-.756-3.582z" transform="matrix(.04728 0 0 .04728 74.704 -1.933)"/>
      <path stroke="url(#icon-add_svg__ad)" d="M-1448.8 238.74c-.791-15.358-4.21-53.79-5.067-56.975-.99-3.675-3.505-5.253-11.912-7.474-3.514-.928-6.078-1.779-5.698-1.89s4.047-.876 8.15-1.7c8.287-1.664 10.544-3.134 12.927-8.417.735-1.629 1.539-2.96 1.787-2.96.248.001 1.3 1.614 2.336 3.583 3.314 6.292 5.09 6.676 42.611 9.209 12.444.84 25.001 1.762 27.904 2.048 5.12.506 5.188.54 2.263 1.106-1.66.322-15.234 1.291-30.167 2.154-29.221 1.69-37.155 2.516-38.667 4.027-.531.531-1.281 2.981-1.667 5.445-.876 5.591-3.027 42.57-3.043 52.304-.017 10.945-1.186 10.64-1.758-.46z" transform="matrix(.04728 0 0 .04728 74.704 -1.933)"/>
      <path stroke="url(#icon-add_svg__ae)" d="M-1448.8 234.23c-.76-13.022-3.358-42.768-4.269-48.869-1.036-6.944-2.336-8.243-10.779-10.77l-6.71-2.009 6.24-1.366c8.834-1.936 11.057-3.172 13.424-7.467 1.105-2.004 2.178-3.63 2.386-3.613.207.016 1.395 1.624 2.64 3.571 3.718 5.82 5.838 6.196 54.487 9.658 10.059.715 18.19 1.4 18.069 1.521-.122.121-13.442 1.094-29.602 2.162-16.159 1.068-31.417 2.261-33.905 2.651-5.272.827-6.765 2.215-7.46 6.942-.764 5.194-2.712 38.74-2.729 46.974-.022 10.874-1.171 11.268-1.793.615z" transform="matrix(.04728 0 0 .04728 74.704 -1.933)"/>
      <path stroke="url(#icon-add_svg__af)" d="M-1448.8 230.2c-.752-12.513-3.398-41.138-4.25-45.988-.943-5.368-3.452-7.7-10.629-9.88l-5.396-1.64 6.356-1.595c7.577-1.901 9.825-3.247 12.11-7.246.943-1.654 1.886-2.989 2.093-2.966.208.022 1.404 1.461 2.658 3.199 3.87 5.359 9.346 6.372 50.511 9.34 10.37.749 18.006 1.445 16.97 1.547-1.038.103-13.934 1.038-28.659 2.078-31.827 2.248-32.787 2.37-35.203 4.447-1.573 1.353-1.984 2.601-2.52 7.635-.96 9.029-2.24 30.899-2.3 39.314-.079 10.98-1.122 12.034-1.74 1.755z" transform="matrix(.04728 0 0 .04728 74.704 -1.933)"/>
      <path stroke="url(#icon-add_svg__ag)" d="M-1449.2 221.35c-1.287-17.568-2.971-33.836-3.942-38.077-1.005-4.394-3.493-6.656-9.879-8.984l-4.649-1.695 4.855-1.232c7.565-1.92 10.306-3.81 14.008-9.658.09-.143 1.631 1.26 3.424 3.116 2.809 2.907 3.993 3.54 8.548 4.564 5.911 1.328 21.106 2.935 41.47 4.385 7.467.532 13.066 1.053 12.444 1.159s-10.973.887-23.002 1.737c-34.039 2.406-36.449 2.864-38.11 7.236-.985 2.589-2.133 15.907-2.944 34.124-.375 8.436-.82 15.476-.99 15.645s-.724-5.375-1.233-12.32z" transform="matrix(.04728 0 0 .04728 74.704 -1.933)"/>
      <path stroke="url(#icon-add_svg__ah)" d="M-1448.8 222.3c-.83-12.806-3.375-36.638-4.241-39.72-.93-3.306-4.793-6.905-8.784-8.18-1.59-.51-3.137-1.146-3.436-1.416s1.716-1.137 4.478-1.928c3.97-1.137 5.813-2.202 8.801-5.082l3.78-3.643 2.678 2.61c1.472 1.434 3.903 3.119 5.4 3.743 3.35 1.395 16.268 3.082 37.626 4.915 8.918.765 15.218 1.43 13.999 1.478-1.219.048-11.23.776-22.248 1.617-27.45 2.095-31.498 2.889-33.143 6.499-1.156 2.536-2.157 12.276-3.128 30.435-.454 8.503-.92 15.8-1.035 16.215s-.451-2.98-.747-7.542z" transform="matrix(.04728 0 0 .04728 74.704 -1.933)"/>
      <path stroke="url(#icon-add_svg__ai)" d="M-1448.7 218.91c-.692-9.666-3.426-34.551-4.002-36.438-.783-2.564-5.127-6.739-8.556-8.224l-3.42-1.48 4.815-1.758c3.135-1.145 5.935-2.858 8.03-4.915l3.218-3.158 4.071 3.074c5.308 4.008 12.463 5.377 40.54 7.756 5.993.508 10.574 1.022 10.18 1.141-.394.12-9.2.912-19.57 1.76-22.058 1.804-27.238 2.667-29.48 4.91-2.065 2.065-3.057 8.905-4.322 29.79l-.937 15.46z" transform="matrix(.04728 0 0 .04728 74.704 -1.933)"/>
      <path stroke="url(#icon-add_svg__aj)" d="M-1449.9 203.77c-.96-9.363-2.038-18.315-2.394-19.895-.727-3.225-5.056-8.118-8.41-9.508-1.186-.49-2.156-1.145-2.156-1.453s1.537-1.147 3.415-1.864 5.12-2.652 7.202-4.298l3.786-2.992 3.511 2.325c6.083 4.03 11.99 5.29 34.977 7.461l13.853 1.309-15.838 1.343c-26.794 2.272-30.606 3.146-32.379 7.425-1.137 2.744-2.486 14.265-3.294 28.12l-.527 9.05z" transform="matrix(.04728 0 0 .04728 74.704 -1.933)"/>
      <path stroke="url(#icon-add_svg__ak)" d="M-1448.4 214.52c-2.468-22.841-3.313-29.6-3.948-31.579-.85-2.653-5.998-8.2-8.282-8.924-2.222-.706-1.778-1.35 2.185-3.168 2-.918 4.931-2.698 6.514-3.955s3.147-2.287 3.477-2.287 2.235 1 4.233 2.222c5.654 3.457 13.166 4.984 34.93 7.098l9.427.916-15.083 1.344c-22.96 2.046-28.16 3.365-29.75 7.55-.804 2.113-2.219 13.35-3.004 23.858-.325 4.355-.64 7.472-.699 6.925z" transform="matrix(.04728 0 0 .04728 74.704 -1.933)"/>
      <path stroke="url(#icon-add_svg__al)" d="M-1448.7 207.59c-.281-1.037-.899-5.619-1.372-10.181-.473-4.563-1.164-9.94-1.534-11.951-.746-4.046-4.02-8.754-7.528-10.827-1.214-.717-2.207-1.518-2.207-1.78 0-.263 1.411-1.114 3.136-1.892 1.724-.778 4.436-2.356 6.027-3.508 1.59-1.152 3.243-2.094 3.673-2.094s2.724.978 5.097 2.173c5.523 2.782 12.669 4.332 27.569 5.98l11.941 1.32-13.816 1.328c-14.208 1.366-22.739 2.913-24.838 4.506-.658.499-1.583 1.633-2.055 2.52-.808 1.516-2.841 15.413-3.35 22.897-.188 2.756-.328 3.04-.743 1.509z" transform="matrix(.04728 0 0 .04728 74.704 -1.933)"/>
      <path stroke="url(#icon-add_svg__am)" d="M-1455.6 255.7c-.217-1.778-.554-19.3-.749-38.938-.195-19.638-.497-35.848-.673-36.023s-14.005-2.027-30.734-4.115c-16.728-2.089-30.949-4.11-31.6-4.493-.782-.46.24-.573 2.995-.335 7.88.682 44.674 1.015 44.003.399-.603-.554-23.75-1.445-41.396-1.594-9.582-.08-5.968-1.157 6.033-1.796 28.69-1.53 47.053-2.815 49.464-3.463 1.823-.49 3.013-1.403 3.649-2.798.904-1.986 3.928-24.171 5.013-36.777.984-11.45 1.463-7.775 1.258 9.66-.139 11.849.038 17.125.55 16.359.44-.66.783-8.044.825-17.723.085-19.914.952-18.87 2.192 2.64.938 16.287 2.056 27.927 2.75 28.62.227.229 17.778.585 39.002.792l38.59.377.214 7.724.215 7.723-76.6.39-.755 76.172-13.851.432zm8.59-2.856c0-.415-.34-.754-.754-.754s-.755.34-.755.754c0 .415.34.754.755.754s.754-.339.754-.754zm-.214-27.339c-.137-21.709.048-27.066 1.16-33.576.727-4.26 1.739-8.411 2.247-9.226 2.216-3.547 10.757-5.013 45.451-7.798 1.817-.145 1.05-.292-1.928-.368-7.861-.202-29.228-3.038-35.26-4.68-3.031-.825-7.173-2.342-9.203-3.37l-3.69-1.871-5.126 3.132c-2.82 1.723-5.911 3.609-6.87 4.191l-1.744 1.059 2.965 2.147c5.924 4.292 7.09 7.208 8.753 21.89 1.563 13.805 1.85 19.559 1.904 38.274.029 9.777.331 16.026.776 16.026.458 0 .668-9.6.565-25.83zm80.91-46.57c0-.415-.15-.754-.333-.754-.183 0-.542.34-.798.754-.257.415-.107.754.332.754.44 0 .799-.339.799-.754zm-3.834-4.223c.173-.166-5.427-.297-12.444-.29-7.501.007-12.332.28-11.725.666.976.617 23.5.267 24.17-.376zm-95.717-1.81c0-.415-.529-.754-1.175-.754-.647 0-.967.34-.71.754.256.415.785.754 1.176.754.39 0 .71-.34.71-.754zm2.64 0c.256-.415-.083-.754-.754-.754s-1.01.34-.754.754c.256.415.595.754.754.754.158 0 .498-.34.754-.754zm-5.86-.456c-.251-.25-.902-.277-1.446-.06-.602.242-.423.42.455.456.796.033 1.24-.145.99-.396zm103.53-4.07c0-.414-.36-.753-.8-.753s-.588.34-.332.754c.256.415.616.754.799.754s.332-.34.332-.754zm-82.205-11.312c0-.415-.15-.754-.332-.754s-.543.34-.799.754c-.256.415-.107.754.333.754s.798-.34.798-.754zm0-2.64c0-.622-.133-1.13-.296-1.13s-.492.508-.73 1.13-.106 1.131.296 1.131.73-.509.73-1.13z" transform="matrix(.04728 0 0 .04728 74.704 -1.933)"/>
    </g>
    <g stroke-width="7.256">
      <path stroke="url(#icon-add_svg__an)" d="M-1454.6 249.6c-.727-4.4-1.272-21.918-1.21-38.929.147-40.703 3.952-33.113 5.882 11.732 1.273 29.569 1.48 30.783 2.722 15.998.74-8.8 1.485-23.678 1.656-33.063.172-9.386 1.242-18.505 2.38-20.265 2.341-3.624 2.989 51.064.764 64.527-1.07 6.467-2.237 8-6.097 8-3.86 0-5.028-1.533-6.097-8z" transform="matrix(.04728 0 0 .04728 74.704 -1.933)"/>
      <path stroke="url(#icon-add_svg__ao)" d="M-1490.1 175.48l-18.132-2.623 36.263-1.313-27.73-2.474 20.934-1.304c11.514-.718 21.894-2.264 23.066-3.436 1.172-1.173 2.918-6.823 3.879-12.557.96-5.733 1.874-8.024 2.03-5.09.201 3.772.81 4.502 2.083 2.494 1.267-1.998 2.205-.813 3.167 4 1.92 9.596 1.705 13.163-.703 11.675-1.138-.703-5.218.44-9.065 2.54-3.848 2.101-9.395 4.427-12.328 5.168l-5.333 1.348 5.74.252c3.157.14 6.334 1.213 7.059 2.386 1.65 2.67-7.206 2.365-30.93-1.067z" transform="matrix(.04728 0 0 .04728 74.704 -1.933)"/>
      <path stroke="url(#icon-add_svg__ap)" d="M-1449.4 140.28c-2.038-10.447-1.05-17.064 2.545-17.064 2.146 0 3.72 1.587 3.7 3.733-.027 3.092-.368 3.202-1.99.64-1.4-2.215-2.194-.395-2.794 6.398-.46 5.221-1.118 8.053-1.461 6.293z" transform="matrix(.04728 0 0 .04728 74.704 -1.933)"/>
      <path stroke="url(#icon-add_svg__aq)" d="M-1451 255.04c-2.813-3.548-5.09-50.117-2.795-57.168 1.454-4.467 1.772-3.774 1.961 4.266.124 5.28.878 17.758 1.675 27.73 1.843 23.042 4.341 15.966 4.895-13.865.319-17.156.802-20.078 2.47-14.932 2.824 8.715.315 50.381-3.25 53.968-2.262 2.276-3.151 2.276-4.956 0z" transform="matrix(.04728 0 0 .04728 74.704 -1.933)"/>
      <path stroke="url(#icon-add_svg__ar)" d="M-1453.1 158.95c3.575-9.989 6.563-11.188 7.83-3.142.762 4.847.133 7.302-2.134 8.325-7.067 3.187-8.293 2.072-5.696-5.183z" transform="matrix(.04728 0 0 .04728 74.704 -1.933)"/>
      <path stroke="url(#icon-add_svg__as)" d="M-1438.5 190.41c.043-3.52.521-4.701 1.062-2.626.541 2.076.506 4.955-.079 6.4-.584 1.444-1.026-.254-.983-3.774z" transform="matrix(.04728 0 0 .04728 74.704 -1.933)"/>
      <path stroke="url(#icon-add_svg__at)" d="M-1457.2 166.44c-1.646-2.73-1.508-5.216.506-9.091 1.524-2.933 2.786-6.956 2.803-8.94.053-6.036 4.725-6.995 8.91-1.829 2.303 2.845 3.92 8.264 3.92 13.138 0 6.757-.76 8.297-4.092 8.297-2.25 0-5.372.49-6.937 1.091-1.564.6-3.864-.6-5.11-2.666zm11.488-4.061c2.488-4.445.743-11.43-2.855-11.43-2.134 0-7.426 10.109-7.426 14.185 0 2.465 8.658.146 10.281-2.755z" transform="matrix(.04728 0 0 .04728 74.704 -1.933)"/>
      <path stroke="url(#icon-add_svg__au)" d="M-1438.5 203.21c.043-3.52.521-4.701 1.062-2.626.541 2.076.506 4.955-.079 6.4-.584 1.444-1.026-.254-.983-3.774z" transform="matrix(.04728 0 0 .04728 74.704 -1.933)"/>
      <path stroke="url(#icon-add_svg__av)" d="M-1426.1 178.61c5.28-.963 13.839-1.823 19.02-1.91 13.758-.23 9.351-2.36-9.785-4.73-9.185-1.136-17.662-3.058-18.835-4.27-2.077-2.145 66.115-.428 69.86 1.76.88.514 1.6 3.193 1.6 5.954v5.02l-35.73-.036c-25.099-.026-32.874-.558-26.13-1.788zm50.7-3.592c-3.205-.487-8.965-.497-12.799-.022-3.834.475-1.211.873 5.828.885 7.04.012 10.176-.376 6.97-.863z" transform="matrix(.04728 0 0 .04728 74.704 -1.933)"/>
      <path stroke="url(#icon-add_svg__aw)" d="M-1396.9 181.35l32.399-.648.856-6.878c.835-6.704.865-6.676 1.198 1.122l.341 7.999-67.193-.947z" transform="matrix(.04728 0 0 .04728 74.704 -1.933)"/>
      <path stroke="url(#icon-add_svg__ax)" d="M-1509.9 183.54c3.787-.471 10.506-.479 14.932-.017 4.426.462 1.327.847-6.885.857-8.213.009-11.834-.369-8.047-.84z" transform="matrix(.04728 0 0 .04728 74.704 -1.933)"/>
      <path stroke="url(#icon-add_svg__ay)" d="M-1503.9 182.95l-10.666-1.463 12.391-.335c7.795-.21 11.902.456 11.073 1.798-.725 1.173-1.502 1.982-1.726 1.798-.224-.184-5.207-.993-11.073-1.798z" transform="matrix(.04728 0 0 .04728 74.704 -1.933)"/>
      <path stroke="url(#icon-add_svg__az)" d="M-1519.5 171.88c1.29-3.868 5.2-4.413 5.2-.726 0 1.793-1.36 3.259-3.022 3.259-1.663 0-2.642-1.14-2.178-2.533z" transform="matrix(.04728 0 0 .04728 74.704 -1.933)"/>
      <path stroke="url(#icon-add_svg__aA)" d="M-1513.5 163.75l-22.398-1.298 27.197-.418c16.988-.26 27.197.384 27.197 1.716 0 1.173-2.16 1.945-4.8 1.716-2.64-.23-14.878-1.002-27.197-1.716z" transform="matrix(.04728 0 0 .04728 74.704 -1.933)"/>
      <path stroke="url(#icon-add_svg__aB)" d="M-1473.5 162.24c2.653-.51 6.493-.49 8.533.043 2.039.534-.132.951-4.825.928-4.693-.024-6.361-.46-3.708-.971z" transform="matrix(.04728 0 0 .04728 74.704 -1.933)"/>
      <path stroke="url(#icon-add_svg__aC)" d="M-1465 181.53c1.466-.592 3.866-.592 5.333 0s.266 1.076-2.667 1.076-4.133-.484-2.666-1.076z" transform="matrix(.04728 0 0 .04728 74.704 -1.933)"/>
      <path stroke="url(#icon-add_svg__aD)" d="M-1455.2 256.36c-1.053-2.744-1.674-2.844-3.307-.533-1.279 1.81-1.559-5.613-.77-20.418.683-12.795 1.309-29.593 1.391-37.33.094-8.85.755-12.52 1.782-9.895 1.619 4.14 1.65 4.14 4.051 0 2.39-4.12 2.422-4.118 2.635.094l.214 4.266 1.834-4.266c1.592-3.706 1.877-3.426 2.172 2.133.559 10.53-.23 24.874-2.055 37.33l-1.718 11.731-.512-9.599-.511-9.599-1.765 8.533c-2.398 11.594-2.365 22.8.078 26.664 1.788 2.828 2.414 2.808 5.392-.168 2.321-2.32 3.91-9.95 5.112-24.531l1.742-21.163.299 20.938c.164 11.516-.695 22.795-1.91 25.064-2.68 5.007-12.324 5.516-14.154.747zm.851-49.416c-.46-4.4-.837-.8-.837 8 0 8.798.377 12.398.837 7.998.46-4.4.46-11.599 0-15.998z" transform="matrix(.04728 0 0 .04728 74.704 -1.933)"/>
      <path stroke="url(#icon-add_svg__aE)" d="M-1438.7 233.07l-.744-21.331-2.144 18.131c-1.18 9.972-2.566 16.932-3.08 15.465-.515-1.466-2.296-2.666-3.958-2.666-2.115 0-2.946-2.402-2.77-8 .252-7.96.26-7.968 1.881-1.6l1.629 6.4.68-7.466c.725-7.946 1.05-14.725 1.688-35.196.285-9.135.973-11.817 2.403-9.37 1.103 1.887 1.62 5.43 1.148 7.877-.616 3.2.011 4.114 2.237 3.26 2.494-.958 2.703-.16 1.076 4.118-1.28 3.367-1.265 6.057.042 7.364 1.147 1.146 1.748 11.43 1.358 23.202l-.702 21.143z" transform="matrix(.04728 0 0 .04728 74.704 -1.933)"/>
      <path stroke="url(#icon-add_svg__aF)" d="M-1443.1 256.54c0-1.76-.96-3.2-2.133-3.2-2.863 0-2.74-7.974.138-8.933 1.248-.417 2.92-5.056 3.712-10.31l1.443-9.554 1.34 10.666c.884 7.042 1.293 2.511 1.204-13.332-.075-13.199-.909-23.998-1.853-23.998s-1.587-2.64-1.427-5.866c.249-5.03.422-5.181 1.214-1.066.509 2.64 1.818 4.8 2.91 4.8 3.08 0 2.533 58.324-.575 61.433-3.484 3.484-5.973 3.217-5.973-.64z" transform="matrix(.04728 0 0 .04728 74.704 -1.933)"/>
      <path stroke="url(#icon-add_svg__aG)" d="M-1455.3 116.82l.393-24.531 13.865-1.337-.033 17.733c-.023 12.237-.674 16.742-2.1 14.534-1.138-1.76-2.083-8.296-2.101-14.524-.037-12.829-4.214-13.596-4.436-.815-.075 4.33-1.452 13.633-3.06 20.672l-2.921 12.8z" transform="matrix(.04728 0 0 .04728 74.704 -1.933)"/>
      <path stroke="url(#icon-add_svg__aH)" d="M-1453.5 109.07c-.252-14.087.084-15.312 4.528-16.503 2.64-.707 5.52-1.3 6.4-1.315s1.584 5.97 1.566 13.303c-.023 9.395-.643 12.387-2.1 10.132-1.137-1.76-2.083-6.32-2.1-10.132-.056-11.711-3.811-7.689-5.975 6.399l-2.047 13.332z" transform="matrix(.04728 0 0 .04728 74.704 -1.933)"/>
      <path stroke="url(#icon-add_svg__aI)" d="M-1444.5 104.36c-1.366-6.829-5.08-9.418-5.08-3.54 0 1.76-.828 3.2-1.838 3.2-1.01 0-1.379-2.4-.818-5.334 1.622-8.485 8.552-6.98 10.28 2.233.78 4.161.83 8.154.111 8.873s-1.914-1.725-2.655-5.432z" transform="matrix(.04728 0 0 .04728 74.704 -1.933)"/>
      <path stroke="url(#icon-add_svg__aJ)" d="M-1560.5 176.55V61.36h230.38v230.38h-230.38zm128.1 78.177c1.568-7.007 2.207-21.831 1.656-38.396l-.898-26.983h73.786v-29.864h-76.792V86.958h-27.73v70.393l-6.933.246c-3.813.135-20.42.045-36.903-.2-24.462-.362-30.46.146-32.634 2.765-1.8 2.17-1.939 3.656-.426 4.59 1.23.761 2.237 5.983 2.237 11.606v10.223l17.875 1.261c9.831.694 26.779.685 37.662-.02l19.786-1.282-1.504 32.29c-.827 17.759-.87 35.669-.095 39.8l1.409 7.51h26.95z" transform="matrix(.04728 0 0 .04728 74.704 -1.933)"/>
      <path stroke="url(#icon-add_svg__aK)" d="M-1560.5 176.55V61.36h230.38v230.38h-230.38zm128.25 82.125c.749-3.52 1.475-20.558 1.614-37.863l.252-31.463h72.526v-29.864h-76.792V86.959h-27.73v70.393h-37.068c-40.925 0-43.859.857-39.77 11.612 1.199 3.152 2.18 8.472 2.18 11.822 0 5.941.35 6.128 14.31 7.623 7.87.843 24.608.99 37.196.325l22.888-1.207-1.25 33.635c-.689 18.499-.6 36.23.196 39.403 1.415 5.638 1.772 5.754 15.768 5.139 13.999-.615 14.35-.773 15.681-7.029z" transform="matrix(.04728 0 0 .04728 74.704 -1.933)"/>
    </g>
    <path stroke="url(#icon-add_svg__aL)" stroke-width="37.115" d="M-1560.5 176.55V61.36h230.38v230.38h-230.38zm128.04 84.119c1.144-3.01 2.08-20.288 2.08-38.396v-32.924h72.526v-29.864h-76.792V86.959h-27.73v70.393l-36.796.033c-20.238.018-38.07.84-39.63 1.829-2.309 1.464-2.363 4.186-.292 14.713 2.012 10.227 3.49 13.172 7.1 14.14 2.507.672 18.717 1.236 36.022 1.252l31.464.03v36.973c0 20.336.64 37.614 1.422 38.396.782.782 7.525 1.422 14.985 1.422 12.596 0 13.71-.39 15.643-5.471z" transform="matrix(.04728 0 0 .04728 74.704 -1.933)"/>
  </g>
  <text x="-405.775" y="68.234" fill="#4cc600" stroke="url(#icon-add_svg__aM)" stroke-width="1.706" font-family="sans-serif" font-size="68.236" letter-spacing="0" transform="matrix(.1812 0 0 .17623 74.704 -1.933)" word-spacing="0" style="line-height:1.25">
    <tspan x="-405.775" y="68.234">+</tspan>
  </text>
  <path fill="#03f611" fill-opacity=".439" stroke="#f20b00" stroke-linecap="round" stroke-linejoin="round" stroke-opacity=".984" stroke-width="1.567" d="M-415.31 46.16V13.746h65.581v64.827h-65.581zm61.812 0V17.138h-58.42v58.043h58.42z" filter="url(#icon-add_svg__aN)" opacity=".879" paint-order="markers fill stroke" transform="translate(74.704 -1.933) scale(.17869)"/>
</svg>
