<svg xmlns="http://www.w3.org/2000/svg" id="icon-rotate_svg__icon-rotate_svg__svg909" width="32" height="32" version="1.1" viewBox="0 0 16 16">
  <defs/>
  <defs id="icon-rotate_svg__icon-rotate_svg__defs905">
    <style id="current-color-scheme" type="text/css"/>
  </defs>
  <g id="icon-rotate_svg__g825" transform="matrix(.90801 0 0 .90801 .175 .736)">
    <path id="icon-rotate_svg__icon-rotate_svg__path1801-6" fill="none" stroke="#00a" stroke-dasharray="none" stroke-linecap="butt" stroke-linejoin="miter" stroke-miterlimit="4" stroke-opacity="1" stroke-width="1.839" d="M13.015 11.033a5.571 5.571 0 01-3.498 2.5c-1.437.32-3 .032-4.228-.78a5.563 5.563 0 01-2.319-3.31 5.563 5.563 0 01.57-4.002v0a5.472 5.472 0 013.236-2.848c1.407-.452 3-.294 4.29.428a5.44 5.44 0 012.208 2.325"/>
    <g id="icon-rotate_svg__icon-rotate_svg__g4" fill="#000" transform="matrix(.02964 -.00282 .00282 .02964 .132 2.69)">
      <path id="icon-rotate_svg__icon-rotate_svg__path2" fill="#00a" d="M327.167 130.463c52.929 31.531 105.856 63.063 158.783 94.595.842-61.602 1.685-123.204 2.53-184.806-52.651 29.444-110.372 61.722-161.313 90.211z"/>
    </g>
  </g>
</svg>
