<?xml version="1.0" encoding="UTF-8"?>
<svg width="32" height="32" version="1.1" viewBox="0 0 16 16" xmlns="http://www.w3.org/2000/svg" xmlns:cc="http://creativecommons.org/ns#" xmlns:dc="http://purl.org/dc/elements/1.1/" xmlns:rdf="http://www.w3.org/1999/02/22-rdf-syntax-ns#" xmlns:xlink="http://www.w3.org/1999/xlink">
 <metadata>
  <rdf:RDF>
   <cc:Work rdf:about="">
    <dc:format>image/svg+xml</dc:format>
    <dc:type rdf:resource="http://purl.org/dc/dcmitype/StillImage"/>
    <dc:title/>
   </cc:Work>
  </rdf:RDF>
 </metadata>
 <defs>
  <style id="current-color-scheme" type="text/css"/>
  <filter id="filter1539" color-interpolation-filters="sRGB">
   <feFlood flood-color="rgb(0,0,0)" flood-opacity=".49804" result="flood"/>
   <feComposite in="flood" in2="SourceGraphic" operator="in" result="composite1"/>
   <feGaussianBlur in="composite1" result="blur" stdDeviation="1.5"/>
   <feOffset dx="0" dy="0" result="offset"/>
   <feComposite in="offset" in2="SourceGraphic" operator="out" result="composite2"/>
  </filter>
  <mask id="mask1555" maskUnits="userSpaceOnUse">
   <rect x="-.067797" y=".067797" width="16.542" height="16.271" fill="#ffd5d5" stroke="#f00" stroke-linecap="round" stroke-linejoin="round" stroke-width=".1665" style="paint-order:stroke fill markers"/>
  </mask>
  <linearGradient id="linearGradient2525" x1="10.003" x2="4.7825" y1="3.394" y2="11.733" gradientUnits="userSpaceOnUse">
   <stop stop-color="#ff2a2a" offset="0"/>
   <stop stop-color="#a00" offset="1"/>
  </linearGradient>
 </defs>
 <g mask="url(#mask1555)">
  <path transform="rotate(-90 7.9492 7.3729)" d="m-3.661 19.186v-24.814m24 24.814v-24.814m-24.203 23.39 24.814-1e-6m-24.814-22h24.814m-9.6091 14.665c0.02657-0.13108 0.0076-0.27016-0.04894-0.39137-0.05653-0.12121-0.14948-0.22105-0.24406-0.31563l-2.293-2.293 2.283-2.284c0.0033-0.00333 0.0067-0.00666 0.01-0.01 0.18292-0.18383 0.28922-0.44167 0.289-0.701l-0.014-9e-3c-0.022322-0.25502-0.13701-0.50096-0.31803-0.68197-0.18102-0.18102-0.42696-0.2957-0.68198-0.31803-0.13229-0.011579-0.26832 0.0032274-0.39023 0.055877s-0.22287 0.14322-0.31677 0.23712l-2.293 2.293-2.293-2.293c-0.092961-0.092961-0.19293-0.18261-0.31365-0.23468-0.12072-0.05207-0.25537-0.066654-0.38635-0.05532-0.2551 0.022074-0.50119 0.13669-0.68225 0.31775-0.18106 0.18106-0.29567 0.42715-0.31775 0.68225-0.011471 0.13251 0.00355 0.26873 0.056382 0.3908 0.052836 0.12206 0.14357 0.22315 0.23762 0.3172l2.293 2.293-2.283 2.283c-0.09541 0.09541-0.1876 0.1977-0.24216 0.3211-0.054562 0.1234-0.071522 0.26139-0.060838 0.3959 0.020292 0.25547 0.13507 0.50216 0.31657 0.6831s0.42811 0.29483 0.68343 0.3169c0.1323 0.01144 0.26831-0.0033 0.39024-0.0559 0.12193-0.05261 0.22289-0.14318 0.31676-0.2371l2.299-2.3 2.283 2.282c0.095991 0.09595 0.19866 0.18876 0.32238 0.24456 0.12372 0.05581 0.26221 0.07462 0.39762 0.06544 0.25663-0.01741 0.50566-0.13058 0.68754-0.31246 0.18188-0.18188 0.29506-0.43091 0.31246-0.68754zm0 0c0.02657-0.13108 0.0076-0.27016-0.04894-0.39137-0.05653-0.12121-0.14948-0.22105-0.24406-0.31563l-2.293-2.293 2.283-2.284c0.0033-0.00333 0.0067-0.00666 0.01-0.01 0.18292-0.18383 0.28922-0.44167 0.289-0.701l-0.014-9e-3c-0.022322-0.25502-0.13701-0.50096-0.31803-0.68197-0.18102-0.18102-0.42696-0.2957-0.68198-0.31803-0.13229-0.011579-0.26832 0.0032274-0.39023 0.055877s-0.22287 0.14322-0.31677 0.23712l-2.293 2.293-2.293-2.293c-0.092961-0.092961-0.19293-0.18261-0.31365-0.23468-0.12072-0.05207-0.25537-0.066654-0.38635-0.05532-0.2551 0.022074-0.50119 0.13669-0.68225 0.31775-0.18106 0.18106-0.29567 0.42715-0.31775 0.68225-0.011471 0.13251 0.00355 0.26873 0.056382 0.3908 0.052836 0.12206 0.14357 0.22315 0.23762 0.3172l2.293 2.293-2.283 2.283c-0.09541 0.09541-0.1876 0.1977-0.24216 0.3211-0.054562 0.1234-0.071522 0.26139-0.060838 0.3959 0.020292 0.25547 0.13507 0.50216 0.31657 0.6831s0.42811 0.29483 0.68343 0.3169c0.1323 0.01144 0.26831-0.0033 0.39024-0.0559 0.12193-0.05261 0.22289-0.14318 0.31676-0.2371l2.299-2.3 2.283 2.282c0.095991 0.09595 0.19866 0.18876 0.32238 0.24456 0.12372 0.05581 0.26221 0.07462 0.39762 0.06544 0.25663-0.01741 0.50566-0.13058 0.68754-0.31246 0.18188-0.18188 0.29506-0.43091 0.31246-0.68754z" fill="#f00" filter="url(#filter1539)" stroke="#f00" stroke-width=".5px"/>
  <path d="m22.206 21.217h-29.898m29.898-28.918h-29.898m28.183 29.163-1e-6 -29.898m-26.508 29.898v-29.898m17.67 11.578c-0.15794-0.032015-0.32552-0.00916-0.47157 0.058969-0.14605 0.068114-0.26635 0.18012-0.3803 0.29407l-2.7629 2.7629-2.752-2.7508c-0.00401-0.00398-0.00802-0.00807-0.012049-0.012049-0.2215-0.2204-0.53217-0.34848-0.84465-0.34822l-0.010844 0.016869c-0.30728 0.026896-0.60362 0.16509-0.82172 0.3832-0.21811 0.21811-0.3563 0.51445-0.38319 0.82172-0.013951 0.1594 0.00389 0.3233 0.067327 0.4702 0.063438 0.14689 0.17257 0.26854 0.28571 0.38168l2.7629 2.7629-2.7629 2.7629c-0.11201 0.11201-0.22003 0.23247-0.28277 0.37792-0.06274 0.14545-0.080313 0.3077-0.066657 0.46552 0.026597 0.30738 0.1647 0.6039 0.38286 0.82205 0.21816 0.21816 0.51468 0.35626 0.82206 0.38286 0.15966 0.01382 0.3238-0.0043 0.47088-0.06794 0.14707-0.06366 0.26888-0.17299 0.3822-0.28631l2.7629-2.7629 2.7508 2.7508c0.11496 0.11496 0.23821 0.22604 0.3869 0.29178 0.14869 0.06574 0.31496 0.08618 0.47703 0.0733 0.30782-0.02445 0.60507-0.16275 0.82307-0.38144 0.21801-0.21869 0.35525-0.51584 0.38184-0.82348 0.01378-0.15941-4e-3 -0.32329-0.06735-0.4702-0.06339-0.14691-0.17252-0.26856-0.28568-0.38167l-2.7713-2.7701 2.7496-2.7508c0.11561-0.11566 0.22744-0.23937 0.29468-0.38844 0.06725-0.14907 0.08991-0.31594 0.07885-0.4791-0.020978-0.30922-0.15734-0.60927-0.37649-0.82843-0.21915-0.21915-0.51921-0.35552-0.82843-0.37649zm0 0c-0.15794-0.032015-0.32552-0.00916-0.47157 0.058969-0.14605 0.068114-0.26635 0.18012-0.3803 0.29407l-2.7629 2.7629-2.752-2.7508c-0.00401-0.00398-0.00802-0.00807-0.012049-0.012049-0.2215-0.2204-0.53217-0.34848-0.84465-0.34822l-0.010844 0.016869c-0.30728 0.026896-0.60362 0.16509-0.82172 0.3832-0.21811 0.21811-0.3563 0.51445-0.38319 0.82172-0.013951 0.1594 0.00389 0.3233 0.067327 0.4702 0.063438 0.14689 0.17257 0.26854 0.28571 0.38168l2.7629 2.7629-2.7629 2.7629c-0.11201 0.11201-0.22003 0.23247-0.28277 0.37792-0.06274 0.14545-0.080313 0.3077-0.066657 0.46552 0.026597 0.30738 0.1647 0.6039 0.38286 0.82205 0.21816 0.21816 0.51468 0.35626 0.82206 0.38286 0.15966 0.01382 0.3238-0.0043 0.47088-0.06794 0.14707-0.06366 0.26888-0.17299 0.3822-0.28631l2.7629-2.7629 2.7508 2.7508c0.11496 0.11496 0.23821 0.22604 0.3869 0.29178 0.14869 0.06574 0.31496 0.08618 0.47703 0.0733 0.30782-0.02445 0.60507-0.16275 0.82307-0.38144 0.21801-0.21869 0.35525-0.51584 0.38184-0.82348 0.01378-0.15941-4e-3 -0.32329-0.06735-0.4702-0.06339-0.14691-0.17252-0.26856-0.28568-0.38167l-2.7713-2.7701 2.7496-2.7508c0.11561-0.11566 0.22744-0.23937 0.29468-0.38844 0.06725-0.14907 0.08991-0.31594 0.07885-0.4791-0.020978-0.30922-0.15734-0.60927-0.37649-0.82843-0.21915-0.21915-0.51921-0.35552-0.82843-0.37649z" fill="url(#linearGradient2525)" stroke="#0d0000" stroke-width=".125"/>
 </g>
</svg>
