<svg xmlns="http://www.w3.org/2000/svg" xmlns:xlink="http://www.w3.org/1999/xlink" width="32" height="32" viewBox="0 0 15 15">
  <defs/>
  <defs>
    <linearGradient id="icon-edit_svg__b">
      <stop offset="0" stop-color="#fca"/>
      <stop offset="1" stop-color="#d45500"/>
    </linearGradient>
    <linearGradient id="icon-edit_svg__a">
      <stop offset="0" stop-color="red"/>
      <stop offset="1" stop-color="#a00"/>
    </linearGradient>
    <linearGradient id="icon-edit_svg__d" x1="9.886" x2="13.636" y1="3.71" y2="3.71" gradientUnits="userSpaceOnUse" href="#icon-edit_svg__a"/>
    <linearGradient id="icon-edit_svg__e" x1="3.431" x2="5.801" y1="11.182" y2="12.305" gradientUnits="userSpaceOnUse" href="#icon-edit_svg__b"/>
    <filter id="icon-edit_svg__c" color-interpolation-filters="sRGB">
      <feFlood flood-color="#000" flood-opacity=".498" result="flood"/>
      <feComposite in="flood" in2="SourceGraphic" operator="in" result="composite1"/>
      <feGaussianBlur in="composite1" result="blur" stdDeviation=".2"/>
      <feOffset result="offset"/>
      <feComposite in="SourceGraphic" in2="offset" result="fbSourceGraphic"/>
      <feColorMatrix in="fbSourceGraphic" result="fbSourceGraphicAlpha" values="0 0 0 -1 0 0 0 0 -1 0 0 0 0 -1 0 0 0 0 1 0"/>
      <feFlood flood-color="#000" flood-opacity=".498" result="flood"/>
      <feComposite in="flood" in2="fbSourceGraphic" operator="in" result="composite1"/>
      <feGaussianBlur in="composite1" result="blur" stdDeviation=".3"/>
      <feOffset result="offset"/>
      <feComposite in="fbSourceGraphic" in2="offset" result="composite2"/>
    </filter>
  </defs>
  <g filter="url(#icon-edit_svg__c)" transform="matrix(1.1897 0 0 1.1897 -1.98 -1.336)">
    <path fill="none" stroke="#000" stroke-width=".156" d="M5.096 11.141l-.765-.766 6.112-6.112.765.766zm.723.723L3.608 9.652 9.72 3.541l2.211 2.211zm0 0l-.723-.723 6.113-6.112.722.723zm-1.488-1.489l-.723-.723L9.72 3.541l.723.722zm-1.592 2.07l.287.292-.632.62-.287-.294zm-.118.406l2.85-.782L3.404 10zm10.735-9.56l-1.175-1.176c-.286-.287-.77-.266-1.081.046L9.997 3.264l2.21 2.21 1.104-1.102c.31-.312.331-.796.045-1.082zM5.82 11.864L3.608 9.652 9.72 3.541l2.211 2.211z"/>
  </g>
  <path fill="#fc0" d="M4.943 12.779l-2.631-2.631 7.272-7.271 2.63 2.63z"/>
  <path fill="url(#icon-edit_svg__d)" stroke="#000" stroke-width=".156" d="M13.356 3.29l-1.175-1.175c-.286-.287-.77-.266-1.081.046L9.997 3.264l2.21 2.21 1.104-1.102c.31-.312.331-.796.045-1.082z" transform="matrix(1.1897 0 0 1.1897 -1.98 -1.336)"/>
  <path fill="url(#icon-edit_svg__e)" stroke="#000" stroke-width=".156" d="M2.621 12.851l2.85-.782L3.404 10z" transform="matrix(1.1897 0 0 1.1897 -1.98 -1.336)"/>
  <path fill="#241c1c" d="M1.278 13.469l.341.349-.751.736-.341-.349z" paint-order="markers stroke fill"/>
  <path fill="#f3c300" d="M3.172 11.008l-.86-.86 7.272-7.271.86.86z"/>
  <path fill="#daaf00" d="M4.943 12.778l-.86-.86 7.272-7.27.86.86z"/>
  <path fill="none" stroke="#000" stroke-width=".18559319999999999" d="M4.083 11.919l-.911-.911 7.272-7.272.91.911zm.86.86l-2.631-2.631 7.272-7.271 2.63 2.63z"/>
</svg>
