<?xml version="1.0" encoding="UTF-8" standalone="no"?>
<!-- Created with Inkscape (http://www.inkscape.org/) -->

<svg
   xmlns:dc="http://purl.org/dc/elements/1.1/"
   xmlns:cc="http://creativecommons.org/ns#"
   xmlns:rdf="http://www.w3.org/1999/02/22-rdf-syntax-ns#"
   xmlns:svg="http://www.w3.org/2000/svg"
   xmlns="http://www.w3.org/2000/svg"
   xmlns:sodipodi="http://sodipodi.sourceforge.net/DTD/sodipodi-0.dtd"
   xmlns:inkscape="http://www.inkscape.org/namespaces/inkscape"
   width="32"
   height="32"
   viewBox="0 0 8.4666665 8.4666669"
   version="1.1"
   id="svg8"
   inkscape:version="0.92.4 (0.92.4+202003022015+8da6682)"
   sodipodi:docname="icon-editbox.svg">
  <defs
     id="defs2">
    <filter
       style="color-interpolation-filters:sRGB;"
       inkscape:label="Drop Shadow"
       id="filter941"
       width="1.25"
       x="-0.11">
      <feFlood
         flood-opacity="0.498039"
         flood-color="rgb(0,0,0)"
         result="flood"
         id="feFlood931" />
      <feComposite
         in="flood"
         in2="SourceGraphic"
         operator="in"
         result="composite1"
         id="feComposite933" />
      <feGaussianBlur
         in="composite1"
         stdDeviation="0.29999999999999999"
         result="blur"
         id="feGaussianBlur935" />
      <feOffset
         dx="0"
         dy="0"
         result="offset"
         id="feOffset937" />
      <feComposite
         in="offset"
         in2="SourceGraphic"
         operator="out"
         result="composite2"
         id="feComposite939" />
    </filter>
  </defs>
  <sodipodi:namedview
     id="base"
     pagecolor="#ffffff"
     bordercolor="#666666"
     borderopacity="1.0"
     inkscape:pageopacity="0.0"
     inkscape:pageshadow="2"
     inkscape:zoom="10.15626"
     inkscape:cx="29.268025"
     inkscape:cy="12.711194"
     inkscape:document-units="mm"
     inkscape:current-layer="layer1"
     showgrid="false"
     units="px"
     inkscape:window-width="1059"
     inkscape:window-height="570"
     inkscape:window-x="1828"
     inkscape:window-y="234"
     inkscape:window-maximized="0" />
  <metadata
     id="metadata5">
    <rdf:RDF>
      <cc:Work
         rdf:about="">
        <dc:format>image/svg+xml</dc:format>
        <dc:type
           rdf:resource="http://purl.org/dc/dcmitype/StillImage" />
        <dc:title></dc:title>
      </cc:Work>
    </rdf:RDF>
  </metadata>
  <g
     inkscape:label="Layer 1"
     inkscape:groupmode="layer"
     id="layer1"
     transform="translate(0,-288.53332)">
    <g
       id="g2315"
       transform="matrix(1.4174472,0,0,1.4174472,-1.8292308,-122.1713)">
      <g
         transform="matrix(0.75127526,0,0,0.75127526,1.0791948,72.555077)"
         id="g2310">
        <path
           inkscape:connector-curvature="0"
           d="m 2.7559412,292.32068 0.05299,0.5048 H 3.2579548 L 2.9706915,290.94572 H 2.4184764 l -0.9677708,1.87976 h 0.4601792 l 0.239851,-0.5048 z m -0.474124,-0.32352 0.1952275,-0.40161 c 0.055779,-0.10877 0.1031917,-0.23427 0.1533931,-0.34026 h 0.00558 c 0.013945,0.10599 0.030679,0.23985 0.041835,0.34026 l 0.050201,0.40161 z m 1.2164242,-1.65158 c -0.9280472,0.001 -1.8561055,0.005 -2.78414737,0 0,1.02329 0,2.04658 0,3.06986 1.43658627,0.0264 2.87335257,-0.005 4.31002427,0 0,-0.10652 0,-0.21305 0,-0.31957 -1.3321752,-0.002 -2.6643511,2.6e-4 -3.9965264,0 0,-0.80685 0,-1.61368 0,-2.42053 1.3321753,0 2.6643507,0 3.9965264,0 0,-0.10992 0,-0.21984 0,-0.32976 -0.5086258,5.3e-4 -1.0172518,-10e-4 -1.5258769,0 z m 3.0216219,0.32976 c 0.29945,0 0.5989,0 0.898349,0 0,0.80685 0,1.61368 0,2.42053 -0.299107,0 -0.598214,0 -0.897322,0 0.0014,0.10652 0.0028,0.21305 0.0041,0.31957 0.406255,0 0.812509,0 1.218764,0 0.01411,-1.02327 0.0088,-2.04656 6.37e-4,-3.06986 -0.408189,0 -0.816378,0 -1.224567,0 0,0.10992 0,0.21984 0,0.32976 z m -0.90384,-1.25136 c 3e-6,2.4e-4 10e-6,5.3e-4 1.2e-5,8e-4 -0.155969,-5.3e-4 -0.36512,-10e-4 -0.491096,2.7e-4 v 0.31787 h 0.493777 c 0.0011,0.14819 0.0019,0.29657 0.0024,0.44513 -0.0012,0.50507 -3.08e-4,1.01258 4.97e-4,1.52028 -8.05e-4,0.5077 -0.0017,1.0152 -4.97e-4,1.52027 -5.63e-4,0.14856 -0.0014,0.29694 -0.0024,0.44513 h -0.493777 v 0.31787 c 0.125976,0.002 0.335127,8e-4 0.491096,2.7e-4 -2e-6,2.3e-4 -9e-6,5.3e-4 -1.2e-5,7.9e-4 h 0.34474 c 1e-6,-2.6e-4 -1e-6,-5.3e-4 0,-10e-4 h 0.483526 v -0.31787 h -0.483125 c 9.56e-4,-0.64521 0.0013,-1.30424 0.0012,-1.9654 1.17e-4,-0.66117 -2.65e-4,-1.3202 -0.0012,-1.96541 h 0.483125 v -0.31787 h -0.483526 c -1e-6,-2.7e-4 1e-6,-5.4e-4 0,-0.001 z"
           style="font-style:italic;font-variant:normal;font-weight:bold;font-stretch:semi-expanded;font-size:122.02922058px;line-height:1.25;font-family:'Myriad Pro';-inkscape-font-specification:'Myriad Pro Bold Italic Semi-Expanded';letter-spacing:0px;word-spacing:0px;fill:#f4f4f4;fill-opacity:1;stroke:#000000;stroke-width:0.079375;stroke-linecap:round;stroke-linejoin:round;stroke-miterlimit:4;stroke-dasharray:none;stroke-opacity:1;paint-order:stroke fill markers"
           id="path891" />
        <path
           inkscape:connector-curvature="0"
           d="m -1.0574297,246.42282 0.19958891,1.90134 h 1.69125324 l -1.08198189,-7.08015 H -2.3284958 l -3.6451234,7.08015 h 1.733272 l 0.9034023,-1.90134 z m -1.7857953,-1.21855 0.7353275,-1.51267 c 0.2100935,-0.40968 0.3886731,-0.88239 0.5777573,-1.28157 h 0.021009 c 0.052523,0.39918 0.1155515,0.9034 0.1575703,1.28157 l 0.1890842,1.51267 z m 4.5816805,-6.22069 c -3.495504,0.005 -6.9910496,0.02 -10.4865335,0 0,3.85423 0,7.70846 0,11.56269 5.4109239,0.0993 10.8225263,-0.0207 16.2337709,0 0,-0.40123 0,-0.80247 0,-1.2037 -5.0176572,-0.007 -10.0353178,0.001 -15.0529766,0 0,-3.03898 0,-6.07795 0,-9.11693 5.0176589,0 10.0353177,0 15.0529766,0 0,-0.41402 0,-0.82804 0,-1.24206 -1.9157456,0.002 -3.8314931,-0.004 -5.7472374,0 z m 11.3809855,1.24206 c 1.127882,0 2.255764,0 3.383646,0 0,3.03898 0,6.07795 0,9.11693 -1.126593,0 -2.253185,0 -3.379778,0 0.0052,0.40123 0.01042,0.80247 0.01564,1.2037 1.530164,0 3.060329,0 4.590493,0 0.05316,-3.85417 0.03322,-7.70843 0.0024,-11.56269 -1.537451,0 -3.0749,0 -4.61235,0 0,0.41402 0,0.82804 0,1.24206 z m -3.4043258,-4.71327 c 8.7e-6,8.8e-4 3.55e-5,0.002 4.44e-5,0.003 -0.587461,-0.002 -1.3752301,-0.005 -1.8497216,0.001 v 1.19727 h 1.8598197 c 0.00401,0.55817 0.00709,1.11704 0.00921,1.67658 -0.00466,1.90236 -0.00116,3.8139 0.00187,5.72617 -0.00303,1.91227 -0.00653,3.82377 -0.00187,5.72613 -0.00212,0.55955 -0.0052,1.11841 -0.00921,1.67659 H 7.865438 v 1.19726 c 0.4744915,0.006 1.2622606,0.003 1.8497216,10e-4 -8.9e-6,8.8e-4 -3.57e-5,0.002 -4.44e-5,0.003 h 1.2984658 c 3e-6,-0.001 -2e-6,-0.002 0,-0.004 h 1.821208 v -1.19727 h -1.819695 c 0.0036,-2.43018 0.005,-4.91243 0.0046,-7.40271 4.39e-4,-2.49029 -10e-4,-4.97256 -0.0046,-7.40276 h 1.819695 v -1.19726 h -1.821208 c -2e-6,-0.001 3e-6,-0.002 0,-0.004 z"
           style="font-style:italic;font-variant:normal;font-weight:bold;font-stretch:semi-expanded;font-size:122.02922058px;line-height:1.25;font-family:'Myriad Pro';-inkscape-font-specification:'Myriad Pro Bold Italic Semi-Expanded';letter-spacing:0px;word-spacing:0px;fill:#000000;fill-opacity:1;stroke:#000000;stroke-width:0.28202569;stroke-miterlimit:4;stroke-dasharray:none;stroke-opacity:1;filter:url(#filter941)"
           id="path891-7"
           transform="matrix(0.26549739,0,0,0.26549739,3.036686,226.89606)" />
      </g>
    </g>
    <g
       id="g2300"
       transform="matrix(0.94063933,0,0,0.94063933,1.3562433,15.721646)">
      <g
         id="g2320"
         transform="matrix(1.2588282,0,0,1.2588282,-1.7493388,-77.677289)">
        <path
           style="fill:#ffffff;fill-opacity:1;stroke:#000000;stroke-width:0.10145361;stroke-linecap:round;stroke-linejoin:round;stroke-miterlimit:4;stroke-dasharray:none;stroke-dashoffset:0;stroke-opacity:1;paint-order:stroke fill markers"
           d="m 6.8680421,297.79645 a 1.0152111,1.0152111 0 0 1 -1.0152111,1.01521 1.0152111,1.0152111 0 0 1 -1.0152111,-1.01521 1.0152111,1.0152111 0 0 1 1.0152111,-1.01521 1.0152111,1.0152111 0 0 1 1.0152111,1.01521 z"
           id="path2289"
           inkscape:connector-curvature="0" />
        <g
           transform="matrix(0.26458333,0,0,0.26458333,-0.013169,295.43945)"
           id="g2254"
           style="fill:#000000">
          <path
             id="path2242"
             style="color:#000000;font-style:normal;font-variant:normal;font-weight:normal;font-stretch:normal;font-size:medium;line-height:normal;font-family:sans-serif;font-variant-ligatures:normal;font-variant-position:normal;font-variant-caps:normal;font-variant-numeric:normal;font-variant-alternates:normal;font-feature-settings:normal;text-indent:0;text-align:start;text-decoration:none;text-decoration-line:none;text-decoration-style:solid;text-decoration-color:#000000;letter-spacing:normal;word-spacing:normal;text-transform:none;writing-mode:lr-tb;direction:ltr;text-orientation:mixed;dominant-baseline:auto;baseline-shift:baseline;text-anchor:start;white-space:normal;shape-padding:0;clip-rule:nonzero;display:inline;overflow:visible;visibility:visible;opacity:1;isolation:auto;mix-blend-mode:normal;color-interpolation:sRGB;color-interpolation-filters:linearRGB;solid-color:#000000;solid-opacity:1;vector-effect:none;fill:#000000;fill-opacity:1;fill-rule:nonzero;stroke:#000000;stroke-width:0.15709561;stroke-linecap:round;stroke-linejoin:round;stroke-miterlimit:4;stroke-dasharray:none;stroke-dashoffset:0;stroke-opacity:1;paint-order:stroke fill markers;color-rendering:auto;image-rendering:auto;shape-rendering:auto;text-rendering:auto;enable-background:accumulate"
             d="m 22.170709,4.4219491 c -2.470856,0 -4.486401,2.015545 -4.486401,4.486401 0,2.4708559 2.015545,4.4864009 4.486401,4.4864009 2.470856,0 4.486401,-2.015545 4.486401,-4.4864009 0,-2.470856 -2.015545,-4.486401 -4.486401,-4.486401 z m 0,1.150331 c 1.849262,0 3.33607,1.486808 3.33607,3.33607 0,1.8492619 -1.486808,3.3360699 -3.33607,3.3360699 -1.849262,0 -3.33607,-1.486808 -3.33607,-3.3360699 0,-1.849262 1.486808,-3.33607 3.33607,-3.33607 z m -0.555108,1.115637 c 0,0.555109 0,1.110217 0,1.665325 -0.555108,0 -1.110216,0 -1.665325,0 0,0.370072 0,0.740144 0,1.110216 0.555109,0 1.110217,0 1.665325,0 0,0.5551079 0,1.1102159 0,1.6653249 0.370072,0 0.740144,0 1.110216,0 0,-0.555109 0,-1.110217 0,-1.6653249 0.555108,0 1.110216,0 1.665325,0 0,-0.370072 0,-0.740144 0,-1.110216 -0.555109,0 -1.110217,0 -1.665325,0 0,-0.555108 0,-1.110216 0,-1.665325 -0.370072,0 -0.740144,0 -1.110216,0 z"
             inkscape:connector-curvature="0" />
        </g>
      </g>
    </g>
  </g>
</svg>
