<?xml version="1.0" encoding="UTF-8" standalone="no"?>
<svg
   xmlns:dc="http://purl.org/dc/elements/1.1/"
   xmlns:cc="http://creativecommons.org/ns#"
   xmlns:rdf="http://www.w3.org/1999/02/22-rdf-syntax-ns#"
   xmlns:svg="http://www.w3.org/2000/svg"
   xmlns="http://www.w3.org/2000/svg"
   height="32"
   width="32"
   id="svg14"
   xml:space="preserve"
   enable-background="new 0 0 1000 1000"
   viewBox="0 0 32 32"
   y="0px"
   x="0px"
   version="1.1"><defs
   id="defs18" />
<metadata
   id="metadata2"> Svg Vector Icons : http://www.onlinewebfonts.com/icon <rdf:RDF><cc:Work
     rdf:about=""><dc:format>image/svg+xml</dc:format><dc:type
       rdf:resource="http://purl.org/dc/dcmitype/StillImage" /><dc:title></dc:title></cc:Work></rdf:RDF></metadata>
<path
   style="display:none;stroke-width:0.05148467"
   d="M 15.99485,3.0876435 C 8.8693721,3.0876435 3.0876435,8.8693576 3.0876435,16 c 0,7.130642 5.7817286,12.912357 12.9123565,12.912357 7.130628,0 12.912357,-5.781715 12.912357,-12.912357 0,-7.1306424 -5.781729,-12.9123565 -12.917507,-12.9123565 z M 23.702106,17.28713 h -6.41499 v 6.41498 c 0,0.715626 -0.576628,1.292262 -1.292266,1.292262 -0.715637,0 -1.292265,-0.576636 -1.292265,-1.292262 V 17.28713 H 8.2927439 c -0.7156374,0 -1.2922657,-0.576635 -1.2922657,-1.292262 0,-0.715662 0.5766283,-1.292298 1.2922657,-1.292298 H 14.707734 V 8.2927584 c 0,-0.7156628 0.576629,-1.2922983 1.292266,-1.2922983 0.715637,0 1.292266,0.5766355 1.292266,1.2922983 v 6.4149796 h 6.41499 c 0.715637,0 1.292266,0.576636 1.292266,1.292262 -0.0051,0.710495 -0.581778,1.28713 -1.297416,1.28713 z"
   id="path10" />
<ellipse
   ry="11.240409"
   rx="51.830776"
   cy="-159.08698"
   cx="381.54944"
   id="path855"
   style="fill:#ffffff;stroke:none;stroke-width:5.57858276;stroke-linecap:round;stroke-linejoin:round;paint-order:stroke fill markers" /><g
   id="g865"><path
     style="fill:#000000;stroke-width:0.33170676"
     d="M 14.996014,23.379525 C 14.597791,22.371231 14.60842,21.24935 14.535845,20.178949 14.504786,19.343734 14.473735,18.508514 14.442675,17.673297 12.685693,17.550563 10.917178,17.538729 9.1717612,17.29451 8.4439918,17.26819 8.0610888,16.480603 8.2343486,15.837972 c 0.1501765,-0.728817 0.8091773,-1.271446 1.5584336,-1.25741 1.6027058,-0.102653 3.2105668,-0.04205 4.8157458,-0.05848 0.02911,-1.659058 -0.08271,-3.327189 0.120612,-4.977794 0.01562,-0.7742641 0.649067,-1.5030081 1.466817,-1.3136658 0.879818,0.043681 1.220311,1.0103349 1.293173,1.7523005 0.175773,1.5061813 0.07992,3.0262243 0.10476,4.5391593 1.581031,0.0274 3.170402,-0.07592 4.743755,0.105996 0.74595,0.100757 1.598103,0.791358 1.453047,1.606855 -0.113079,0.900846 -0.93888,1.350385 -1.784441,1.254026 -1.470455,0.03409 -2.941592,0.01225 -4.412361,0.01849 -0.03307,1.82767 0.123902,3.682457 -0.2744,5.480717 -0.288279,0.912561 -1.727117,1.073435 -2.323476,0.391364 z"
     id="path843" /><circle
     style="fill:none;stroke:#000000;stroke-width:2.63542151;stroke-linecap:round;stroke-linejoin:round;stroke-miterlimit:4;stroke-dasharray:none;paint-order:stroke fill markers"
     id="path861"
     cx="16"
     cy="16"
     r="12.672153" /></g></svg>