<?xml version="1.0" encoding="UTF-8"?>
<!-- Created with Inkscape (http://www.inkscape.org/) -->
<svg width="48" height="48" version="1.1" viewBox="0 0 12.7 12.7" xmlns="http://www.w3.org/2000/svg" xmlns:cc="http://creativecommons.org/ns#" xmlns:dc="http://purl.org/dc/elements/1.1/" xmlns:osb="http://www.openswatchbook.org/uri/2009/osb" xmlns:rdf="http://www.w3.org/1999/02/22-rdf-syntax-ns#" xmlns:xlink="http://www.w3.org/1999/xlink">
 <defs>
  <linearGradient id="linearGradient18588" x1="-1246.3" x2="-1005.1" y1="175.66" y2="175.66" gradientTransform="matrix(.046706 0 0 .046706 115.41 71.775)" gradientUnits="userSpaceOnUse">
   <stop stop-color="#dc3d00" stop-opacity=".74317" offset="0"/>
  </linearGradient>
  <filter id="filter57752-38" x="-.047724" y="-.048279" width="1.0954" height="1.0966" color-interpolation-filters="sRGB">
   <feGaussianBlur stdDeviation="1.3040861"/>
  </filter>
 </defs>
 <metadata>
  <rdf:RDF>
   <cc:Work rdf:about="">
    <dc:format>image/svg+xml</dc:format>
    <dc:type rdf:resource="http://purl.org/dc/dcmitype/StillImage"/>
    <dc:title/>
   </cc:Work>
  </rdf:RDF>
 </metadata>
 <g transform="translate(-56.416 -73.6)">
  <path d="m57.335 79.972 0.0011-5.6553 11.111 0.0022-0.0011 5.6553-0.0011 5.6553-11.111-0.0022z" fill="#03f611" fill-opacity=".43915" opacity=".879" stroke="#f20b00" stroke-linecap="round" stroke-linejoin="round" stroke-opacity=".98413" stroke-width=".27661" style="paint-order:markers fill stroke"/>
  <g>
   <flowRoot transform="matrix(.23539 .2301 -.2301 .23539 454.53 399.98)" fill="#bb1d1b" font-family="sans-serif" font-size="40px" letter-spacing="0px" word-spacing="0px" style="line-height:1.25" xml:space="preserve"><flowRegion fill="#bb1d1b"><rect x="-1545.7" y="113.95" width="80" height="131.43" fill="#bb1d1b"/></flowRegion><flowPara>+</flowPara></flowRoot>
   <path d="m57.486 79.92v-5.4713h10.809v10.943h-10.809zm6.9721 2.5658 1.3183 1.2155 0.79509-0.7951-2.5459-2.5191 2.4374-2.6166-0.37956-0.39618-0.37956-0.39617-2.5516 2.542-1.1956-1.2012c-0.6576-0.66066-1.2607-1.2012-1.3403-1.2012-0.07954 0-0.30495 0.16735-0.50092 0.37189l-0.35629 0.37189 2.5306 2.5201-0.97271 1.0036c-1.6049 1.6559-1.5415 1.5389-1.0895 2.0106l0.38503 0.40189 2.5273-2.5273z" fill="#0a1dd3" fill-rule="evenodd" stroke="#001000" stroke-linecap="round" stroke-linejoin="round" stroke-opacity=".88889" stroke-width=".45393" style="paint-order:stroke markers fill"/>
   <path d="m57.426 79.979v-5.4713h10.809v10.943h-10.809zm4.337 2.6689c0.65749-0.66056 1.2368-1.201 1.2873-1.201 0.05051 0 0.64569 0.51043 1.3226 1.1343 0.67693 0.62386 1.2712 1.1343 1.3205 1.1343 0.04935 0 0.26536-0.18332 0.48002-0.40738l0.3903-0.40738-1.2327-1.213c-0.678-0.66713-1.2327-1.2404-1.2327-1.274 0-0.03358 0.51043-0.60328 1.1343-1.266 0.62386-0.66272 1.1321-1.2422 1.1295-1.2878-0.0027-0.04556-0.1518-0.26275-0.33147-0.48266l-0.32667-0.39984-1.239 1.2339c-0.68146 0.67863-1.2993 1.2339-1.3729 1.2339-0.07363 0-0.64166-0.51043-1.2623-1.1343-0.62062-0.62386-1.1935-1.1343-1.2732-1.1343-0.07964 0-0.30766 0.17-0.50673 0.37779l-0.36195 0.37779 1.2044 1.1834c0.66241 0.65088 1.2044 1.248 1.2044 1.327 0 0.07896-0.45458 0.59244-1.0102 1.1411-1.3036 1.2872-1.3424 1.3618-0.97081 1.8643 0.16301 0.22049 0.33138 0.40089 0.37416 0.40089 0.04277 0 0.61572-0.54046 1.2732-1.201z" fill="#0ac0d3" fill-rule="evenodd" stroke="url(#linearGradient18588)" stroke-linecap="round" stroke-linejoin="round" stroke-opacity=".88889" stroke-width="1.2835" style="paint-order:stroke markers fill"/>
  </g>
  <path transform="matrix(.17653 0 0 .17653 115.47 71.715)" d="m-331.34 46.649v-32.414h65.581v64.827h-65.581zm61.812 0v-29.022h-58.42v58.043h58.42z" fill="#03f611" fill-opacity=".43915" filter="url(#filter57752-38)" opacity=".879" stroke="#f20b00" stroke-linecap="round" stroke-linejoin="round" stroke-opacity=".98413" stroke-width="1.567" style="paint-order:markers fill stroke"/>
 </g>
</svg>
