<svg xmlns="http://www.w3.org/2000/svg" width="32" height="32" viewBox="-64 0 24 24">
  <defs/>
  <path fill="#fff" d="M-58.636 16.962v4.851h13.496v-3.595l-2.02-2.02-.17-.296-3.19 3.19-3.067-3.066-2.943 2.943-2.106-2.007zm4.655-14.85l-4.716 4.715v7.228l2.173 2.174 2.961-2.962 3.066 3.066 3.066-3.066 2.118 2.118V2.136l-8.668-.024z"/>
  <path fill="none" stroke-width=".7503629" d="M-58.636 16.962v4.851h13.496v-3.595l-2.02-2.02-.17-.296-3.19 3.19-3.067-3.066-2.943 2.943-2.106-2.007zm2.768-5.392h7.847M-55.9 9.22h7.848m-5.93-6.919v4.555h-4.596m4.597-4.744l-4.716 4.716v7.228l2.173 2.173 2.961-2.961 3.066 3.066 3.066-3.066 2.118 2.118V2.136l-8.668-.024z"/>
</svg>
