<?xml version="1.0" encoding="UTF-8"?>
<!-- Created with Inkscape (http://www.inkscape.org/) -->
<svg width="48" height="48" version="1.1" viewBox="0 0 12.7 12.7" xmlns="http://www.w3.org/2000/svg" xmlns:cc="http://creativecommons.org/ns#" xmlns:dc="http://purl.org/dc/elements/1.1/" xmlns:rdf="http://www.w3.org/1999/02/22-rdf-syntax-ns#">
 <metadata>
  <rdf:RDF>
   <cc:Work rdf:about="">
    <dc:format>image/svg+xml</dc:format>
    <dc:type rdf:resource="http://purl.org/dc/dcmitype/StillImage"/>
    <dc:title/>
   </cc:Work>
  </rdf:RDF>
 </metadata>
 <g transform="translate(0 -284.3)">
  <g transform="matrix(.18705 0 0 .18705 45.425 307.79)">
   <path d="m-239.1-90.522v-31.116h62.304v62.232h-62.304z" fill="#03f611" fill-opacity=".43915" opacity=".879" stroke="#f20b00" stroke-linecap="round" stroke-linejoin="round" stroke-opacity=".98413" stroke-width="1.4921" style="paint-order:markers fill stroke"/>
   <path d="m-240.9-59.452c-0.10474-0.10462-0.19044-14.572-0.19044-32.15 0-28.882 0.0433-31.976 0.44898-32.132 0.24694-0.0946 14.601-0.17209 31.898-0.17209 26.143 0 31.503 0.065 31.769 0.38493 0.23398 0.28159 0.30045 8.9384 0.24764 32.25l-0.0722 31.865-31.955 0.0721c-17.575 0.03966-32.041-0.01348-32.145-0.11813zm0.80301-31.991c0-17.387-0.0958-31.612-0.21288-31.612s-0.21288 14.225-0.21288 31.612c0 17.387 0.0958 31.612 0.21288 31.612 0.11709 0 0.21288-14.225 0.21288-31.612zm62.729 3.1e-5c0-20.886-0.0963-31.612-0.28384-31.612-0.18797-2e-5 -0.25906 10.677-0.21045 31.612 0.0404 17.387 0.1681 31.612 0.28385 31.612 0.11574 0 0.21044-14.225 0.21044-31.612zm-1.7662 29.624c0.45581-0.53172 0.48886-2.5726 0.48886-30.195v-29.624h-60.459v29.624c0 27.622 0.0331 29.663 0.48884 30.195 0.48391 0.56451 0.78469 0.57028 29.741 0.57028 28.956 0 29.257-0.0058 29.741-0.57028z" fill="#0d7100" fill-rule="evenodd" stroke="#f0fd1a" stroke-linecap="round" stroke-linejoin="round" stroke-opacity=".98413" stroke-width="3.1811" style="paint-order:stroke markers fill"/>
   <rect x="-240.9" y="-125.22" width="65.768" height="65.768" fill="#0ff" opacity=".439" stroke-width=".26458"/>
   <g stroke-linejoin="round">
    <path d="m-237.19-62.1c-0.099-0.26039-0.1369-13.448-0.083-29.307l0.097-28.833h58.043v58.42l-28.938 0.097c-22.951 0.077-28.976 0-29.119-0.3769z" fill="#1bfa94" fill-opacity=".92063" opacity=".466" stroke="#e63686" stroke-width="7.265" style="paint-order:stroke fill markers"/>
    <path d="m-238.89-59.322c-2.0016-0.80339-1.9881-0.5671-1.8765-32.773l0.10301-29.758 1.045-1.0449 1.0449-1.045 29.673-0.101c21.795-0.074 29.952 0.015 30.724 0.3346 2.2655 0.9385 2.1524-0.7584 2.1524 32.293v30.286l-1.1018 1.1017-1.1017 1.1017-29.899-0.024c-17.279-0.014-30.264-0.1704-30.763-0.371zm51.055-2.9973h8.4185v-58.425l-57.855 0.194v58.043l4.7113 0.23619c2.5913 0.1299 11.82 0.1723 20.509 0.094 8.6886-0.078 19.586-0.14191 24.216-0.14191z" fill="#03f611" fill-opacity=".43915" opacity=".879" stroke="#f20b00" stroke-linecap="round" stroke-opacity=".98413" stroke-width="1.567" style="paint-order:markers fill stroke"/>
    <path d="m-217.99-80.086c0.66311 2.1037 1.227 4.2482 2.0909 6.2832 0.16836 0.39662 0.36998 0.77828 0.55499 1.1674 0.17669 0.21664 0.79969 0.57594 0.53009 0.64991-0.71129 0.19516-1.6383 0.28223-2.2045-0.19048-0.32469-0.27108 0.61963-0.58291 0.86923-0.92438 0.5106-0.69858 0.95537-1.4436 1.4029-2.1842 1.4502-2.4001 3.2087-5.6179 4.5332-7.9952 3.1581-5.8614 6.1247-11.826 8.8816-17.887 1.6132-3.5464 3.9005-8.9182 5.4554-12.537 0 0 1.6593 0.0684 1.6593 0.0684v0c-4.5373 10.217-8.9785 20.483-14.056 30.45-0.7661 1.5247-1.5333 3.0488-2.2983 4.5741-0.37216 0.74198-2.2628 4.5722-2.8946 5.6887-0.22617 0.39966-0.30819 1.0352-0.75164 1.1545-3.1001 0.83394-2.914 0.68943-3.8198-0.75384-1.0394-2.456-1.8148-5.0074-2.8321-7.4717l2.879-0.09267z" fill="#f4f905" fill-rule="evenodd" stroke="#125200" stroke-linecap="round" stroke-opacity=".98413" stroke-width="6.2" style="paint-order:stroke markers fill"/>
   </g>
  </g>
 </g>
</svg>
