<?xml version="1.0" encoding="UTF-8" standalone="no"?>
<svg
   xmlns:dc="http://purl.org/dc/elements/1.1/"
   xmlns:cc="http://creativecommons.org/ns#"
   xmlns:rdf="http://www.w3.org/1999/02/22-rdf-syntax-ns#"
   xmlns:svg="http://www.w3.org/2000/svg"
   xmlns="http://www.w3.org/2000/svg"
   xmlns:sodipodi="http://sodipodi.sourceforge.net/DTD/sodipodi-0.dtd"
   xmlns:inkscape="http://www.inkscape.org/namespaces/inkscape"
   id="icon-rotate_svg__svg909"
   width="32"
   height="32"
   version="1.1"
   viewBox="0 0 16 16"
   sodipodi:docname="icon-rotate.svg"
   inkscape:version="0.92.4 (0.92.4+202003022015+8da6682)">
  <metadata
     id="metadata12">
    <rdf:RDF>
      <cc:Work
         rdf:about="">
        <dc:format>image/svg+xml</dc:format>
        <dc:type
           rdf:resource="http://purl.org/dc/dcmitype/StillImage" />
        <dc:title></dc:title>
      </cc:Work>
    </rdf:RDF>
  </metadata>
  <sodipodi:namedview
     pagecolor="#ffffff"
     bordercolor="#666666"
     borderopacity="1"
     objecttolerance="10"
     gridtolerance="10"
     guidetolerance="10"
     inkscape:pageopacity="0"
     inkscape:pageshadow="2"
     inkscape:window-width="726"
     inkscape:window-height="480"
     id="namedview10"
     showgrid="false"
     inkscape:zoom="7.375"
     inkscape:cx="16"
     inkscape:cy="16"
     inkscape:window-x="2149"
     inkscape:window-y="342"
     inkscape:window-maximized="0"
     inkscape:current-layer="icon-rotate_svg__svg909" />
  <defs
     id="defs2" />
  <defs
     id="icon-rotate_svg__defs905">
    <style
       id="current-color-scheme"
       type="text/css" />
  </defs>
  <g
     id="g825"
     transform="matrix(0.90801442,0,0,0.90801442,0.17510266,0.73615584)">
    <path
       d="m 13.015,11.033 a 5.571,5.571 0 0 1 -3.498,2.5 c -1.437,0.32 -3,0.032 -4.228,-0.78 A 5.563,5.563 0 0 1 2.97,9.443 5.563,5.563 0 0 1 3.54,5.441 v 0 A 5.472,5.472 0 0 1 6.776,2.593 c 1.407,-0.452 3,-0.294 4.29,0.428 a 5.44,5.44 0 0 1 2.208,2.325"
       stroke-miterlimit="4"
       id="icon-rotate_svg__path1801-6"
       inkscape:connector-curvature="0"
       style="fill:none;stroke:#0000aa;stroke-width:1.83899999;stroke-linecap:butt;stroke-linejoin:miter;stroke-miterlimit:4;stroke-dasharray:none;stroke-opacity:1" />
    <g
       transform="matrix(0.02964,-0.00282,0.00282,0.02964,0.132,2.69)"
       id="icon-rotate_svg__g4"
       style="fill:#000000">
      <path
         d="m 327.167,130.463 c 52.929,31.531 105.856,63.063 158.783,94.595 0.842,-61.602 1.685,-123.204 2.53,-184.806 -52.651,29.444 -110.372,61.722 -161.313,90.211 z"
         id="icon-rotate_svg__path2"
         inkscape:connector-curvature="0"
         style="fill:#0000aa" />
    </g>
  </g>
</svg>
