<svg xmlns="http://www.w3.org/2000/svg" width="64" height="32" viewBox="0 0 16.933 8.467">
  <defs/>
  <path  d="M14.099 3.297v.702h-.702v.468h.702v.702h.468v-.702h.702V4h-.702v-.702zm.234-.955c-1.042 0-1.892.85-1.892 1.891 0 1.042.85 1.892 1.892 1.892 1.042 0 1.892-.85 1.892-1.892 0-1.041-.85-1.891-1.892-1.891zm0 .484c.78 0 1.406.628 1.406 1.407 0 .78-.626 1.407-1.406 1.407-.78 0-1.407-.627-1.407-1.407s.627-1.407 1.407-1.407z" color="#000" paint-order="stroke fill markers"/>
  <path d="M3.132 3.098l-1.17 2.27h.557l.29-.609h.73l.065.61h.542l-.347-2.271zm.256.374h.006c.017.128.037.29.05.41l.062.486h-.54l.237-.485c.067-.132.124-.283.185-.411zM4.694 2.28c-1.33.002-2.66.008-3.99 0v4.004c2.058.037 4.118-.008 6.176 0v-.458c-1.909-.003-3.818 0-5.727 0V2.753H6.88V2.28H4.694zm4.33.473h1.288v3.072H9.026l.005.458h1.747c.02-1.466.013-2.536.001-4.003H9.024v.473zM7.73.96s0 0 0 0c-.224 0-.523-.001-.704.001v.456h.708l.003.638c-.002.723 0 1.45 0 2.178-.002 1.016.002 1.897-.003 2.817h-.708v.456c.18.002.48 0 .704 0v.001h.494v-.001h.693V7.05h-.693a1793.522 1793.522 0 000-5.633h.693V.96h-.693V.96z" color="#000" paint-order="stroke fill markers"/>
</svg>
