<?xml version="1.0" encoding="UTF-8" standalone="no"?>
<!-- Created with Inkscape (http://www.inkscape.org/) -->

<svg
   xmlns:osb="http://www.openswatchbook.org/uri/2009/osb"
   xmlns:dc="http://purl.org/dc/elements/1.1/"
   xmlns:cc="http://creativecommons.org/ns#"
   xmlns:rdf="http://www.w3.org/1999/02/22-rdf-syntax-ns#"
   xmlns:svg="http://www.w3.org/2000/svg"
   xmlns="http://www.w3.org/2000/svg"
   xmlns:xlink="http://www.w3.org/1999/xlink"
   xmlns:sodipodi="http://sodipodi.sourceforge.net/DTD/sodipodi-0.dtd"
   xmlns:inkscape="http://www.inkscape.org/namespaces/inkscape"
   width="48"
   height="48"
   version="1.1"
   viewBox="0 0 12.7 12.7"
   id="svg310"
   sodipodi:docname="icon-add.svg"
   inkscape:version="0.92.4 (0.92.4+201912050525+36965ca)">
  <sodipodi:namedview
     pagecolor="#ffffff"
     bordercolor="#666666"
     borderopacity="1"
     objecttolerance="10"
     gridtolerance="10"
     guidetolerance="10"
     inkscape:pageopacity="0"
     inkscape:pageshadow="2"
     inkscape:window-width="640"
     inkscape:window-height="480"
     id="namedview312"
     showgrid="false"
     inkscape:zoom="15.686458"
     inkscape:cx="24.259459"
     inkscape:cy="23.351351"
     inkscape:current-layer="svg310" />
  <defs
     id="defs116">
    <linearGradient
       id="linearGradient18578"
       x1="-415.46"
       x2="-349.69"
       y1="46.838"
       y2="46.838"
       gradientUnits="userSpaceOnUse"
       xlink:href="#linearGradient18576"
       gradientTransform="matrix(0.17869,0,0,0.17869,74.704,-1.933)" />
    <linearGradient
       id="linearGradient18576"
       osb:paint="solid">
      <stop
         stop-color="#141000"
         offset="0"
         id="stop3" />
    </linearGradient>
    <linearGradient
       id="linearGradient18572"
       x1="-415.9"
       x2="-349.13"
       y1="46.78"
       y2="46.78"
       gradientUnits="userSpaceOnUse"
       xlink:href="#linearGradient18570"
       gradientTransform="matrix(0.17869,0,0,0.17869,74.704,-1.933)" />
    <linearGradient
       id="linearGradient18570"
       osb:paint="solid">
      <stop
         stop-color="#f20b00"
         offset="0"
         id="stop7" />
    </linearGradient>
    <linearGradient
       id="linearGradient18566"
       x1="-414.77"
       x2="-350.26"
       y1="46.78"
       y2="46.78"
       gradientUnits="userSpaceOnUse"
       xlink:href="#linearGradient18570"
       gradientTransform="matrix(0.17869,0,0,0.17869,74.704,-1.933)" />
    <linearGradient
       id="linearGradient18554"
       x1="-1566.3"
       x2="-1325.1"
       y1="177.09"
       y2="177.09"
       gradientUnits="userSpaceOnUse"
       xlink:href="#linearGradient18552"
       gradientTransform="matrix(0.0472778,0,0,0.0472778,74.704,-1.933)" />
    <linearGradient
       id="linearGradient18552"
       osb:paint="solid">
      <stop
         stop-color="#0ae000"
         offset="0"
         id="stop12" />
    </linearGradient>
    <linearGradient
       id="linearGradient18548"
       x1="-1532"
       x2="-1362.7"
       y1="175.54"
       y2="175.54"
       gradientUnits="userSpaceOnUse"
       xlink:href="#linearGradient18552" />
    <linearGradient
       id="linearGradient18542"
       x1="-1532"
       x2="-1362.7"
       y1="175.54"
       y2="175.54"
       gradientUnits="userSpaceOnUse"
       xlink:href="#linearGradient18540" />
    <linearGradient
       id="linearGradient18540"
       osb:paint="solid">
      <stop
         stop-color="#c5e000"
         offset="0"
         id="stop17" />
    </linearGradient>
    <linearGradient
       id="linearGradient18530"
       x1="-1532"
       x2="-1362.7"
       y1="175.54"
       y2="175.54"
       gradientUnits="userSpaceOnUse"
       xlink:href="#linearGradient18540" />
    <linearGradient
       id="linearGradient18524"
       x1="-1532"
       x2="-1362.7"
       y1="175.53"
       y2="175.53"
       gradientUnits="userSpaceOnUse"
       xlink:href="#linearGradient18540" />
    <linearGradient
       id="linearGradient18518"
       x1="-1532.1"
       x2="-1362.7"
       y1="175.46"
       y2="175.46"
       gradientUnits="userSpaceOnUse"
       xlink:href="#linearGradient18540" />
    <linearGradient
       id="linearGradient18512"
       x1="-1532"
       x2="-1362.7"
       y1="175.45"
       y2="175.45"
       gradientUnits="userSpaceOnUse"
       xlink:href="#linearGradient18540" />
    <linearGradient
       id="linearGradient18506"
       x1="-1532"
       x2="-1362.7"
       y1="175.51"
       y2="175.51"
       gradientUnits="userSpaceOnUse"
       xlink:href="#linearGradient18540" />
    <linearGradient
       id="linearGradient18500"
       x1="-1532.2"
       x2="-1362.7"
       y1="175.65"
       y2="175.65"
       gradientUnits="userSpaceOnUse"
       xlink:href="#linearGradient18540" />
    <linearGradient
       id="linearGradient18494"
       x1="-1532"
       x2="-1362.7"
       y1="175.92"
       y2="175.92"
       gradientUnits="userSpaceOnUse"
       xlink:href="#linearGradient18540" />
    <linearGradient
       id="linearGradient18488"
       x1="-1531.7"
       x2="-1362.7"
       y1="176.04"
       y2="176.04"
       gradientUnits="userSpaceOnUse"
       xlink:href="#linearGradient18540" />
    <linearGradient
       id="linearGradient18482"
       x1="-1531.4"
       x2="-1362.7"
       y1="176.25"
       y2="176.25"
       gradientUnits="userSpaceOnUse"
       xlink:href="#linearGradient18540" />
    <linearGradient
       id="linearGradient18476"
       x1="-1531"
       x2="-1362.7"
       y1="176.57"
       y2="176.57"
       gradientUnits="userSpaceOnUse"
       xlink:href="#linearGradient18540" />
    <linearGradient
       id="linearGradient18470"
       x1="-1530.5"
       x2="-1362.7"
       y1="176.75"
       y2="176.75"
       gradientUnits="userSpaceOnUse"
       xlink:href="#linearGradient18540" />
    <linearGradient
       id="linearGradient18464"
       x1="-1530.6"
       x2="-1362.7"
       y1="177.13"
       y2="177.13"
       gradientUnits="userSpaceOnUse"
       xlink:href="#linearGradient18540" />
    <linearGradient
       id="linearGradient18458"
       x1="-1530.4"
       x2="-1362.7"
       y1="177.43"
       y2="177.43"
       gradientUnits="userSpaceOnUse"
       xlink:href="#linearGradient18540" />
    <linearGradient
       id="linearGradient18452"
       x1="-1529.8"
       x2="-1362.7"
       y1="177.52"
       y2="177.52"
       gradientUnits="userSpaceOnUse"
       xlink:href="#linearGradient18540" />
    <linearGradient
       id="linearGradient18446"
       x1="-1529.4"
       x2="-1362.7"
       y1="177.82"
       y2="177.82"
       gradientUnits="userSpaceOnUse"
       xlink:href="#linearGradient18540" />
    <linearGradient
       id="linearGradient18440"
       x1="-1529"
       x2="-1362.7"
       y1="178.18"
       y2="178.18"
       gradientUnits="userSpaceOnUse"
       xlink:href="#linearGradient18540" />
    <linearGradient
       id="linearGradient18434"
       x1="-1528.6"
       x2="-1362.7"
       y1="178.37"
       y2="178.37"
       gradientUnits="userSpaceOnUse"
       xlink:href="#linearGradient18540" />
    <linearGradient
       id="linearGradient18428"
       x1="-1528.2"
       x2="-1362.7"
       y1="178.95"
       y2="178.95"
       gradientUnits="userSpaceOnUse"
       xlink:href="#linearGradient18540" />
    <linearGradient
       id="linearGradient18422"
       x1="-1527.3"
       x2="-1362.7"
       y1="180.07"
       y2="180.07"
       gradientUnits="userSpaceOnUse"
       xlink:href="#linearGradient18540" />
    <linearGradient
       id="linearGradient18416"
       x1="-1526.6"
       x2="-1362.7"
       y1="180.69"
       y2="180.69"
       gradientUnits="userSpaceOnUse"
       xlink:href="#linearGradient18540" />
    <linearGradient
       id="linearGradient18410"
       x1="-1525.4"
       x2="-1362.7"
       y1="182.96"
       y2="182.96"
       gradientUnits="userSpaceOnUse"
       xlink:href="#linearGradient18540" />
    <linearGradient
       id="linearGradient18404"
       x1="-1533.4"
       x2="-1361.6"
       y1="175.55"
       y2="175.55"
       gradientUnits="userSpaceOnUse"
       xlink:href="#linearGradient18540" />
    <linearGradient
       id="linearGradient18398"
       x1="-1460.3"
       x2="-1358.2"
       y1="214.02"
       y2="214.02"
       gradientUnits="userSpaceOnUse"
       xlink:href="#linearGradient18540" />
    <linearGradient
       id="linearGradient18392"
       x1="-1562.1"
       x2="-1328.8"
       y1="177.05"
       y2="177.05"
       gradientUnits="userSpaceOnUse"
       xlink:href="#linearGradient18540" />
    <linearGradient
       id="linearGradient18386"
       x1="-1521.2"
       x2="-1364.2"
       y1="188.06"
       y2="188.06"
       gradientUnits="userSpaceOnUse"
       xlink:href="#linearGradient18540" />
    <linearGradient
       id="linearGradient18380"
       x1="-1517.4"
       x2="-1364.2"
       y1="190.37"
       y2="190.37"
       gradientUnits="userSpaceOnUse"
       xlink:href="#linearGradient18540" />
    <linearGradient
       id="linearGradient18374"
       x1="-1512.8"
       x2="-1364.2"
       y1="192.64"
       y2="192.64"
       gradientUnits="userSpaceOnUse"
       xlink:href="#linearGradient18540" />
    <linearGradient
       id="linearGradient18368"
       x1="-1507.1"
       x2="-1364.2"
       y1="194.95"
       y2="194.95"
       gradientUnits="userSpaceOnUse"
       xlink:href="#linearGradient18540" />
    <linearGradient
       id="linearGradient18362"
       x1="-1502.4"
       x2="-1364.1"
       y1="196.86"
       y2="196.86"
       gradientUnits="userSpaceOnUse"
       xlink:href="#linearGradient18540" />
    <linearGradient
       id="linearGradient18356"
       x1="-1499.9"
       x2="-1364.1"
       y1="197.51"
       y2="197.51"
       gradientUnits="userSpaceOnUse"
       xlink:href="#linearGradient18540" />
    <linearGradient
       id="linearGradient18350"
       x1="-1497"
       x2="-1364.5"
       y1="199.27"
       y2="199.27"
       gradientUnits="userSpaceOnUse"
       xlink:href="#linearGradient18540" />
    <linearGradient
       id="linearGradient18344"
       x1="-1495.2"
       x2="-1365.2"
       y1="200.43"
       y2="200.43"
       gradientUnits="userSpaceOnUse"
       xlink:href="#linearGradient18540" />
    <linearGradient
       id="linearGradient18338"
       x1="-1411.5"
       x2="-1406.1"
       y1="168.71"
       y2="168.71"
       gradientUnits="userSpaceOnUse"
       xlink:href="#linearGradient18540" />
    <linearGradient
       id="linearGradient18332"
       x1="-1491.6"
       x2="-1365.5"
       y1="201.79"
       y2="201.79"
       gradientUnits="userSpaceOnUse"
       xlink:href="#linearGradient18540" />
    <linearGradient
       id="linearGradient18326"
       x1="-1488.7"
       x2="-1365.9"
       y1="202.32"
       y2="202.32"
       gradientUnits="userSpaceOnUse"
       xlink:href="#linearGradient18540" />
    <linearGradient
       id="linearGradient18320"
       x1="-1485.7"
       x2="-1366.5"
       y1="202.98"
       y2="202.98"
       gradientUnits="userSpaceOnUse"
       xlink:href="#linearGradient18540" />
    <linearGradient
       id="linearGradient18314"
       x1="-1482.7"
       x2="-1366.9"
       y1="203.51"
       y2="203.51"
       gradientUnits="userSpaceOnUse"
       xlink:href="#linearGradient18540" />
    <linearGradient
       id="linearGradient18308"
       x1="-1480.3"
       x2="-1367.3"
       y1="203.88"
       y2="203.88"
       gradientUnits="userSpaceOnUse"
       xlink:href="#linearGradient18540" />
    <linearGradient
       id="linearGradient18302"
       x1="-1478.5"
       x2="-1368.2"
       y1="204.69"
       y2="204.69"
       gradientUnits="userSpaceOnUse"
       xlink:href="#linearGradient18540" />
    <linearGradient
       id="linearGradient18296"
       x1="-1476.4"
       x2="-1368.8"
       y1="204.01"
       y2="204.01"
       gradientUnits="userSpaceOnUse"
       xlink:href="#linearGradient18540" />
    <linearGradient
       id="linearGradient18290"
       x1="-1474.3"
       x2="-1368.9"
       y1="204.58"
       y2="204.58"
       gradientUnits="userSpaceOnUse"
       xlink:href="#linearGradient18540" />
    <linearGradient
       id="linearGradient18284"
       x1="-1472.8"
       x2="-1370.2"
       y1="203.28"
       y2="203.28"
       gradientUnits="userSpaceOnUse"
       xlink:href="#linearGradient18540" />
    <linearGradient
       id="linearGradient18278"
       x1="-1471.8"
       x2="-1372"
       y1="201.06"
       y2="201.06"
       gradientUnits="userSpaceOnUse"
       xlink:href="#linearGradient18540" />
    <linearGradient
       id="linearGradient18272"
       x1="-1470.3"
       x2="-1377"
       y1="199.11"
       y2="199.11"
       gradientUnits="userSpaceOnUse"
       xlink:href="#linearGradient18540" />
    <linearGradient
       id="linearGradient18266"
       x1="-1468.9"
       x2="-1381.6"
       y1="197.69"
       y2="197.69"
       gradientUnits="userSpaceOnUse"
       xlink:href="#linearGradient18540" />
    <linearGradient
       id="linearGradient18260"
       x1="-1466.6"
       x2="-1387.1"
       y1="196.1"
       y2="196.1"
       gradientUnits="userSpaceOnUse"
       xlink:href="#linearGradient18540" />
    <linearGradient
       id="linearGradient18254"
       x1="-1466"
       x2="-1392.5"
       y1="194.88"
       y2="194.88"
       gradientUnits="userSpaceOnUse"
       xlink:href="#linearGradient18540" />
    <linearGradient
       id="linearGradient18248"
       x1="-1464.1"
       x2="-1394.8"
       y1="192.27"
       y2="192.27"
       gradientUnits="userSpaceOnUse"
       xlink:href="#linearGradient18540" />
    <linearGradient
       id="linearGradient18242"
       x1="-1463.2"
       x2="-1398.6"
       y1="189.59"
       y2="189.59"
       gradientUnits="userSpaceOnUse"
       xlink:href="#linearGradient18540" />
    <linearGradient
       id="linearGradient18236"
       x1="-1462.6"
       x2="-1402.6"
       y1="186.93"
       y2="186.93"
       gradientUnits="userSpaceOnUse"
       xlink:href="#linearGradient18540" />
    <linearGradient
       id="linearGradient18230"
       x1="-1520.9"
       x2="-1362.7"
       y1="189.06"
       y2="189.06"
       gradientUnits="userSpaceOnUse"
       xlink:href="#linearGradient18228" />
    <linearGradient
       id="linearGradient18228"
       osb:paint="solid">
      <stop
         stop-color="#21e000"
         offset="0"
         id="stop71" />
    </linearGradient>
    <linearGradient
       id="linearGradient18224"
       x1="-1459.4"
       x2="-1437.4"
       y1="220.84"
       y2="220.84"
       gradientUnits="userSpaceOnUse"
       xlink:href="#linearGradient18228" />
    <linearGradient
       id="linearGradient18218"
       x1="-1511.8"
       x2="-1439.6"
       y1="161.89"
       y2="161.89"
       gradientUnits="userSpaceOnUse"
       xlink:href="#linearGradient18228" />
    <linearGradient
       id="linearGradient18212"
       x1="-1454.1"
       x2="-1439.6"
       y1="132"
       y2="132"
       gradientUnits="userSpaceOnUse">
      <stop
         stop-color="#21e000"
         offset="0"
         id="stop76" />
      <stop
         stop-color="#21e000"
         stop-opacity="0"
         offset="1"
         id="stop78" />
    </linearGradient>
    <linearGradient
       id="linearGradient18210"
       x1="-1458.4"
       x2="-1438"
       y1="225.98"
       y2="225.98"
       gradientUnits="userSpaceOnUse"
       xlink:href="#linearGradient18228" />
    <linearGradient
       id="linearGradient18020"
       x1="-1458"
       x2="-1441.3"
       y1="158.19"
       y2="158.19"
       gradientUnits="userSpaceOnUse"
       xlink:href="#linearGradient18228" />
    <linearGradient
       id="linearGradient18204"
       x1="-1442.1"
       x2="-1433.3"
       y1="190.74"
       y2="190.74"
       gradientUnits="userSpaceOnUse"
       xlink:href="#linearGradient18228" />
    <linearGradient
       id="linearGradient18198"
       x1="-1461.9"
       x2="-1437.4"
       y1="156.24"
       y2="156.24"
       gradientUnits="userSpaceOnUse"
       xlink:href="#linearGradient18196" />
    <linearGradient
       id="linearGradient18196"
       osb:paint="solid">
      <stop
         stop-color="#218b00"
         offset="0"
         id="stop85" />
    </linearGradient>
    <linearGradient
       id="linearGradient18192"
       x1="-1442.1"
       x2="-1433.3"
       y1="203.54"
       y2="203.54"
       gradientUnits="userSpaceOnUse"
       xlink:href="#linearGradient18196" />
    <linearGradient
       id="linearGradient18186"
       x1="-1439.4"
       x2="-1360.6"
       y1="173.58"
       y2="173.58"
       gradientUnits="userSpaceOnUse"
       xlink:href="#linearGradient18196" />
    <linearGradient
       id="linearGradient18180"
       x1="-1432.9"
       x2="-1358.5"
       y1="176.01"
       y2="176.01"
       gradientUnits="userSpaceOnUse"
       xlink:href="#linearGradient18196" />
    <linearGradient
       id="linearGradient18174"
       x1="-1514.9"
       x2="-1489.3"
       y1="183.77"
       y2="183.77"
       gradientUnits="userSpaceOnUse"
       xlink:href="#linearGradient18196" />
    <linearGradient
       id="linearGradient18168"
       x1="-1518.2"
       x2="-1487.4"
       y1="182.93"
       y2="182.93"
       gradientUnits="userSpaceOnUse"
       xlink:href="#linearGradient18196" />
    <linearGradient
       id="linearGradient18162"
       x1="-1523.2"
       x2="-1510.6"
       y1="171.54"
       y2="171.54"
       gradientUnits="userSpaceOnUse"
       xlink:href="#linearGradient18196" />
    <linearGradient
       id="linearGradient18156"
       x1="-1539.6"
       x2="-1477.9"
       y1="163.74"
       y2="163.74"
       gradientUnits="userSpaceOnUse"
       xlink:href="#linearGradient18196" />
    <linearGradient
       id="linearGradient18150"
       x1="-1478.4"
       x2="-1460.6"
       y1="162.51"
       y2="162.51"
       gradientUnits="userSpaceOnUse"
       xlink:href="#linearGradient18196" />
    <linearGradient
       id="linearGradient18144"
       x1="-1469.2"
       x2="-1455.5"
       y1="181.79"
       y2="181.79"
       gradientUnits="userSpaceOnUse"
       xlink:href="#linearGradient18196" />
    <linearGradient
       id="linearGradient18138"
       x1="-1463.4"
       x2="-1435.5"
       y1="222.39"
       y2="222.39"
       gradientUnits="userSpaceOnUse"
       xlink:href="#linearGradient18196" />
    <linearGradient
       id="linearGradient18132"
       x1="-1455.1"
       x2="-1433.5"
       y1="220.49"
       y2="220.49"
       gradientUnits="userSpaceOnUse"
       xlink:href="#linearGradient18196" />
    <linearGradient
       id="linearGradient18126"
       x1="-1451"
       x2="-1430.9"
       y1="223.83"
       y2="223.83"
       gradientUnits="userSpaceOnUse"
       xlink:href="#linearGradient18196" />
    <linearGradient
       id="linearGradient18120"
       x1="-1459.3"
       x2="-1437.4"
       y1="116.15"
       y2="116.15"
       gradientUnits="userSpaceOnUse"
       xlink:href="#linearGradient18196" />
    <linearGradient
       id="linearGradient18114"
       x1="-1457.3"
       x2="-1437.4"
       y1="107.77"
       y2="107.77"
       gradientUnits="userSpaceOnUse"
       xlink:href="#linearGradient18196" />
    <linearGradient
       id="linearGradient18108"
       x1="-1456.1"
       x2="-1437.7"
       y1="101.51"
       y2="101.51"
       gradientUnits="userSpaceOnUse"
       xlink:href="#linearGradient18196" />
    <linearGradient
       id="linearGradient18102"
       x1="-1564.1"
       x2="-1326.5"
       y1="176.55"
       y2="176.55"
       gradientUnits="userSpaceOnUse"
       xlink:href="#linearGradient18196" />
    <linearGradient
       id="linearGradient18096"
       x1="-1564.1"
       x2="-1326.5"
       y1="176.55"
       y2="176.55"
       gradientUnits="userSpaceOnUse"
       xlink:href="#linearGradient18094" />
    <linearGradient
       id="linearGradient18094"
       osb:paint="solid">
      <stop
         stop-color="#496300"
         offset="0"
         id="stop105" />
    </linearGradient>
    <linearGradient
       id="linearGradient18090"
       x1="-1564.1"
       x2="-1326.5"
       y1="176.55"
       y2="176.55"
       gradientUnits="userSpaceOnUse"
       gradientTransform="matrix(0.0472778,0,0,0.0472778,74.704,-1.933)">
      <stop
         stop-color="#a5e458"
         stop-opacity=".67213"
         offset="0"
         id="stop108" />
    </linearGradient>
    <filter
       id="filter57752-8"
       x="-.047724"
       y="-.048279"
       width="1.0954"
       height="1.0966"
       color-interpolation-filters="sRGB">
      <feGaussianBlur
         stdDeviation="1.3040861"
         id="feGaussianBlur111" />
    </filter>
    <linearGradient
       id="linearGradient1640"
       x1="-1541.5"
       x2="-1516.4"
       y1="136.8"
       y2="136.8"
       gradientUnits="userSpaceOnUse"
       xlink:href="#linearGradient18576" />
    <linearGradient
       id="linearGradient1702"
       x1="-398.55"
       x2="-355.83"
       y1="46.844"
       y2="46.844"
       gradientUnits="userSpaceOnUse"
       xlink:href="#linearGradient18094" />
    <linearGradient
       inkscape:collect="always"
       xlink:href="#linearGradient18576"
       id="linearGradient314"
       gradientUnits="userSpaceOnUse"
       x1="-1541.5"
       y1="136.8"
       x2="-1516.4"
       y2="136.8" />
    <linearGradient
       inkscape:collect="always"
       xlink:href="#linearGradient18576"
       id="linearGradient316"
       gradientUnits="userSpaceOnUse"
       x1="-1541.5"
       y1="136.8"
       x2="-1516.4"
       y2="136.8" />
    <linearGradient
       inkscape:collect="always"
       xlink:href="#linearGradient18576"
       id="linearGradient320"
       gradientUnits="userSpaceOnUse"
       x1="-1541.5"
       y1="136.8"
       x2="-1516.4"
       y2="136.8" />
    <linearGradient
       inkscape:collect="always"
       xlink:href="#linearGradient18540"
       id="linearGradient322"
       gradientUnits="userSpaceOnUse"
       x1="-1532"
       y1="175.54"
       x2="-1362.7"
       y2="175.54" />
    <linearGradient
       inkscape:collect="always"
       xlink:href="#linearGradient18576"
       id="linearGradient422"
       gradientUnits="userSpaceOnUse"
       x1="-1541.5"
       y1="136.8"
       x2="-1516.4"
       y2="136.8" />
    <linearGradient
       inkscape:collect="always"
       xlink:href="#linearGradient18094"
       id="linearGradient608"
       gradientUnits="userSpaceOnUse"
       gradientTransform="matrix(0.18119166,0,0,0.17622944,74.703998,-1.933)"
       x1="-398.55"
       y1="46.844"
       x2="-355.83"
       y2="46.844" />
  </defs>
  <metadata
     id="metadata118">
    <rdf:RDF>
      <cc:Work
         rdf:about="">
        <dc:format>image/svg+xml</dc:format>
        <dc:type
           rdf:resource="http://purl.org/dc/dcmitype/StillImage" />
        <dc:title />
      </cc:Work>
    </rdf:RDF>
  </metadata>
  <rect
     x="0.46545413"
     y="0.56044036"
     width="11.752084"
     height="11.752084"
     id="rect120"
     style="opacity:0.87900002;fill:#00ffff;stroke:url(#linearGradient18578);stroke-width:0.0472778" />
  <path
     d="M 0.5279941,6.4261182 V 0.56669441 H 12.179297 V 12.285363 H 0.5279941 Z"
     style="opacity:0.87900002;fill:#03f611;fill-opacity:0.43915004;stroke:url(#linearGradient18572);stroke-width:0.28000724;stroke-linecap:round;stroke-linejoin:round;stroke-opacity:0.98413002;paint-order:markers fill stroke"
     id="path122"
     inkscape:connector-curvature="0" />
  <path
     d="M 0.7299138,6.4261182 V 0.70142667 H 11.977198 V 12.15081 H 0.7299138 Z"
     style="opacity:0.87900002;fill:#03f611;fill-opacity:0.43915004;stroke:url(#linearGradient18566);stroke-width:0.28000724;stroke-linecap:round;stroke-linejoin:round;stroke-opacity:0.98413002;paint-order:markers fill stroke"
     id="path124"
     inkscape:connector-curvature="0" />
  <flowRoot
     transform="matrix(0.33320324,0,0,0.33320324,515.72879,-39.218455)"
     font-size="40px"
     letter-spacing="0px"
     word-spacing="0px"
     style="font-size:40px;line-height:1.25;font-family:sans-serif;letter-spacing:0px;word-spacing:0px;fill:#000000;stroke:url(#linearGradient320)"
     xml:space="preserve"
     id="flowRoot132"><flowRegion
       id="flowRegion128"
       style="stroke:url(#linearGradient316)"><rect
         x="-1545.7"
         y="113.95"
         width="80"
         height="131.42999"
         id="rect126"
         style="stroke:url(#linearGradient314)" /></flowRegion><flowPara
       id="flowPara130"
       style="stroke:url(#linearGradient422)">+</flowPara></flowRoot>  <path
     inkscape:connector-curvature="0"
     id="path134"
     style="fill:#0ac0d3;fill-rule:evenodd;stroke:url(#linearGradient18554);stroke-width:0.45948347;stroke-linecap:round;stroke-linejoin:round;stroke-opacity:0.88889005;paint-order:stroke markers fill"
     d="M 0.88444308,6.4394256 V 0.96891136 H 11.825944 V 11.910413 H 0.88444308 Z m 5.94329222,2.29633 V 6.9122036 H 10.474887 V 5.6965023 H 6.8277353 V 2.1844236 H 5.612034 V 5.6965023 H 2.0999553 V 6.9122036 H 5.612034 v 3.6471514 h 1.2157013 z" />
  <g
     style="fill:#0ac0d3;fill-rule:evenodd;stroke-width:2.56539989;stroke-linecap:round;stroke-linejoin:round;stroke-opacity:0.88889005"
     id="g244"
     transform="matrix(0.17869,0,0,0.17869,74.704,-1.933)">
    <path
       inkscape:connector-curvature="0"
       id="path136"
       style="stroke:url(#linearGradient18548);paint-order:stroke markers fill"
       d="m -1456.2,221.86 -0.2093,-37.021 -1.7804,-1.4413 c -1.6962,-1.3731 -3.4526,-1.4413 -37.143,-1.4413 h -35.362 v -15.838 l 35.634,-0.0115 c 19.599,-0.006 36.008,-0.26088 36.464,-0.56563 2.4056,-1.6063 2.5639,-3.9887 2.5639,-38.59 v -34.741 h 15.083 v 35.278 c 0,30.709 0.1521,35.495 1.174,36.954 l 1.1741,1.6762 h 74.577 v 15.838 h -73.223 l -1.8511,1.8512 -1.8512,1.8511 v 73.223 h -15.042 z"
       transform="scale(0.26458)" />
    <path
       inkscape:connector-curvature="0"
       id="path138"
       style="stroke:url(#linearGradient322);paint-order:stroke markers fill"
       d="m -1456,221.71 v -37.169 l -2.1903,-1.2939 c -1.9849,-1.1725 -5.486,-1.2939 -37.331,-1.2939 h -35.141 v -15.838 h 36.108 c 32.658,0 36.207,-0.11908 37.143,-1.2464 0.8382,-1.0093 1.0762,-8.0388 1.2516,-36.954 l 0.2165,-35.708 h 15.027 v 35.033 c 0,24.98 0.2512,35.585 0.8753,36.954 l 0.8752,1.9209 h 75.175 v 15.838 h -73.646 l -1.6398,1.7455 c -1.6372,1.7428 -1.6398,1.8023 -1.6398,38.463 v 36.717 h -15.083 z"
       transform="scale(0.26458)" />
    <path
       inkscape:connector-curvature="0"
       id="path140"
       style="stroke:url(#linearGradient18542);paint-order:stroke markers fill"
       d="m -1456,221.64 c 0,-33.712 -0.118,-37.337 -1.2465,-38.274 -1.0102,-0.83879 -8.0887,-1.0748 -37.331,-1.2447 l -36.085,-0.20966 v -15.795 h 36.108 c 32.657,0 36.207,-0.11912 37.143,-1.2463 0.8375,-1.0085 1.0799,-8.0597 1.2703,-36.954 l 0.2353,-35.708 h 14.99 v 35.02 c 0,20.929 0.296,35.798 0.7355,36.954 l 0.7355,1.9345 h 75.454 v 15.838 h -74.577 l -1.1741,1.6762 c -1.0236,1.4614 -1.174,6.3886 -1.174,38.463 v 36.786 h -15.083 z"
       transform="scale(0.26458)" />
    <path
       inkscape:connector-curvature="0"
       id="path142"
       style="stroke:url(#linearGradient18530);paint-order:stroke markers fill"
       d="m -1456,221.64 c 0,-33.709 -0.1181,-37.337 -1.2463,-38.274 -1.0089,-0.83799 -8.1166,-1.0798 -37.331,-1.2699 l -36.085,-0.23485 v -15.745 h 36.108 c 32.657,0 36.207,-0.11912 37.143,-1.2463 0.8302,-0.99964 1.1243,-8.2756 1.4859,-36.766 0.248,-19.536 0.5025,-35.604 0.5656,-35.708 0.063,-0.1037 3.3389,-0.18854 7.2794,-0.18854 h 7.1646 l 0.01,35.257 c 0.01,19.392 0.2149,36.021 0.465,36.954 l 0.4548,1.6969 h 75.995 v 15.838 h -75.175 l -0.8752,1.9209 c -0.6257,1.3733 -0.8752,12.338 -0.8752,38.463 v 36.542 h -15.083 z"
       transform="scale(0.26458)" />
    <path
       inkscape:connector-curvature="0"
       id="path144"
       style="stroke:url(#linearGradient18524);paint-order:stroke markers fill"
       d="m -1456,221.64 c 0,-33.707 -0.1182,-37.337 -1.2461,-38.274 -1.0011,-0.83143 -8.308,-1.1195 -37.143,-1.4643 -19.743,-0.23608 -35.982,-0.49061 -36.085,-0.56563 -0.1037,-0.075 -0.1886,-3.5302 -0.1886,-7.6781 v -7.5417 h 36.108 c 32.221,0 36.216,-0.13025 37.112,-1.2101 1.0711,-1.2906 2.0112,-26.205 2.1352,-56.584 0.072,-17.555 -0.742,-16.086 8.9162,-16.104 l 5.4606,-0.0103 0.1957,36.766 0.1957,36.766 76.548,0.3909 v 15.824 h -75.454 l -0.7355,1.9345 c -0.4411,1.1603 -0.7355,16.554 -0.7355,38.463 v 36.528 h -15.083 z"
       transform="scale(0.26458)" />
    <path
       inkscape:connector-curvature="0"
       id="path146"
       style="stroke:url(#linearGradient18518);paint-order:stroke markers fill"
       d="m -1456,221.64 c 0,-33.714 -0.118,-37.337 -1.2467,-38.274 -0.9905,-0.8224 -8.5714,-1.1767 -36.899,-1.7246 -41.064,-0.79421 -36.489,0.41869 -36.507,-9.6803 l -0.01,-5.8448 h 36.108 c 27.977,0 36.279,-0.21228 36.87,-0.94271 1.4312,-1.7705 1.8633,-9.1338 2.3398,-39.878 0.3665,-23.646 0.7022,-30.976 1.4529,-31.727 0.5797,-0.57949 3.4143,-1.0869 6.9761,-1.2486 l 5.9997,-0.27246 v 74.068 h 76.925 v 15.838 h -75.995 l -0.4547,1.6969 c -0.2501,0.93328 -0.4594,18.241 -0.4651,38.463 l -0.01,36.766 h -15.083 z"
       transform="scale(0.26458)" />
    <path
       inkscape:connector-curvature="0"
       id="path148"
       style="stroke:url(#linearGradient18512);paint-order:stroke markers fill"
       d="m -1456,221.64 c 0,-29.538 -0.2017,-37.406 -0.9754,-38.049 -1.5045,-1.2486 -8.3055,-1.6457 -40.346,-2.3558 -35.55,-0.78791 -33.342,-0.18489 -33.342,-9.1034 v -6.016 h 36.108 c 38.543,0 37.05,0.14786 38.077,-3.7708 0.2718,-1.037 0.8319,-15.8 1.2446,-32.806 0.4128,-17.007 0.93,-32.005 1.1494,-33.33 0.4522,-2.7308 0.9339,-2.9495 8.0767,-3.6665 l 5.0906,-0.51107 v 74.084 h 76.925 v 15.824 l -76.548,0.39091 -0.1954,38.274 -0.1955,38.274 h -15.07 z"
       transform="scale(0.26458)" />
    <path
       inkscape:connector-curvature="0"
       id="path150"
       style="stroke:url(#linearGradient18506);paint-order:stroke markers fill"
       d="m -1456,221.64 c 0,-28.895 -0.2112,-37.404 -0.9427,-37.977 -1.8528,-1.4496 -5.0765,-1.6896 -32.995,-2.4554 -15.555,-0.42668 -30.433,-0.97276 -33.062,-1.2135 -6.616,-0.60574 -7.663,-1.7806 -7.663,-8.5991 v -5.2792 h 35.02 c 20.103,0 35.816,-0.30285 36.89,-0.71097 1.0285,-0.39103 2.0777,-1.3653 2.3315,-2.165 0.2538,-0.79971 0.9397,-16.428 1.5243,-34.728 0.5845,-18.301 1.2623,-33.597 1.506,-33.992 0.2438,-0.39444 2.0474,-0.92139 4.008,-1.171 1.9606,-0.24961 4.6677,-0.62397 6.0158,-0.83192 l 2.451,-0.37808 v 73.977 h 76.925 v 15.838 h -76.925 v 76.925 h -15.083 z"
       transform="scale(0.26458)" />
    <path
       inkscape:connector-curvature="0"
       id="path152"
       style="stroke:url(#linearGradient18500);paint-order:stroke markers fill"
       d="m -1456.2,221.37 -0.1956,-37.51 -1.9964,-0.95674 c -1.3835,-0.66302 -11.696,-1.299 -33.594,-2.0718 -17.378,-0.61328 -32.678,-1.3311 -33.998,-1.5952 -3.3691,-0.67382 -3.9587,-1.6998 -4.468,-7.7752 l -0.448,-5.3441 h 35.849 c 33.025,0 35.976,-0.10396 37.46,-1.3198 1.5583,-1.2762 1.6472,-2.2777 2.6948,-30.355 1.1844,-31.742 1.6034,-39.178 2.244,-39.818 0.2325,-0.23247 2.9638,-0.82132 6.0697,-1.3086 l 5.6471,-0.88588 v 73.688 h 76.925 v 15.838 h -76.925 v 76.925 h -15.069 z"
       transform="scale(0.26458)" />
    <path
       inkscape:connector-curvature="0"
       id="path154"
       style="stroke:url(#linearGradient18494);paint-order:stroke markers fill"
       d="m -1456,221.29 v -37.587 l -1.8199,-0.82924 c -1.6986,-0.77389 -10.435,-1.3073 -51.937,-3.1709 -9.0339,-0.40566 -17.09,-1.0934 -17.903,-1.5282 -1.5737,-0.84222 -1.8989,-1.8528 -2.6068,-8.1003 l -0.4486,-3.9594 h 35.681 c 30.426,0 35.918,-0.16587 37.289,-1.1263 1.9639,-1.3756 2.0759,-2.6343 3.6891,-41.484 0.6373,-15.347 1.3937,-28.131 1.6809,-28.409 0.5154,-0.49807 8.5389,-2.135 10.465,-2.135 0.8072,0 0.9927,6.8351 0.9927,36.577 v 36.577 h 76.925 v 15.838 h -76.925 v 76.925 h -15.083 z"
       transform="scale(0.26458)" />
    <path
       inkscape:connector-curvature="0"
       id="path156"
       style="stroke:url(#linearGradient18488);paint-order:stroke markers fill"
       d="m -1456,221.19 c 0,-35.116 -0.09,-37.73 -1.3198,-38.388 -1.3503,-0.72252 -16.935,-1.7996 -45.062,-3.1143 -20.01,-0.93533 -25.024,-1.444 -26.016,-2.6396 -0.4367,-0.52617 -1.0644,-3.2027 -1.3949,-5.9478 l -0.6008,-4.9911 h 35.52 c 39.958,0 38.35,0.22373 39.151,-5.4485 0.2504,-1.7734 0.9637,-14.594 1.585,-28.489 0.6213,-13.896 1.3402,-27.897 1.5975,-31.115 0.517,-6.4641 0.01,-5.9488 7.1718,-7.2397 l 3.4681,-0.62478 0.489,12.891 c 0.269,7.0899 0.49,23.496 0.4913,36.459 v 23.568 h 76.925 v 15.838 h -76.925 v 76.925 h -15.083 z"
       transform="scale(0.26458)" />
    <path
       inkscape:connector-curvature="0"
       id="path158"
       style="stroke:url(#linearGradient18482);paint-order:stroke markers fill"
       d="m -1456,221.19 c 0,-36.308 -0.052,-37.71 -1.4393,-38.452 -1.4014,-0.74997 -19.668,-2.0996 -51.618,-3.8137 -8.649,-0.46403 -16.493,-1.1356 -17.432,-1.4924 -2.0469,-0.77821 -2.3695,-1.5219 -3.061,-7.0564 l -0.533,-4.2662 h 34.73 c 20.164,0 35.522,-0.30116 36.618,-0.71807 1.0387,-0.39494 2.2207,-1.3385 2.6265,-2.0968 0.4058,-0.75829 1.4475,-15.453 2.3149,-32.654 0.8673,-17.201 1.7477,-32.029 1.9565,-32.95 0.4539,-2.0037 1.9495,-2.8777 6.1,-3.5648 l 3.0987,-0.51296 0.4753,2.8764 c 0.2614,1.582 0.4796,7.458 0.4849,13.058 0.01,5.5997 0.2335,20.617 0.5071,33.372 l 0.4974,23.191 h 76.682 v 15.838 h -76.925 v 76.925 H -1456 Z"
       transform="scale(0.26458)" />
    <path
       inkscape:connector-curvature="0"
       id="path160"
       style="stroke:url(#linearGradient18476);paint-order:stroke markers fill"
       d="m -1456,221.26 c 0,-29.182 -0.2113,-37.788 -0.9427,-38.381 -1.2125,-0.98322 -13.729,-2.1059 -40.16,-3.6023 -28.858,-1.6338 -29.94,-1.7772 -31.012,-4.1138 -0.4759,-1.037 -1.0326,-3.4975 -1.2373,-5.4677 l -0.3721,-3.5823 h 70.775 l 1.744,-1.744 c 1.9883,-1.9883 1.8235,-0.3455 4.2054,-41.931 1.0364,-18.095 1.7203,-25.471 2.4262,-26.168 1.3331,-1.3161 7.277,-2.6021 7.8372,-1.6957 0.2393,0.38709 0.7332,16.048 1.0977,34.801 0.3645,18.754 0.6759,34.691 0.6919,35.417 0.027,1.2393 2.3746,1.3198 38.492,1.3198 h 38.463 v 15.838 h -76.925 v 76.925 h -15.083 z"
       transform="scale(0.26458)" />
    <path
       inkscape:connector-curvature="0"
       id="path162"
       style="stroke:url(#linearGradient18470);paint-order:stroke markers fill"
       d="m -1456,221.26 c 0,-29.176 -0.2115,-37.79 -0.9427,-38.393 -1.3948,-1.1493 -12.3,-2.2149 -40.537,-3.9609 -13.896,-0.85923 -26.283,-1.8179 -27.527,-2.1303 -2.4822,-0.62321 -4.0272,-3.7136 -4.1054,-8.2116 l -0.043,-2.451 h 70.782 l 1.4628,-1.8596 c 1.7826,-2.2663 2.0867,-4.8784 3.5584,-30.57 1.2903,-22.525 2.3868,-35.951 3.0198,-36.975 0.6147,-0.9946 6.3054,-2.5856 6.9484,-1.9426 0.6343,0.63423 1.5515,29.546 1.6459,51.878 0.036,8.58 0.3969,16.47 0.8015,17.534 l 0.7355,1.9345 h 76.208 v 15.838 h -76.925 v 76.925 h -15.083 z"
       transform="scale(0.26458)" />
    <path
       inkscape:connector-curvature="0"
       id="path164"
       style="stroke:url(#linearGradient18464);paint-order:stroke markers fill"
       d="m -1456,221.26 c 0,-30.483 -0.1912,-37.775 -1.0085,-38.453 -1.5265,-1.2668 -9.9019,-2.184 -35.192,-3.8535 -24.422,-1.6123 -31.295,-2.1776 -33.291,-2.7381 -1.3863,-0.38936 -2.6038,-3.041 -3.3396,-7.2738 l -0.4917,-2.8281 h 71.775 l 1.0498,-2.074 c 1.5641,-3.09 1.8808,-5.6718 3.1223,-25.453 1.7713,-28.222 2.7541,-39.863 3.4806,-41.229 0.7835,-1.4733 5.0438,-2.6 6.045,-1.5988 0.379,0.37898 1.0222,15.431 1.4294,33.448 0.4071,18.018 0.9389,33.693 1.1817,34.833 l 0.4415,2.074 h 76.805 v 15.838 h -76.925 v 76.925 h -15.083 z"
       transform="scale(0.26458)" />
    <path
       inkscape:connector-curvature="0"
       id="path166"
       style="stroke:url(#linearGradient18458);paint-order:stroke markers fill"
       d="m -1456,221.26 c 0,-31.259 -0.1778,-37.764 -1.0521,-38.489 -1.7239,-1.4307 -8.4091,-2.1982 -36.616,-4.204 -33.672,-2.3944 -32.365,-2.1927 -33.57,-5.1786 -0.5268,-1.305 -1.165,-3.4757 -1.4182,-4.8238 l -0.4605,-2.451 h 72.18 l 0.7951,-2.074 c 1.483,-3.8683 1.6218,-5.0759 3.1428,-27.339 2.772,-40.572 2.7992,-40.725 7.2503,-40.725 1.5934,0 1.6873,0.37373 2.1308,8.4844 0.2552,4.6664 0.8006,20.145 1.212,34.397 0.4114,14.252 0.9349,26.215 1.1633,26.584 0.2341,0.37883 17.172,0.67188 38.833,0.67188 h 38.418 v 15.838 h -76.925 v 76.925 h -15.083 z"
       transform="scale(0.26458)" />
    <path
       inkscape:connector-curvature="0"
       id="path168"
       style="stroke:url(#linearGradient18452);paint-order:stroke markers fill"
       d="m -1456,221.19 v -37.691 l -1.6969,-1.0874 c -2.1819,-1.3982 -10.231,-2.3193 -36.766,-4.2073 -32.328,-2.3001 -31.707,-2.1755 -33.042,-6.6335 -1.788,-5.9678 -5.0864,-5.4525 34.901,-5.4525 41.045,0 36.765,0.90137 38.081,-8.0195 0.4201,-2.8482 1.4518,-15.19 2.2929,-27.426 1.669,-24.283 2.0226,-27.849 3.1153,-31.42 0.7182,-2.3472 2.4244,-3.6667 3.7122,-2.8708 1.1644,0.71965 1.4408,4.7139 2.5419,36.727 0.5953,17.309 1.2964,31.818 1.5578,32.241 0.3131,0.50656 13.594,0.76922 38.894,0.76922 h 38.418 v 15.838 h -76.925 v 76.925 h -15.083 z"
       transform="scale(0.26458)" />
    <path
       inkscape:connector-curvature="0"
       id="path170"
       style="stroke:url(#linearGradient18446);paint-order:stroke markers fill"
       d="m -1456,220.91 v -37.965 l -1.9456,-0.88648 c -2.9734,-1.3548 -9.7655,-2.1276 -37.558,-4.2737 -14.054,-1.0852 -26.749,-2.374 -28.212,-2.864 -2.099,-0.70302 -2.874,-1.5131 -3.6751,-3.8417 -0.5583,-1.623 -0.8232,-3.1428 -0.5885,-3.3774 0.9998,-0.99983 13.813,-1.4866 40.458,-1.5368 29.059,-0.0548 31.823,-0.30895 32.592,-2.9962 0.5352,-1.8702 1.801,-15.832 3.4938,-38.537 0.8504,-11.407 1.9159,-22.211 2.3677,-24.009 0.8318,-3.3108 2.3673,-4.7021 3.7089,-3.3605 0.41,0.40999 1.2222,13.376 1.8368,29.324 0.606,15.724 1.3555,30.965 1.6654,33.868 l 0.5635,5.2792 77.302,0.39078 v 15.824 h -76.925 v 76.925 h -15.083 z"
       transform="scale(0.26458)" />
    <path
       inkscape:connector-curvature="0"
       id="path172"
       style="stroke:url(#linearGradient18440);paint-order:stroke markers fill"
       d="m -1456.2,220.61 -0.1955,-38.271 -2.8732,-0.94121 c -2.9062,-0.95199 -11.987,-1.918 -44.391,-4.722 -9.8187,-0.84963 -18.85,-1.8927 -20.07,-2.318 -2.129,-0.74214 -3.9343,-3.3282 -3.9343,-5.6357 0,-0.60267 0.085,-1.1328 0.1886,-1.1781 0.1036,-0.0453 16.002,-0.46951 35.331,-0.94271 26.695,-0.65355 35.426,-1.0961 36.323,-1.841 1.4817,-1.2303 1.6073,-2.2478 4.3478,-35.219 2.2578,-27.164 2.9998,-32.052 4.8651,-32.052 1.3157,0 1.6931,4.3881 3.0482,35.446 0.6063,13.896 1.3146,27.046 1.574,29.224 l 0.4718,3.9594 h 77.506 v 15.838 h -76.925 v 76.925 h -15.07 z"
       transform="scale(0.26458)" />
    <path
       inkscape:connector-curvature="0"
       id="path174"
       style="stroke:url(#linearGradient18434);paint-order:stroke markers fill"
       d="m -1456,220.44 v -38.434 l -2.8281,-0.74539 c -3.9313,-1.0361 -12.826,-2.086 -32.618,-3.85 -28.669,-2.5551 -31.866,-2.9975 -33.678,-4.6595 -1.9337,-1.7734 -2.762,-4.359 -1.5208,-4.747 0.4863,-0.15201 15.035,-0.65417 32.331,-1.1159 17.296,-0.46173 33.15,-1.0413 35.233,-1.2879 3.4177,-0.40477 3.859,-0.67703 4.5335,-2.7974 0.411,-1.2919 1.7822,-14.227 3.0472,-28.745 2.3991,-27.534 3.304,-34.878 4.4374,-36.011 1.2148,-1.2147 1.5573,2.458 3.1172,33.421 0.845,16.772 1.7296,31.427 1.9659,32.568 l 0.4295,2.074 h 77.56 v 15.838 h -76.925 v 76.925 h -15.083 z"
       transform="scale(0.26458)" />
    <path
       inkscape:connector-curvature="0"
       id="path176"
       style="stroke:url(#linearGradient18428);paint-order:stroke markers fill"
       d="m -1456.2,220.24 -0.1954,-38.634 -4.1479,-0.93141 c -2.2814,-0.51227 -13.141,-1.8018 -24.133,-2.8657 -36.756,-3.5574 -38.606,-3.8339 -40.537,-6.0576 -0.9333,-1.0748 -1.6969,-2.2419 -1.6969,-2.5937 0,-0.83007 9.4598,-1.3548 42.114,-2.3359 14.659,-0.44046 27.428,-1.0953 28.374,-1.4552 0.9467,-0.35992 1.9166,-1.4428 2.1553,-2.4063 0.2388,-0.96354 1.3108,-11.085 2.3823,-22.492 2.7185,-28.941 3.9724,-39.766 4.7715,-41.193 0.8739,-1.5616 1.2375,2.7773 3.1926,38.094 0.8356,15.095 1.6996,27.736 1.9199,28.093 0.2204,0.35653 17.858,0.64823 39.196,0.64823 h 38.795 v 15.838 h -76.925 v 76.925 h -15.07 z"
       transform="scale(0.26458)" />
    <path
       inkscape:connector-curvature="0"
       id="path178"
       style="stroke:url(#linearGradient18422);paint-order:stroke markers fill"
       d="m -1456,220.09 v -38.786 l -3.9594,-0.78233 c -4.0436,-0.79896 -13.442,-1.8761 -40.16,-4.603 -18.412,-1.8791 -22.852,-2.6474 -24.637,-4.2634 -3.2744,-2.9633 -2.9517,-3.0033 35.875,-4.4405 17.38,-0.64335 32.205,-1.4933 32.944,-1.8888 0.7389,-0.39546 1.5321,-1.3133 1.7625,-2.0396 0.2304,-0.72632 1.6152,-13.176 3.0774,-27.666 3.4131,-33.825 3.48,-34.365 4.2513,-34.365 0.3577,0 0.6471,0.59391 0.6431,1.3198 -0.019,3.4888 3.1319,54.676 3.6095,58.637 l 0.5457,4.525 78.056,0.39065 v 15.824 h -76.925 v 76.925 h -15.083 z"
       transform="scale(0.26458)" />
    <path
       inkscape:connector-curvature="0"
       id="path180"
       style="stroke:url(#linearGradient18416);paint-order:stroke markers fill"
       d="m -1456.2,219.85 -0.1954,-39.028 -5.6562,-0.90562 c -3.111,-0.49809 -17.025,-2.1215 -30.921,-3.6075 -26.228,-2.805 -30.15,-3.4535 -31.624,-5.2293 -1.6722,-2.0149 -5.1318,-1.7182 49.347,-4.2328 12.813,-0.59141 18.567,-1.1368 19.698,-1.867 1.8539,-1.1969 2.0268,-2.3631 5.5895,-37.704 2.3153,-22.966 3.5983,-30.162 3.6979,-20.74 0.065,6.1198 2.8816,51.139 3.5038,55.997 l 0.4588,3.5823 h 78.292 v 15.838 h -76.925 v 76.925 h -15.07 z"
       transform="scale(0.26458)" />
    <path
       inkscape:connector-curvature="0"
       id="path182"
       style="stroke:url(#linearGradient18410);paint-order:stroke markers fill"
       d="m -1456,219.66 c 0,-21.569 -0.2545,-39.219 -0.5656,-39.223 -0.3111,-0.003 -2.6019,-0.3318 -5.0906,-0.73037 -2.4888,-0.39856 -15.215,-1.9305 -28.281,-3.4043 -27.575,-3.1103 -32.81,-3.9284 -33.953,-5.3051 -1.1803,-1.4221 1.3919,-1.6742 30.559,-2.9946 32.314,-1.4629 36.32,-1.8106 38.135,-3.31 1.6678,-1.3779 2.2643,-5.366 5.6537,-37.796 1.1054,-10.577 2.2575,-19.5 2.5601,-19.829 0.3025,-0.32887 0.7804,4.7618 1.0619,11.313 0.6193,14.413 2.6192,43.684 3.1453,46.037 l 0.3795,1.6969 h 78.405 v 15.838 h -76.925 v 76.925 h -15.083 z"
       transform="scale(0.26458)" />
    <path
       inkscape:connector-curvature="0"
       id="path184"
       style="stroke:url(#linearGradient18404);paint-order:stroke markers fill"
       d="m -1457.2,259.47 c -0.1916,-0.53215 -0.4398,-17.484 -0.5515,-37.671 -0.1116,-20.187 -0.4855,-36.986 -0.8308,-37.331 -0.3453,-0.345 -16.296,-0.71919 -35.446,-0.83089 -19.15,-0.1117 -35.592,-0.37539 -36.539,-0.58596 -1.6871,-0.37541 -1.7165,-0.5552 -1.5083,-9.224 l 0.2123,-8.8412 36.327,-0.37709 c 19.98,-0.2074 36.597,-0.64746 36.927,-0.97792 0.33,-0.33046 0.8199,-16.556 1.0887,-36.058 0.2942,-21.347 0.7814,-35.75 1.2243,-36.193 0.4134,-0.41341 4.176,-0.64094 8.589,-0.5194 l 7.8534,0.21628 0.3952,36.577 c 0.2174,20.117 0.4719,36.659 0.5656,36.759 0.094,0.0999 17.224,0.26955 38.068,0.37709 l 37.897,0.19552 v 18.1 l -37.301,0.19574 c -24.552,0.12884 -37.569,0.46373 -38.086,0.9798 -0.512,0.51158 -0.9157,13.81 -1.1617,38.267 l -0.3771,37.483 -8.4986,0.21337 c -6.3869,0.16035 -8.5851,-0.027 -8.847,-0.75417 z m 16.214,-39.053 v -38.463 h 76.925 v -15.838 h -39.217 c -30.866,0 -39.218,-0.20073 -39.225,-0.94271 0,-0.51849 -0.342,-4.8455 -0.7504,-9.6157 -1.1103,-12.966 -3.0127,-46.107 -3.0127,-52.483 0,-3.2224 -0.3192,-5.5877 -0.7541,-5.5877 -0.4266,0 -0.7542,2.1606 -0.7542,4.9734 0,5.086 -4.7142,49.38 -6.0525,56.869 -0.4077,2.2814 -1.2643,4.5359 -1.9034,5.0101 -1.655,1.2278 -5.5114,1.6583 -22.588,2.5214 -21.679,1.0958 -44.719,2.3836 -45.995,2.5708 -2.1036,0.30875 -1.9309,1.021 0.5296,2.184 2.6734,1.2636 9.94,2.3244 39.81,5.8117 10.577,1.2349 20.959,2.4602 23.07,2.7228 l 3.839,0.47751 0.4974,26.051 c 0.2737,14.328 0.4975,31.935 0.4975,39.126 v 13.075 h 15.083 z m -85.975,-39.001 c -0.6222,-0.2307 -1.7252,-0.72491 -2.4511,-1.0982 -0.9786,-0.50331 -1.3198,-0.37947 -1.3198,0.479 0,0.81565 0.7243,1.1402 2.4511,1.0982 1.3481,-0.0327 1.942,-0.24829 1.3198,-0.47899 z m 72.023,-88.453 c 0.2563,-0.41479 0.1067,-0.75417 -0.3326,-0.75417 -0.4393,0 -0.7987,0.33938 -0.7987,0.75417 0,0.41479 0.1497,0.75417 0.3326,0.75417 0.1829,0 0.5423,-0.33938 0.7987,-0.75417 z"
       transform="scale(0.26458)" />
    <path
       inkscape:connector-curvature="0"
       id="path186"
       style="stroke:url(#linearGradient18398);paint-order:stroke markers fill"
       d="m -1459,261.35 c 0.048,-1.5663 0.236,-2.2887 0.4175,-1.6054 0.4618,1.7388 2.5192,2.1293 11.281,2.1411 5.2139,0.007 7.8786,-0.2889 8.3964,-0.93242 0.4747,-0.59006 0.8823,-14.693 1.0893,-37.7 0.182,-20.216 0.5241,-36.95 0.7602,-37.187 0.2361,-0.2361 3.5206,-0.62955 7.2988,-0.87433 3.7783,-0.24479 6.8696,-0.68763 6.8696,-0.9841 0,-0.29647 13.245,-0.78908 29.433,-1.0947 22.632,-0.42726 29.688,-0.34442 30.535,0.35852 1.712,1.4209 1.9922,-0.27563 1.7307,-10.479 -0.1777,-6.9367 -0.01,-9.1421 0.7084,-9.141 0.7122,10e-4 0.9427,2.7675 0.9427,11.314 v 11.313 h -76.157 l -0.1954,38.651 -0.1954,38.651 -23.002,0.41637 z"
       transform="scale(0.26458)" />
    <path
       inkscape:connector-curvature="0"
       id="path188"
       style="stroke:url(#linearGradient18392);paint-order:stroke markers fill"
       d="M -1560.9,177.05 V 61.28 h 230.78 v 231.53 h -230.78 z m 125.8,87.71 c 0.6799,-0.67989 0.905,-10.339 0.905,-38.833 v -37.928 l 75.794,-0.39103 v -26.396 l -77.302,-0.39078 v -73.931 l -26.019,0.4127 -0.1958,36.766 -0.1957,36.766 h -73.894 v 26.396 h 73.909 v 38.117 c 0,29.42 0.2151,38.362 0.9427,39.188 1.2549,1.4253 24.654,1.6256 26.056,0.2231 z"
       transform="scale(0.26458)" />
    <path
       inkscape:connector-curvature="0"
       id="path190"
       style="stroke:url(#linearGradient18386);paint-order:stroke markers fill"
       d="m -1454.8,218.73 c -0.2865,-21.249 -0.7657,-38.867 -1.0649,-39.15 -0.2992,-0.283 -9.5375,-1.5724 -20.53,-2.8649 -23.732,-2.7906 -43.862,-5.4563 -43.551,-5.7674 0.1227,-0.12272 12.942,-0.92369 28.486,-1.7799 15.545,-0.85624 29.737,-1.768 31.538,-2.026 4.5529,-0.65234 6.7563,-2.8306 7.6264,-7.5393 0.5707,-3.0888 3.7195,-30.034 4.7476,-40.628 0.1208,-1.2444 0.4853,2.4888 0.8101,8.2959 1.1608,20.755 2.7575,38.372 3.5496,39.165 0.5446,0.54493 13.249,0.87549 39.231,1.0208 l 38.426,0.21482 v 12.754 l -76.548,0.39091 -0.1955,38.274 -0.1954,38.274 h -11.809 z"
       transform="scale(0.26458)" />
    <path
       inkscape:connector-curvature="0"
       id="path192"
       style="stroke:url(#linearGradient18380);paint-order:stroke markers fill"
       d="m -1453.8,257.18 c -0.011,-0.1037 -0.3484,-17.477 -0.7491,-38.608 -0.4006,-21.131 -1.0034,-38.695 -1.3395,-39.031 -0.3361,-0.336 -13.962,-2.299 -30.28,-4.362 -16.318,-2.063 -29.798,-3.8801 -29.956,-4.038 -0.1578,-0.15782 4.218,-0.51858 9.7241,-0.80169 24.998,-1.2853 46.411,-2.8414 48.571,-3.5297 5.1594,-1.6442 5.4436,-2.5576 8.1806,-26.298 1.0736,-9.3117 2.0471,-17.025 2.1634,-17.142 0.1164,-0.11633 0.6271,6.4023 1.1351,14.486 1.1002,17.508 2.24,27.604 3.2329,28.636 0.4588,0.47716 14.839,0.84163 39.151,0.99227 l 38.426,0.23809 v 12.722 h -76.925 v 76.925 h -5.6563 c -3.1109,0 -5.6655,-0.0848 -5.6769,-0.18854 z"
       transform="scale(0.26458)" />
    <path
       inkscape:connector-curvature="0"
       id="path194"
       style="stroke:url(#linearGradient18374);paint-order:stroke markers fill"
       d="m -1452.8,256.87 c -0.6987,-0.28194 -0.9465,-3.5361 -0.9576,-12.573 -0.025,-20.707 -1.4615,-64.123 -2.1435,-64.805 -0.3557,-0.35563 -12.936,-2.2905 -27.956,-4.2997 -15.02,-2.0092 -27.448,-3.7922 -27.618,-3.9622 -0.17,-0.17 7.4049,-0.72627 16.833,-1.2362 22.124,-1.1964 34.624,-2.2684 37.707,-3.2335 4.2004,-1.315 4.6494,-2.7805 7.336,-23.946 1.0211,-8.0449 1.9854,-14.756 2.1428,-14.913 0.1574,-0.1574 0.5276,4.2188 0.8226,9.7249 0.724,13.514 2.4313,27.772 3.4471,28.789 0.5708,0.57124 12.78,0.96922 39.067,1.2735 21.03,0.24341 38.322,0.49794 38.426,0.56563 0.1037,0.0677 0.1886,2.8381 0.1886,6.1564 v 6.0334 h -76.925 v 76.925 l -4.7136,-0.0595 c -2.5924,-0.0327 -5.1378,-0.23072 -5.6563,-0.43993 z"
       transform="scale(0.26458)" />
    <path
       inkscape:connector-curvature="0"
       id="path196"
       style="stroke:url(#linearGradient18368);paint-order:stroke markers fill"
       d="m -1449.7,256.82 -3.1018,-0.28363 -0.4805,-4.5974 c -0.2643,-2.5285 -0.4828,-11.42 -0.4856,-19.759 -0.01,-19.457 -1.3799,-51.917 -2.2328,-52.77 -0.3615,-0.36153 -11.714,-2.221 -25.229,-4.1321 -13.515,-1.9111 -24.571,-3.6878 -24.571,-3.9482 0,-0.26038 4.6665,-0.7038 10.37,-0.98539 14.48,-0.71489 29.919,-1.9153 35.17,-2.7346 7.5237,-1.1739 7.8649,-1.8813 10.567,-21.91 0.9486,-7.0305 1.8998,-12.958 2.1137,-13.172 0.214,-0.21395 0.6232,3.6157 0.9095,8.5104 0.6952,11.885 2.3477,24.257 3.3774,25.287 0.8746,0.87465 31.804,1.8795 61.277,1.9908 17.835,0.0674 16.461,-0.58212 16.481,7.789 l 0.01,4.3365 h -76.925 v 76.925 l -2.074,-0.13176 c -1.1407,-0.0725 -3.4698,-0.25939 -5.1757,-0.41539 z"
       transform="scale(0.26458)" />
    <path
       inkscape:connector-curvature="0"
       id="path198"
       style="stroke:url(#linearGradient18362);paint-order:stroke markers fill"
       d="m -1447.5,256.77 c -3.62,-0.17311 -4.7628,-0.51321 -5.0681,-1.5083 -0.2169,-0.70666 -0.7459,-15.539 -1.1756,-32.96 -0.9705,-39.347 -1.2159,-42.532 -3.3378,-43.331 -0.8702,-0.32801 -11.344,-2.0654 -23.276,-3.861 -11.931,-1.7955 -21.264,-3.4835 -20.74,-3.751 0.524,-0.2675 7.911,-0.90096 16.414,-1.4077 19.297,-1.15 27.033,-2.09 29.287,-3.559 2.6963,-1.7574 3.8362,-5.4325 5.6065,-18.075 1.6115,-11.509 2.815,-14.94 2.815,-8.0266 0,4.9856 2.0715,22.208 2.9486,24.515 0.6478,1.704 1.2793,1.9572 6.0821,2.4396 2.9476,0.29601 19.924,0.75948 37.726,1.0299 24.272,0.36875 32.602,0.72661 33.306,1.4308 0.5165,0.51651 1.0795,3.1441 1.2511,5.8391 l 0.312,4.9 h -77.087 l -0.1954,38.274 -0.1954,38.274 z"
       transform="scale(0.26458)" />
    <path
       inkscape:connector-curvature="0"
       id="path200"
       style="stroke:url(#linearGradient18356);paint-order:stroke markers fill"
       d="m -1450.9,256.11 c -1.5369,-0.40752 -1.8118,-4.4814 -2.9179,-43.235 -0.7783,-27.266 -1.281,-32.877 -3.0435,-33.967 -0.5005,-0.30936 -7.9065,-1.6603 -16.458,-3.0021 -8.5515,-1.3418 -17.754,-2.8487 -20.45,-3.3487 l -4.9021,-0.90903 3.3938,-0.49071 c 1.8666,-0.2699 8.9935,-0.85269 15.838,-1.2951 13.679,-0.88422 20.898,-1.8272 23.675,-3.0923 2.6864,-1.224 4.0515,-5.0942 6.0254,-17.082 0.9756,-5.9247 1.9886,-10.987 2.2512,-11.25 0.2627,-0.26263 0.4776,1.552 0.4776,4.0326 0,4.8561 1.8478,20.179 2.7018,22.404 0.2863,0.74616 1.3457,1.6704 2.3541,2.0538 1.0085,0.38342 16.828,1.0323 35.155,1.4419 18.327,0.40961 34.746,0.93658 36.488,1.171 3.4702,0.46708 3.5935,0.66206 4.3906,6.9442 l 0.5024,3.9594 h -76.833 l -0.494,10.301 c -0.2717,5.6653 -0.494,22.804 -0.494,38.086 v 27.785 l -3.2052,-0.0875 c -1.7629,-0.0481 -3.7678,-0.23665 -4.4553,-0.41896 z"
       transform="scale(0.26458)" />
    <path
       inkscape:connector-curvature="0"
       id="path202"
       style="stroke:url(#linearGradient18350);paint-order:stroke markers fill"
       d="m -1448.2,256.07 c -3.0372,-0.27675 -3.1382,-0.37422 -3.5735,-3.4505 -0.2464,-1.7412 -0.7841,-13.517 -1.1948,-26.168 -1.3057,-40.216 -1.8027,-46.658 -3.6899,-47.824 -0.3339,-0.2064 -9.3053,-1.8174 -19.936,-3.58 -10.631,-1.7626 -19.24,-3.2938 -19.131,-3.4025 0.1087,-0.10876 6.9682,-0.72243 15.243,-1.3637 15.261,-1.1827 23.05,-2.2438 25.297,-3.4466 2.0331,-1.0881 3.4936,-5.1123 5.187,-14.292 2.0579,-11.155 2.9144,-13.199 3.002,-7.1646 0.036,2.4888 0.5458,7.9146 1.1327,12.057 1.1331,7.9992 2.405,10.176 5.9633,10.203 11.121,0.0869 70.609,2.2931 71.548,2.6534 0.8168,0.31343 1.43,1.7242 1.7385,3.9997 0.2622,1.9335 0.6407,4.1094 0.8412,4.8353 0.3437,1.2444 -1.8282,1.3198 -38.042,1.3198 h -38.406 l -0.4846,4.6356 c -0.2665,2.5496 -0.4845,19.688 -0.4845,38.086 0,26.327 -0.2007,33.422 -0.9427,33.318 -0.5185,-0.0725 -2.3492,-0.25992 -4.0682,-0.41655 z"
       transform="scale(0.26458)" />
    <path
       inkscape:connector-curvature="0"
       id="path204"
       style="stroke:url(#linearGradient18344);paint-order:stroke markers fill"
       d="m -1450.7,254.85 c -0.5202,-0.62686 -1.133,-8.3149 -1.6079,-20.174 -1.4645,-36.569 -2.2736,-50.851 -3.0366,-53.598 l -0.7671,-2.7615 -6.959,-1.2297 c -3.8275,-0.67631 -12.348,-2.1596 -18.934,-3.2961 l -11.976,-2.0665 15.369,-1.3461 c 17.826,-1.5612 22.286,-2.2956 24.142,-3.975 1.6618,-1.504 3.2,-6.1847 4.8651,-14.804 0.7011,-3.6294 1.5677,-6.599 1.9257,-6.599 0.358,0 0.6628,1.7817 0.6773,3.9594 0.043,6.5216 1.9765,15.725 3.6559,17.404 1.3921,1.392 3.0028,1.5471 22.1,2.1281 37.178,1.1309 52.852,2.0088 53.461,2.9946 0.8029,1.2991 1.6556,7.5 1.1068,8.0488 -0.2525,0.25245 -17.388,0.60335 -38.079,0.77978 -37.587,0.32051 -37.62,0.32219 -38.05,1.923 -0.2365,0.88118 -0.4358,12.462 -0.4428,25.736 -0.01,13.273 -0.2345,29.479 -0.5055,36.012 l -0.4926,11.878 h -2.8063 c -1.5434,0 -3.1845,-0.45577 -3.6468,-1.0128 z"
       transform="scale(0.26458)" />
    <path
       inkscape:connector-curvature="0"
       id="path206"
       style="stroke:url(#linearGradient18338);paint-order:stroke markers fill"
       d="m -1409.8,168.61 c 0.7338,-0.19122 1.7519,-0.17864 2.2625,0.0279 0.5106,0.20659 -0.09,0.36303 -1.3342,0.34766 -1.2443,-0.0154 -1.6621,-0.18439 -0.9283,-0.3756 z"
       transform="scale(0.26458)" />
    <path
       inkscape:connector-curvature="0"
       id="path208"
       style="stroke:url(#linearGradient18332);paint-order:stroke markers fill"
       d="m -1449,255.12 c -1.9779,-0.79876 -2.2472,-3.0987 -3.3121,-28.293 -1.2758,-30.184 -2.307,-45.155 -3.244,-47.097 -0.8343,-1.729 -1.9465,-2.0285 -17.417,-4.6915 -9.0891,-1.5645 -16.895,-2.9697 -17.346,-3.1225 -0.4512,-0.15287 2.5734,-0.52535 6.7213,-0.82774 12.197,-0.88914 25.738,-2.6135 27.76,-3.5352 2.4257,-1.1052 4.1267,-4.9677 6.1995,-14.077 1.785,-7.845 2.1518,-7.7256 2.9224,0.95091 0.221,2.4888 0.9316,6.2964 1.5791,8.4614 1.0731,3.5884 1.433,4.0052 4.0718,4.7158 1.592,0.42869 8.5358,0.82339 15.431,0.8771 9.1664,0.0714 12.893,0.36844 13.863,1.105 1.5709,1.1922 4.1226,1.3522 5.1519,0.32288 0.7116,-0.71168 25.839,0.10979 34.802,1.1377 3.7394,0.42888 3.9583,0.57611 4.4063,2.9644 1.076,5.7356 4.1566,5.236 -36.255,5.8808 -19.905,0.3176 -36.908,0.88332 -37.786,1.2572 -1.5779,0.67243 -1.6003,1.0323 -2.1003,33.737 -0.278,18.182 -0.7024,34.839 -0.9431,37.017 -0.4613,4.1734 -1.0667,4.6055 -4.5061,3.2166 z"
       transform="scale(0.26458)" />
    <path
       inkscape:connector-curvature="0"
       id="path210"
       style="stroke:url(#linearGradient18326);paint-order:stroke markers fill"
       d="m -1450,253.2 c -0.3977,-1.0461 -1.239,-12.67 -1.8695,-25.83 -1.4222,-29.685 -2.5259,-45 -3.4109,-47.327 -0.8223,-2.1627 -2.1257,-2.5443 -19.166,-5.6116 -7.0197,-1.2636 -12.883,-2.4176 -13.03,-2.5646 -0.1469,-0.14696 3.0511,-0.5042 7.1068,-0.79387 9.588,-0.6848 23.524,-2.6123 25.14,-3.477 1.7865,-0.95609 3.7149,-5.3337 5.6377,-12.798 1.6382,-6.3593 1.6553,-6.3864 2.1476,-3.3938 1.4428,8.7708 2.8461,14.392 3.8416,15.387 1.3275,1.3274 22.586,2.8212 47.532,3.34 15.953,0.33177 25.959,1.0317 27.343,1.9127 0.412,0.26236 0.988,1.5783 1.28,2.9243 0.4678,2.1564 0.3037,2.5336 -1.3811,3.1742 -1.0516,0.39981 -17.536,1.0902 -36.632,1.5342 -19.096,0.44398 -35.218,0.99836 -35.827,1.232 -0.6088,0.23359 -1.2839,0.98726 -1.5004,1.6748 -0.2164,0.68757 -0.7274,16.72 -1.1355,35.628 -0.408,18.908 -0.9589,34.943 -1.2241,35.635 -0.7706,2.0079 -4.0071,1.5775 -4.8522,-0.64529 z"
       transform="scale(0.26458)" />
    <path
       inkscape:connector-curvature="0"
       id="path212"
       style="stroke:url(#linearGradient18320);paint-order:stroke markers fill"
       d="m -1448.8,254.11 c -1.2335,-0.94081 -1.791,-7.3176 -3.5066,-40.108 -1.0308,-19.7 -2.1949,-32.785 -3.0607,-34.403 -0.939,-1.7545 -3.7644,-2.5958 -17.229,-5.1297 -6.307,-1.1869 -11.625,-2.3158 -11.818,-2.5087 -0.1929,-0.19285 2.7959,-0.58383 6.6417,-0.86886 3.8458,-0.28503 10.481,-1.0572 14.745,-1.7159 6.6006,-1.0197 7.9733,-1.4782 9.2374,-3.0852 1.4226,-1.8085 5.1762,-12.445 5.3334,-15.112 0.042,-0.70448 0.7125,1.7113 1.4913,5.3685 1.7897,8.405 2.795,10.456 5.4725,11.165 2.8608,0.75772 23.4,1.9952 48.769,2.9383 11.407,0.42406 21.507,0.97452 22.445,1.2232 1.7443,0.46261 2.9293,3.1955 2.2045,5.0842 -0.4547,1.185 -6.638,1.5407 -48.013,2.7619 -18.71,0.55222 -25.5,0.99579 -26.217,1.7127 -0.726,0.72599 -1.1551,8.2058 -1.7193,29.966 -1.1408,44.003 -1.2933,45.367 -4.7755,42.711 z"
       transform="scale(0.26458)" />
    <path
       inkscape:connector-curvature="0"
       id="path214"
       style="stroke:url(#linearGradient18314);paint-order:stroke markers fill"
       d="m -1448.7,253.79 c -0.8089,-1.4185 -1.3441,-7.6275 -2.7793,-32.241 -1.9812,-33.978 -2.7191,-41.079 -4.4522,-42.844 -0.8998,-0.91656 -5.1986,-2.1552 -13.09,-3.7718 -6.4627,-1.3239 -12.004,-2.6611 -12.315,-2.9717 -0.3106,-0.31058 1.1039,-0.58021 3.1433,-0.59917 5.8065,-0.054 22.041,-2.678 23.365,-3.7764 1.6004,-1.3282 3.6271,-5.4365 5.2733,-10.69 l 1.3535,-4.3192 1.6359,6.5175 c 1.0746,4.2813 2.1763,6.9551 3.2109,7.7929 2.1262,1.7217 4.7793,1.9264 58.084,4.4817 8.4178,0.40353 15.589,0.9089 15.935,1.123 0.9424,0.58244 1.4575,3.1392 0.8353,4.146 -0.5738,0.92848 -12.086,1.6036 -51.591,3.0256 -12.555,0.45193 -21.412,1.0788 -21.987,1.5563 -1.147,0.95193 -1.5832,8.0016 -2.6352,42.591 -0.4163,13.688 -0.9662,26.16 -1.2219,27.716 -0.419,2.5481 -1.9064,3.7658 -2.7637,2.2625 z"
       transform="scale(0.26458)" />
    <path
       inkscape:connector-curvature="0"
       id="path216"
       style="stroke:url(#linearGradient18308);paint-order:stroke markers fill"
       d="m -1448.7,252.36 c -0.6932,-3.5975 -1.2011,-10.127 -2.7785,-35.718 -1.7077,-27.704 -2.6346,-36.046 -4.198,-37.781 -1.2718,-1.412 -3.8933,-2.2206 -14.635,-4.5143 -8.887,-1.8976 -11.006,-2.9471 -5.9956,-2.9697 8.1379,-0.0368 20.673,-2.6286 22.572,-4.6673 0.7933,-0.85159 2.3777,-4.1127 3.5209,-7.247 l 2.0784,-5.6986 1.2266,4.8546 c 1.4787,5.852 2.5357,7.9503 4.5473,9.0269 1.95,1.0436 12.214,1.8333 44.45,3.42 14.31,0.70435 26.782,1.5666 27.716,1.9162 0.9401,0.35206 1.6969,1.2736 1.6969,2.0661 0,1.9115 -1.7341,2.139 -23.756,3.1163 -44.381,1.9696 -48.96,2.2708 -49.977,3.2875 -1.072,1.0719 -1.7246,11.434 -3.1643,50.24 -0.593,15.986 -1.0098,20.947 -1.8282,21.766 -0.9106,0.91059 -1.1186,0.7559 -1.4756,-1.0973 z"
       transform="scale(0.26458)" />
    <path
       inkscape:connector-curvature="0"
       id="path218"
       style="stroke:url(#linearGradient18302);paint-order:stroke markers fill"
       d="m -1448.8,249.63 c -0.263,-2.173 -1.3181,-16.338 -2.3447,-31.478 -2.6391,-38.924 -2.6923,-39.236 -6.9723,-40.93 -1.5512,-0.61392 -6.214,-1.877 -10.362,-2.8068 -9.5602,-2.1431 -11.104,-2.969 -5.6062,-2.999 4.963,-0.0271 11.714,-1.147 16.811,-2.7887 3.4124,-1.0991 3.8061,-1.4961 5.7577,-5.806 1.1522,-2.5444 2.3349,-5.305 2.6283,-6.1346 0.4128,-1.1673 0.8726,-0.39995 2.0337,3.3938 2.2424,7.3266 3.316,8.1137 12.314,9.0266 4.1479,0.42086 19.994,1.4498 35.214,2.2866 15.22,0.83678 28.217,1.7307 28.884,1.9865 0.6666,0.25583 1.1062,1.0163 0.9767,1.69 -0.3041,1.583 -3.7431,1.9429 -29.251,3.0616 -31.928,1.4003 -42.443,2.1972 -43.546,3.3004 -1.1692,1.1692 -2.0625,13.055 -3.1849,42.376 -0.8489,22.175 -1.3654,28.841 -2.2786,29.405 -0.3268,0.20196 -0.8093,-1.4107 -1.0723,-3.5836 z"
       transform="scale(0.26458)" />
    <path
       inkscape:connector-curvature="0"
       id="path220"
       style="stroke:url(#linearGradient18296);paint-order:stroke markers fill"
       d="m -1448.5,250.39 c -0.01,-4.8079 -4.7274,-63.738 -5.3504,-66.811 -0.449,-2.2148 -1.413,-4.6236 -2.1423,-5.3529 -0.7352,-0.73513 -5.158,-2.262 -9.9253,-3.4263 -4.7296,-1.1552 -8.8701,-2.3431 -9.2011,-2.6398 -0.331,-0.2967 2.2143,-0.74579 5.6563,-0.99785 6.3901,-0.46796 13.713,-2.2536 15.613,-3.8072 0.5823,-0.47617 2.0583,-3.0717 3.28,-5.7679 l 2.2213,-4.9021 1.6221,4.4544 c 2.9054,7.979 2.5827,7.9003 41.97,10.227 31.928,1.8859 34.692,2.1565 34.692,3.3965 0,1.4229 -3.4843,1.7809 -29.502,3.0314 -29.992,1.4415 -41.489,2.4233 -42.714,3.6475 -0.5469,0.54694 -1.2678,4.4906 -1.6848,9.2164 -0.5848,6.6271 -3.025,54.58 -3.025,59.443 0,0.67756 -0.3394,1.2319 -0.7542,1.2319 -0.4148,0 -0.7549,-0.42422 -0.7558,-0.94271 z"
       transform="scale(0.26458)" />
    <path
       inkscape:connector-curvature="0"
       id="path222"
       style="stroke:url(#linearGradient18290);paint-order:stroke markers fill"
       d="m -1448.5,247 c 0,-4.1845 -3.4023,-47.844 -4.5274,-58.127 -1.1081,-10.128 -1.7156,-11.002 -9.2428,-13.293 -3.4176,-1.0405 -7.3285,-2.1132 -8.691,-2.3838 -1.3625,-0.27062 -2.3091,-0.66022 -2.1035,-0.86576 0.2055,-0.20555 3.3915,-0.8223 7.0799,-1.3706 10.402,-1.5462 12.314,-2.5615 14.862,-7.8936 1.181,-2.4708 2.3393,-4.4912 2.5742,-4.4897 0.2348,0.001 1.2754,1.7832 2.3123,3.9594 3.2239,6.7655 3.5706,6.8345 48.478,9.6416 13.597,0.84994 25.47,1.8219 26.384,2.16 1.5958,0.59034 1.6023,0.63133 0.1654,1.0386 -2.1483,0.60897 -9.9303,1.163 -34.302,2.4422 -25.417,1.334 -35.469,2.3259 -36.772,3.6287 -0.5248,0.52485 -1.2842,3.823 -1.6874,7.3292 -0.8425,7.3246 -3.0204,47.855 -3.0204,56.206 0,3.2305 -0.3191,5.5999 -0.7542,5.5999 -0.4148,0 -0.7549,-1.612 -0.7557,-3.5823 z"
       transform="scale(0.26458)" />
    <path
       inkscape:connector-curvature="0"
       id="path224"
       style="stroke:url(#linearGradient18284);paint-order:stroke markers fill"
       d="m -1448.8,238.74 c -0.7915,-15.358 -4.2094,-53.79 -5.0671,-56.975 -0.9896,-3.6753 -3.5046,-5.2534 -11.912,-7.4742 -3.5135,-0.92817 -6.0777,-1.7785 -5.6982,-1.8897 0.3795,-0.1112 4.0472,-0.8762 8.1505,-1.7001 8.2873,-1.664 10.544,-3.1336 12.927,-8.4172 0.7345,-1.6288 1.5384,-2.9605 1.7865,-2.9593 0.2481,0.001 1.2996,1.6132 2.3365,3.5823 3.3139,6.2925 5.0897,6.6763 42.611,9.2091 12.444,0.84 25.001,1.7619 27.904,2.0486 5.1198,0.50554 5.1881,0.53892 2.2625,1.1059 -1.6592,0.32154 -15.234,1.2908 -30.167,2.154 -29.221,1.6891 -37.155,2.5153 -38.667,4.0269 -0.5308,0.53078 -1.2808,2.9807 -1.6667,5.4442 -0.876,5.5917 -3.0273,42.571 -3.0429,52.304 -0.017,10.945 -1.1859,10.64 -1.758,-0.45901 z"
       transform="scale(0.26458)" />
    <path
       inkscape:connector-curvature="0"
       id="path226"
       style="stroke:url(#linearGradient18278);paint-order:stroke markers fill"
       d="m -1448.8,234.23 c -0.7598,-13.022 -3.3581,-42.768 -4.2688,-48.869 -1.0364,-6.9442 -2.3359,-8.2426 -10.779,-10.77 l -6.7098,-2.0085 6.239,-1.3668 c 8.8346,-1.9355 11.058,-3.1718 13.425,-7.4669 1.1047,-2.0036 2.1781,-3.6294 2.3855,-3.6128 0.2074,0.0165 1.3952,1.6237 2.6396,3.5714 3.7183,5.8199 5.8389,6.1958 54.488,9.6574 10.058,0.71569 18.189,1.4003 18.068,1.5214 -0.1211,0.12109 -13.441,1.094 -29.601,2.162 -16.159,1.068 -31.417,2.261 -33.905,2.651 -5.2729,0.82632 -6.7655,2.2152 -7.4605,6.9422 -0.7636,5.1935 -2.7124,38.74 -2.7289,46.974 -0.022,10.874 -1.1714,11.268 -1.793,0.61483 z"
       transform="scale(0.26458)" />
    <path
       inkscape:connector-curvature="0"
       id="path228"
       style="stroke:url(#linearGradient18272);paint-order:stroke markers fill"
       d="m -1448.8,230.2 c -0.7525,-12.513 -3.3977,-41.138 -4.2497,-45.988 -0.9429,-5.3677 -3.4522,-7.7002 -10.629,-9.8801 l -5.3962,-1.639 6.356,-1.5954 c 7.5772,-1.9019 9.8251,-3.2471 12.109,-7.2465 0.9443,-1.6537 1.8866,-2.9885 2.094,-2.9664 0.2074,0.0221 1.4037,1.4619 2.6583,3.1994 3.8698,5.359 9.3457,6.3716 50.511,9.3409 10.37,0.74798 18.006,1.4439 16.969,1.5466 -1.037,0.10263 -13.933,1.0376 -28.658,2.0777 -31.827,2.248 -32.787,2.3693 -35.203,4.4473 -1.573,1.353 -1.9849,2.6006 -2.5205,7.6342 -0.9608,9.0292 -2.2405,30.899 -2.3005,39.314 -0.078,10.981 -1.1214,12.034 -1.7395,1.7557 z"
       transform="scale(0.26458)" />
    <path
       inkscape:connector-curvature="0"
       id="path230"
       style="stroke:url(#linearGradient18266);paint-order:stroke markers fill"
       d="m -1449.2,221.35 c -1.2873,-17.568 -2.9715,-33.836 -3.9421,-38.077 -1.0054,-4.3939 -3.4926,-6.6559 -9.8787,-8.9844 l -4.6489,-1.6951 4.8546,-1.2315 c 7.5652,-1.9191 10.306,-3.8092 14.008,-9.6582 0.09,-0.14256 1.6311,1.2595 3.4242,3.1158 2.8086,2.9075 3.9928,3.5397 8.5484,4.5639 5.9106,1.3288 21.106,2.9358 41.47,4.3858 7.4663,0.53162 13.066,1.0529 12.444,1.1584 -0.622,0.1055 -10.973,0.88743 -23.002,1.7376 -34.039,2.4058 -36.449,2.8634 -38.111,7.2361 -0.9842,2.5885 -2.1328,15.907 -2.9431,34.124 -0.3753,8.4357 -0.8207,15.476 -0.9899,15.645 -0.1692,0.169 -0.7241,-5.3752 -1.233,-12.321 z"
       transform="scale(0.26458)" />
    <path
       inkscape:connector-curvature="0"
       id="path232"
       style="stroke:url(#linearGradient18260);paint-order:stroke markers fill"
       d="m -1448.8,222.3 c -0.8303,-12.806 -3.3751,-36.638 -4.2414,-39.72 -0.9289,-3.3056 -4.793,-6.9046 -8.7833,-8.1806 -1.5911,-0.50881 -3.1375,-1.1457 -3.4365,-1.4154 -0.299,-0.2697 1.7162,-1.1374 4.4781,-1.9284 3.9698,-1.1369 5.8135,-2.2013 8.8013,-5.0812 l 3.7796,-3.643 2.6778,2.609 c 1.4728,1.435 3.9033,3.1195 5.4011,3.7434 3.3485,1.3948 16.267,3.0823 37.625,4.9148 8.918,0.76514 15.218,1.4306 13.999,1.4787 -1.2186,0.0481 -11.23,0.7755 -22.248,1.6164 -27.449,2.0949 -31.498,2.8888 -33.143,6.4988 -1.1556,2.5362 -2.1564,12.276 -3.1274,30.435 -0.4547,8.5033 -0.9207,15.8 -1.0356,16.215 -0.1149,0.415 -0.451,-2.979 -0.7468,-7.5417 z"
       transform="scale(0.26458)" />
    <path
       inkscape:connector-curvature="0"
       id="path234"
       style="stroke:url(#linearGradient18254);paint-order:stroke markers fill"
       d="m -1448.7,218.91 c -0.6923,-9.6662 -3.4256,-34.551 -4.0022,-36.438 -0.7833,-2.5636 -5.127,-6.7387 -8.5556,-8.2237 l -3.4193,-1.4809 4.8138,-1.7576 c 3.1357,-1.1449 5.9353,-2.8582 8.0309,-4.915 l 3.2172,-3.1574 4.0714,3.0739 c 5.3076,4.0072 12.463,5.3762 40.539,7.7558 5.9937,0.508 10.575,1.0214 10.181,1.141 -0.3939,0.11954 -9.2007,0.91141 -19.57,1.7597 -22.058,1.8044 -27.238,2.6672 -29.481,4.9107 -2.0643,2.0644 -3.0567,8.9045 -4.3217,29.79 l -0.9365,15.46 z"
       transform="scale(0.26458)" />
    <path
       inkscape:connector-curvature="0"
       id="path236"
       style="stroke:url(#linearGradient18248);paint-order:stroke markers fill"
       d="m -1449.9,203.77 c -0.9603,-9.3626 -2.0375,-18.315 -2.3937,-19.895 -0.7274,-3.2253 -5.0558,-8.118 -8.4111,-9.5078 -1.1855,-0.49106 -2.1555,-1.1449 -2.1555,-1.4531 0,-0.3082 1.5369,-1.1472 3.4154,-1.8646 1.8785,-0.7174 5.1191,-2.6511 7.2015,-4.2971 l 3.786,-2.9927 3.5114,2.3258 c 6.0826,4.029 11.99,5.2889 34.977,7.4605 l 13.853,1.3087 -15.838,1.3431 c -26.794,2.2722 -30.606,3.1465 -32.379,7.4251 -1.1368,2.7439 -2.4862,14.265 -3.2937,28.12 l -0.5275,9.05 z"
       transform="scale(0.26458)" />
    <path
       inkscape:connector-curvature="0"
       id="path238"
       style="stroke:url(#linearGradient18242);paint-order:stroke markers fill"
       d="m -1448.4,214.52 c -2.468,-22.841 -3.3129,-29.6 -3.9478,-31.579 -0.851,-2.6529 -5.9983,-8.1995 -8.2818,-8.9242 -2.2227,-0.70544 -1.778,-1.3504 2.1842,-3.168 2.0003,-0.91768 4.9317,-2.6974 6.5141,-3.955 1.5824,-1.2576 3.1473,-2.2865 3.4775,-2.2865 0.3302,0 2.235,0.99958 4.2328,2.2213 5.6544,3.4578 13.166,4.9844 34.93,7.0984 l 9.4272,0.91571 -15.083,1.344 c -22.96,2.0459 -28.16,3.3656 -29.751,7.5503 -0.8033,2.1129 -2.2177,13.35 -3.003,23.858 -0.3255,4.3553 -0.6401,7.4717 -0.6991,6.9252 z"
       transform="scale(0.26458)" />
    <path
       inkscape:connector-curvature="0"
       id="path240"
       style="stroke:url(#linearGradient18236);paint-order:stroke markers fill"
       d="m -1448.7,207.59 c -0.2813,-1.037 -0.8987,-5.6186 -1.372,-10.181 -0.4734,-4.5627 -1.1638,-9.9407 -1.5341,-11.951 -0.7455,-4.046 -4.0191,-8.7542 -7.5281,-10.827 -1.2138,-0.717 -2.2069,-1.5183 -2.2069,-1.7807 0,-0.26236 1.4111,-1.1133 3.1358,-1.8911 1.7247,-0.77772 4.4368,-2.3564 6.0269,-3.5083 1.59,-1.1518 3.243,-2.0943 3.6732,-2.0943 0.4302,0 2.7239,0.97796 5.0972,2.1732 5.5233,2.7818 12.669,4.3317 27.569,5.9799 l 11.941,1.3209 -13.816,1.3278 c -14.208,1.3654 -22.739,2.9128 -24.838,4.5053 -0.6581,0.49916 -1.5829,1.633 -2.0551,2.5196 -0.8075,1.5163 -2.841,15.414 -3.3504,22.898 -0.1876,2.756 -0.3271,3.0394 -0.7423,1.5083 z"
       transform="scale(0.26458)" />
    <path
       inkscape:connector-curvature="0"
       id="path242"
       style="stroke:url(#linearGradient18230);paint-order:stroke markers fill"
       d="m -1455.6,255.7 c -0.2171,-1.7781 -0.5541,-19.3 -0.749,-38.938 -0.1948,-19.638 -0.4975,-35.848 -0.6727,-36.023 -0.1752,-0.175 -14.005,-2.0271 -30.734,-4.1154 -16.728,-2.0883 -30.949,-4.1102 -31.601,-4.4931 -0.7811,-0.45869 0.2408,-0.57281 2.9952,-0.33448 7.8814,0.68192 44.674,1.0153 44.003,0.39871 -0.6028,-0.55352 -23.75,-1.4446 -41.396,-1.5936 -9.5815,-0.0809 -5.9679,-1.1569 6.0334,-1.7964 28.69,-1.5288 47.053,-2.8145 49.464,-3.4629 1.8228,-0.49033 3.0129,-1.4031 3.6486,-2.7982 0.9047,-1.9856 3.9287,-24.171 5.013,-36.777 0.9847,-11.449 1.4634,-7.7748 1.2588,9.6603 -0.1391,11.849 0.038,17.125 0.549,16.359 0.4401,-0.65996 0.784,-8.0436 0.8255,-17.723 0.085,-19.914 0.9524,-18.87 2.1917,2.6396 0.9384,16.287 2.0568,27.927 2.7499,28.621 0.2278,0.22807 17.779,0.58435 39.003,0.79175 l 38.589,0.37708 0.2149,7.7233 0.2148,7.7233 -76.601,0.39094 -0.7542,76.171 -13.851,0.43235 z m 8.5899,-2.8558 c 0,-0.41479 -0.3394,-0.75417 -0.7542,-0.75417 -0.4148,0 -0.7542,0.33938 -0.7542,0.75417 0,0.4148 0.3394,0.75417 0.7542,0.75417 0.4148,0 0.7542,-0.33937 0.7542,-0.75417 z m -0.214,-27.339 c -0.1371,-21.709 0.048,-27.066 1.1597,-33.576 0.7275,-4.2599 1.739,-8.4117 2.2476,-9.2262 2.2154,-3.5473 10.757,-5.0127 45.451,-7.7975 1.8166,-0.14582 1.0493,-0.29258 -1.9286,-0.36893 -7.8609,-0.20152 -29.228,-3.0371 -35.259,-4.6792 -3.0318,-0.82547 -7.1733,-2.3425 -9.2033,-3.3711 l -3.6908,-1.8703 -5.1259,3.1322 c -2.8193,1.7227 -5.9106,3.6086 -6.8697,4.1908 l -1.7437,1.0586 2.9644,2.1474 c 5.9246,4.2917 7.0909,7.2085 8.7533,21.89 1.5631,13.805 1.8493,19.559 1.9041,38.274 0.029,9.7768 0.3311,16.026 0.7757,16.026 0.4579,0 0.6682,-9.6001 0.5656,-25.83 z m 80.91,-46.57 c 0,-0.41479 -0.1496,-0.75417 -0.3326,-0.75417 -0.1829,0 -0.5423,0.33938 -0.7986,0.75417 -0.2564,0.4148 -0.1067,0.75417 0.3325,0.75417 0.4393,0 0.7987,-0.33937 0.7987,-0.75417 z m -3.8337,-4.2232 c 0.1729,-0.16597 -5.4269,-0.29658 -12.444,-0.29022 -7.5014,0.007 -12.332,0.28109 -11.725,0.66576 0.9753,0.61784 23.499,0.26787 24.169,-0.37554 z m -95.717,-1.8101 c 0,-0.4148 -0.5291,-0.75417 -1.1757,-0.75417 -0.6467,0 -0.9661,0.33937 -0.7097,0.75417 0.2564,0.41479 0.7854,0.75417 1.1758,0.75417 0.3903,0 0.7096,-0.33938 0.7096,-0.75417 z m 2.6396,0 c 0.2564,-0.4148 -0.083,-0.75417 -0.7542,-0.75417 -0.6711,0 -1.0105,0.33937 -0.7541,0.75417 0.2563,0.41479 0.5957,0.75417 0.7541,0.75417 0.1585,0 0.4979,-0.33938 0.7542,-0.75417 z m -5.8605,-0.45565 c -0.2506,-0.2506 -0.9011,-0.27739 -1.4455,-0.0595 -0.6016,0.24075 -0.4229,0.41946 0.4556,0.45565 0.7951,0.0327 1.2405,-0.1455 0.9899,-0.39611 z m 103.53,-4.0694 c 0,-0.41479 -0.3594,-0.75417 -0.7987,-0.75417 -0.4393,0 -0.5889,0.33938 -0.3326,0.75417 0.2564,0.41479 0.6158,0.75417 0.7987,0.75417 0.1829,0 0.3326,-0.33938 0.3326,-0.75417 z m -82.204,-11.313 c 0,-0.41479 -0.1497,-0.75417 -0.3326,-0.75417 -0.1829,0 -0.5423,0.33938 -0.7987,0.75417 -0.2563,0.4148 -0.1067,0.75417 0.3326,0.75417 0.4393,0 0.7987,-0.33937 0.7987,-0.75417 z m 0,-2.6396 c 0,-0.62219 -0.1334,-1.1312 -0.2964,-1.1312 -0.163,0 -0.4917,0.50906 -0.7305,1.1312 -0.2388,0.62214 -0.1054,1.1312 0.2964,1.1312 0.4018,0 0.7305,-0.50906 0.7305,-1.1312 z"
       transform="scale(0.26458)" />
  </g>
  <g
     style="fill:#0ac0d3;fill-rule:evenodd;stroke-width:7.25589991;stroke-linecap:round;stroke-linejoin:round;stroke-opacity:0.88889005"
     id="g294"
     transform="matrix(0.17869,0,0,0.17869,74.704,-1.933)">
    <path
       inkscape:connector-curvature="0"
       id="path246"
       style="stroke:url(#linearGradient18224);paint-order:stroke markers fill"
       d="m -1454.6,249.6 c -0.7272,-4.3996 -1.2719,-21.918 -1.2105,-38.929 0.147,-40.703 3.9527,-33.113 5.8828,11.732 1.2727,29.569 1.4792,30.783 2.7218,15.998 0.7396,-8.7991 1.4848,-23.678 1.6562,-33.063 0.1713,-9.3857 1.2419,-18.505 2.3792,-20.265 2.3417,-3.6236 2.9892,51.064 0.764,64.527 -1.069,6.4672 -2.2366,7.9992 -6.0968,7.9992 -3.8601,0 -5.0278,-1.532 -6.0967,-7.9992 z"
       transform="scale(0.26458)" />
    <path
       inkscape:connector-curvature="0"
       id="path248"
       style="stroke:url(#linearGradient18218);paint-order:stroke markers fill"
       d="m -1490.1,175.48 -18.132,-2.6226 36.263,-1.3134 -27.73,-2.474 20.934,-1.3044 c 11.514,-0.71741 21.894,-2.2636 23.066,-3.4361 1.1724,-1.1724 2.9179,-6.8224 3.8788,-12.556 0.9609,-5.7331 1.8747,-8.024 2.0306,-5.091 0.2007,3.7729 0.8099,4.5025 2.083,2.4943 1.2662,-1.9974 2.2046,-0.81232 3.167,3.9996 1.9192,9.5962 1.7045,13.164 -0.7029,11.676 -1.1387,-0.7038 -5.2183,0.43919 -9.0657,2.54 -3.8474,2.1008 -9.395,4.4262 -12.328,5.1676 l -5.3328,1.348 5.7401,0.25238 c 3.1571,0.13881 6.3335,1.2123 7.0586,2.3855 1.6504,2.6704 -7.2053,2.3651 -30.93,-1.0666 z"
       transform="scale(0.26458)" />
    <path
       inkscape:connector-curvature="0"
       id="path250"
       style="stroke:url(#linearGradient18212);paint-order:stroke markers fill"
       d="m -1449.4,140.28 c -2.0377,-10.447 -1.0508,-17.064 2.5452,-17.064 2.1457,-2.5e-4 3.719,1.5868 3.7002,3.7325 -0.027,3.0927 -0.3682,3.2024 -1.9896,0.63959 -1.4005,-2.2138 -2.195,-0.39428 -2.7943,6.3993 -0.4606,5.221 -1.1182,8.0528 -1.4615,6.293 z"
       transform="scale(0.26458)" />
    <path
       inkscape:connector-curvature="0"
       id="path252"
       style="stroke:url(#linearGradient18210);paint-order:stroke markers fill"
       d="m -1451,255.04 c -2.8133,-3.5478 -5.09,-50.117 -2.795,-57.168 1.4538,-4.4666 1.7723,-3.7737 1.9611,4.2662 0.124,5.2795 0.8779,17.758 1.6754,27.73 1.8428,23.042 4.3407,15.966 4.8945,-13.865 0.3185,-17.156 0.8019,-20.078 2.4699,-14.932 2.8243,8.7149 0.3149,50.381 -3.2504,53.968 -2.2618,2.2759 -3.1509,2.2759 -4.9555,0 z"
       transform="scale(0.26458)" />
    <path
       inkscape:connector-curvature="0"
       id="path254"
       style="stroke:url(#linearGradient18020);paint-order:stroke markers fill"
       d="m -1453.1,158.95 c 3.5748,-9.9886 6.5631,-11.188 7.8294,-3.1423 0.763,4.8478 0.1339,7.3028 -2.1331,8.3252 -7.0678,3.1873 -8.2929,2.0726 -5.6963,-5.1828 z"
       transform="scale(0.26458)" />
    <path
       inkscape:connector-curvature="0"
       id="path256"
       style="stroke:url(#linearGradient18204);paint-order:stroke markers fill"
       d="m -1438.5,190.41 c 0.043,-3.5196 0.5215,-4.7012 1.0624,-2.6258 0.5408,2.0754 0.5052,4.9552 -0.079,6.3993 -0.5843,1.4442 -1.0268,-0.2539 -0.9833,-3.7735 z"
       transform="scale(0.26458)" />
    <path
       inkscape:connector-curvature="0"
       id="path258"
       style="stroke:url(#linearGradient18198);paint-order:stroke markers fill"
       d="m -1457.2,166.44 c -1.646,-2.7309 -1.5076,-5.216 0.5062,-9.091 1.5243,-2.933 2.7856,-6.956 2.8029,-8.9398 0.053,-6.0366 4.7254,-6.9957 8.9094,-1.8288 2.3035,2.8448 3.9207,8.2639 3.9207,13.138 0,6.7562 -0.7595,8.2961 -4.0917,8.2961 -2.2505,0 -5.3722,0.49132 -6.9371,1.0918 -1.5648,0.6005 -3.8645,-0.59937 -5.1104,-2.6664 z m 11.488,-4.0612 c 2.4876,-4.4451 0.743,-11.429 -2.8549,-11.429 -2.1338,0 -7.4258,10.108 -7.4258,14.184 0,2.4657 8.6574,0.14625 10.281,-2.7544 z"
       transform="scale(0.26458)" />
    <path
       inkscape:connector-curvature="0"
       id="path260"
       style="stroke:url(#linearGradient18192);paint-order:stroke markers fill"
       d="m -1438.5,203.21 c 0.043,-3.5196 0.5215,-4.7012 1.0624,-2.6258 0.5408,2.0754 0.5052,4.9552 -0.079,6.3993 -0.5843,1.4442 -1.0268,-0.25391 -0.9833,-3.7736 z"
       transform="scale(0.26458)" />
    <path
       inkscape:connector-curvature="0"
       id="path262"
       style="stroke:url(#linearGradient18186);paint-order:stroke markers fill"
       d="m -1426.1,178.61 c 5.2795,-0.96341 13.839,-1.8228 19.02,-1.9098 13.758,-0.2309 9.3511,-2.3611 -9.7846,-4.7294 -9.1859,-1.1369 -17.662,-3.0586 -18.835,-4.2704 -2.0773,-2.1458 66.115,-0.42833 69.86,1.7595 0.8799,0.51406 1.5998,3.1935 1.5998,5.9542 v 5.0196 l -35.73,-0.036 c -25.099,-0.0253 -32.874,-0.55721 -26.131,-1.7877 z m 50.7,-3.592 c -3.2053,-0.48672 -8.9648,-0.49652 -12.799,-0.0218 -3.834,0.47475 -1.2114,0.87298 5.8279,0.88495 7.0392,0.012 10.176,-0.37646 6.9708,-0.86318 z"
       transform="scale(0.26458)" />
    <path
       inkscape:connector-curvature="0"
       id="path264"
       style="stroke:url(#linearGradient18180);paint-order:stroke markers fill"
       d="m -1396.9,181.35 32.399,-0.64799 0.8562,-6.8778 c 0.8347,-6.7042 0.8649,-6.6759 1.1977,1.1214 l 0.3413,7.9992 -67.193,-0.94684 z"
       transform="scale(0.26458)" />
    <path
       inkscape:connector-curvature="0"
       id="path266"
       style="stroke:url(#linearGradient18174);paint-order:stroke markers fill"
       d="m -1509.9,183.54 c 3.7868,-0.47123 10.506,-0.47898 14.932,-0.0172 4.4257,0.46177 1.3275,0.84732 -6.885,0.85678 -8.2125,0.009 -11.834,-0.36834 -8.0468,-0.83957 z"
       transform="scale(0.26458)" />
    <path
       inkscape:connector-curvature="0"
       id="path268"
       style="stroke:url(#linearGradient18168);paint-order:stroke markers fill"
       d="m -1503.9,182.95 -10.666,-1.4629 12.391,-0.33512 c 7.7952,-0.21082 11.902,0.45608 11.073,1.798 -0.725,1.1732 -1.5016,1.9823 -1.7257,1.798 -0.224,-0.18431 -5.2069,-0.99341 -11.073,-1.798 z"
       transform="scale(0.26458)" />
    <path
       inkscape:connector-curvature="0"
       id="path270"
       style="stroke:url(#linearGradient18162);paint-order:stroke markers fill"
       d="m -1519.5,171.88 c 1.2892,-3.8676 5.1995,-4.4134 5.1995,-0.72585 0,1.7924 -1.3599,3.2589 -3.0219,3.2589 -1.6621,0 -2.642,-1.1399 -2.1776,-2.5331 z"
       transform="scale(0.26458)" />
    <path
       inkscape:connector-curvature="0"
       id="path272"
       style="stroke:url(#linearGradient18156);paint-order:stroke markers fill"
       d="m -1513.5,163.75 -22.398,-1.298 27.197,-0.41754 c 16.988,-0.26081 27.197,0.38319 27.197,1.7156 0,1.1732 -2.1598,1.9452 -4.7996,1.7156 -2.6397,-0.22965 -14.878,-1.0017 -27.197,-1.7156 z"
       transform="scale(0.26458)" />
    <path
       inkscape:connector-curvature="0"
       id="path274"
       style="stroke:url(#linearGradient18150);paint-order:stroke markers fill"
       d="m -1473.5,162.24 c 2.6534,-0.51022 6.493,-0.49085 8.5325,0.043 2.0394,0.5339 -0.1316,0.95136 -4.8244,0.92769 -4.6929,-0.0237 -6.3615,-0.46051 -3.7081,-0.97074 z"
       transform="scale(0.26458)" />
    <path
       inkscape:connector-curvature="0"
       id="path276"
       style="stroke:url(#linearGradient18144);paint-order:stroke markers fill"
       d="m -1465,181.53 c 1.4665,-0.59175 3.8663,-0.59175 5.3328,0 1.4665,0.59175 0.2666,1.0759 -2.6664,1.0759 -2.9331,0 -4.1329,-0.48416 -2.6664,-1.0759 z"
       transform="scale(0.26458)" />
    <path
       inkscape:connector-curvature="0"
       id="path278"
       style="stroke:url(#linearGradient18138);paint-order:stroke markers fill"
       d="m -1455.2,256.36 c -1.0531,-2.7443 -1.6738,-2.8444 -3.3067,-0.53328 -1.2793,1.8108 -1.5592,-5.6126 -0.7697,-20.418 0.6823,-12.795 1.308,-29.593 1.3904,-37.33 0.094,-8.8489 0.7552,-12.519 1.7817,-9.8951 1.6193,4.1401 1.65,4.1401 4.0514,0 2.3893,-4.1191 2.4224,-4.1179 2.6345,0.0946 l 0.2148,4.2662 1.8333,-4.2662 c 1.5926,-3.7063 1.8778,-3.4263 2.1727,2.1331 0.5586,10.529 -0.2313,24.874 -2.0554,37.329 l -1.7182,11.732 -0.5114,-9.599 -0.5114,-9.599 -1.7649,8.5325 c -2.3981,11.594 -2.3654,22.8 0.078,26.664 1.7884,2.8282 2.4144,2.8086 5.3921,-0.16815 2.3212,-2.3205 3.9107,-9.9489 5.1114,-24.531 l 1.7427,-21.163 0.2984,20.938 c 0.1642,11.516 -0.6951,22.795 -1.9096,25.064 -2.6797,5.0071 -12.324,5.5164 -14.154,0.74747 z m 0.8511,-49.416 c -0.4602,-4.3996 -0.8367,-0.79992 -0.8367,7.9992 0,8.7991 0.3765,12.399 0.8367,7.9992 0.4602,-4.3996 0.4602,-11.599 0,-15.998 z"
       transform="scale(0.26458)" />
    <path
       inkscape:connector-curvature="0"
       id="path280"
       style="stroke:url(#linearGradient18132);paint-order:stroke markers fill"
       d="m -1438.7,233.07 -0.7437,-21.331 -2.1447,18.131 c -1.1797,9.9723 -2.5657,16.932 -3.0802,15.465 -0.5145,-1.4665 -2.2953,-2.6664 -3.9573,-2.6664 -2.1148,0 -2.9462,-2.4012 -2.7696,-7.9992 0.2512,-7.9612 0.2601,-7.9688 1.8808,-1.5998 l 1.6283,6.3993 0.6808,-7.4659 c 0.7245,-7.946 1.0496,-14.725 1.6878,-35.196 0.2848,-9.1349 0.9728,-11.817 2.4033,-9.3695 1.1023,1.8861 1.6189,5.4303 1.1479,7.8761 -0.6164,3.2005 0.011,4.1142 2.2368,3.2599 2.4942,-0.9571 2.7026,-0.15943 1.0762,4.1184 -1.2803,3.3675 -1.2651,6.0574 0.042,7.3642 1.1462,1.1462 1.7478,11.43 1.3572,23.202 l -0.7015,21.143 z"
       transform="scale(0.26458)" />
    <path
       inkscape:connector-curvature="0"
       id="path282"
       style="stroke:url(#linearGradient18126);paint-order:stroke markers fill"
       d="m -1443.1,256.54 c 0,-1.7598 -0.9599,-3.1997 -2.1331,-3.1997 -2.863,0 -2.7401,-7.9746 0.1376,-8.9338 1.2489,-0.4163 2.9197,-5.0558 3.7129,-10.31 l 1.4422,-9.5532 1.34,10.666 c 0.8846,7.0413 1.2938,2.5109 1.2042,-13.332 -0.075,-13.199 -0.9086,-23.998 -1.8532,-23.998 -0.9446,0 -1.5868,-2.6397 -1.427,-5.8661 0.2491,-5.0296 0.4223,-5.1816 1.2149,-1.0666 0.5085,2.6397 1.8176,4.7995 2.9092,4.7995 3.0796,0 2.5337,58.325 -0.575,61.434 -3.4838,3.4838 -5.9727,3.2171 -5.9727,-0.63994 z"
       transform="scale(0.26458)" />
    <path
       inkscape:connector-curvature="0"
       id="path284"
       style="stroke:url(#linearGradient18120);paint-order:stroke markers fill"
       d="m -1455.3,116.82 0.3927,-24.531 13.865,-1.3369 -0.033,17.733 c -0.023,12.237 -0.6736,16.742 -2.1005,14.534 -1.1373,-1.7598 -2.0825,-8.2958 -2.1004,-14.524 -0.037,-12.829 -4.2136,-13.596 -4.4359,-0.81478 -0.075,4.3303 -1.4519,13.633 -3.059,20.672 l -2.9221,12.799 z"
       transform="scale(0.26458)" />
    <path
       inkscape:connector-curvature="0"
       id="path286"
       style="stroke:url(#linearGradient18114);paint-order:stroke markers fill"
       d="m -1453.5,109.07 c -0.2516,-14.087 0.084,-15.312 4.5277,-16.503 2.6398,-0.70742 5.5195,-1.2993 6.3994,-1.3153 0.8799,-0.016 1.5851,5.9703 1.5672,13.303 -0.023,9.3949 -0.6433,12.387 -2.1005,10.132 -1.1373,-1.7598 -2.0825,-6.3194 -2.1004,-10.132 -0.055,-11.711 -3.8104,-7.6883 -5.974,6.3993 l -2.0475,13.332 z"
       transform="scale(0.26458)" />
    <path
       inkscape:connector-curvature="0"
       id="path288"
       style="stroke:url(#linearGradient18108);paint-order:stroke markers fill"
       d="m -1444.5,104.36 c -1.3658,-6.8289 -5.0809,-9.4176 -5.0809,-3.5404 0,1.7598 -0.8268,3.1997 -1.8373,3.1997 -1.0106,0 -1.3786,-2.3998 -0.8179,-5.3328 1.6221,-8.4854 8.5521,-6.9804 10.28,2.2326 0.7806,4.161 0.8307,8.1539 0.1114,8.8732 -0.7193,0.7193 -1.9144,-1.7252 -2.6558,-5.4322 z"
       transform="scale(0.26458)" />
    <path
       inkscape:connector-curvature="0"
       id="path290"
       style="stroke:url(#linearGradient18102);paint-order:stroke markers fill"
       d="M -1560.5,176.55 V 61.36 h 230.38 v 230.38 h -230.38 z m 128.1,78.177 c 1.5681,-7.007 2.2074,-21.831 1.6559,-38.396 l -0.8983,-26.983 h 73.786 v -29.864 h -76.792 V 86.958 h -27.73 v 70.393 l -6.9326,0.24552 c -3.813,0.13502 -20.42,0.0456 -36.903,-0.1987 -24.462,-0.36257 -30.46,0.14548 -32.634,2.7642 -1.8007,2.1696 -1.9386,3.656 -0.4261,4.5908 1.2302,0.76031 2.2367,5.9826 2.2367,11.605 v 10.223 l 17.875,1.2615 c 9.8314,0.69381 26.779,0.68462 37.662,-0.0205 l 19.786,-1.2818 -1.5036,32.29 c -0.827,17.759 -0.8696,35.669 -0.095,39.8 l 1.409,7.5103 h 26.95 z"
       transform="scale(0.26458)" />
    <path
       inkscape:connector-curvature="0"
       id="path292"
       style="stroke:url(#linearGradient18096);paint-order:stroke markers fill"
       d="M -1560.5,176.55 V 61.36 h 230.38 v 230.38 h -230.38 z m 128.25,82.125 c 0.7487,-3.5196 1.4749,-20.558 1.6137,-37.863 l 0.2524,-31.463 h 72.526 v -29.864 h -76.792 V 86.959 h -27.73 v 70.393 h -37.068 c -40.925,0 -43.859,0.8566 -39.77,11.612 1.1985,3.1521 2.179,8.4719 2.179,11.822 0,5.9413 0.351,6.1283 14.31,7.6231 7.8704,0.84285 24.609,0.98911 37.197,0.32503 l 22.888,-1.2074 -1.2509,33.635 c -0.688,18.499 -0.5995,36.231 0.1968,39.403 1.415,5.6378 1.7724,5.7543 15.768,5.1392 13.999,-0.61516 14.35,-0.77268 15.681,-7.0286 z"
       transform="scale(0.26458)" />
  </g>
  <path
     inkscape:connector-curvature="0"
     id="path296"
     style="fill:#0ac0d3;fill-rule:evenodd;stroke:url(#linearGradient18090);stroke-width:1.75471568;stroke-linecap:round;stroke-linejoin:round;stroke-opacity:0.88889005;paint-order:stroke markers fill"
     d="M 0.9269931,6.4138956 V 0.96796581 H 11.818853 V 11.859825 H 0.9269931 Z m 6.0534495,3.9769614 c 0.054091,-0.142278 0.098352,-0.9591722 0.098352,-1.8152786 V 7.0190042 H 10.507664 V 5.6070999 H 6.8771075 V 2.1782302 H 5.5660941 v 3.3280262 l -1.7396339,0.00155 C 2.8696521,5.5086486 2.0265471,5.5475644 1.952841,5.5942735 1.8436624,5.6634882 1.8411094,5.792202 1.9390217,6.2898717 c 0.095128,0.4835101 0.1650231,0.6227432 0.3356629,0.6685081 0.1185349,0.031807 0.8848986,0.05845 1.7030409,0.059206 l 1.4875487,0.00138 V 8.767011 c 0,0.9614413 0.030253,1.778307 0.067229,1.815278 0.036981,0.03698 0.3557796,0.06723 0.7084578,0.06723 0.5955112,0 0.6482259,-0.01844 0.7395666,-0.258685 z" />
  <path
     inkscape:connector-curvature="0"
     id="path605"
     style="font-size:12.19331741px;line-height:1.25;font-family:sans-serif;letter-spacing:0px;word-spacing:0px;fill:#4cc600;stroke:url(#linearGradient608);stroke-width:0.30483294"
     d="m 6.867751,2.5526082 v 3.2705233 h 3.362614 V 6.8213163 H 6.867751 V 10.09184 H 5.8535335 V 6.8213163 H 2.4909198 V 5.8231315 H 5.8535335 V 2.5526082 Z" />
  <path
     d="M -415.31,46.16 V 13.746 h 65.581 v 64.827 h -65.581 z m 61.812,0 V 17.138 h -58.42 v 58.043 h 58.42 z"
     style="opacity:0.87900002;fill:#03f611;fill-opacity:0.43915004;stroke:#f20b00;stroke-width:1.56700003;stroke-linecap:round;stroke-linejoin:round;stroke-opacity:0.98413002;paint-order:markers fill stroke;filter:url(#filter57752-8)"
     id="path304"
     inkscape:connector-curvature="0"
     transform="matrix(0.17869,0,0,0.17869,74.704,-1.933)" />
</svg>
