<svg xmlns="http://www.w3.org/2000/svg" width="48" height="48" viewBox="0 0 12.7 12.7">
  <defs/>
  <path fill="#03f611" fill-opacity=".439" stroke="#f20b00" stroke-linecap="round" stroke-linejoin="round" stroke-opacity=".984" stroke-width=".2790786" d="M.701 6.558V.738h11.654v11.64H.701z" opacity=".879" paint-order="markers fill stroke"/>
  <path fill="#0d7100" fill-rule="evenodd" stroke="#f0fd1a" stroke-linecap="round" stroke-linejoin="round" stroke-opacity=".984" stroke-width=".59500605" d="M.365 12.37c-.02-.02-.036-2.726-.036-6.014C.329.953.337.375.413.346.459.328 3.144.313 6.38.313c4.89 0 5.892.013 5.942.072.044.053.056 1.672.046 6.033l-.013 5.96-5.977.014c-3.288.007-5.994-.003-6.013-.023zm.15-5.984C.515 3.133.497.473.475.473s-.04 2.66-.04 5.913c0 3.252.018 5.913.04 5.913.022 0 .04-2.661.04-5.913zm11.733 0c0-3.907-.018-5.913-.053-5.913s-.048 1.997-.04 5.913c.008 3.252.032 5.913.054 5.913s.04-2.661.04-5.913zm-.33 5.54c.085-.099.091-.48.091-5.647V.738H.701v5.54c0 5.167.006 5.55.091 5.649.09.105.147.106 5.563.106 5.416 0 5.473 0 5.563-.106z" paint-order="stroke markers fill"/>
  <path fill="#0ff" d="M.365.068h12.302V12.37H.365z" opacity=".439"/>
  <g stroke-linejoin="round">
    <path fill="#1bfa94" fill-opacity=".921" stroke="#e63686" stroke-width="1.3589182499999999" d="M1.059 11.874c-.019-.049-.026-2.515-.016-5.482L1.061 1h10.857v10.928l-5.413.018c-4.293.014-5.42 0-5.446-.07z" opacity=".466" paint-order="stroke fill markers"/>
    <path fill="#03f611" fill-opacity=".439" stroke="#f20b00" stroke-linecap="round" stroke-opacity=".984" stroke-width=".29310735" d="M.74 12.394c-.374-.15-.371-.106-.35-6.13L.409.697.604.502.8.306 6.35.288c4.077-.014 5.603.002 5.747.062.424.176.403-.142.403 6.04v5.666l-.206.206-.206.206-5.593-.005c-3.232-.002-5.661-.032-5.754-.07zm9.55-.56h1.575V.903L1.043.942v10.857l.882.044c.484.024 2.21.032 3.836.018 1.625-.015 3.663-.027 4.53-.027z" opacity=".879" paint-order="markers fill stroke"/>
    <path fill="#f4f905" fill-rule="evenodd" stroke="#125200" stroke-linecap="round" stroke-opacity=".984" stroke-width="1.15971" d="M4.65 8.51c.124.393.23.795.391 1.175.032.074.07.146.104.219.033.04.15.107.099.121-.133.037-.306.053-.412-.036-.061-.05.116-.109.162-.172.096-.131.179-.27.263-.409.27-.449.6-1.05.848-1.495a55.509 55.509 0 001.66-3.346c.303-.664.73-1.668 1.021-2.345l.31.013h0c-.848 1.91-1.679 3.83-2.628 5.695l-.43.856c-.07.139-.424.855-.542 1.064-.042.075-.057.193-.14.216-.58.156-.545.129-.715-.141-.194-.46-.34-.937-.53-1.398l.539-.017z" paint-order="stroke markers fill"/>
  </g>
</svg>
