<?xml version="1.0" encoding="UTF-8"?>
<!-- Created with Inkscape (http://www.inkscape.org/) -->
<svg width="96" height="96" version="1.0" xmlns="http://www.w3.org/2000/svg" xmlns:cc="http://creativecommons.org/ns#" xmlns:dc="http://purl.org/dc/elements/1.1/" xmlns:rdf="http://www.w3.org/1999/02/22-rdf-syntax-ns#" xmlns:xlink="http://www.w3.org/1999/xlink">
 <defs>
  <linearGradient id="ButtonShadow" x1="45.448" x2="45.448" y1="92.54" y2="7.0165" gradientTransform="scale(1.0059 .99417)" gradientUnits="userSpaceOnUse">
   <stop offset="0"/>
   <stop stop-opacity=".58824" offset="1"/>
  </linearGradient>
  <linearGradient id="linearGradient3706" x1="48" x2="48" y1="90" y2="5.9877" gradientTransform="matrix(.72138 0 0 .72138 13.374 13.792)" gradientUnits="userSpaceOnUse">
   <stop stop-color="#e6e6e6" offset="0"/>
   <stop stop-color="#f5f5f5" offset="1"/>
  </linearGradient>
  <filter id="filter3174" color-interpolation-filters="sRGB">
   <feGaussianBlur stdDeviation="1.71"/>
  </filter>
  <linearGradient id="ButtonShadow-0" x1="45.448" x2="45.448" y1="92.54" y2="7.0165" gradientTransform="matrix(1.0059 0 0 .99417 100 0)" gradientUnits="userSpaceOnUse">
   <stop offset="0"/>
   <stop stop-opacity=".58824" offset="1"/>
  </linearGradient>
  <linearGradient id="linearGradient3780" x1="32.251" x2="32.251" y1="6.1317" y2="90.239" gradientTransform="matrix(.73855 0 0 -.72996 12.55 84.538)" gradientUnits="userSpaceOnUse" xlink:href="#ButtonShadow-0"/>
  <linearGradient id="linearGradient3725" x1="32.251" x2="32.251" y1="6.1317" y2="90.239" gradientTransform="matrix(.73855 0 0 .72996 12.55 -84.538)" gradientUnits="userSpaceOnUse" xlink:href="#ButtonShadow-0"/>
  <linearGradient id="linearGradient3721" x1="32.251" x2="32.251" y1="6.1317" y2="90.239" gradientTransform="matrix(.72138 0 0 .72138 13.374 -83.765)" gradientUnits="userSpaceOnUse" xlink:href="#ButtonShadow-0"/>
  <radialGradient id="radialGradient2886" cx="48" cy="90.172" r="42" gradientTransform="matrix(.83486 0 0 .71842 7.9268 13.934)" gradientUnits="userSpaceOnUse">
   <stop stop-color="#fff" offset="0"/>
   <stop stop-color="#fff" stop-opacity="0" offset="1"/>
  </radialGradient>
  <linearGradient id="linearGradient3923" x1="36.357" x2="36.357" y1="6" y2="63.893" gradientTransform="matrix(.72138 0 0 .72138 13.374 13.792)" gradientUnits="userSpaceOnUse">
   <stop stop-color="#fff" offset="0"/>
   <stop stop-color="#fff" stop-opacity="0" offset="1"/>
  </linearGradient>
  <linearGradient id="linearGradient3982" x1="48" x2="48" y1="56" gradientTransform="matrix(.72138 0 0 .72138 13.374 13.792)" gradientUnits="userSpaceOnUse">
   <stop stop-color="#fff" offset="0"/>
   <stop stop-color="#fff" stop-opacity="0" offset="1"/>
  </linearGradient>
  <linearGradient id="linearGradient3938" x1="48" x2="48" y1="48" y2="72" gradientTransform="matrix(.72138 0 0 .72138 13.374 13.792)" gradientUnits="userSpaceOnUse" spreadMethod="reflect">
   <stop stop-color="#101010" offset="0"/>
   <stop stop-color="#454545" offset="1"/>
  </linearGradient>
  <clipPath id="clipPath2956">
   <rect x="12" y="20" width="72" height="56" rx="3" ry="3" color="#000000" fill="#f00" opacity=".65164"/>
  </clipPath>
  <linearGradient id="linearGradient3748" x1="64" x2="64" y1="80" y2="-40.067" gradientTransform="matrix(.72138 0 0 .72138 -1.0536 13.792)" gradientUnits="userSpaceOnUse">
   <stop offset="0"/>
   <stop stop-opacity="0" offset="1"/>
  </linearGradient>
  <linearGradient id="linearGradient3330" x1="47.61" x2="47.61" y1="121.37" y2="6.6341" gradientTransform="matrix(.26408 0 0 .26408 31.099 31.517)" gradientUnits="userSpaceOnUse">
   <stop stop-color="#ba0000" offset="0"/>
   <stop stop-color="#ff331e" offset="1"/>
  </linearGradient>
  <linearGradient id="linearGradient3812" x1="52" x2="52" y1="28" y2="91.008" gradientTransform="matrix(.72138 0 0 .72138 13.374 13.792)" gradientUnits="userSpaceOnUse">
   <stop stop-color="#fff6d5" offset="0"/>
   <stop stop-color="#fff6d5" stop-opacity="0" offset="1"/>
  </linearGradient>
 </defs>
 <metadata>
  <rdf:RDF>
   <cc:Work rdf:about="">
    <dc:format>image/svg+xml</dc:format>
    <dc:type rdf:resource="http://purl.org/dc/dcmitype/StillImage"/>
    <dc:title/>
   </cc:Work>
  </rdf:RDF>
 </metadata>
 <g display="none">
  <rect x="5" y="7" width="86" height="85" rx="6" ry="6" fill="url(#ButtonShadow)" filter="url(#filter3174)" opacity=".9"/>
 </g>
 <g fill="url(#linearGradient3780)">
  <path d="m22.03 82.345c-3.9756 0-7.2363-3.2607-7.2363-7.2363v-51.218c0-3.9756 3.2607-7.2363 7.2363-7.2363h51.939c3.9756 0 7.2363 3.2607 7.2363 7.2363v51.218c0 3.9756-3.2607 7.2363-7.2363 7.2363z" opacity=".08"/>
  <path d="m22.03 81.624c-3.5864 0-6.5149-2.9285-6.5149-6.5149v-51.218c0-3.5864 2.9285-6.5149 6.5149-6.5149h51.939c3.5864 0 6.5149 2.9285 6.5149 6.5149v51.218c0 3.5864-2.9285 6.5149-6.5149 6.5149z" opacity=".1"/>
  <path d="m22.03 80.88c-3.1806 0-5.771-2.5904-5.771-5.771v-51.218c0-3.1806 2.5904-5.771 5.771-5.771h51.939c3.1806 0 5.771 2.5904 5.771 5.771v51.218c0 3.1806-2.5904 5.771-5.771 5.771z" opacity=".2"/>
 </g>
 <g>
  <rect transform="scale(1,-1)" x="16.981" y="-80.158" width="62.038" height="61.317" rx="5.0496" ry="5.0496" fill="url(#linearGradient3725)" opacity=".3"/>
  <rect transform="scale(1,-1)" x="17.702" y="-79.437" width="60.596" height="60.596" rx="4.3283" ry="4.3283" fill="url(#linearGradient3721)" opacity=".45"/>
  <rect x="17.702" y="18.12" width="60.596" height="60.596" rx="4.3283" ry="4.3283" fill="url(#linearGradient3706)"/>
  <path d="m22.03 18.12c-2.3979 0-4.3283 1.9304-4.3283 4.3283v51.939c0 0.24146 0.02983 0.4694 0.06763 0.69883 0.03513 0.21324 0.07 0.4306 0.13526 0.6312 0.0071 0.02192 0.01507 0.04588 0.02254 0.06763 0.07131 0.20759 0.16944 0.39492 0.27052 0.58612 0.1043 0.1973 0.22768 0.38638 0.36069 0.56358s0.26963 0.34155 0.42832 0.49595c0.31737 0.30879 0.68019 0.58758 1.0821 0.789 0.20094 0.10071 0.41369 0.17814 0.6312 0.24797-0.18482-0.0723-0.3511-0.17044-0.51849-0.27052-0.0053-0.0032-0.01722 0.0032-0.02254 0-0.02303-0.01392-0.04493-0.03067-0.06763-0.04509-0.08685-0.05533-0.16665-0.11795-0.24797-0.18034-0.07659-0.05829-0.15386-0.11622-0.22543-0.18034-0.12835-0.11645-0.25065-0.24916-0.36069-0.38323-0.07761-0.09396-0.15754-0.19137-0.22543-0.29306-0.0181-0.02769-0.02774-0.06194-0.04509-0.09017-0.04672-0.07433-0.09394-0.14753-0.13526-0.22543-0.07287-0.14046-0.14837-0.29988-0.20289-0.45086-0.0058-0.01573-0.01702-0.02925-0.02254-0.04509-0.02296-0.06633-0.02583-0.13478-0.04509-0.20289-0.02188-0.07691-0.05078-0.14646-0.06763-0.22543-0.05257-0.24636-0.09017-0.50367-0.09017-0.76646v-51.939c0-2.0068 1.6001-3.6069 3.6069-3.6069h51.939c2.0068 0 3.6069 1.6001 3.6069 3.6069v51.939c0 0.26279-0.0376 0.5201-0.09017 0.76646-0.03185 0.14925-0.06376 0.28686-0.11272 0.42832-0.0056 0.01583-0.01681 0.02935-0.02254 0.04509-0.04526 0.12533-0.09983 0.26507-0.1578 0.38323-0.02999 0.05973-0.05702 0.1226-0.09017 0.18034-0.03939 0.07013-0.09145 0.13587-0.13526 0.20289-0.06789 0.10169-0.14782 0.1991-0.22543 0.29306-0.10328 0.12584-0.21868 0.25032-0.33814 0.36069-0.0081 0.0074-0.01441 0.01526-0.02254 0.02254-0.09983 0.09057-0.20566 0.16912-0.3156 0.24797-0.07399 0.05277-0.14739 0.11063-0.22543 0.1578-0.0053 0.0032-0.0172-0.0032-0.02254 0-0.16739 0.10008-0.33367 0.19822-0.51849 0.27052 0.21751-0.06983 0.43027-0.14726 0.6312-0.24797 0.40187-0.20143 0.7647-0.48022 1.0821-0.789 0.15868-0.1544 0.29531-0.31875 0.42832-0.49595s0.25638-0.36627 0.36069-0.56358c0.10108-0.1912 0.1992-0.37853 0.27052-0.58612 0.0075-0.0222 0.01539-0.04526 0.02254-0.06763 0.06526-0.2006 0.10013-0.41797 0.13526-0.6312 0.0378-0.22943 0.06763-0.45737 0.06763-0.69883v-51.939c0-2.3979-1.9304-4.3283-4.3283-4.3283z" fill="url(#linearGradient3923)" opacity=".5"/>
  <path d="m22.03 78.716c-2.3979 0-4.3283-1.9304-4.3283-4.3283v-51.939c0-0.24146 0.02983-0.4694 0.06763-0.69883 0.03513-0.21324 0.07-0.4306 0.13526-0.6312 0.0071-0.02191 0.01507-0.04588 0.02254-0.06763 0.07132-0.20759 0.16944-0.39492 0.27052-0.58612 0.1043-0.1973 0.22768-0.38638 0.36069-0.56358s0.26963-0.34155 0.42832-0.49595c0.31737-0.30879 0.68019-0.58758 1.0821-0.789 0.20094-0.10071 0.41369-0.17814 0.6312-0.24797-0.18482 0.0723-0.3511 0.17044-0.51849 0.27052-0.0053 0.0032-0.01722-0.0032-0.02254 0-0.02304 0.01392-0.04494 0.03067-0.06763 0.04509-0.08685 0.05533-0.16665 0.11796-0.24797 0.18034-0.07659 0.05829-0.15386 0.11622-0.22543 0.18034-0.12835 0.11645-0.25065 0.24916-0.36069 0.38323-0.07761 0.09396-0.15754 0.19137-0.22543 0.29306-0.0181 0.02769-0.02773 0.06195-0.04509 0.09017-0.04672 0.07433-0.09394 0.14753-0.13526 0.22543-0.07287 0.14046-0.14837 0.29988-0.20289 0.45086-0.0057 0.01573-0.01702 0.02925-0.02254 0.04509-0.02296 0.06633-0.02583 0.13478-0.04509 0.20289-0.02188 0.07691-0.05078 0.14646-0.06763 0.22543-0.05257 0.24636-0.09017 0.50367-0.09017 0.76646v51.939c0 2.0068 1.6001 3.6069 3.6069 3.6069h51.939c2.0068 0 3.6069-1.6001 3.6069-3.6069v-51.939c0-0.26279-0.0376-0.5201-0.09017-0.76646-0.03185-0.14925-0.06376-0.28686-0.11272-0.42832-0.0056-0.01583-0.01681-0.02935-0.02254-0.04509-0.04526-0.12533-0.09983-0.26507-0.1578-0.38323-0.02999-0.05973-0.05702-0.1226-0.09017-0.18034-0.03939-0.07013-0.09145-0.13587-0.13526-0.20289-0.06789-0.10169-0.14782-0.1991-0.22543-0.29306-0.10328-0.12584-0.21868-0.25032-0.33814-0.36069-0.0081-0.0074-0.01441-0.01526-0.02254-0.02254-0.09983-0.09057-0.20566-0.16912-0.3156-0.24797-0.07399-0.05277-0.14739-0.11063-0.22543-0.1578-0.0053-0.0032-0.0172 0.0032-0.02254 0-0.16739-0.10008-0.33367-0.19822-0.51849-0.27052 0.21751 0.06983 0.43027 0.14726 0.6312 0.24797 0.40187 0.20143 0.7647 0.48022 1.0821 0.789 0.15868 0.1544 0.29531 0.31875 0.42832 0.49595s0.25638 0.36627 0.36069 0.56358c0.10108 0.1912 0.1992 0.37853 0.27052 0.58612 0.0075 0.0222 0.01539 0.04526 0.02254 0.06763 0.06526 0.2006 0.10013 0.41797 0.13526 0.6312 0.0378 0.22943 0.06763 0.45737 0.06763 0.69883v51.939c0 2.3979-1.9304 4.3283-4.3283 4.3283z" fill="url(#radialGradient2886)" opacity=".4"/>
  <rect x="-88" y="20" width="72" height="56" clip-path="url(#clipPath2956)" color="#000000" fill="#f00" opacity=".65164"/>
  <rect x="22.03" y="28.219" width="51.939" height="40.397" color="#000000" fill="url(#linearGradient3938)"/>
 </g>
 <g display="none">
  <text x="43.749348" y="71.477806" display="inline" fill="#ffffff" font-family="BabelSans" font-size="20.888px" font-weight="bold" opacity=".7" style="line-height:125%" xml:space="preserve"><tspan x="43.749348" y="71.477806">PNG</tspan></text>
 </g>
 <g>
  <path d="m48 32.66c-9.0814 0-16.479 7.3976-16.479 16.479 0 9.0813 7.3976 16.479 16.479 16.479 9.0814 0 16.479-7.3976 16.479-16.479 0-9.0813-7.3976-16.479-16.479-16.479zm0 8.6565c4.331 0 7.8224 3.4914 7.8224 7.8224 0 0.18192-0.09472 0.41478-0.13526 0.60866l-8.2958-8.2958c0.19387-0.040542 0.4259-0.13526 0.60866-0.13526zm-7.6646 6.8531 8.634 8.634c-0.32007 0.05587-0.6446 0.1578-0.96935 0.1578-4.331 0-7.8224-3.4914-7.8224-7.8224 0-0.32362 0.10192-0.64908 0.1578-0.96935z" opacity=".1"/>
  <path d="m48 33.246c-8.7623 0-15.893 7.1305-15.893 15.893 0 8.7623 7.1305 15.893 15.893 15.893s15.893-7.1305 15.893-15.893c0-8.7623-7.1305-15.893-15.893-15.893zm0 7.4843c4.6481 0 8.4085 3.7604 8.4085 8.4085 0 0.62596-0.21672 1.1948-0.36069 1.7809l-9.8287-9.8287c0.58539-0.14388 1.153-0.36069 1.7809-0.36069zm-8.0478 6.2444 10.212 10.212c-0.69848 0.20479-1.4103 0.36069-2.1641 0.36069-4.6481 0-8.4085-3.7604-8.4085-8.4085 0-0.75173 0.15585-1.4648 0.36069-2.1641z" opacity=".15"/>
  <path d="m22.03 18.12c-2.3979 0-4.3283 1.9304-4.3283 4.3283v38.503c11.297-7.9713 30.971-13.255 53.382-13.255 2.44 0 4.8454 0.08108 7.2138 0.20289v-25.451c0-2.3979-1.9304-4.3283-4.3283-4.3283z" fill="url(#linearGradient3982)" opacity=".2"/>
  <path d="m48 33.945c-8.3846 0-15.194 6.8094-15.194 15.194 0 8.3846 6.8094 15.194 15.194 15.194 8.3846 0 15.194-6.8094 15.194-15.194 0-8.3846-6.8094-15.194-15.194-15.194zm0 6.0866c5.0259 0 9.1074 4.0815 9.1074 9.1074 0 1.1378-0.24604 2.1969-0.6312 3.2011l-11.677-11.677c1.0042-0.38582 2.0607-0.6312 3.2011-0.6312zm-8.3635 5.6357 11.835 11.835c-1.0764 0.45068-2.232 0.74392-3.4716 0.74392-5.0259 0-9.1074-4.0815-9.1074-9.1074 0-1.2369 0.29402-2.3952 0.74392-3.4716z" opacity=".3"/>
  <path d="m24.195 28.219c-1.1989 0-2.1641 0.9652-2.1641 2.1641v36.069c0 1.1989 0.9652 2.1641 2.1641 2.1641h47.611c1.1989 0 2.1641-0.9652 2.1641-2.1641v-36.069c0-1.1989-0.9652-2.1641-2.1641-2.1641zm0 0.69883h47.611c0.82707 0 1.4653 0.63822 1.4653 1.4653v36.069c0 0.82707-0.63822 1.4653-1.4653 1.4653h-47.611c-0.82707 0-1.4653-0.63822-1.4653-1.4653v-36.069c0-0.82707 0.63822-1.4653 1.4653-1.4653z" color="#000000" fill="url(#linearGradient3748)" opacity=".3"/>
  <path d="m22.03 66.452v0.72138c0 1.1989 0.9652 2.1641 2.1641 2.1641h47.611c1.1989 0 2.1641-0.9652 2.1641-2.1641v-0.72138c0 1.1989-0.9652 2.1641-2.1641 2.1641h-47.611c-1.1989 0-2.1641-0.9652-2.1641-2.1641z" color="#000000" fill="#fff" opacity=".7"/>
  <path d="m48 33.63c-8.1631 0-14.788 6.6251-14.788 14.788 0 8.1631 6.6251 14.788 14.788 14.788 8.1631 0 14.788-6.6251 14.788-14.788 0-8.1631-6.6251-14.788-14.788-14.788zm0 5.2815c5.2477 0 9.5067 4.259 9.5067 9.5067 0 1.4182-0.31719 2.7602-0.87475 3.9694l-12.61-12.601c1.211-0.55954 2.5568-0.87474 3.9776-0.87474zm-8.5164 5.298 12.733 12.725c-1.2717 0.63147-2.7017 0.99028-4.217 0.99028-5.2477 0-9.5067-4.259-9.5067-9.5067 0-1.5127 0.36086-2.9387 0.99028-4.2087z" fill="url(#linearGradient3330)" stroke="#a00000" stroke-linecap="round" stroke-width=".72138"/>
  <path d="m48 33.63c-8.1631 0-14.788 6.6251-14.788 14.788 0 0.11994-0.0028 0.24143 0 0.36069 0.19075-7.9975 6.7451-14.428 14.788-14.428s14.597 6.43 14.788 14.428c0.0028-0.11926 0-0.24075 0-0.36069 0-8.1631-6.6251-14.788-14.788-14.788zm-3.4491 6.6727c-0.17504 0.06869-0.3486 0.12439-0.51849 0.20289l12.602 12.602c0.55756-1.2092 0.87918-2.5494 0.87918-3.9676 0-0.14496-0.01611-0.28493-0.02254-0.42832-0.04052 1.31-0.33766 2.549-0.85663 3.6745zm-6.0415 8.5213c-0.0035 0.10508-0.02254 0.20964-0.02254 0.3156 0 5.2477 4.2654 9.5131 9.5131 9.5131 1.5153 0 2.9439-0.36042 4.2155-0.99189l-0.51849-0.51849c-1.1412 0.48658-2.3786 0.789-3.6971 0.789-5.1103 0-9.2757-4.0496-9.4906-9.1074z" fill="url(#linearGradient3812)" opacity=".5"/>
 </g>
</svg>
