<svg viewBox="0 0 32 32" xmlns="http://www.w3.org/2000/svg">
 <path d="m10 2v1 26 1h1 10 1v-1-8.8125l4.9062 4.9062c1.1536 1.1536 3.0339 1.1536 4.1875 0s1.1536-3.0339 0-4.1875l-9.0938-9.125v-8.7812-1h-1-10-1zm2 2h8v6.5938l-2.8125-0.5625-1.4688-0.3125 0.3125 1.4688 0.6875 3.5 0.0625 0.3125 3.2188 3.2188v9.7812h-8v-24zm6.2812 8.2812 1.7188 0.34375 9.6875 9.6875c0.44645 0.44645 0.44645 0.92855 0 1.375s-0.92855 0.44645-1.375 0l-9.6875-9.6875-0.34375-1.7188z" font-family="Sans" overflow="visible" style="block-progression:tb;text-indent:0;text-transform:none"/>
</svg>
