<svg viewBox="0 0 32 32" xmlns="http://www.w3.org/2000/svg">
 <path d="m2 10v1 10 1h1 8.7812l9.125 9.0938c1.1536 1.1536 3.0339 1.1536 4.1875 0s1.1536-3.0339 0-4.1875l-4.9062-4.9062h8.8125 1v-1-10-1h-1-26-1zm2 2h24v8h-9.7812l-3.2188-3.2188-0.3125-0.0625-3.5-0.6875-1.4688-0.3125 0.3125 1.4688 0.5625 2.8125h-6.5938v-8zm8.2812 6.2812 1.7188 0.34375 9.6875 9.6875c0.44645 0.44645 0.44645 0.92855 0 1.375s-0.92855 0.44645-1.375 0l-9.6875-9.6875-0.34375-1.7188z" font-family="Sans" overflow="visible" style="block-progression:tb;text-indent:0;text-transform:none"/>
</svg>
