<svg viewBox="0 0 32 32" xmlns="http://www.w3.org/2000/svg">
 <path d="m2 10v1 10 1h1 13.281c-0.1679 0.64368-0.28125 1.305-0.28125 2 0 4.4064 3.5936 8 8 8s8-3.5936 8-8c0-2.0332-0.77421-3.8986-2.0312-5.3125h0.03125v-7.6875-1h-1-26-1zm2 2h24v5.0938c-1.1789-0.68558-2.5426-1.0938-4-1.0938-2.9491 0-5.5189 1.6144-6.9062 4h-13.094v-8zm20 6c3.3256 0 6 2.6744 6 6s-2.6744 6-6 6-6-2.6744-6-6 2.6744-6 6-6zm-1 2v3h-3v2h3v3h2v-3h3v-2h-3v-3h-2z" font-family="Bitstream Vera Sans" overflow="visible" style="block-progression:tb;text-indent:0;text-transform:none"/>
</svg>
