<svg xmlns="http://www.w3.org/2000/svg" viewBox="0 0 32 32">
  <defs/>
  <path d="M10 2v28H18.719c1.41 1.24 3.264 2 5.281 2 4.406 0 8-3.594 8-8s-3.594-8-8-8c-.695 0-1.356.113-2 .281V2.001H10zm2 2h8v13.094c-2.386 1.387-4 3.957-4 6.906 0 1.458.408 2.821 1.094 4H12V4zm12 14c3.326 0 6 2.674 6 6s-2.674 6-6 6-6-2.674-6-6 2.674-6 6-6zm-2.281 2.281L20.28 21.72l2.282 2.28-2.282 2.282 1.438 1.438L24 25.437l2.281 2.282 1.438-1.438L25.437 24l2.282-2.281-1.438-1.438L24 22.562l-2.281-2.28z" font-family="Bitstream Vera Sans" overflow="visible" style="block-progression:tb;text-indent:0;text-transform:none"/>
</svg>
