<?xml version="1.0" encoding="UTF-8"?>
<svg viewBox="0 0 32 32" xmlns="http://www.w3.org/2000/svg">
 <path d="m10 2v1 26 1h1 7.7188c1.4097 1.2393 3.2642 2 5.2812 2 4.4064 0 8-3.5936 8-8s-3.5936-8-8-8c-0.69504 0-1.3563 0.11335-2 0.28125v-13.281-1h-1-10-1zm2 2h8v13.094c-2.3856 1.3873-4 3.9572-4 6.9062 0 1.4574 0.40817 2.8211 1.0938 4h-5.0938v-24zm12 14c3.3256 0 6 2.6744 6 6s-2.6744 6-6 6-6-2.6744-6-6 2.6744-6 6-6zm-1 2v3h-3v2h3v3h2v-3h3v-2h-3v-3h-2z" font-family="Bitstream Vera Sans" overflow="visible" style="block-progression:tb;text-indent:0;text-transform:none"/>
</svg>
