<svg xmlns="http://www.w3.org/2000/svg" viewBox="0 0 32 32">
  <defs/>
  <path d="M2 10v12h14.281A7.873 7.873 0 0016 24c0 4.406 3.593 8 8 8s8-3.594 8-8a7.988 7.988 0 00-2.031-5.313h.03V10H2zm2 2h24v5.094A7.937 7.937 0 0024 16c-2.95 0-5.519 1.614-6.906 4H4v-8zm20 6c3.326 0 6 2.674 6 6s-2.674 6-6 6-6-2.674-6-6 2.674-6 6-6zm-2.281 2.281L20.28 21.72l2.282 2.28-2.282 2.282 1.438 1.438L24 25.437l2.281 2.282 1.438-1.438L25.437 24l2.282-2.281-1.438-1.438L24 22.562l-2.281-2.28z" font-family="Bitstream Vera Sans" overflow="visible" style="block-progression:tb;text-indent:0;text-transform:none"/>
</svg>
