<?xml version="1.0" standalone="no"?>
<!DOCTYPE svg PUBLIC "-//W3C//DTD SVG 1.1//EN" "http://www.w3.org/Graphics/SVG/1.1/DTD/svg11.dtd" >
<svg xmlns="http://www.w3.org/2000/svg" xmlns:xlink="http://www.w3.org/1999/xlink" version="1.1">
<metadata>
Created by FontForge 20170731 at Sat Dec  9 12:23:10 2006
 By Aleksey,,,
Copyright (C) 2000 Ulf Jordan.  This library is free software; you can redistribute it and/or modify it under the terms of the GNU Lesser General Public License as published by the Free Software Foundation; either version 2.1 of the License, or (at your option) any later version.
</metadata>
<defs>
<font id="Fixed-Medium" horiz-adv-x="462" >
  <font-face 
    font-family="Fixed"
    font-weight="500"
    font-stretch="normal"
    units-per-em="1000"
    panose-1="2 0 6 9 0 0 0 2 0 4"
    ascent="750"
    descent="-250"
    x-height="462"
    cap-height="693"
    bbox="-1 -154 394 847"
    underline-thickness="50"
    underline-position="-150"
    unicode-range="U+0020-2212"
  />
<missing-glyph 
 />
    <glyph glyph-name=".notdef" 
 />
    <glyph glyph-name=".null" horiz-adv-x="0" 
 />
    <glyph glyph-name="nonmarkingreturn" 
 />
    <glyph glyph-name="space" unicode=" " 
 />
    <glyph glyph-name="space" unicode="&#xa0;" 
 />
    <glyph glyph-name="exclam" unicode="!" 
d="M195 3q-15 0 -27 12t-12 26t12 26t26 12t26 -12.5t12 -26.5q0 -15 -12.5 -27t-26.5 -12zM157 697h77v-539h-77v539z" />
    <glyph glyph-name="quotedbl" unicode="&#x22;" 
d="M77 693h77v-231h-77v231zM231 693h77v-231h-77v231z" />
    <glyph glyph-name="numbersign" unicode="#" 
d="M77 231h-77v77h77v77h-77v77h77v154h77v-154h77v154h77v-154h77v-77h-77v-77h77v-77h-77v-154h-77v154h-77v-154h-77v154zM231 308v77h-77v-77h77z" />
    <glyph glyph-name="dollar" unicode="$" 
d="M0 154h154v154q-29 0 -56.5 13t-49.5 35t-35 49.5t-13 56.5t13 56.5t35 49.5t49.5 35t56.5 13v77h77v-77h154v-77h-154v-154q29 0 56.5 -13t49.5 -35t35 -49.5t13 -56.5t-13 -56.5t-35 -49.5t-49.5 -35t-56.5 -13v-77h-77v77h-154v77zM231 154q15 0 28.5 6.5t24.5 17.5
t17.5 25t6.5 28q0 15 -6.5 28.5t-17.5 24.5t-24.5 17.5t-28.5 6.5v-154zM154 539q-14 0 -28 -6.5t-25 -17.5t-17.5 -24.5t-6.5 -28.5q0 -14 6.5 -28t17.5 -25t25 -17.5t28 -6.5v154z" />
    <glyph glyph-name="percent" unicode="%" 
d="M272 3q-22 0 -42.5 10t-37 26t-26.5 36.5t-10 42.5q0 21 10 42t26 37t36.5 26t42.5 10q21 0 42 -10t37 -26.5t26 -37t10 -42.5t-10 -42.5t-26.5 -37t-37 -26.5t-42.5 -10zM274 82q14 0 26 12t12 26t-12.5 26t-26.5 12q-15 0 -27 -12.5t-12 -26.5q0 -15 12 -27t26 -12z
M122 470q-22 0 -42.5 10t-37 26t-26.5 36.5t-10 42.5q0 21 10 42t26 37t36.5 26t42.5 10q21 0 42 -10t37 -26.5t26 -37t10 -42.5t-10 -42.5t-26.5 -37t-37 -26.5t-42.5 -10zM124 549q14 0 26 12t12 26t-12.5 26t-26.5 12q-15 0 -27 -12.5t-12 -26.5q0 -15 12 -27t26 -12z
M9 11l308 693h77l-308 -693h-77z" />
    <glyph glyph-name="ampersand" unicode="&#x26;" 
d="M303 0l-26 55l-18 -16q-21 -19 -48 -29t-55 -10q-29 0 -56.5 13t-49.5 35t-35 49.5t-13 56.5q0 27 9.5 53t26.5 46l93 112l-41 87q-11 24 -11 49q0 21 10 42t26 37t36.5 26t42.5 10q21 0 42 -10t37 -26.5t26 -37t10 -42.5q0 -41 -27 -74l-62 -74l80 -171l85 76v-103
l-51 -46l51 -108h-82zM168 287l-70 -84q-18 -20 -18 -49q0 -14 6.5 -28t17.5 -25t25 -17.5t28 -6.5t27 5.5t24 14.5l35 31zM225 476q9 10 9 25q0 14 -12.5 26t-26.5 12q-15 0 -27 -12.5t-12 -26.5q0 -6 4 -16l26 -55z" />
    <glyph glyph-name="quotesingle" unicode="'" 
d="M154 693h77v-231h-77v231z" />
    <glyph glyph-name="parenleft" unicode="(" 
d="M211 -77q-65 92 -97.5 201.5t-32.5 222t32.5 222t97.5 201.5h97q-74 -88 -111 -198.5t-37 -225t37 -225t111 -198.5h-97z" />
    <glyph glyph-name="parenright" unicode=")" 
d="M77 -77q74 88 111 198.5t37 225t-37 225t-111 198.5h97q65 -92 97.5 -201.5t32.5 -222t-32.5 -222t-97.5 -201.5h-97z" />
    <glyph glyph-name="asterisk" unicode="*" 
d="M154 254l-100 -100h-54v54l138 138l-138 138v54h54l100 -100v177h77v-177l100 100h54v-54l-138 -138l138 -138v-54h-54l-100 100v-177h-77v177z" />
    <glyph glyph-name="plus" unicode="+" 
d="M154 308h-154v77h154v154h77v-154h154v-77h-154v-154h-77v154z" />
    <glyph glyph-name="comma" unicode="," 
d="M77 0l77 77v77h154v-77l-154 -154h-77v77z" />
    <glyph glyph-name="hyphen" unicode="-" 
d="M0 385h385v-77h-385v77z" />
    <glyph glyph-name="period" unicode="." 
d="M193 -38q-14 0 -28 6.5t-25 17.5t-17.5 25t-6.5 28q0 15 6.5 28.5t17.5 24.5t25 17.5t28 6.5q15 0 28.5 -6.5t24.5 -17.5t17.5 -24.5t6.5 -28.5q0 -14 -6.5 -28t-17.5 -25t-24.5 -17.5t-28.5 -6.5z" />
    <glyph glyph-name="slash" unicode="/" 
d="M308 693h77l-308 -693h-77z" />
    <glyph glyph-name="zero" unicode="0" 
d="M2 503q0 36 16.5 70.5t43.5 61.5t61.5 43.5t70.5 16.5t70.5 -16.5t61.5 -44t43.5 -62t16.5 -70.5v-308q0 -36 -16.5 -71t-44 -62t-62 -43.5t-70.5 -16.5t-71 16.5t-62 43.5t-43.5 61.5t-16.5 70.5zM81 197q0 -22 10 -42.5t26 -37t36.5 -26.5t42.5 -10q21 0 42 10t37 26
t26 36.5t10 42.5v308q0 21 -10 42t-26.5 37t-37 26t-42.5 10t-42.5 -10t-37 -26.5t-26.5 -37t-10 -42.5z" />
    <glyph glyph-name="one" unicode="1" 
d="M0 77h154v462l-77 -77h-77v77l154 154h77v-616h154v-77h-385v77z" />
    <glyph glyph-name="two" unicode="2" 
d="M1 78l308 346v115q0 15 -6.5 28.5t-17.5 24.5t-24.5 17.5t-28.5 6.5h-77q-14 0 -28 -6.5t-25 -17.5t-17.5 -24.5t-6.5 -28.5v-77h-77v77q0 29 13 56.5t35 49.5t49.5 35t56.5 13h77q29 0 56.5 -13t49.5 -35t35 -49.5t13 -56.5v-154l-270 -308h269v-77h-385z" />
    <glyph glyph-name="three" unicode="3" 
d="M77 154q0 -14 6.5 -28t17.5 -25t25 -17.5t28 -6.5h77q15 0 28.5 6.5t24.5 17.5t17.5 25t6.5 28v77q0 15 -6.5 28.5t-17.5 24.5t-24.5 17.5t-28.5 6.5h-154v77l231 231h-308v77h385v-109l-199 -199h45q29 0 56.5 -13t49.5 -35t35 -49.5t13 -56.5v-77q0 -29 -13 -56.5
t-35 -49.5t-49.5 -35t-56.5 -13h-77q-29 0 -56.5 13t-49.5 35t-35 49.5t-13 56.5h77z" />
    <glyph glyph-name="four" unicode="4" 
d="M231 154h-231v77l231 462h77v-462h77v-77h-77v-154h-77v154zM94 231h137v273z" />
    <glyph glyph-name="five" unicode="5" 
d="M77 154q0 -14 6.5 -28t17.5 -25t25 -17.5t28 -6.5h77q15 0 28.5 6.5t24.5 17.5t17.5 25t6.5 28v154q0 15 -6.5 28.5t-17.5 24.5t-24.5 17.5t-28.5 6.5q-14 0 -28 -6.5t-25 -17.5t-17.5 -24.5t-6.5 -28.5h-154v385h385v-77h-308v-231h21q20 35 56 56t77 21q29 0 56.5 -13
t49.5 -35t35 -49.5t13 -56.5v-154q0 -29 -13 -56.5t-35 -49.5t-49.5 -35t-56.5 -13h-77q-29 0 -56.5 13t-49.5 35t-35 49.5t-13 56.5h77z" />
    <glyph glyph-name="six" unicode="6" 
d="M0 539q0 29 13 56.5t35 49.5t49.5 35t56.5 13h77q29 0 56.5 -13t49.5 -35t35 -49.5t13 -56.5h-77q0 15 -6.5 28.5t-17.5 24.5t-24.5 17.5t-28.5 6.5h-77q-14 0 -28 -6.5t-25 -17.5t-17.5 -24.5t-6.5 -28.5v-154h154q29 0 56.5 -13t49.5 -35t35 -49.5t13 -56.5v-77
q0 -29 -13 -56.5t-35 -49.5t-49.5 -35t-56.5 -13h-77q-29 0 -56.5 13t-49.5 35t-35 49.5t-13 56.5v385zM77 154q0 -14 6.5 -28t17.5 -25t25 -17.5t28 -6.5h77q15 0 28.5 6.5t24.5 17.5t17.5 25t6.5 28v77q0 15 -6.5 28.5t-17.5 24.5t-24.5 17.5t-28.5 6.5h-154v-154z" />
    <glyph glyph-name="seven" unicode="7" 
d="M77 172l222 444h-299v77h385v-77l-231 -462v-154h-77v172z" />
    <glyph glyph-name="eight" unicode="8" 
d="M154 2q-29 0 -56.5 13t-49.5 35t-35 49.5t-13 56.5v77q0 32 13.5 62.5t38.5 52.5q-25 21 -38.5 51.5t-13.5 63.5v77q0 29 13 56.5t35 49.5t49.5 35t56.5 13h77q29 0 56.5 -13t49.5 -35t35 -49.5t13 -56.5v-77q0 -33 -13.5 -63.5t-38.5 -52.5q25 -22 38.5 -52.5
t13.5 -63.5v-77q0 -29 -13 -56.5t-35 -49.5t-49.5 -35t-56.5 -13zM231 79q15 0 28.5 6.5t24.5 17.5t17.5 25t6.5 28v77q0 15 -6.5 28.5t-17.5 24.5t-24.5 17.5t-28.5 6.5h-77q-14 0 -28 -6.5t-25 -17.5t-17.5 -24.5t-6.5 -28.5v-77q0 -14 6.5 -28t17.5 -25t25 -17.5t28 -6.5
h77zM231 387q15 0 28.5 6.5t24.5 17.5t17.5 25t6.5 28v77q0 15 -6.5 28.5t-17.5 24.5t-24.5 17.5t-28.5 6.5h-77q-14 0 -28 -6.5t-25 -17.5t-17.5 -24.5t-6.5 -28.5v-77q0 -14 6.5 -28t17.5 -25t25 -17.5t28 -6.5h77z" />
    <glyph glyph-name="nine" unicode="9" 
d="M77 154q0 -14 6.5 -28t17.5 -25t25 -17.5t28 -6.5h77q15 0 28.5 6.5t24.5 17.5t17.5 25t6.5 28v154h-154q-29 0 -56.5 13t-49.5 35t-35 49.5t-13 56.5v77q0 29 13 56.5t35 49.5t49.5 35t56.5 13h77q29 0 56.5 -13t49.5 -35t35 -49.5t13 -56.5v-385q0 -29 -13 -56.5
t-35 -49.5t-49.5 -35t-56.5 -13h-77q-29 0 -56.5 13t-49.5 35t-35 49.5t-13 56.5h77zM308 539q0 15 -6.5 28.5t-17.5 24.5t-24.5 17.5t-28.5 6.5h-77q-14 0 -28 -6.5t-25 -17.5t-17.5 -24.5t-6.5 -28.5v-77q0 -14 6.5 -28t17.5 -25t25 -17.5t28 -6.5h154v154z" />
    <glyph glyph-name="colon" unicode=":" 
d="M193 -38q-14 0 -28 6.5t-25 17.5t-17.5 25t-6.5 28q0 15 6.5 28.5t17.5 24.5t25 17.5t28 6.5q15 0 28.5 -6.5t24.5 -17.5t17.5 -24.5t6.5 -28.5q0 -14 -6.5 -28t-17.5 -25t-24.5 -17.5t-28.5 -6.5zM193 347q-14 0 -28 6.5t-25 17.5t-17.5 25t-6.5 28q0 15 6.5 28.5
t17.5 24.5t25 17.5t28 6.5q15 0 28.5 -6.5t24.5 -17.5t17.5 -24.5t6.5 -28.5q0 -14 -6.5 -28t-17.5 -25t-24.5 -17.5t-28.5 -6.5z" />
    <glyph glyph-name="semicolon" unicode=";" 
d="M77 0l77 77v77h154v-77l-154 -154h-77v77zM193 347q-14 0 -28 6.5t-25 17.5t-17.5 25t-6.5 28q0 15 6.5 28.5t17.5 24.5t25 17.5t28 6.5q15 0 28.5 -6.5t24.5 -17.5t17.5 -24.5t6.5 -28.5q0 -14 -6.5 -28t-17.5 -25t-24.5 -17.5t-28.5 -6.5z" />
    <glyph glyph-name="less" unicode="&#x3c;" 
d="M3 348l346 346h38v-77l-270 -270l269 -270v-77h-39z" />
    <glyph glyph-name="equal" unicode="=" 
d="M0 231h385v-77h-385v77zM0 462h385v-77h-385v77z" />
    <glyph glyph-name="greater" unicode="&#x3e;" 
d="M272 348l-270 269v77h38l346 -347l-347 -347h-39v77z" />
    <glyph glyph-name="question" unicode="?" 
d="M195 3q-15 0 -27 12t-12 26t12 26t26 12t26 -12.5t12 -26.5q0 -15 -12.5 -27t-26.5 -12zM157 267l154 154v122q0 15 -6.5 28.5t-17.5 24.5t-24.5 17.5t-28.5 6.5h-77q-14 0 -28 -6.5t-25 -17.5t-17.5 -24.5t-6.5 -28.5v-77h-77v77q0 29 13 56.5t35 49.5t49.5 35t56.5 13
h77q29 0 56.5 -13t49.5 -35t35 -49.5t13 -56.5v-154l-154 -154v-77h-77v109z" />
    <glyph glyph-name="at" unicode="@" 
d="M154 0q-29 0 -56.5 13t-49.5 35t-35 49.5t-13 56.5v385q0 29 13 56.5t35 49.5t49.5 35t56.5 13h77q29 0 56.5 -13t49.5 -35t35 -49.5t13 -56.5v-385h-77q-29 0 -56.5 13t-49.5 35t-35 49.5t-13 56.5t13 56.5t35 49.5t49.5 35t56.5 13v77q0 15 -6.5 28.5t-17.5 24.5
t-24.5 17.5t-28.5 6.5h-77q-14 0 -28 -6.5t-25 -17.5t-17.5 -24.5t-6.5 -28.5v-385q0 -14 6.5 -28t17.5 -25t25 -17.5t28 -6.5h231v-77h-231zM308 385q-14 0 -28 -6.5t-25 -17.5t-17.5 -24.5t-6.5 -28.5q0 -14 6.5 -28t17.5 -25t25 -17.5t28 -6.5v154z" />
    <glyph glyph-name="A" unicode="A" 
d="M1 495l192 192l192 -193v-494h-77v231h-231v-231h-77zM310 310v154l-116 115l-116 -116v-154z" />
    <glyph glyph-name="B" unicode="B" 
d="M0 694h231q29 0 56.5 -13t49.5 -35t35 -49.5t13 -56.5v-77q0 -29 -1 -45t-5.5 -27t-15.5 -20t-30 -24q19 -15 30 -24t15.5 -20t5.5 -27t1 -45v-77q0 -29 -13 -56.5t-35 -49.5t-49.5 -35t-56.5 -13h-231v694zM231 78q15 0 28.5 6.5t24.5 17.5t17.5 25t6.5 28v77
q0 15 -6.5 28.5t-17.5 24.5t-24.5 17.5t-28.5 6.5h-154v-231h154zM231 386q15 0 28.5 6.5t24.5 17.5t17.5 25t6.5 28v77q0 15 -6.5 28.5t-17.5 24.5t-24.5 17.5t-28.5 6.5h-154v-231h154z" />
    <glyph glyph-name="C" unicode="C" 
d="M0 539q0 29 13 56.5t35 49.5t49.5 35t56.5 13h77q29 0 56.5 -13t49.5 -35t35 -49.5t13 -56.5h-77q0 15 -6.5 28.5t-17.5 24.5t-24.5 17.5t-28.5 6.5h-77q-14 0 -28 -6.5t-25 -17.5t-17.5 -24.5t-6.5 -28.5v-385q0 -14 6.5 -28t17.5 -25t25 -17.5t28 -6.5h77
q15 0 28.5 6.5t24.5 17.5t17.5 25t6.5 28h77q0 -29 -13 -56.5t-35 -49.5t-49.5 -35t-56.5 -13h-77q-29 0 -56.5 13t-49.5 35t-35 49.5t-13 56.5v385z" />
    <glyph glyph-name="D" unicode="D" 
d="M0 693h231q29 0 56.5 -13t49.5 -35t35 -49.5t13 -56.5v-385q0 -29 -13 -56.5t-35 -49.5t-49.5 -35t-56.5 -13h-231v693zM231 77q15 0 28.5 6.5t24.5 17.5t17.5 25t6.5 28v385q0 15 -6.5 28.5t-17.5 24.5t-24.5 17.5t-28.5 6.5h-154v-539h154z" />
    <glyph glyph-name="E" unicode="E" 
d="M0 693h385v-77h-308v-231h231v-77h-231v-231h308v-77h-385v693z" />
    <glyph glyph-name="F" unicode="F" 
d="M0 693h385v-77h-308v-231h231v-77h-231v-308h-77v693z" />
    <glyph glyph-name="G" unicode="G" 
d="M0 539q0 29 13 56.5t35 49.5t49.5 35t56.5 13h77q29 0 56.5 -13t49.5 -35t35 -49.5t13 -56.5h-77q0 15 -6.5 28.5t-17.5 24.5t-24.5 17.5t-28.5 6.5h-77q-14 0 -28 -6.5t-25 -17.5t-17.5 -24.5t-6.5 -28.5v-385q0 -14 6.5 -28t17.5 -25t25 -17.5t28 -6.5h77
q15 0 28.5 6.5t24.5 17.5t17.5 25t6.5 28v77h-77v77h154v-154q0 -29 -13 -56.5t-35 -49.5t-49.5 -35t-56.5 -13h-77q-29 0 -56.5 13t-49.5 35t-35 49.5t-13 56.5v385z" />
    <glyph glyph-name="H" unicode="H" 
d="M0 693h77v-308h231v308h77v-693h-77v308h-231v-308h-77v693z" />
    <glyph glyph-name="I" unicode="I" 
d="M77 77h77v539h-77v77h231v-77h-77v-539h77v-77h-231v77z" />
    <glyph glyph-name="J" unicode="J" 
d="M77 154q0 -14 6.5 -28t17.5 -25t25 -17.5t28 -6.5q15 0 28.5 6.5t24.5 17.5t17.5 25t6.5 28v462h-77v77h231v-77h-77v-462q0 -29 -13 -56.5t-35 -49.5t-49.5 -35t-56.5 -13t-56.5 13t-49.5 35t-35 49.5t-13 56.5h77z" />
    <glyph glyph-name="K" unicode="K" 
d="M0 694h77v-308l231 231v77h77v-116l-231 -231l231 -231v-116h-77v77l-231 231v-308h-77v694z" />
    <glyph glyph-name="L" unicode="L" 
d="M0 693h77v-616h308v-77h-385v693z" />
    <glyph glyph-name="M" unicode="M" 
d="M2 694h96l96 -193l96 192h96v-693h-77v539l-116 -231l-116 231v-539h-77z" />
    <glyph glyph-name="N" unicode="N" 
d="M0 695h77l231 -501v500h77v-693h-77l-231 500v-501h-77v695z" />
    <glyph glyph-name="O" unicode="O" 
d="M0 539q0 29 13 56.5t35 49.5t49.5 35t56.5 13h77q29 0 56.5 -13t49.5 -35t35 -49.5t13 -56.5v-385q0 -29 -13 -56.5t-35 -49.5t-49.5 -35t-56.5 -13h-77q-29 0 -56.5 13t-49.5 35t-35 49.5t-13 56.5v385zM231 77q15 0 28.5 6.5t24.5 17.5t17.5 25t6.5 28v385
q0 15 -6.5 28.5t-17.5 24.5t-24.5 17.5t-28.5 6.5h-77q-14 0 -28 -6.5t-25 -17.5t-17.5 -24.5t-6.5 -28.5v-385q0 -14 6.5 -28t17.5 -25t25 -17.5t28 -6.5h77z" />
    <glyph glyph-name="P" unicode="P" 
d="M0 693h231q29 0 56.5 -13t49.5 -35t35 -49.5t13 -56.5v-77q0 -29 -13 -56.5t-35 -49.5t-49.5 -35t-56.5 -13h-154v-308h-77v693zM231 385q15 0 28.5 6.5t24.5 17.5t17.5 25t6.5 28v77q0 15 -6.5 28.5t-17.5 24.5t-24.5 17.5t-28.5 6.5h-154v-231h154z" />
    <glyph glyph-name="Q" unicode="Q" 
d="M0 539q0 29 13 56.5t35 49.5t49.5 35t56.5 13h77q29 0 56.5 -13t49.5 -35t35 -49.5t13 -56.5v-385q0 -35 -16.5 -68t-45.5 -55q11 -14 27.5 -22.5t34.5 -8.5v-77q-41 0 -77.5 21.5t-56.5 56.5q-5 -1 -10 -1h-10h-77q-29 0 -56.5 13t-49.5 35t-35 49.5t-13 56.5v385z
M231 77q0 15 -6.5 28.5t-17.5 24.5t-24.5 17.5t-28.5 6.5v77q24 0 47.5 -8.5t43 -23t34.5 -34.5t22 -43q7 14 7 32v385q0 15 -6.5 28.5t-17.5 24.5t-24.5 17.5t-28.5 6.5h-77q-14 0 -28 -6.5t-25 -17.5t-17.5 -24.5t-6.5 -28.5v-385q0 -14 6.5 -28t17.5 -25t25 -17.5
t28 -6.5h77z" />
    <glyph glyph-name="R" unicode="R" 
d="M1 694h231q29 0 56.5 -13t49.5 -35t35 -49.5t13 -56.5v-77q0 -29 -13 -56.5t-35 -49.5t-49.5 -35t-56.5 -13h-39l192 -193v-116h-77v77l-231 231v-308h-77zM232 386q15 0 28.5 6.5t24.5 17.5t17.5 25t6.5 28v77q0 15 -6.5 28.5t-17.5 24.5t-24.5 17.5t-28.5 6.5h-154
v-231h154z" />
    <glyph glyph-name="S" unicode="S" 
d="M77 154q0 -14 6.5 -28t17.5 -25t25 -17.5t28 -6.5h77q15 0 28.5 6.5t24.5 17.5t17.5 25t6.5 28v77q0 15 -6.5 28.5t-17.5 24.5t-24.5 17.5t-28.5 6.5h-77q-29 0 -56.5 13t-49.5 35t-35 49.5t-13 56.5v77q0 29 13 56.5t35 49.5t49.5 35t56.5 13h77q29 0 56.5 -13t49.5 -35
t35 -49.5t13 -56.5h-77q0 15 -6.5 28.5t-17.5 24.5t-24.5 17.5t-28.5 6.5h-77q-14 0 -28 -6.5t-25 -17.5t-17.5 -24.5t-6.5 -28.5v-77q0 -14 6.5 -28t17.5 -25t25 -17.5t28 -6.5h77q29 0 56.5 -13t49.5 -35t35 -49.5t13 -56.5v-77q0 -29 -13 -56.5t-35 -49.5t-49.5 -35
t-56.5 -13h-77q-29 0 -56.5 13t-49.5 35t-35 49.5t-13 56.5h77z" />
    <glyph glyph-name="T" unicode="T" 
d="M154 616h-154v77h385v-77h-154v-616h-77v616z" />
    <glyph glyph-name="U" unicode="U" 
d="M0 693h77v-539q0 -14 6.5 -28t17.5 -25t25 -17.5t28 -6.5h77q15 0 28.5 6.5t24.5 17.5t17.5 25t6.5 28v539h77v-539q0 -29 -13 -56.5t-35 -49.5t-49.5 -35t-56.5 -13h-77q-29 0 -56.5 13t-49.5 35t-35 49.5t-13 56.5v539z" />
    <glyph glyph-name="V" unicode="V" 
d="M1 385v308h77v-308l115 -289l115 289v308h77v-308l-154 -385h-77z" />
    <glyph glyph-name="W" unicode="W" 
d="M0 694h77v-539l115 231l115 -231v539h77v-693h-96l-96 192l-96 -193h-96v694z" />
    <glyph glyph-name="X" unicode="X" 
d="M2 2l154 346l-154 346h77l115 -260l115 260h77l-154 -347l154 -347h-77l-116 260l-116 -260h-77z" />
    <glyph glyph-name="Y" unicode="Y" 
d="M155 348l-154 346h77l115 -260l115 260h77l-154 -347v-347h-77z" />
    <glyph glyph-name="Z" unicode="Z" 
d="M0 77l308 539h-308v77h385v-77l-308 -539h308v-77h-385v77z" />
    <glyph glyph-name="bracketleft" unicode="[" 
d="M77 770h231v-77h-154v-693h154v-77h-231v847z" />
    <glyph glyph-name="backslash" unicode="\" 
d="M0 693h77l308 -693h-77z" />
    <glyph glyph-name="bracketright" unicode="]" 
d="M77 0h154v693h-154v77h231v-847h-231v77z" />
    <glyph glyph-name="asciicircum" unicode="^" 
d="M0 502l192 192l192 -193v-39h-70l-122 122l-122 -122h-70v40z" />
    <glyph glyph-name="underscore" unicode="_" 
d="M385 0v-77h-385v77h385z" />
    <glyph glyph-name="grave" unicode="`" 
d="M131 770l177 -177v-54h-54l-177 177v54h54z" />
    <glyph glyph-name="a" unicode="a" 
d="M154 0q-29 0 -56.5 13t-49.5 35t-35 49.5t-13 56.5t13 56.5t35 49.5t49.5 35t56.5 13h154q0 15 -6.5 28.5t-17.5 24.5t-24.5 17.5t-28.5 6.5h-154v77h154q29 0 56.5 -13t49.5 -35t35 -49.5t13 -56.5v-308h-231zM308 231h-154q-14 0 -28 -6.5t-25 -17.5t-17.5 -24.5
t-6.5 -28.5q0 -14 6.5 -28t17.5 -25t25 -17.5t28 -6.5h154v154z" />
    <glyph glyph-name="b" unicode="b" 
d="M0 693h77v-231h154q29 0 56.5 -13t49.5 -35t35 -49.5t13 -56.5v-154q0 -29 -13 -56.5t-35 -49.5t-49.5 -35t-56.5 -13h-231v693zM231 77q15 0 28.5 6.5t24.5 17.5t17.5 25t6.5 28v154q0 15 -6.5 28.5t-17.5 24.5t-24.5 17.5t-28.5 6.5h-154v-308h154z" />
    <glyph glyph-name="c" unicode="c" 
d="M0 308q0 29 13 56.5t35 49.5t49.5 35t56.5 13h77q29 0 56.5 -13t49.5 -35t35 -49.5t13 -56.5h-77q0 15 -6.5 28.5t-17.5 24.5t-24.5 17.5t-28.5 6.5h-77q-14 0 -28 -6.5t-25 -17.5t-17.5 -24.5t-6.5 -28.5v-154q0 -14 6.5 -28t17.5 -25t25 -17.5t28 -6.5h77
q15 0 28.5 6.5t24.5 17.5t17.5 25t6.5 28h77q0 -29 -13 -56.5t-35 -49.5t-49.5 -35t-56.5 -13h-77q-29 0 -56.5 13t-49.5 35t-35 49.5t-13 56.5v154z" />
    <glyph glyph-name="d" unicode="d" 
d="M0 308q0 29 13 56.5t35 49.5t49.5 35t56.5 13h154v231h77v-693h-231q-29 0 -56.5 13t-49.5 35t-35 49.5t-13 56.5v154zM308 77v308h-154q-14 0 -28 -6.5t-25 -17.5t-17.5 -24.5t-6.5 -28.5v-154q0 -14 6.5 -28t17.5 -25t25 -17.5t28 -6.5h154z" />
    <glyph glyph-name="e" unicode="e" 
d="M154 0q-29 0 -56.5 13t-49.5 35t-35 49.5t-13 56.5v154q0 29 13 56.5t35 49.5t49.5 35t56.5 13h77q29 0 56.5 -13t49.5 -35t35 -49.5t13 -56.5v-77h-308v-77q0 -14 6.5 -28t17.5 -25t25 -17.5t28 -6.5h77q15 0 28.5 6.5t24.5 17.5t17.5 25t6.5 28h77q0 -29 -13 -56.5
t-35 -49.5t-49.5 -35t-56.5 -13h-77zM308 308q0 15 -6.5 28.5t-17.5 24.5t-24.5 17.5t-28.5 6.5h-77q-14 0 -28 -6.5t-25 -17.5t-17.5 -24.5t-6.5 -28.5h231z" />
    <glyph glyph-name="f" unicode="f" 
d="M77 308h-77v77h77v154q0 29 13 56.5t35 49.5t49.5 35t56.5 13t56.5 -13t49.5 -35t35 -49.5t13 -56.5h-77q0 15 -6.5 28.5t-17.5 24.5t-24.5 17.5t-28.5 6.5q-14 0 -28 -6.5t-25 -17.5t-17.5 -24.5t-6.5 -28.5v-154h154v-77h-154v-308h-77v308z" />
    <glyph glyph-name="g" unicode="g" 
d="M77 0q0 -14 6.5 -28t17.5 -25t25 -17.5t28 -6.5h77q15 0 28.5 6.5t24.5 17.5t17.5 25t6.5 28v77h-154q-29 0 -56.5 13t-49.5 35t-35 49.5t-13 56.5v77q0 29 13 56.5t35 49.5t49.5 35t56.5 13h77q29 0 56.5 -13t49.5 -35t35 -49.5t13 -56.5v-308q0 -29 -13 -56.5
t-35 -49.5t-49.5 -35t-56.5 -13h-77q-29 0 -56.5 13t-49.5 35t-35 49.5t-13 56.5h77zM308 154v154q0 15 -6.5 28.5t-17.5 24.5t-24.5 17.5t-28.5 6.5h-77q-14 0 -28 -6.5t-25 -17.5t-17.5 -24.5t-6.5 -28.5v-77q0 -14 6.5 -28t17.5 -25t25 -17.5t28 -6.5h154z" />
    <glyph glyph-name="h" unicode="h" 
d="M0 693h77v-252q34 21 77 21h77q29 0 56.5 -13t49.5 -35t35 -49.5t13 -56.5v-308h-77v308q0 15 -6.5 28.5t-17.5 24.5t-24.5 17.5t-28.5 6.5h-77q-14 0 -28 -6.5t-25 -17.5t-17.5 -24.5t-6.5 -28.5v-308h-77v693z" />
    <glyph glyph-name="i" unicode="i" 
d="M77 77h77v308h-77v77h154v-385h77v-77h-231v77zM195 542q-15 0 -27 12t-12 26t12 26t26 12t26 -12.5t12 -26.5q0 -15 -12.5 -27t-26.5 -12z" />
    <glyph glyph-name="j" unicode="j" 
d="M0 77h77v-77q0 -14 6.5 -28t17.5 -25t25 -17.5t28 -6.5q15 0 28.5 6.5t24.5 17.5t17.5 25t6.5 28v385h-77v77h154v-462q0 -29 -13 -56.5t-35 -49.5t-49.5 -35t-56.5 -13t-56.5 13t-49.5 35t-35 49.5t-13 56.5v77zM272 542q-15 0 -27 12t-12 26t12 26t26 12t26 -12.5
t12 -26.5q0 -15 -12.5 -27t-26.5 -12z" />
    <glyph glyph-name="k" unicode="k" 
d="M1 694h77v-385l154 154h77l-193 -193l269 -270h-77l-231 231v-231h-77z" />
    <glyph glyph-name="l" unicode="l" 
d="M77 77h77v539h-77v77h154v-616h77v-77h-231v77z" />
    <glyph glyph-name="m" unicode="m" 
d="M3 467h115q21 0 41 -7.5t36 -21.5q16 14 36 21.5t41 7.5t42 -10t37 -26.5t26 -37t10 -42.5v-347h-77v346q0 14 -12.5 26t-26.5 12q-15 0 -27 -12.5t-12 -26.5v-347h-77v346q0 14 -12.5 26t-26.5 12q-15 0 -27 -12.5t-12 -26.5v-347h-77z" />
    <glyph glyph-name="n" unicode="n" 
d="M0 462h77v-21q34 21 77 21h77q29 0 56.5 -13t49.5 -35t35 -49.5t13 -56.5v-308h-77v308q0 15 -6.5 28.5t-17.5 24.5t-24.5 17.5t-28.5 6.5h-77q-14 0 -28 -6.5t-25 -17.5t-17.5 -24.5t-6.5 -28.5v-308h-77v462z" />
    <glyph glyph-name="o" unicode="o" 
d="M0 308q0 29 13 56.5t35 49.5t49.5 35t56.5 13h77q29 0 56.5 -13t49.5 -35t35 -49.5t13 -56.5v-154q0 -29 -13 -56.5t-35 -49.5t-49.5 -35t-56.5 -13h-77q-29 0 -56.5 13t-49.5 35t-35 49.5t-13 56.5v154zM231 77q15 0 28.5 6.5t24.5 17.5t17.5 25t6.5 28v154
q0 15 -6.5 28.5t-17.5 24.5t-24.5 17.5t-28.5 6.5h-77q-14 0 -28 -6.5t-25 -17.5t-17.5 -24.5t-6.5 -28.5v-154q0 -14 6.5 -28t17.5 -25t25 -17.5t28 -6.5h77z" />
    <glyph glyph-name="p" unicode="p" 
d="M0 462h231q29 0 56.5 -13t49.5 -35t35 -49.5t13 -56.5v-77q0 -29 -13 -56.5t-35 -49.5t-49.5 -35t-56.5 -13h-154v-231h-77v616zM231 154q15 0 28.5 6.5t24.5 17.5t17.5 25t6.5 28v77q0 15 -6.5 28.5t-17.5 24.5t-24.5 17.5t-28.5 6.5h-154v-231h154z" />
    <glyph glyph-name="q" unicode="q" 
d="M0 308q0 29 13 56.5t35 49.5t49.5 35t56.5 13h231v-616h-77v231h-154q-29 0 -56.5 13t-49.5 35t-35 49.5t-13 56.5v77zM308 154v231h-154q-14 0 -28 -6.5t-25 -17.5t-17.5 -24.5t-6.5 -28.5v-77q0 -14 6.5 -28t17.5 -25t25 -17.5t28 -6.5h154z" />
    <glyph glyph-name="r" unicode="r" 
d="M0 462h77v-21q34 21 77 21h77q29 0 56.5 -13t49.5 -35t35 -49.5t13 -56.5h-77q0 15 -6.5 28.5t-17.5 24.5t-24.5 17.5t-28.5 6.5h-77q-14 0 -28 -6.5t-25 -17.5t-17.5 -24.5t-6.5 -28.5v-308h-77v462z" />
    <glyph glyph-name="s" unicode="s" 
d="M77 156q0 -14 6.5 -28t17.5 -25t25 -17.5t28 -6.5h77q15 0 28.5 6.5t24.5 17.5t17.5 25t6.5 28l-308 115v38q0 29 13 56.5t35 49.5t49.5 35t56.5 13h77q29 0 56.5 -13t49.5 -35t35 -49.5t13 -56.5h-77q0 15 -6.5 28.5t-17.5 24.5t-24.5 17.5t-28.5 6.5h-77
q-14 0 -28 -6.5t-25 -17.5t-17.5 -24.5t-6.5 -28.5l308 -116v-39q0 -29 -13 -56.5t-35 -49.5t-49.5 -35t-56.5 -13h-77q-29 0 -56.5 13t-49.5 35t-35 49.5t-13 56.5z" />
    <glyph glyph-name="t" unicode="t" 
d="M77 385h-77v77h77v154h77v-154h154v-77h-154v-231q0 -14 6.5 -28t17.5 -25t25 -17.5t28 -6.5q15 0 28.5 6.5t24.5 17.5t17.5 25t6.5 28h77q0 -29 -13 -56.5t-35 -49.5t-49.5 -35t-56.5 -13t-56.5 13t-49.5 35t-35 49.5t-13 56.5v231z" />
    <glyph glyph-name="u" unicode="u" 
d="M0 462h77v-308q0 -14 6.5 -28t17.5 -25t25 -17.5t28 -6.5h77q15 0 28.5 6.5t24.5 17.5t17.5 25t6.5 28v308h77v-462h-77v21q-35 -21 -77 -21h-77q-29 0 -56.5 13t-49.5 35t-35 49.5t-13 56.5v308z" />
    <glyph glyph-name="v" unicode="v" 
d="M1 462h77v-208l115 -173l115 173v208h77v-231l-154 -231h-77l-154 231z" />
    <glyph glyph-name="w" unicode="w" 
d="M3 462h77v-290l38 -77l38 77v136h77v-136l38 -77l38 77v290h77v-308l-77 -154h-77l-39 77l-39 -77h-77l-77 154z" />
    <glyph glyph-name="x" unicode="x" 
d="M156 231l-154 231h77l115 -173l115 173h77l-154 -231l154 -231h-77l-116 173l-116 -173h-77z" />
    <glyph glyph-name="y" unicode="y" 
d="M77 0q0 -14 6.5 -28t17.5 -25t25 -17.5t28 -6.5h77q15 0 28.5 6.5t24.5 17.5t17.5 25t6.5 28v98q-35 -21 -77 -21h-77q-29 0 -56.5 13t-49.5 35t-35 49.5t-13 56.5v231h77v-231q0 -14 6.5 -28t17.5 -25t25 -17.5t28 -6.5h77q15 0 28.5 6.5t24.5 17.5t17.5 25t6.5 28v231
h77v-462q0 -29 -13 -56.5t-35 -49.5t-49.5 -35t-56.5 -13h-77q-29 0 -56.5 13t-49.5 35t-35 49.5t-13 56.5h77z" />
    <glyph glyph-name="z" unicode="z" 
d="M2 77l269 308h-270v77h385v-77l-270 -308h269v-77h-385z" />
    <glyph glyph-name="braceleft" unicode="{" 
d="M0 386h77q15 0 28.5 6.5t24.5 17.5t17.5 25t6.5 28v154q0 29 13 56.5t35 49.5t49.5 35t56.5 13h77v-77h-77q-14 0 -28 -6.5t-25 -17.5t-17.5 -24.5t-6.5 -28.5v-154q0 -33 -13.5 -63.5t-38.5 -52.5q25 -22 38.5 -52.5t13.5 -63.5v-154q0 -14 6.5 -28t17.5 -25t25 -17.5
t28 -6.5h77v-77h-77q-29 0 -56.5 13t-49.5 35t-35 49.5t-13 56.5v154q0 15 -6.5 28.5t-17.5 24.5t-24.5 17.5t-28.5 6.5h-77v78z" />
    <glyph glyph-name="bar" unicode="|" 
d="M154 693h77v-693h-77v693z" />
    <glyph glyph-name="braceright" unicode="}" 
d="M77 1q15 0 28.5 6.5t24.5 17.5t17.5 25t6.5 28v154q0 32 13.5 62.5t38.5 52.5q-25 21 -38.5 51.5t-13.5 63.5v154q0 15 -6.5 28.5t-17.5 24.5t-24.5 17.5t-28.5 6.5h-77v77h77q29 0 56.5 -13t49.5 -35t35 -49.5t13 -56.5v-154q0 -14 6.5 -28t17.5 -25t25 -17.5t28 -6.5
h77v-77h-77q-14 0 -28 -6.5t-25 -17.5t-17.5 -24.5t-6.5 -28.5v-154q0 -29 -13 -56.5t-35 -49.5t-49.5 -35t-56.5 -13h-77v77z" />
    <glyph glyph-name="asciitilde" unicode="~" 
d="M4 582q0 21 10 42t26 37t36.5 26t42.5 10q21 0 42 -10t37 -26.5t26 -37t10 -42.5q0 -15 12 -27t26 -12t26 12t12 26v77h77v-77q0 -22 -10 -42.5t-26.5 -37t-37 -26.5t-42.5 -10t-42.5 10t-37 26t-26.5 36.5t-10 42.5q0 14 -12.5 26t-26.5 12q-15 0 -27 -12.5t-12 -26.5
v-77h-77z" />
    <glyph glyph-name="exclamdown" unicode="&#xa1;" 
d="M154 539h77v-539h-77v539zM195 619q-15 0 -27 12t-12 26t12 26t26 12t26 -12.5t12 -26.5q0 -15 -12.5 -27t-26.5 -12z" />
    <glyph glyph-name="cent" unicode="&#xa2;" 
d="M154 154q-29 0 -56.5 13t-49.5 35t-35 49.5t-13 56.5v154q0 29 13 56.5t35 49.5t49.5 35t56.5 13v77h77v-77q29 0 56.5 -13t49.5 -35t35 -49.5t13 -56.5h-77q0 15 -6.5 28.5t-17.5 24.5t-24.5 17.5t-28.5 6.5v-308q15 0 28.5 6.5t24.5 17.5t17.5 25t6.5 28h77
q0 -29 -13 -56.5t-35 -49.5t-49.5 -35t-56.5 -13v-77h-77v77zM154 539q-14 0 -28 -6.5t-25 -17.5t-17.5 -24.5t-6.5 -28.5v-154q0 -14 6.5 -28t17.5 -25t25 -17.5t28 -6.5v308z" />
    <glyph glyph-name="sterling" unicode="&#xa3;" 
d="M1 77q15 0 28.5 6.5t24.5 17.5t17.5 25t6.5 28v154h-77v77h77v154q0 29 13 56.5t35 49.5t49.5 35t56.5 13t56.5 -13t49.5 -35t35 -49.5t13 -56.5h-77q0 15 -6.5 28.5t-17.5 24.5t-24.5 17.5t-28.5 6.5q-14 0 -28 -6.5t-25 -17.5t-17.5 -24.5t-6.5 -28.5v-154h77v-77h-77
v-154q0 -14 6.5 -28t17.5 -25t25 -17.5t28 -6.5q15 0 28.5 6.5t24.5 17.5t17.5 25t6.5 28h77q0 -29 -13 -56.5t-35 -49.5t-49.5 -35t-56.5 -13q-33 0 -63.5 13.5t-52.5 38.5q-22 -25 -52.5 -38.5t-63.5 -13.5z" />
    <glyph glyph-name="currency" unicode="&#xa4;" 
d="M0 131l60 60q-5 9 -9 26t-6.5 32t-4 22.5t-1.5 -2.5q0 42 21 78l-60 60v54h54l60 -60q17 11 37.5 16t40.5 5q32 0 49 -0.5t23.5 -2t6 -3t-2.5 -4t-3 -5.5t5 -6l60 60h54v-54l-60 -60q21 -17 21 -37.5v-40.5q0 -42 -21 -78l60 -60v-54h-54l-60 60q-35 -21 -78 -21
q-42 0 -78 21l-60 -60h-54v54zM193 193q15 0 28.5 6.5t24.5 17.5t17.5 25t6.5 28q0 15 -6.5 28.5t-17.5 24.5t-24.5 17.5t-28.5 6.5q-14 0 -28 -6.5t-25 -17.5t-17.5 -24.5t-6.5 -28.5q0 -14 6.5 -28t17.5 -25t25 -17.5t28 -6.5z" />
    <glyph glyph-name="yen" unicode="&#xa5;" 
d="M155 154h-154v77h154v77h-154v77h137l-137 308h77l115 -260l115 260h77l-137 -308h137v-77h-154v-77h154v-77h-154v-154h-77z" />
    <glyph glyph-name="brokenbar" unicode="&#xa6;" 
d="M154 308h77v-308h-77v308zM154 693h77v-308h-77v308z" />
    <glyph glyph-name="section" unicode="&#xa7;" 
d="M154 156q0 -14 6.5 -28t17.5 -25t25 -17.5t28 -6.5q15 0 28.5 6.5t24.5 17.5t17.5 25t6.5 28q0 15 -6.5 28.5t-17.5 24.5t-24.5 17.5t-28.5 6.5q-29 0 -56.5 13t-49.5 35t-35 49.5t-13 56.5q0 32 13.5 62.5t38.5 52.5q-25 21 -38.5 51.5t-13.5 63.5q0 29 13 56.5t35 49.5
t49.5 35t56.5 13t56.5 -13t49.5 -35t35 -49.5t13 -56.5h-77q0 15 -6.5 28.5t-17.5 24.5t-24.5 17.5t-28.5 6.5q-14 0 -28 -6.5t-25 -17.5t-17.5 -24.5t-6.5 -28.5q0 -14 6.5 -28t17.5 -25t25 -17.5t28 -6.5q29 0 56.5 -13t49.5 -35t35 -49.5t13 -56.5q0 -33 -13.5 -63.5
t-38.5 -52.5q25 -22 38.5 -52.5t13.5 -63.5q0 -29 -13 -56.5t-35 -49.5t-49.5 -35t-56.5 -13t-56.5 13t-49.5 35t-35 49.5t-13 56.5zM231 310q15 0 28.5 6.5t24.5 17.5t17.5 25t6.5 28q0 15 -6.5 28.5t-17.5 24.5t-24.5 17.5t-28.5 6.5q-14 0 -28 -6.5t-25 -17.5
t-17.5 -24.5t-6.5 -28.5q0 -14 6.5 -28t17.5 -25t25 -17.5t28 -6.5z" />
    <glyph glyph-name="dieresis" unicode="&#xa8;" 
d="M118 619q-15 0 -27 12t-12 26t12 26t26 12t26 -12.5t12 -26.5q0 -15 -12.5 -27t-26.5 -12zM274 622q-15 0 -27 12t-12 26t12 26t26 12t26 -12.5t12 -26.5q0 -15 -12.5 -27t-26.5 -12z" />
    <glyph glyph-name="copyright" unicode="&#xa9;" 
d="M154 77q-29 0 -56.5 13t-49.5 35t-35 49.5t-13 56.5v385q0 29 13 56.5t35 49.5t49.5 35t56.5 13h77q29 0 56.5 -13t49.5 -35t35 -49.5t13 -56.5v-385q0 -29 -13 -56.5t-35 -49.5t-49.5 -35t-56.5 -13h-77zM231 154q15 0 28.5 6.5t24.5 17.5t17.5 25t6.5 28v385
q0 15 -6.5 28.5t-17.5 24.5t-24.5 17.5t-28.5 6.5h-77q-14 0 -28 -6.5t-25 -17.5t-17.5 -24.5t-6.5 -28.5v-385q0 -14 6.5 -28t17.5 -25t25 -17.5t28 -6.5h77zM272 351v-39q0 -14 -6.5 -28t-17.5 -25t-24.5 -17.5t-28.5 -6.5q-14 0 -28 6.5t-25 17.5t-17.5 25t-6.5 28v231
q0 15 6.5 28.5t17.5 24.5t25 17.5t28 6.5q15 0 28.5 -6.5t24.5 -17.5t17.5 -24.5t6.5 -28.5v-39h-39v38q0 14 -12.5 26t-26.5 12q-15 0 -27 -12.5t-12 -26.5v-231q0 -15 12 -27t26 -12t26 12t12 26v38z" />
    <glyph glyph-name="ordfeminine" unicode="&#xaa;" 
d="M0 231h385v-77h-385v77zM117 309q-22 0 -42.5 10t-37 26t-26.5 36.5t-10 42.5q0 21 10 42t26 37t36.5 26t42.5 10h192q0 15 -6.5 28.5t-17.5 24.5t-24.5 17.5t-28.5 6.5h-154v77h154q29 0 56.5 -13t49.5 -35t35 -49.5t13 -56.5v-231zM312 464h-193q-15 0 -27 -12.5
t-12 -26.5q0 -15 12 -27t26 -12h192z" />
    <glyph glyph-name="guillemotleft" unicode="&#xab;" 
d="M0 308l231 231v-109l-122 -122l122 -122v-109zM154 308l231 231v-109l-122 -122l122 -122v-109z" />
    <glyph glyph-name="logicalnot" unicode="&#xac;" 
d="M0 385h385v-154h-77v77h-308v77z" />
    <glyph glyph-name="registered" unicode="&#xae;" 
d="M154 77q-29 0 -56.5 13t-49.5 35t-35 49.5t-13 56.5v385q0 29 13 56.5t35 49.5t49.5 35t56.5 13h77q29 0 56.5 -13t49.5 -35t35 -49.5t13 -56.5v-385q0 -29 -13 -56.5t-35 -49.5t-49.5 -35t-56.5 -13h-77zM231 154q15 0 28.5 6.5t24.5 17.5t17.5 25t6.5 28v385
q0 15 -6.5 28.5t-17.5 24.5t-24.5 17.5t-28.5 6.5h-77q-14 0 -28 -6.5t-25 -17.5t-17.5 -24.5t-6.5 -28.5v-385q0 -14 6.5 -28t17.5 -25t25 -17.5t28 -6.5h77zM116 231v385h77q15 0 28.5 -6.5t24.5 -17.5t17.5 -24.5t6.5 -28.5v-77q0 -14 -6.5 -28t-17.5 -25t-24.5 -17.5
t-28.5 -6.5l77 -154h-39l-77 154v-154h-38zM195 425q14 0 26 12t12 26v77q0 14 -12.5 26t-26.5 12h-39v-154z" />
    <glyph glyph-name="macron" unicode="&#xaf;" 
d="M0 693h385v-77h-385v77z" />
    <glyph glyph-name="degree" unicode="&#xb0;" 
d="M231 385q-29 0 -56.5 13t-49.5 35t-35 49.5t-13 56.5t13 56.5t35 49.5t49.5 35t56.5 13t56.5 -13t49.5 -35t35 -49.5t13 -56.5t-13 -56.5t-35 -49.5t-49.5 -35t-56.5 -13zM231 462q15 0 28.5 6.5t24.5 17.5t17.5 25t6.5 28q0 15 -6.5 28.5t-17.5 24.5t-24.5 17.5
t-28.5 6.5q-14 0 -28 -6.5t-25 -17.5t-17.5 -24.5t-6.5 -28.5q0 -14 6.5 -28t17.5 -25t25 -17.5t28 -6.5z" />
    <glyph glyph-name="plusminus" unicode="&#xb1;" 
d="M0 154h385v-77h-385v77zM0 462h154v154h77v-154h154v-77h-154v-154h-77v154h-154v77z" />
    <glyph glyph-name="twosuperior" unicode="&#xb2;" 
d="M156 619v38q0 14 -12.5 26t-26.5 12q-15 0 -27 -12.5t-12 -26.5v-39h-77v38q0 21 10 42t26 37t36.5 26t42.5 10q21 0 42 -10t37 -26.5t26 -37t10 -42.5v-70l-122 -122h122v-77h-231v77z" />
    <glyph glyph-name="threesuperior" unicode="&#xb3;" 
d="M5 467h115q14 0 26 12t12 26t-12.5 26t-26.5 12v77q14 0 26 12t12 26t-12.5 26t-26.5 12q-15 0 -27 -12.5t-12 -26.5v-39h-77v38q0 21 10 42t26 37t36.5 26t42.5 10q21 0 42 -10t37 -26.5t26 -37t10 -42.5q0 -21 -7.5 -41t-21.5 -36q14 -16 21.5 -36t7.5 -41
q0 -22 -10 -42.5t-26.5 -37t-37 -26.5t-42.5 -10h-116z" />
    <glyph glyph-name="acute" unicode="&#xb4;" 
d="M77 593l177 177h54v-54l-177 -177h-54v54z" />
    <glyph glyph-name="mu" unicode="&#xb5;" 
d="M77 462v-308q0 -14 6.5 -28t17.5 -25t25 -17.5t28 -6.5h77q15 0 28.5 6.5t24.5 17.5t17.5 25t6.5 28v308h77v-462h-77v21q-35 -21 -77 -21h-77q-20 0 -40 5.5t-37 15.5v-175h-77v616h77z" />
    <glyph glyph-name="paragraph" unicode="&#xb6;" 
d="M154 0v308q-29 0 -56.5 13t-49.5 35t-35 49.5t-13 56.5v77q0 29 13 56.5t35 49.5t49.5 35t56.5 13h231v-693h-77v616h-77v-616h-77z" />
    <glyph glyph-name="periodcentered" unicode="&#xb7;" 
d="M195 311q-15 0 -27 12t-12 26t12 26t26 12t26 -12.5t12 -26.5q0 -15 -12.5 -27t-26.5 -12z" />
    <glyph glyph-name="cedilla" unicode="&#xb8;" 
d="M231 2v-39h19q22 0 40 -18t18 -40t-18 -40t-40 -18h-173v38h173q7 0 13 5.5t6 13.5q0 7 -5.5 13t-13.5 6h-96v77z" />
    <glyph glyph-name="onesuperior" unicode="&#xb9;" 
d="M0 462h77v154h-77v77l77 77h77v-308h77v-77h-231v77z" />
    <glyph glyph-name="ordmasculine" unicode="&#xba;" 
d="M0 231h385v-77h-385v77zM154 308q-29 0 -56.5 13t-49.5 35t-35 49.5t-13 56.5v77q0 29 13 56.5t35 49.5t49.5 35t56.5 13h77q29 0 56.5 -13t49.5 -35t35 -49.5t13 -56.5v-77q0 -29 -13 -56.5t-35 -49.5t-49.5 -35t-56.5 -13h-77zM231 385q15 0 28.5 6.5t24.5 17.5
t17.5 25t6.5 28v77q0 15 -6.5 28.5t-17.5 24.5t-24.5 17.5t-28.5 6.5h-77q-14 0 -28 -6.5t-25 -17.5t-17.5 -24.5t-6.5 -28.5v-77q0 -14 6.5 -28t17.5 -25t25 -17.5t28 -6.5h77z" />
    <glyph glyph-name="guillemotright" unicode="&#xbb;" 
d="M0 186l122 122l-122 122v109l231 -231l-231 -231v109zM154 186l122 122l-122 122v109l231 -231l-231 -231v109z" />
    <glyph glyph-name="onequarter" unicode="&#xbc;" 
d="M0 462h77v154h-77v77l77 77h77v-308h77v-77h-231v77zM308 77h-154v77l154 231h77v-385h-77v77zM308 246l-61 -92h61v92z" />
    <glyph glyph-name="onehalf" unicode="&#xbd;" 
d="M0 462h77v154h-77v77l77 77h77v-308h77v-77h-231v77zM310 234v38q0 14 -12.5 26t-26.5 12q-15 0 -27 -12.5t-12 -26.5v-39h-77v38q0 21 10 42t26 37t36.5 26t42.5 10q21 0 42 -10t37 -26.5t26 -37t10 -42.5v-70l-122 -122h122v-77h-231v77z" />
    <glyph glyph-name="threequarters" unicode="&#xbe;" 
d="M5 467h115q14 0 26 12t12 26t-12.5 26t-26.5 12v77q14 0 26 12t12 26t-12.5 26t-26.5 12q-15 0 -27 -12.5t-12 -26.5v-39h-77v38q0 21 10 42t26 37t36.5 26t42.5 10q21 0 42 -10t37 -26.5t26 -37t10 -42.5q0 -21 -7.5 -41t-21.5 -36q14 -16 21.5 -36t7.5 -41
q0 -22 -10 -42.5t-26.5 -37t-37 -26.5t-42.5 -10h-116zM313 82h-154v77l154 231h77v-385h-77v77zM313 251l-61 -92h61v92z" />
    <glyph glyph-name="questiondown" unicode="&#xbf;" 
d="M154 462v77h77v-109l-154 -154v-122q0 -14 6.5 -28t17.5 -25t25 -17.5t28 -6.5h77q15 0 28.5 6.5t24.5 17.5t17.5 25t6.5 28v77h77v-77q0 -29 -13 -56.5t-35 -49.5t-49.5 -35t-56.5 -13h-77q-29 0 -56.5 13t-49.5 35t-35 49.5t-13 56.5v154zM195 619q-15 0 -27 12t-12 26
t12 26t26 12t26 -12.5t12 -26.5q0 -15 -12.5 -27t-26.5 -12z" />
    <glyph glyph-name="Agrave" unicode="&#xc0;" 
d="M1 348l192 192l192 -193v-347h-77v154h-231v-154h-77zM310 234v84l-116 115l-116 -116v-84zM179 619l-100 100v54h54l100 -100v-54h-54z" />
    <glyph glyph-name="Aacute" unicode="&#xc1;" 
d="M1 348l192 192l192 -193v-347h-77v154h-231v-154h-77zM310 234v84l-116 115l-116 -116v-84zM156 673l100 100h54v-54l-100 -100h-54v54z" />
    <glyph glyph-name="Acircumflex" unicode="&#xc2;" 
d="M1 348l192 192l192 -193v-347h-77v154h-231v-154h-77zM310 234v84l-116 115l-116 -116v-84zM79 659l115 115l115 -116v-39h-70l-45 45l-45 -45h-70v40z" />
    <glyph glyph-name="Atilde" unicode="&#xc3;" 
d="M1 348l192 192l192 -193v-347h-77v154h-231v-154h-77zM310 234v84l-116 115l-116 -116v-84zM4 661q0 21 10 42t26 37t36.5 26t42.5 10q38 0 69 -23l62 -46q11 -8 23 -8q14 0 26 12t12 26v38h77v-39q0 -22 -10 -42.5t-26.5 -37t-37 -26.5t-42.5 -10q-38 0 -69 23l-62 46
q-11 8 -23 8q-15 0 -27 -12.5t-12 -26.5v-39h-77z" />
    <glyph glyph-name="Adieresis" unicode="&#xc4;" 
d="M1 348l192 192l192 -193v-347h-77v154h-231v-154h-77zM310 234v84l-116 115l-116 -116v-84zM120 622q-15 0 -27 12t-12 26t12 26t26 12t26 -12.5t12 -26.5q0 -15 -12.5 -27t-26.5 -12zM276 625q-15 0 -27 12t-12 26t12 26t26 12t26 -12.5t12 -26.5q0 -15 -12.5 -27
t-26.5 -12z" />
    <glyph glyph-name="Aring" unicode="&#xc5;" 
d="M1 348l192 192l192 -193v-347h-77v154h-231v-154h-77zM310 234v84l-116 115l-116 -116v-84zM195 619q-14 0 -28 6.5t-25 17.5t-17.5 25t-6.5 28q0 15 6.5 28.5t17.5 24.5t25 17.5t28 6.5q15 0 28.5 -6.5t24.5 -17.5t17.5 -24.5t6.5 -28.5q0 -14 -6.5 -28t-17.5 -25
t-24.5 -17.5t-28.5 -6.5zM197 660q14 0 26 12t12 26t-12.5 26t-26.5 12q-15 0 -27 -12.5t-12 -26.5q0 -15 12 -27t26 -12z" />
    <glyph glyph-name="AE" unicode="&#xc6;" 
d="M0 539l154 154h231v-77h-154v-231h77v-77h-77v-231h154v-77h-231v231h-77v-231h-77v539zM154 308v276l-77 -77v-199h77z" />
    <glyph glyph-name="Ccedilla" unicode="&#xc7;" 
d="M0 541q0 29 13 56.5t35 49.5t49.5 35t56.5 13h77q29 0 56.5 -13t49.5 -35t35 -49.5t13 -56.5h-77q0 15 -6.5 28.5t-17.5 24.5t-24.5 17.5t-28.5 6.5h-77q-14 0 -28 -6.5t-25 -17.5t-17.5 -24.5t-6.5 -28.5v-385q0 -14 6.5 -28t17.5 -25t25 -17.5t28 -6.5h77
q15 0 28.5 6.5t24.5 17.5t17.5 25t6.5 28h77q0 -29 -13 -56.5t-35 -49.5t-49.5 -35t-56.5 -13v-39h19q22 0 40 -18t18 -40t-18 -40t-40 -18h-173v38h173q7 0 13 5.5t6 13.5q0 7 -5.5 13t-13.5 6h-96v77q-29 0 -56.5 13t-49.5 35t-35 49.5t-13 56.5v387z" />
    <glyph glyph-name="Egrave" unicode="&#xc8;" 
d="M0 539h385v-77h-308v-154h231v-77h-231v-154h308v-77h-385v539zM177 616l-100 100v54h54l100 -100v-54h-54z" />
    <glyph glyph-name="Eacute" unicode="&#xc9;" 
d="M0 539h385v-77h-308v-154h231v-77h-231v-154h308v-77h-385v539zM154 670l100 100h54v-54l-100 -100h-54v54z" />
    <glyph glyph-name="Ecircumflex" unicode="&#xca;" 
d="M0 539h385v-77h-308v-154h231v-77h-231v-154h308v-77h-385v539zM77 656l115 115l115 -116v-39h-70l-45 45l-45 -45h-70v40z" />
    <glyph glyph-name="Edieresis" unicode="&#xcb;" 
d="M0 539h385v-77h-308v-154h231v-77h-231v-154h308v-77h-385v539zM118 619q-15 0 -27 12t-12 26t12 26t26 12t26 -12.5t12 -26.5q0 -15 -12.5 -27t-26.5 -12zM274 622q-15 0 -27 12t-12 26t12 26t26 12t26 -12.5t12 -26.5q0 -15 -12.5 -27t-26.5 -12z" />
    <glyph glyph-name="Igrave" unicode="&#xcc;" 
d="M77 77h77v385h-77v77h231v-77h-77v-385h77v-77h-231v77zM177 616l-100 100v54h54l100 -100v-54h-54z" />
    <glyph glyph-name="Iacute" unicode="&#xcd;" 
d="M77 77h77v385h-77v77h231v-77h-77v-385h77v-77h-231v77zM154 670l100 100h54v-54l-100 -100h-54v54z" />
    <glyph glyph-name="Icircumflex" unicode="&#xce;" 
d="M77 77h77v385h-77v77h231v-77h-77v-385h77v-77h-231v77zM77 656l115 115l115 -116v-39h-70l-45 45l-45 -45h-70v40z" />
    <glyph glyph-name="Idieresis" unicode="&#xcf;" 
d="M77 77h77v385h-77v77h231v-77h-77v-385h77v-77h-231v77zM118 619q-15 0 -27 12t-12 26t12 26t26 12t26 -12.5t12 -26.5q0 -15 -12.5 -27t-26.5 -12zM274 622q-15 0 -27 12t-12 26t12 26t26 12t26 -12.5t12 -26.5q0 -15 -12.5 -27t-26.5 -12z" />
    <glyph glyph-name="Eth" unicode="&#xd0;" 
d="M0 77h77v231h-77v77h77v231h-77v77h231q29 0 56.5 -13t49.5 -35t35 -49.5t13 -56.5v-385q0 -29 -13 -56.5t-35 -49.5t-49.5 -35t-56.5 -13h-231v77zM231 77q15 0 28.5 6.5t24.5 17.5t17.5 25t6.5 28v385q0 15 -6.5 28.5t-17.5 24.5t-24.5 17.5t-28.5 6.5h-77v-231h77v-77
h-77v-231h77z" />
    <glyph glyph-name="Ntilde" unicode="&#xd1;" 
d="M0 539h77l231 -388v388h77v-539h-77l-231 388v-388h-77v539zM2 658q0 21 10 42t26 37t36.5 26t42.5 10q38 0 69 -23l62 -46q11 -8 23 -8q14 0 26 12t12 26v38h77v-39q0 -22 -10 -42.5t-26.5 -37t-37 -26.5t-42.5 -10q-38 0 -69 23l-62 46q-11 8 -23 8q-15 0 -27 -12.5
t-12 -26.5v-39h-77z" />
    <glyph glyph-name="Ograve" unicode="&#xd2;" 
d="M0 385q0 29 13 56.5t35 49.5t49.5 35t56.5 13h77q29 0 56.5 -13t49.5 -35t35 -49.5t13 -56.5v-231q0 -29 -13 -56.5t-35 -49.5t-49.5 -35t-56.5 -13h-77q-29 0 -56.5 13t-49.5 35t-35 49.5t-13 56.5v231zM231 77q15 0 28.5 6.5t24.5 17.5t17.5 25t6.5 28v231
q0 15 -6.5 28.5t-17.5 24.5t-24.5 17.5t-28.5 6.5h-77q-14 0 -28 -6.5t-25 -17.5t-17.5 -24.5t-6.5 -28.5v-231q0 -14 6.5 -28t17.5 -25t25 -17.5t28 -6.5h77zM177 616l-100 100v54h54l100 -100v-54h-54z" />
    <glyph glyph-name="Oacute" unicode="&#xd3;" 
d="M0 385q0 29 13 56.5t35 49.5t49.5 35t56.5 13h77q29 0 56.5 -13t49.5 -35t35 -49.5t13 -56.5v-231q0 -29 -13 -56.5t-35 -49.5t-49.5 -35t-56.5 -13h-77q-29 0 -56.5 13t-49.5 35t-35 49.5t-13 56.5v231zM231 77q15 0 28.5 6.5t24.5 17.5t17.5 25t6.5 28v231
q0 15 -6.5 28.5t-17.5 24.5t-24.5 17.5t-28.5 6.5h-77q-14 0 -28 -6.5t-25 -17.5t-17.5 -24.5t-6.5 -28.5v-231q0 -14 6.5 -28t17.5 -25t25 -17.5t28 -6.5h77zM154 670l100 100h54v-54l-100 -100h-54v54z" />
    <glyph glyph-name="Ocircumflex" unicode="&#xd4;" 
d="M0 385q0 29 13 56.5t35 49.5t49.5 35t56.5 13h77q29 0 56.5 -13t49.5 -35t35 -49.5t13 -56.5v-231q0 -29 -13 -56.5t-35 -49.5t-49.5 -35t-56.5 -13h-77q-29 0 -56.5 13t-49.5 35t-35 49.5t-13 56.5v231zM231 77q15 0 28.5 6.5t24.5 17.5t17.5 25t6.5 28v231
q0 15 -6.5 28.5t-17.5 24.5t-24.5 17.5t-28.5 6.5h-77q-14 0 -28 -6.5t-25 -17.5t-17.5 -24.5t-6.5 -28.5v-231q0 -14 6.5 -28t17.5 -25t25 -17.5t28 -6.5h77zM77 656l115 115l115 -116v-39h-70l-45 45l-45 -45h-70v40z" />
    <glyph glyph-name="Otilde" unicode="&#xd5;" 
d="M0 385q0 29 13 56.5t35 49.5t49.5 35t56.5 13h77q29 0 56.5 -13t49.5 -35t35 -49.5t13 -56.5v-231q0 -29 -13 -56.5t-35 -49.5t-49.5 -35t-56.5 -13h-77q-29 0 -56.5 13t-49.5 35t-35 49.5t-13 56.5v231zM231 77q15 0 28.5 6.5t24.5 17.5t17.5 25t6.5 28v231
q0 15 -6.5 28.5t-17.5 24.5t-24.5 17.5t-28.5 6.5h-77q-14 0 -28 -6.5t-25 -17.5t-17.5 -24.5t-6.5 -28.5v-231q0 -14 6.5 -28t17.5 -25t25 -17.5t28 -6.5h77zM2 658q0 21 10 42t26 37t36.5 26t42.5 10q38 0 69 -23l62 -46q11 -8 23 -8q14 0 26 12t12 26v38h77v-39
q0 -22 -10 -42.5t-26.5 -37t-37 -26.5t-42.5 -10q-38 0 -69 23l-62 46q-11 8 -23 8q-15 0 -27 -12.5t-12 -26.5v-39h-77z" />
    <glyph glyph-name="Odieresis" unicode="&#xd6;" 
d="M0 385q0 29 13 56.5t35 49.5t49.5 35t56.5 13h77q29 0 56.5 -13t49.5 -35t35 -49.5t13 -56.5v-231q0 -29 -13 -56.5t-35 -49.5t-49.5 -35t-56.5 -13h-77q-29 0 -56.5 13t-49.5 35t-35 49.5t-13 56.5v231zM231 77q15 0 28.5 6.5t24.5 17.5t17.5 25t6.5 28v231
q0 15 -6.5 28.5t-17.5 24.5t-24.5 17.5t-28.5 6.5h-77q-14 0 -28 -6.5t-25 -17.5t-17.5 -24.5t-6.5 -28.5v-231q0 -14 6.5 -28t17.5 -25t25 -17.5t28 -6.5h77zM118 619q-15 0 -27 12t-12 26t12 26t26 12t26 -12.5t12 -26.5q0 -15 -12.5 -27t-26.5 -12zM274 622q-15 0 -27 12
t-12 26t12 26t26 12t26 -12.5t12 -26.5q0 -15 -12.5 -27t-26.5 -12z" />
    <glyph glyph-name="multiply" unicode="&#xd7;" 
d="M0 131l138 138l-138 138l54 54l138 -138l138 138l54 -54l-138 -138l138 -138l-54 -54l-138 138l-138 -138z" />
    <glyph glyph-name="Oslash" unicode="&#xd8;" 
d="M0 539q0 29 13 56.5t35 49.5t49.5 35t56.5 13h77q17 0 37 -5l29 82h88l-43 -124q20 -21 31.5 -49t11.5 -58v-385q0 -29 -13 -56.5t-35 -49.5t-49.5 -35t-56.5 -13h-77q-17 0 -37 5l-29 -82h-88l43 124q-20 21 -31.5 49t-11.5 58v385zM77 154q0 -3 0.5 -5.5t0.5 -4.5
l165 471q-4 1 -12 1h-77q-14 0 -28 -6.5t-25 -17.5t-17.5 -24.5t-6.5 -28.5v-385zM308 539q0 3 -0.5 5.5t-0.5 4.5l-165 -471q4 -1 12 -1h77q15 0 28.5 6.5t24.5 17.5t17.5 25t6.5 28v385z" />
    <glyph glyph-name="Ugrave" unicode="&#xd9;" 
d="M0 539h77v-385q0 -14 6.5 -28t17.5 -25t25 -17.5t28 -6.5h77q15 0 28.5 6.5t24.5 17.5t17.5 25t6.5 28v385h77v-385q0 -29 -13 -56.5t-35 -49.5t-49.5 -35t-56.5 -13h-77q-29 0 -56.5 13t-49.5 35t-35 49.5t-13 56.5v385zM177 616l-100 100v54h54l100 -100v-54h-54z" />
    <glyph glyph-name="Uacute" unicode="&#xda;" 
d="M0 539h77v-385q0 -14 6.5 -28t17.5 -25t25 -17.5t28 -6.5h77q15 0 28.5 6.5t24.5 17.5t17.5 25t6.5 28v385h77v-385q0 -29 -13 -56.5t-35 -49.5t-49.5 -35t-56.5 -13h-77q-29 0 -56.5 13t-49.5 35t-35 49.5t-13 56.5v385zM154 670l100 100h54v-54l-100 -100h-54v54z" />
    <glyph glyph-name="Ucircumflex" unicode="&#xdb;" 
d="M0 539h77v-385q0 -14 6.5 -28t17.5 -25t25 -17.5t28 -6.5h77q15 0 28.5 6.5t24.5 17.5t17.5 25t6.5 28v385h77v-385q0 -29 -13 -56.5t-35 -49.5t-49.5 -35t-56.5 -13h-77q-29 0 -56.5 13t-49.5 35t-35 49.5t-13 56.5v385zM77 656l115 115l115 -116v-39h-70l-45 45
l-45 -45h-70v40z" />
    <glyph glyph-name="Udieresis" unicode="&#xdc;" 
d="M0 539h77v-385q0 -14 6.5 -28t17.5 -25t25 -17.5t28 -6.5h77q15 0 28.5 6.5t24.5 17.5t17.5 25t6.5 28v385h77v-385q0 -29 -13 -56.5t-35 -49.5t-49.5 -35t-56.5 -13h-77q-29 0 -56.5 13t-49.5 35t-35 49.5t-13 56.5v385zM118 619q-15 0 -27 12t-12 26t12 26t26 12
t26 -12.5t12 -26.5q0 -15 -12.5 -27t-26.5 -12zM274 622q-15 0 -27 12t-12 26t12 26t26 12t26 -12.5t12 -26.5q0 -15 -12.5 -27t-26.5 -12z" />
    <glyph glyph-name="Yacute" unicode="&#xdd;" 
d="M153 308l-154 231h93l100 -150l100 150h93l-154 -231v-308h-77zM153 670l100 100h54v-54l-100 -100h-54v54z" />
    <glyph glyph-name="Thorn" unicode="&#xde;" 
d="M0 693h77v-77h154q29 0 56.5 -13t49.5 -35t35 -49.5t13 -56.5v-77q0 -29 -13 -56.5t-35 -49.5t-49.5 -35t-56.5 -13h-154v-231h-77v693zM231 308q15 0 28.5 6.5t24.5 17.5t17.5 25t6.5 28v77q0 15 -6.5 28.5t-17.5 24.5t-24.5 17.5t-28.5 6.5h-154v-231h154z" />
    <glyph glyph-name="germandbls" unicode="&#xdf;" 
d="M0 539q0 29 13 56.5t35 49.5t49.5 35t56.5 13t56.5 -13t49.5 -35t35 -49.5t13 -56.5q0 -12 -3.5 -24t-11.5 -22l-46 -62q-15 -20 -15 -46q0 -18 8.5 -34.5t22.5 -27.5l62 -46q29 -21 45.5 -54t16.5 -69q0 -29 -13 -56.5t-35 -49.5t-49.5 -35t-56.5 -13h-77v77h77
q15 0 28.5 6.5t24.5 17.5t17.5 25t6.5 28q0 18 -8.5 34.5t-22.5 27.5l-62 46q-29 21 -45.5 54t-16.5 69q0 26 15 46l46 62q15 19 15 46q0 15 -6.5 28.5t-17.5 24.5t-24.5 17.5t-28.5 6.5q-14 0 -28 -6.5t-25 -17.5t-17.5 -24.5t-6.5 -28.5v-539h-77v539z" />
    <glyph glyph-name="agrave" unicode="&#xe0;" 
d="M154 0q-29 0 -56.5 13t-49.5 35t-35 49.5t-13 56.5t13 56.5t35 49.5t49.5 35t56.5 13h154q0 15 -6.5 28.5t-17.5 24.5t-24.5 17.5t-28.5 6.5h-154v77h154q29 0 56.5 -13t49.5 -35t35 -49.5t13 -56.5v-308h-231zM308 231h-154q-14 0 -28 -6.5t-25 -17.5t-17.5 -24.5
t-6.5 -28.5q0 -14 6.5 -28t17.5 -25t25 -17.5t28 -6.5h154v154zM177 539l-100 100v54h54l100 -100v-54h-54z" />
    <glyph glyph-name="aacute" unicode="&#xe1;" 
d="M154 0q-29 0 -56.5 13t-49.5 35t-35 49.5t-13 56.5t13 56.5t35 49.5t49.5 35t56.5 13h154q0 15 -6.5 28.5t-17.5 24.5t-24.5 17.5t-28.5 6.5h-154v77h154q29 0 56.5 -13t49.5 -35t35 -49.5t13 -56.5v-308h-231zM308 231h-154q-14 0 -28 -6.5t-25 -17.5t-17.5 -24.5
t-6.5 -28.5q0 -14 6.5 -28t17.5 -25t25 -17.5t28 -6.5h154v154zM154 593l100 100h54v-54l-100 -100h-54v54z" />
    <glyph glyph-name="acircumflex" unicode="&#xe2;" 
d="M154 0q-29 0 -56.5 13t-49.5 35t-35 49.5t-13 56.5t13 56.5t35 49.5t49.5 35t56.5 13h154q0 15 -6.5 28.5t-17.5 24.5t-24.5 17.5t-28.5 6.5h-154v77h154q29 0 56.5 -13t49.5 -35t35 -49.5t13 -56.5v-308h-231zM308 231h-154q-14 0 -28 -6.5t-25 -17.5t-17.5 -24.5
t-6.5 -28.5q0 -14 6.5 -28t17.5 -25t25 -17.5t28 -6.5h154v154zM77 579l115 115l115 -116v-39h-70l-45 45l-45 -45h-70v40z" />
    <glyph glyph-name="atilde" unicode="&#xe3;" 
d="M154 0q-29 0 -56.5 13t-49.5 35t-35 49.5t-13 56.5t13 56.5t35 49.5t49.5 35t56.5 13h154q0 15 -6.5 28.5t-17.5 24.5t-24.5 17.5t-28.5 6.5h-154v77h154q29 0 56.5 -13t49.5 -35t35 -49.5t13 -56.5v-308h-231zM308 231h-154q-14 0 -28 -6.5t-25 -17.5t-17.5 -24.5
t-6.5 -28.5q0 -14 6.5 -28t17.5 -25t25 -17.5t28 -6.5h154v154zM2 581q0 21 10 42t26 37t36.5 26t42.5 10q38 0 69 -23l62 -46q11 -8 23 -8q14 0 26 12t12 26v38h77v-39q0 -22 -10 -42.5t-26.5 -37t-37 -26.5t-42.5 -10q-38 0 -69 23l-62 46q-11 8 -23 8q-15 0 -27 -12.5
t-12 -26.5v-39h-77z" />
    <glyph glyph-name="adieresis" unicode="&#xe4;" 
d="M154 0q-29 0 -56.5 13t-49.5 35t-35 49.5t-13 56.5t13 56.5t35 49.5t49.5 35t56.5 13h154q0 15 -6.5 28.5t-17.5 24.5t-24.5 17.5t-28.5 6.5h-154v77h154q29 0 56.5 -13t49.5 -35t35 -49.5t13 -56.5v-308h-231zM308 231h-154q-14 0 -28 -6.5t-25 -17.5t-17.5 -24.5
t-6.5 -28.5q0 -14 6.5 -28t17.5 -25t25 -17.5t28 -6.5h154v154zM118 542q-15 0 -27 12t-12 26t12 26t26 12t26 -12.5t12 -26.5q0 -15 -12.5 -27t-26.5 -12zM274 545q-15 0 -27 12t-12 26t12 26t26 12t26 -12.5t12 -26.5q0 -15 -12.5 -27t-26.5 -12z" />
    <glyph glyph-name="aring" unicode="&#xe5;" 
d="M154 0q-29 0 -56.5 13t-49.5 35t-35 49.5t-13 56.5t13 56.5t35 49.5t49.5 35t56.5 13h154q0 15 -6.5 28.5t-17.5 24.5t-24.5 17.5t-28.5 6.5h-154v77h154q29 0 56.5 -13t49.5 -35t35 -49.5t13 -56.5v-308h-231zM308 231h-154q-14 0 -28 -6.5t-25 -17.5t-17.5 -24.5
t-6.5 -28.5q0 -14 6.5 -28t17.5 -25t25 -17.5t28 -6.5h154v154zM193 539q-14 0 -28 6.5t-25 17.5t-17.5 25t-6.5 28q0 15 6.5 28.5t17.5 24.5t25 17.5t28 6.5q15 0 28.5 -6.5t24.5 -17.5t17.5 -24.5t6.5 -28.5q0 -14 -6.5 -28t-17.5 -25t-24.5 -17.5t-28.5 -6.5zM195 580
q14 0 26 12t12 26t-12.5 26t-26.5 12q-15 0 -27 -12.5t-12 -26.5q0 -15 12 -27t26 -12z" />
    <glyph glyph-name="ae" unicode="&#xe6;" 
d="M5 198q0 21 10 42t26 37t36.5 26t42.5 10h38v77h-77v77h192q21 0 42 -10t37 -26.5t26 -37t10 -42.5t-10 -42.5t-26.5 -37t-37 -26.5t-42.5 -10h-39v-116q0 -15 12 -27t26 -12t26 12t12 26v38h77v-39q0 -22 -10 -42.5t-26.5 -37t-37 -26.5t-42.5 -10q-21 0 -41 7.5
t-36 21.5q-16 -14 -36 -21.5t-41 -7.5q-22 0 -42.5 10t-37 26t-26.5 36.5t-10 42.5zM161 84v154h-39q-15 0 -27 -12.5t-12 -26.5v-77q0 -15 12 -27t26 -12zM279 316q14 0 26 12t12 26t-12.5 26t-26.5 12h-39v-77z" />
    <glyph glyph-name="ccedilla" unicode="&#xe7;" 
d="M0 310q0 29 13 56.5t35 49.5t49.5 35t56.5 13h77q29 0 56.5 -13t49.5 -35t35 -49.5t13 -56.5h-77q0 15 -6.5 28.5t-17.5 24.5t-24.5 17.5t-28.5 6.5h-77q-14 0 -28 -6.5t-25 -17.5t-17.5 -24.5t-6.5 -28.5v-154q0 -14 6.5 -28t17.5 -25t25 -17.5t28 -6.5h77
q15 0 28.5 6.5t24.5 17.5t17.5 25t6.5 28h77q0 -29 -13 -56.5t-35 -49.5t-49.5 -35t-56.5 -13v-39h19q22 0 40 -18t18 -40t-18 -40t-40 -18h-173v38h173q7 0 13 5.5t6 13.5q0 7 -5.5 13t-13.5 6h-96v77q-29 0 -56.5 13t-49.5 35t-35 49.5t-13 56.5v156z" />
    <glyph glyph-name="egrave" unicode="&#xe8;" 
d="M154 0q-29 0 -56.5 13t-49.5 35t-35 49.5t-13 56.5v154q0 29 13 56.5t35 49.5t49.5 35t56.5 13h77q29 0 56.5 -13t49.5 -35t35 -49.5t13 -56.5v-77h-308v-77q0 -14 6.5 -28t17.5 -25t25 -17.5t28 -6.5h77q15 0 28.5 6.5t24.5 17.5t17.5 25t6.5 28h77q0 -29 -13 -56.5
t-35 -49.5t-49.5 -35t-56.5 -13h-77zM308 308q0 15 -6.5 28.5t-17.5 24.5t-24.5 17.5t-28.5 6.5h-77q-14 0 -28 -6.5t-25 -17.5t-17.5 -24.5t-6.5 -28.5h231zM177 539l-100 100v54h54l100 -100v-54h-54z" />
    <glyph glyph-name="eacute" unicode="&#xe9;" 
d="M154 0q-29 0 -56.5 13t-49.5 35t-35 49.5t-13 56.5v154q0 29 13 56.5t35 49.5t49.5 35t56.5 13h77q29 0 56.5 -13t49.5 -35t35 -49.5t13 -56.5v-77h-308v-77q0 -14 6.5 -28t17.5 -25t25 -17.5t28 -6.5h77q15 0 28.5 6.5t24.5 17.5t17.5 25t6.5 28h77q0 -29 -13 -56.5
t-35 -49.5t-49.5 -35t-56.5 -13h-77zM308 308q0 15 -6.5 28.5t-17.5 24.5t-24.5 17.5t-28.5 6.5h-77q-14 0 -28 -6.5t-25 -17.5t-17.5 -24.5t-6.5 -28.5h231zM154 593l100 100h54v-54l-100 -100h-54v54z" />
    <glyph glyph-name="ecircumflex" unicode="&#xea;" 
d="M154 0q-29 0 -56.5 13t-49.5 35t-35 49.5t-13 56.5v154q0 29 13 56.5t35 49.5t49.5 35t56.5 13h77q29 0 56.5 -13t49.5 -35t35 -49.5t13 -56.5v-77h-308v-77q0 -14 6.5 -28t17.5 -25t25 -17.5t28 -6.5h77q15 0 28.5 6.5t24.5 17.5t17.5 25t6.5 28h77q0 -29 -13 -56.5
t-35 -49.5t-49.5 -35t-56.5 -13h-77zM308 308q0 15 -6.5 28.5t-17.5 24.5t-24.5 17.5t-28.5 6.5h-77q-14 0 -28 -6.5t-25 -17.5t-17.5 -24.5t-6.5 -28.5h231zM77 579l115 115l115 -116v-39h-70l-45 45l-45 -45h-70v40z" />
    <glyph glyph-name="edieresis" unicode="&#xeb;" 
d="M154 0q-29 0 -56.5 13t-49.5 35t-35 49.5t-13 56.5v154q0 29 13 56.5t35 49.5t49.5 35t56.5 13h77q29 0 56.5 -13t49.5 -35t35 -49.5t13 -56.5v-77h-308v-77q0 -14 6.5 -28t17.5 -25t25 -17.5t28 -6.5h77q15 0 28.5 6.5t24.5 17.5t17.5 25t6.5 28h77q0 -29 -13 -56.5
t-35 -49.5t-49.5 -35t-56.5 -13h-77zM308 308q0 15 -6.5 28.5t-17.5 24.5t-24.5 17.5t-28.5 6.5h-77q-14 0 -28 -6.5t-25 -17.5t-17.5 -24.5t-6.5 -28.5h231zM118 542q-15 0 -27 12t-12 26t12 26t26 12t26 -12.5t12 -26.5q0 -15 -12.5 -27t-26.5 -12zM274 545q-15 0 -27 12
t-12 26t12 26t26 12t26 -12.5t12 -26.5q0 -15 -12.5 -27t-26.5 -12z" />
    <glyph glyph-name="igrave" unicode="&#xec;" 
d="M77 77h77v308h-77v77h154v-385h77v-77h-231v77zM177 539l-100 100v54h54l100 -100v-54h-54z" />
    <glyph glyph-name="iacute" unicode="&#xed;" 
d="M77 77h77v308h-77v77h154v-385h77v-77h-231v77zM154 593l100 100h54v-54l-100 -100h-54v54z" />
    <glyph glyph-name="icircumflex" unicode="&#xee;" 
d="M77 77h77v308h-77v77h154v-385h77v-77h-231v77zM77 579l115 115l115 -116v-39h-70l-45 45l-45 -45h-70v40z" />
    <glyph glyph-name="idieresis" unicode="&#xef;" 
d="M77 77h77v308h-77v77h154v-385h77v-77h-231v77zM118 542q-15 0 -27 12t-12 26t12 26t26 12t26 -12.5t12 -26.5q0 -15 -12.5 -27t-26.5 -12zM274 545q-15 0 -27 12t-12 26t12 26t26 12t26 -12.5t12 -26.5q0 -15 -12.5 -27t-26.5 -12z" />
    <glyph glyph-name="eth" unicode="&#xf0;" 
d="M0 307q0 29 13 56.5t35 49.5t49.5 35t56.5 13h84l-66 127l-68 -36l-36 68l68 36l-59 113h87l40 -77l68 36l36 -68l-68 -36l128 -245q17 -34 17 -71v-154q0 -29 -13 -56.5t-35 -49.5t-49.5 -35t-56.5 -13h-77q-29 0 -56.5 13t-49.5 35t-35 49.5t-13 56.5v153zM231 76
q15 0 28.5 6.5t24.5 17.5t17.5 25t6.5 28v154q0 15 -6.5 28.5t-17.5 24.5t-24.5 17.5t-28.5 6.5h-77q-14 0 -28 -6.5t-25 -17.5t-17.5 -24.5t-6.5 -28.5v-154q0 -14 6.5 -28t17.5 -25t25 -17.5t28 -6.5h77z" />
    <glyph glyph-name="ntilde" unicode="&#xf1;" 
d="M0 462h77v-21q34 21 77 21h77q29 0 56.5 -13t49.5 -35t35 -49.5t13 -56.5v-308h-77v308q0 15 -6.5 28.5t-17.5 24.5t-24.5 17.5t-28.5 6.5h-77q-14 0 -28 -6.5t-25 -17.5t-17.5 -24.5t-6.5 -28.5v-308h-77v462zM2 581q0 21 10 42t26 37t36.5 26t42.5 10q38 0 69 -23
l62 -46q11 -8 23 -8q14 0 26 12t12 26v38h77v-39q0 -22 -10 -42.5t-26.5 -37t-37 -26.5t-42.5 -10q-38 0 -69 23l-62 46q-11 8 -23 8q-15 0 -27 -12.5t-12 -26.5v-39h-77z" />
    <glyph glyph-name="ograve" unicode="&#xf2;" 
d="M0 308q0 29 13 56.5t35 49.5t49.5 35t56.5 13h77q29 0 56.5 -13t49.5 -35t35 -49.5t13 -56.5v-154q0 -29 -13 -56.5t-35 -49.5t-49.5 -35t-56.5 -13h-77q-29 0 -56.5 13t-49.5 35t-35 49.5t-13 56.5v154zM231 77q15 0 28.5 6.5t24.5 17.5t17.5 25t6.5 28v154
q0 15 -6.5 28.5t-17.5 24.5t-24.5 17.5t-28.5 6.5h-77q-14 0 -28 -6.5t-25 -17.5t-17.5 -24.5t-6.5 -28.5v-154q0 -14 6.5 -28t17.5 -25t25 -17.5t28 -6.5h77zM177 539l-100 100v54h54l100 -100v-54h-54z" />
    <glyph glyph-name="oacute" unicode="&#xf3;" 
d="M0 308q0 29 13 56.5t35 49.5t49.5 35t56.5 13h77q29 0 56.5 -13t49.5 -35t35 -49.5t13 -56.5v-154q0 -29 -13 -56.5t-35 -49.5t-49.5 -35t-56.5 -13h-77q-29 0 -56.5 13t-49.5 35t-35 49.5t-13 56.5v154zM231 77q15 0 28.5 6.5t24.5 17.5t17.5 25t6.5 28v154
q0 15 -6.5 28.5t-17.5 24.5t-24.5 17.5t-28.5 6.5h-77q-14 0 -28 -6.5t-25 -17.5t-17.5 -24.5t-6.5 -28.5v-154q0 -14 6.5 -28t17.5 -25t25 -17.5t28 -6.5h77zM154 593l100 100h54v-54l-100 -100h-54v54z" />
    <glyph glyph-name="ocircumflex" unicode="&#xf4;" 
d="M0 308q0 29 13 56.5t35 49.5t49.5 35t56.5 13h77q29 0 56.5 -13t49.5 -35t35 -49.5t13 -56.5v-154q0 -29 -13 -56.5t-35 -49.5t-49.5 -35t-56.5 -13h-77q-29 0 -56.5 13t-49.5 35t-35 49.5t-13 56.5v154zM231 77q15 0 28.5 6.5t24.5 17.5t17.5 25t6.5 28v154
q0 15 -6.5 28.5t-17.5 24.5t-24.5 17.5t-28.5 6.5h-77q-14 0 -28 -6.5t-25 -17.5t-17.5 -24.5t-6.5 -28.5v-154q0 -14 6.5 -28t17.5 -25t25 -17.5t28 -6.5h77zM77 579l115 115l115 -116v-39h-70l-45 45l-45 -45h-70v40z" />
    <glyph glyph-name="otilde" unicode="&#xf5;" 
d="M0 308q0 29 13 56.5t35 49.5t49.5 35t56.5 13h77q29 0 56.5 -13t49.5 -35t35 -49.5t13 -56.5v-154q0 -29 -13 -56.5t-35 -49.5t-49.5 -35t-56.5 -13h-77q-29 0 -56.5 13t-49.5 35t-35 49.5t-13 56.5v154zM231 77q15 0 28.5 6.5t24.5 17.5t17.5 25t6.5 28v154
q0 15 -6.5 28.5t-17.5 24.5t-24.5 17.5t-28.5 6.5h-77q-14 0 -28 -6.5t-25 -17.5t-17.5 -24.5t-6.5 -28.5v-154q0 -14 6.5 -28t17.5 -25t25 -17.5t28 -6.5h77zM2 581q0 21 10 42t26 37t36.5 26t42.5 10q38 0 69 -23l62 -46q11 -8 23 -8q14 0 26 12t12 26v38h77v-39
q0 -22 -10 -42.5t-26.5 -37t-37 -26.5t-42.5 -10q-38 0 -69 23l-62 46q-11 8 -23 8q-15 0 -27 -12.5t-12 -26.5v-39h-77z" />
    <glyph glyph-name="odieresis" unicode="&#xf6;" 
d="M0 308q0 29 13 56.5t35 49.5t49.5 35t56.5 13h77q29 0 56.5 -13t49.5 -35t35 -49.5t13 -56.5v-154q0 -29 -13 -56.5t-35 -49.5t-49.5 -35t-56.5 -13h-77q-29 0 -56.5 13t-49.5 35t-35 49.5t-13 56.5v154zM231 77q15 0 28.5 6.5t24.5 17.5t17.5 25t6.5 28v154
q0 15 -6.5 28.5t-17.5 24.5t-24.5 17.5t-28.5 6.5h-77q-14 0 -28 -6.5t-25 -17.5t-17.5 -24.5t-6.5 -28.5v-154q0 -14 6.5 -28t17.5 -25t25 -17.5t28 -6.5h77zM118 542q-15 0 -27 12t-12 26t12 26t26 12t26 -12.5t12 -26.5q0 -15 -12.5 -27t-26.5 -12zM274 545q-15 0 -27 12
t-12 26t12 26t26 12t26 -12.5t12 -26.5q0 -15 -12.5 -27t-26.5 -12z" />
    <glyph glyph-name="divide" unicode="&#xf7;" 
d="M0 385h385v-77h-385v77zM195 118q-15 0 -27 12t-12 26t12 26t26 12t26 -12.5t12 -26.5q0 -15 -12.5 -27t-26.5 -12zM197 506q-15 0 -27 12t-12 26t12 26t26 12t26 -12.5t12 -26.5q0 -15 -12.5 -27t-26.5 -12z" />
    <glyph glyph-name="oslash" unicode="&#xf8;" 
d="M0 308q0 29 13 56.5t35 49.5t49.5 35t56.5 13h77q15 0 30 -3l39 80h86l-55 -113q26 -22 40.5 -53t14.5 -65v-154q0 -29 -13 -56.5t-35 -49.5t-49.5 -35t-56.5 -13h-77q-15 0 -30 3l-39 -80h-86l55 113q-26 22 -40.5 53t-14.5 65v154zM77 154q0 -24 14 -44l134 275h-71
q-14 0 -28 -6.5t-25 -17.5t-17.5 -24.5t-6.5 -28.5v-154zM308 308q0 24 -14 44l-134 -275h71q15 0 28.5 6.5t24.5 17.5t17.5 25t6.5 28v154z" />
    <glyph glyph-name="ugrave" unicode="&#xf9;" 
d="M0 462h77v-308q0 -14 6.5 -28t17.5 -25t25 -17.5t28 -6.5h77q15 0 28.5 6.5t24.5 17.5t17.5 25t6.5 28v308h77v-462h-77v21q-35 -21 -77 -21h-77q-29 0 -56.5 13t-49.5 35t-35 49.5t-13 56.5v308zM177 539l-100 100v54h54l100 -100v-54h-54z" />
    <glyph glyph-name="uacute" unicode="&#xfa;" 
d="M0 462h77v-308q0 -14 6.5 -28t17.5 -25t25 -17.5t28 -6.5h77q15 0 28.5 6.5t24.5 17.5t17.5 25t6.5 28v308h77v-462h-77v21q-35 -21 -77 -21h-77q-29 0 -56.5 13t-49.5 35t-35 49.5t-13 56.5v308zM154 593l100 100h54v-54l-100 -100h-54v54z" />
    <glyph glyph-name="ucircumflex" unicode="&#xfb;" 
d="M0 462h77v-308q0 -14 6.5 -28t17.5 -25t25 -17.5t28 -6.5h77q15 0 28.5 6.5t24.5 17.5t17.5 25t6.5 28v308h77v-462h-77v21q-35 -21 -77 -21h-77q-29 0 -56.5 13t-49.5 35t-35 49.5t-13 56.5v308zM77 579l115 115l115 -116v-39h-70l-45 45l-45 -45h-70v40z" />
    <glyph glyph-name="udieresis" unicode="&#xfc;" 
d="M0 462h77v-308q0 -14 6.5 -28t17.5 -25t25 -17.5t28 -6.5h77q15 0 28.5 6.5t24.5 17.5t17.5 25t6.5 28v308h77v-462h-77v21q-35 -21 -77 -21h-77q-29 0 -56.5 13t-49.5 35t-35 49.5t-13 56.5v308zM118 542q-15 0 -27 12t-12 26t12 26t26 12t26 -12.5t12 -26.5
q0 -15 -12.5 -27t-26.5 -12zM274 545q-15 0 -27 12t-12 26t12 26t26 12t26 -12.5t12 -26.5q0 -15 -12.5 -27t-26.5 -12z" />
    <glyph glyph-name="yacute" unicode="&#xfd;" 
d="M77 0q0 -14 6.5 -28t17.5 -25t25 -17.5t28 -6.5h77q15 0 28.5 6.5t24.5 17.5t17.5 25t6.5 28v98q-35 -21 -77 -21h-77q-29 0 -56.5 13t-49.5 35t-35 49.5t-13 56.5v231h77v-231q0 -14 6.5 -28t17.5 -25t25 -17.5t28 -6.5h77q15 0 28.5 6.5t24.5 17.5t17.5 25t6.5 28v231
h77v-462q0 -29 -13 -56.5t-35 -49.5t-49.5 -35t-56.5 -13h-77q-29 0 -56.5 13t-49.5 35t-35 49.5t-13 56.5h77zM154 593l100 100h54v-54l-100 -100h-54v54z" />
    <glyph glyph-name="thorn" unicode="&#xfe;" 
d="M0 616h77v-244l45 45q22 21 50.5 33t58.5 12q29 0 56.5 -13t49.5 -35t35 -49.5t13 -56.5v-154q0 -29 -13 -56.5t-35 -49.5t-49.5 -35t-56.5 -13q-30 0 -58.5 11.5t-50.5 33.5l-45 45v-244h-77v770zM177 101q11 -11 25 -17t29 -6t28.5 6.5t24.5 17.5t17.5 25t6.5 28v154
q0 15 -6.5 28.5t-17.5 24.5t-24.5 17.5t-28.5 6.5q-31 0 -54 -23l-100 -100v-64z" />
    <glyph glyph-name="ydieresis" unicode="&#xff;" 
d="M77 0q0 -14 6.5 -28t17.5 -25t25 -17.5t28 -6.5h77q15 0 28.5 6.5t24.5 17.5t17.5 25t6.5 28v98q-35 -21 -77 -21h-77q-29 0 -56.5 13t-49.5 35t-35 49.5t-13 56.5v231h77v-231q0 -14 6.5 -28t17.5 -25t25 -17.5t28 -6.5h77q15 0 28.5 6.5t24.5 17.5t17.5 25t6.5 28v231
h77v-462q0 -29 -13 -56.5t-35 -49.5t-49.5 -35t-56.5 -13h-77q-29 0 -56.5 13t-49.5 35t-35 49.5t-13 56.5h77zM118 542q-15 0 -27 12t-12 26t12 26t26 12t26 -12.5t12 -26.5q0 -15 -12.5 -27t-26.5 -12zM274 545q-15 0 -27 12t-12 26t12 26t26 12t26 -12.5t12 -26.5
q0 -15 -12.5 -27t-26.5 -12z" />
    <glyph glyph-name="Alpha" unicode="&#x391;" 
d="M1 495l192 192l192 -193v-494h-77v231h-231v-231h-77zM310 310v154l-116 115l-116 -116v-154z" />
    <glyph glyph-name="Beta" unicode="&#x392;" 
d="M0 694h231q29 0 56.5 -13t49.5 -35t35 -49.5t13 -56.5v-77q0 -29 -1 -45t-5.5 -27t-15.5 -20t-30 -24q19 -15 30 -24t15.5 -20t5.5 -27t1 -45v-77q0 -29 -13 -56.5t-35 -49.5t-49.5 -35t-56.5 -13h-231v694zM231 78q15 0 28.5 6.5t24.5 17.5t17.5 25t6.5 28v77
q0 15 -6.5 28.5t-17.5 24.5t-24.5 17.5t-28.5 6.5h-154v-231h154zM231 386q15 0 28.5 6.5t24.5 17.5t17.5 25t6.5 28v77q0 15 -6.5 28.5t-17.5 24.5t-24.5 17.5t-28.5 6.5h-154v-231h154z" />
    <glyph glyph-name="Gamma" unicode="&#x393;" 
d="M0 693h385v-77h-308v-616h-77v693z" />
    <glyph glyph-name="Epsilon" unicode="&#x395;" 
d="M0 693h385v-77h-308v-231h231v-77h-231v-231h308v-77h-385v693z" />
    <glyph glyph-name="Zeta" unicode="&#x396;" 
d="M0 77l308 539h-308v77h385v-77l-308 -539h308v-77h-385v77z" />
    <glyph glyph-name="Eta" unicode="&#x397;" 
d="M0 693h77v-308h231v308h77v-693h-77v308h-231v-308h-77v693z" />
    <glyph glyph-name="Theta" unicode="&#x398;" 
d="M0 539q0 29 13 56.5t35 49.5t49.5 35t56.5 13h77q29 0 56.5 -13t49.5 -35t35 -49.5t13 -56.5v-385q0 -29 -13 -56.5t-35 -49.5t-49.5 -35t-56.5 -13h-77q-29 0 -56.5 13t-49.5 35t-35 49.5t-13 56.5v385zM231 77q15 0 28.5 6.5t24.5 17.5t17.5 25t6.5 28v154h-231v-154
q0 -14 6.5 -28t17.5 -25t25 -17.5t28 -6.5h77zM308 385v154q0 15 -6.5 28.5t-17.5 24.5t-24.5 17.5t-28.5 6.5h-77q-14 0 -28 -6.5t-25 -17.5t-17.5 -24.5t-6.5 -28.5v-154h231z" />
    <glyph glyph-name="Iota" unicode="&#x399;" 
d="M77 77h77v539h-77v77h231v-77h-77v-539h77v-77h-231v77z" />
    <glyph glyph-name="Kappa" unicode="&#x39a;" 
d="M0 694h77v-308l231 231v77h77v-116l-231 -231l231 -231v-116h-77v77l-231 231v-308h-77v694z" />
    <glyph glyph-name="Lambda" unicode="&#x39b;" 
d="M194 693l192 -693h-80l-113 405l-113 -405h-80z" />
    <glyph glyph-name="Mu" unicode="&#x39c;" 
d="M2 694h96l96 -193l96 192h96v-693h-77v539l-116 -231l-116 231v-539h-77z" />
    <glyph glyph-name="Nu" unicode="&#x39d;" 
d="M0 695h77l231 -501v500h77v-693h-77l-231 500v-501h-77v695z" />
    <glyph glyph-name="Xi" unicode="&#x39e;" 
d="M0 154h77v-77h231v77h77v-154h-385v154zM77 385h231v-77h-231v77zM0 693h385v-154h-77v77h-231v-77h-77v154z" />
    <glyph glyph-name="Omicron" unicode="&#x39f;" 
d="M0 539q0 29 13 56.5t35 49.5t49.5 35t56.5 13h77q29 0 56.5 -13t49.5 -35t35 -49.5t13 -56.5v-385q0 -29 -13 -56.5t-35 -49.5t-49.5 -35t-56.5 -13h-77q-29 0 -56.5 13t-49.5 35t-35 49.5t-13 56.5v385zM231 77q15 0 28.5 6.5t24.5 17.5t17.5 25t6.5 28v385
q0 15 -6.5 28.5t-17.5 24.5t-24.5 17.5t-28.5 6.5h-77q-14 0 -28 -6.5t-25 -17.5t-17.5 -24.5t-6.5 -28.5v-385q0 -14 6.5 -28t17.5 -25t25 -17.5t28 -6.5h77z" />
    <glyph glyph-name="Pi" unicode="&#x3a0;" 
d="M0 693h385v-693h-77v616h-231v-616h-77v693z" />
    <glyph glyph-name="Rho" unicode="&#x3a1;" 
d="M0 693h231q29 0 56.5 -13t49.5 -35t35 -49.5t13 -56.5v-77q0 -29 -13 -56.5t-35 -49.5t-49.5 -35t-56.5 -13h-154v-308h-77v693zM231 385q15 0 28.5 6.5t24.5 17.5t17.5 25t6.5 28v77q0 15 -6.5 28.5t-17.5 24.5t-24.5 17.5t-28.5 6.5h-154v-231h154z" />
    <glyph glyph-name="Sigma" unicode="&#x3a3;" 
d="M0 79l210 269l-210 269v77h385v-77h-287l210 -270l-210 -270h287v-77h-385v79z" />
    <glyph glyph-name="Tau" unicode="&#x3a4;" 
d="M154 616h-154v77h385v-77h-154v-616h-77v616z" />
    <glyph glyph-name="Upsilon" unicode="&#x3a5;" 
d="M155 348l-154 346h77l115 -260l115 260h77l-154 -347v-347h-77z" />
    <glyph glyph-name="Phi" unicode="&#x3a6;" 
d="M0 462q0 29 13 56.5t35 49.5t49.5 35t56.5 13v77h77v-77q29 0 56.5 -13t49.5 -35t35 -49.5t13 -56.5v-231q0 -29 -13 -56.5t-35 -49.5t-49.5 -35t-56.5 -13v-77h-77v77q-29 0 -56.5 13t-49.5 35t-35 49.5t-13 56.5v231zM154 539q-14 0 -28 -6.5t-25 -17.5t-17.5 -24.5
t-6.5 -28.5v-231q0 -14 6.5 -28t17.5 -25t25 -17.5t28 -6.5v385zM231 154q15 0 28.5 6.5t24.5 17.5t17.5 25t6.5 28v231q0 15 -6.5 28.5t-17.5 24.5t-24.5 17.5t-28.5 6.5v-385z" />
    <glyph glyph-name="Chi" unicode="&#x3a7;" 
d="M2 2l154 346l-154 346h77l115 -260l115 260h77l-154 -347l154 -347h-77l-116 260l-116 -260h-77z" />
    <glyph glyph-name="Psi" unicode="&#x3a8;" 
d="M154 231q-29 0 -56.5 13t-49.5 35t-35 49.5t-13 56.5v308h77v-308q0 -14 6.5 -28t17.5 -25t25 -17.5t28 -6.5v385h77v-385q15 0 28.5 6.5t24.5 17.5t17.5 25t6.5 28v308h77v-308q0 -29 -13 -56.5t-35 -49.5t-49.5 -35t-56.5 -13v-231h-77v231z" />
    <glyph glyph-name="alpha" unicode="&#x3b1;" 
d="M0 308q0 29 13 56.5t35 49.5t49.5 35t56.5 13q41 0 77.5 -21t56.5 -56l18 77h79l-55 -231l55 -231h-79l-18 77q-20 -35 -56.5 -56t-77.5 -21q-29 0 -56.5 13t-49.5 35t-35 49.5t-13 56.5v154zM77 154q0 -14 6.5 -28t17.5 -25t25 -17.5t28 -6.5q26 0 47.5 17t27.5 42
l22 95l-22 95q-6 25 -27.5 42t-47.5 17q-14 0 -28 -6.5t-25 -17.5t-17.5 -24.5t-6.5 -28.5v-154z" />
    <glyph glyph-name="beta" unicode="&#x3b2;" 
d="M0 539q0 29 13 56.5t35 49.5t49.5 35t56.5 13t56.5 -13t49.5 -35t35 -49.5t13 -56.5q0 -48 -26 -86q22 -8 41 -22.5t33 -34t21.5 -42t7.5 -46.5v-154q0 -29 -13 -56.5t-35 -49.5t-49.5 -35t-56.5 -13q-30 0 -58.5 11.5t-50.5 33.5l-45 45v-244h-77v693zM77 200l100 -100
q11 -11 25 -17t29 -6t28.5 6.5t24.5 17.5t17.5 25t6.5 28v154q0 15 -6.5 28.5t-17.5 24.5t-24.5 17.5t-28.5 6.5h-154v-185zM154 463q15 0 28.5 6.5t24.5 17.5t17.5 25t6.5 28q0 15 -6.5 28.5t-17.5 24.5t-24.5 17.5t-28.5 6.5q-14 0 -28 -6.5t-25 -17.5t-17.5 -24.5
t-6.5 -28.5v-77h77z" />
    <glyph glyph-name="gamma" unicode="&#x3b3;" 
d="M80 462l88 -310l133 310h84l-183 -427l26 -91q3 -11 3 -21q0 -14 -6.5 -28t-17.5 -25t-24.5 -17.5t-28.5 -6.5q-14 0 -28 6.5t-25 17.5t-17.5 25t-6.5 28q0 15 6 30l37 87l-120 422h80z" />
    <glyph glyph-name="delta" unicode="&#x3b4;" 
d="M2 311q0 24 8 47t22 42.5t33 34t42 22.5l-40 19q-29 14 -47 43t-18 61q0 21 10 42t26 37t36.5 26t42.5 10h154q21 0 42 -10t37 -26.5t26 -37t10 -42.5h-77q0 14 -12.5 26t-26.5 12h-154q-15 0 -27 -12.5t-12 -26.5q0 -25 22 -35l199 -96q39 -19 63 -57t24 -82v-154
q0 -29 -13 -56.5t-35 -49.5t-49.5 -35t-56.5 -13h-77q-29 0 -56.5 13t-49.5 35t-35 49.5t-13 56.5zM233 80q15 0 28.5 6.5t24.5 17.5t17.5 25t6.5 28v154q0 15 -6.5 28.5t-17.5 24.5t-24.5 17.5t-28.5 6.5h-77q-14 0 -28 -6.5t-25 -17.5t-17.5 -24.5t-6.5 -28.5v-154
q0 -14 6.5 -28t17.5 -25t25 -17.5t28 -6.5h77z" />
    <glyph glyph-name="epsilon" unicode="&#x3b5;" 
d="M157 2q-29 0 -56.5 13t-49.5 35t-35 49.5t-13 56.5t10.5 56t30.5 48q-20 17 -30.5 40t-10.5 48q0 21 10 42t26 37t36.5 26t42.5 10h115q29 0 56.5 -13t49.5 -35t35 -49.5t13 -56.5h-77q0 15 -6.5 28.5t-17.5 24.5t-24.5 17.5t-28.5 6.5h-116q-15 0 -27 -12.5t-12 -26.5
q0 -15 12 -27t26 -12h115v-77h-77q-14 0 -28 -6.5t-25 -17.5t-17.5 -24.5t-6.5 -28.5q0 -14 6.5 -28t17.5 -25t25 -17.5t28 -6.5h77q15 0 28.5 6.5t24.5 17.5t17.5 25t6.5 28h77q0 -29 -13 -56.5t-35 -49.5t-49.5 -35t-56.5 -13z" />
    <glyph glyph-name="zeta" unicode="&#x3b6;" 
d="M4 310q0 90 41 172t113 136h-154v77h385v-77q-58 0 -113 -26.5t-98.5 -70t-70 -98.5t-26.5 -113v-154q0 -14 6.5 -28t17.5 -25t25 -17.5t28 -6.5h115q21 0 42 -10t37 -26.5t26 -37t10 -42.5t-10 -42.5t-26.5 -37t-37 -26.5t-42.5 -10h-39v77h38q14 0 26 12t12 26
t-12.5 26t-26.5 12h-116q-29 0 -56.5 13t-49.5 35t-35 49.5t-13 56.5z" />
    <glyph glyph-name="eta" unicode="&#x3b7;" 
d="M0 462h77v-21q34 21 77 21h77q29 0 56.5 -13t49.5 -35t35 -49.5t13 -56.5v-462h-77v462q0 15 -6.5 28.5t-17.5 24.5t-24.5 17.5t-28.5 6.5h-77q-14 0 -28 -6.5t-25 -17.5t-17.5 -24.5t-6.5 -28.5v-308h-77v462z" />
    <glyph glyph-name="theta" unicode="&#x3b8;" 
d="M0 539q0 29 13 56.5t35 49.5t49.5 35t56.5 13t56.5 -13t49.5 -35t35 -49.5t13 -56.5v-385q0 -29 -13 -56.5t-35 -49.5t-49.5 -35t-56.5 -13t-56.5 13t-49.5 35t-35 49.5t-13 56.5v385zM77 154q0 -14 6.5 -28t17.5 -25t25 -17.5t28 -6.5q15 0 28.5 6.5t24.5 17.5t17.5 25
t6.5 28v154h-154v-154zM231 385v154q0 15 -6.5 28.5t-17.5 24.5t-24.5 17.5t-28.5 6.5q-14 0 -28 -6.5t-25 -17.5t-17.5 -24.5t-6.5 -28.5v-154h154z" />
    <glyph glyph-name="iota" unicode="&#x3b9;" 
d="M79 466h77v-347q0 -15 12 -27t26 -12t26 12t12 26v38h77v-39q0 -22 -10 -42.5t-26.5 -37t-37 -26.5t-42.5 -10t-42.5 10t-37 26t-26.5 36.5t-10 42.5z" />
    <glyph glyph-name="kappa" unicode="&#x3ba;" 
d="M0 462h77v-199l199 199h109l-231 -231l231 -231h-109l-199 199v-199h-77v462z" />
    <glyph glyph-name="lambda" unicode="&#x3bb;" 
d="M200 385l-48 174q-7 25 -28 41t-46 16h-77v77h77q25 0 48.5 -8.5t43.5 -24t34.5 -36t21.5 -44.5l160 -580h-80l-76 276l-143 -276h-87z" />
    <glyph glyph-name="nu" unicode="&#x3bd;" 
d="M81 462l118 -354q51 36 80 92.5t29 119.5v142h77v-142q0 -53 -17.5 -103t-48 -93t-73 -75.5t-92.5 -48.5l-154 462h81z" />
    <glyph glyph-name="xi" unicode="&#x3be;" 
d="M158 2q-29 0 -56.5 13t-49.5 35t-35 49.5t-13 56.5q0 31 8.5 60.5t24 56t37.5 48.5t49 37q-20 21 -31 49t-11 57q0 42 15.5 82t43.5 72h-136v77h385v-77h-77q-29 0 -56.5 -13t-49.5 -35t-35 -49.5t-13 -56.5q0 -14 6.5 -28t17.5 -25t25 -17.5t28 -6.5h77v-77h-77
q-29 0 -56.5 -13t-49.5 -35t-35 -49.5t-13 -56.5q0 -14 6.5 -28t17.5 -25t25 -17.5t28 -6.5h115q21 0 42 -10t37 -26.5t26 -37t10 -42.5t-10 -42.5t-26.5 -37t-37 -26.5t-42.5 -10h-39v77h38q14 0 26 12t12 26t-12.5 26t-26.5 12z" />
    <glyph glyph-name="omicron" unicode="&#x3bf;" 
d="M0 308q0 29 13 56.5t35 49.5t49.5 35t56.5 13h77q29 0 56.5 -13t49.5 -35t35 -49.5t13 -56.5v-154q0 -29 -13 -56.5t-35 -49.5t-49.5 -35t-56.5 -13h-77q-29 0 -56.5 13t-49.5 35t-35 49.5t-13 56.5v154zM231 77q15 0 28.5 6.5t24.5 17.5t17.5 25t6.5 28v154
q0 15 -6.5 28.5t-17.5 24.5t-24.5 17.5t-28.5 6.5h-77q-14 0 -28 -6.5t-25 -17.5t-17.5 -24.5t-6.5 -28.5v-154q0 -14 6.5 -28t17.5 -25t25 -17.5t28 -6.5h77z" />
    <glyph glyph-name="pi" unicode="&#x3c0;" 
d="M77 385h-77v77h385v-77h-77v-385h-77v385h-77v-385h-77v385z" />
    <glyph glyph-name="rho" unicode="&#x3c1;" 
d="M0 308q0 29 13 56.5t35 49.5t49.5 35t56.5 13h77q29 0 56.5 -13t49.5 -35t35 -49.5t13 -56.5v-154q0 -29 -13 -56.5t-35 -49.5t-49.5 -35t-56.5 -13h-154v-154h-77v462zM231 77q15 0 28.5 6.5t24.5 17.5t17.5 25t6.5 28v154q0 15 -6.5 28.5t-17.5 24.5t-24.5 17.5
t-28.5 6.5h-77q-14 0 -28 -6.5t-25 -17.5t-17.5 -24.5t-6.5 -28.5v-231h154z" />
    <glyph glyph-name="sigma1" unicode="&#x3c2;" 
d="M4 310q0 29 13 56.5t35 49.5t49.5 35t56.5 13h77q29 0 56.5 -13t49.5 -35t35 -49.5t13 -56.5h-77q0 15 -6.5 28.5t-17.5 24.5t-24.5 17.5t-28.5 6.5h-77q-14 0 -28 -6.5t-25 -17.5t-17.5 -24.5t-6.5 -28.5v-154q0 -14 6.5 -28t17.5 -25t25 -17.5t28 -6.5h115q21 0 42 -10
t37 -26.5t26 -37t10 -42.5t-10 -42.5t-26.5 -37t-37 -26.5t-42.5 -10h-116v77h115q14 0 26 12t12 26t-12.5 26t-26.5 12h-116q-29 0 -56.5 13t-49.5 35t-35 49.5t-13 56.5z" />
    <glyph glyph-name="sigma" unicode="&#x3c3;" 
d="M0 308q0 29 13 56.5t35 49.5t49.5 35t56.5 13h231v-77h-90l45 -45q21 -22 33 -50.5t12 -58.5v-77q0 -29 -13 -56.5t-35 -49.5t-49.5 -35t-56.5 -13h-77q-29 0 -56.5 13t-49.5 35t-35 49.5t-13 56.5v154zM78 154q0 -14 6.5 -28t17.5 -25t25 -17.5t28 -6.5h77
q15 0 28.5 6.5t24.5 17.5t17.5 25t6.5 28v77q0 15 -6 29t-17 25l-100 100h-32q-14 0 -28 -6.5t-25 -17.5t-17.5 -24.5t-6.5 -28.5z" />
    <glyph glyph-name="tau" unicode="&#x3c4;" 
d="M0 462h385v-77h-154v-231q0 -14 6.5 -28t17.5 -25t25 -17.5t28 -6.5v-77q-29 0 -56.5 13t-49.5 35t-35 49.5t-13 56.5v231h-154v77z" />
    <glyph glyph-name="upsilon" unicode="&#x3c5;" 
d="M0 462h77v-308q0 -14 6.5 -28t17.5 -25t25 -17.5t28 -6.5h77q15 0 28.5 6.5t24.5 17.5t17.5 25t6.5 28v308h77v-308q0 -29 -13 -56.5t-35 -49.5t-49.5 -35t-56.5 -13h-77q-29 0 -56.5 13t-49.5 35t-35 49.5t-13 56.5v308z" />
    <glyph glyph-name="chi" unicode="&#x3c7;" 
d="M150 154l-150 308h86l107 -220l107 220h86l-150 -308l150 -308h-86l-107 220l-107 -220h-86z" />
    <glyph glyph-name="psi" unicode="&#x3c8;" 
d="M0 462h77v-308q0 -14 6.5 -28t17.5 -25t25 -17.5t28 -6.5v385h77v-385q15 0 28.5 6.5t24.5 17.5t17.5 25t6.5 28v308h77v-308q0 -29 -13 -56.5t-35 -49.5t-49.5 -35t-56.5 -13v-154h-77v154q-29 0 -56.5 13t-49.5 35t-35 49.5t-13 56.5v308z" />
    <glyph glyph-name="omega" unicode="&#x3c9;" 
d="M5 358q0 30 11.5 58.5t33.5 50.5l54 -54q-11 -11 -17 -25t-6 -29v-238q0 -15 12 -27t26 -12t26 12t12 26v115h77v-116q0 -15 12 -27t26 -12t26 12t12 26v238q0 15 -6 29t-17 25l54 54q21 -22 33 -50.5t12 -58.5v-238q0 -22 -10 -42.5t-26.5 -37t-37 -26.5t-42.5 -10
q-21 0 -41 7.5t-36 21.5q-16 -14 -36 -21.5t-41 -7.5q-22 0 -42.5 10t-37 26t-26.5 36.5t-10 42.5z" />
    <glyph glyph-name="phi1" unicode="&#x3d5;" 
d="M1 464h77v-308q0 -14 6.5 -28t17.5 -25t25 -17.5t28 -6.5v269q0 21 10 42t26 37t36.5 26t42.5 10q21 0 42 -10t37 -26.5t26 -37t10 -42.5v-193q0 -29 -13 -56.5t-35 -49.5t-49.5 -35t-56.5 -13v-154h-77v154q-29 0 -56.5 13t-49.5 35t-35 49.5t-13 56.5zM233 81
q15 0 28.5 6.5t24.5 17.5t17.5 25t6.5 28v192q0 14 -12.5 26t-26.5 12q-15 0 -27 -12.5t-12 -26.5z" />
    <glyph glyph-name="afii10023" unicode="&#x401;" 
d="M0 539h385v-77h-308v-154h231v-77h-231v-154h308v-77h-385v539zM118 619q-15 0 -27 12t-12 26t12 26t26 12t26 -12.5t12 -26.5q0 -15 -12.5 -27t-26.5 -12zM274 622q-15 0 -27 12t-12 26t12 26t26 12t26 -12.5t12 -26.5q0 -15 -12.5 -27t-26.5 -12z" />
    <glyph glyph-name="afii10017" unicode="&#x410;" 
d="M1 495l192 192l192 -193v-494h-77v231h-231v-231h-77zM310 310v154l-116 115l-116 -116v-154z" />
    <glyph glyph-name="afii10018" unicode="&#x411;" 
d="M0 693h308v-77h-231v-231h154q29 0 56.5 -13t49.5 -35t35 -49.5t13 -56.5v-77q0 -29 -13 -56.5t-35 -49.5t-49.5 -35t-56.5 -13h-231v693zM231 77q15 0 28.5 6.5t24.5 17.5t17.5 25t6.5 28v77q0 15 -6.5 28.5t-17.5 24.5t-24.5 17.5t-28.5 6.5h-154v-231h154z" />
    <glyph glyph-name="afii10019" unicode="&#x412;" 
d="M0 694h231q29 0 56.5 -13t49.5 -35t35 -49.5t13 -56.5v-77q0 -29 -1 -45t-5.5 -27t-15.5 -20t-30 -24q19 -15 30 -24t15.5 -20t5.5 -27t1 -45v-77q0 -29 -13 -56.5t-35 -49.5t-49.5 -35t-56.5 -13h-231v694zM231 78q15 0 28.5 6.5t24.5 17.5t17.5 25t6.5 28v77
q0 15 -6.5 28.5t-17.5 24.5t-24.5 17.5t-28.5 6.5h-154v-231h154zM231 386q15 0 28.5 6.5t24.5 17.5t17.5 25t6.5 28v77q0 15 -6.5 28.5t-17.5 24.5t-24.5 17.5t-28.5 6.5h-154v-231h154z" />
    <glyph glyph-name="afii10020" unicode="&#x413;" 
d="M0 693h385v-77h-308v-616h-77v693z" />
    <glyph glyph-name="afii10021" unicode="&#x414;" 
d="M0 77q15 0 28.5 6.5t24.5 17.5t17.5 25t6.5 28v539h308v-770h-77v77h-231v-77h-77v154zM308 77v539h-154v-462q0 -20 -5.5 -40t-15.5 -37h175z" />
    <glyph glyph-name="afii10022" unicode="&#x415;" 
d="M0 693h385v-77h-308v-231h231v-77h-231v-231h308v-77h-385v693z" />
    <glyph glyph-name="afii10024" unicode="&#x416;" 
d="M77 348l-77 346h79l75 -338v338h77v-338l75 338h79l-77 -347l77 -347h-79l-75 338v-338h-77v338l-75 -338h-79z" />
    <glyph glyph-name="afii10025" unicode="&#x417;" 
d="M77 155q0 -14 6.5 -28t17.5 -25t25 -17.5t28 -6.5h77q15 0 28.5 6.5t24.5 17.5t17.5 25t6.5 28v77q0 15 -6.5 28.5t-17.5 24.5t-24.5 17.5t-28.5 6.5h-77v77h77q15 0 28.5 6.5t24.5 17.5t17.5 25t6.5 28v77q0 15 -6.5 28.5t-17.5 24.5t-24.5 17.5t-28.5 6.5h-77
q-14 0 -28 -6.5t-25 -17.5t-17.5 -24.5t-6.5 -28.5h-77q0 29 13 56.5t35 49.5t49.5 35t56.5 13h77q29 0 56.5 -13t49.5 -35t35 -49.5t13 -56.5v-77q0 -33 -13.5 -63.5t-38.5 -52.5q25 -22 38.5 -52.5t13.5 -63.5v-77q0 -29 -13 -56.5t-35 -49.5t-49.5 -35t-56.5 -13h-77
q-29 0 -56.5 13t-49.5 35t-35 49.5t-13 56.5z" />
    <glyph glyph-name="afii10026" unicode="&#x418;" 
d="M0 693h77v-516l224 516h84v-693h-77v516l-224 -516h-84v693z" />
    <glyph glyph-name="afii10027" unicode="&#x419;" 
d="M0 616h77v-458l222 458h86v-616h-77v458l-222 -458h-86v616zM77 847q0 -14 6.5 -28t17.5 -25t25 -17.5t28 -6.5h77q15 0 28.5 6.5t24.5 17.5t17.5 25t6.5 28h77q0 -29 -13 -56.5t-35 -49.5t-49.5 -35t-56.5 -13h-77q-29 0 -56.5 13t-49.5 35t-35 49.5t-13 56.5h77z" />
    <glyph glyph-name="afii10028" unicode="&#x41a;" 
d="M0 694h77v-308l231 231v77h77v-116l-231 -231l231 -231v-116h-77v77l-231 231v-308h-77v694z" />
    <glyph glyph-name="afii10029" unicode="&#x41b;" 
d="M0 77q15 0 28.5 6.5t24.5 17.5t17.5 25t6.5 28v539h308v-693h-77v616h-154v-462q0 -29 -13 -56.5t-35 -49.5t-49.5 -35t-56.5 -13v77z" />
    <glyph glyph-name="afii10030" unicode="&#x41c;" 
d="M2 694h96l96 -193l96 192h96v-693h-77v539l-116 -231l-116 231v-539h-77z" />
    <glyph glyph-name="afii10031" unicode="&#x41d;" 
d="M0 693h77v-308h231v308h77v-693h-77v308h-231v-308h-77v693z" />
    <glyph glyph-name="afii10032" unicode="&#x41e;" 
d="M0 539q0 29 13 56.5t35 49.5t49.5 35t56.5 13h77q29 0 56.5 -13t49.5 -35t35 -49.5t13 -56.5v-385q0 -29 -13 -56.5t-35 -49.5t-49.5 -35t-56.5 -13h-77q-29 0 -56.5 13t-49.5 35t-35 49.5t-13 56.5v385zM231 77q15 0 28.5 6.5t24.5 17.5t17.5 25t6.5 28v385
q0 15 -6.5 28.5t-17.5 24.5t-24.5 17.5t-28.5 6.5h-77q-14 0 -28 -6.5t-25 -17.5t-17.5 -24.5t-6.5 -28.5v-385q0 -14 6.5 -28t17.5 -25t25 -17.5t28 -6.5h77z" />
    <glyph glyph-name="afii10033" unicode="&#x41f;" 
d="M0 693h385v-693h-77v616h-231v-616h-77v693z" />
    <glyph glyph-name="afii10034" unicode="&#x420;" 
d="M0 693h231q29 0 56.5 -13t49.5 -35t35 -49.5t13 -56.5v-77q0 -29 -13 -56.5t-35 -49.5t-49.5 -35t-56.5 -13h-154v-308h-77v693zM231 385q15 0 28.5 6.5t24.5 17.5t17.5 25t6.5 28v77q0 15 -6.5 28.5t-17.5 24.5t-24.5 17.5t-28.5 6.5h-154v-231h154z" />
    <glyph glyph-name="afii10035" unicode="&#x421;" 
d="M0 539q0 29 13 56.5t35 49.5t49.5 35t56.5 13h77q29 0 56.5 -13t49.5 -35t35 -49.5t13 -56.5h-77q0 15 -6.5 28.5t-17.5 24.5t-24.5 17.5t-28.5 6.5h-77q-14 0 -28 -6.5t-25 -17.5t-17.5 -24.5t-6.5 -28.5v-385q0 -14 6.5 -28t17.5 -25t25 -17.5t28 -6.5h77
q15 0 28.5 6.5t24.5 17.5t17.5 25t6.5 28h77q0 -29 -13 -56.5t-35 -49.5t-49.5 -35t-56.5 -13h-77q-29 0 -56.5 13t-49.5 35t-35 49.5t-13 56.5v385z" />
    <glyph glyph-name="afii10036" unicode="&#x422;" 
d="M154 616h-154v77h385v-77h-154v-616h-77v616z" />
    <glyph glyph-name="afii10037" unicode="&#x423;" 
d="M77 154q0 -14 6.5 -28t17.5 -25t25 -17.5t28 -6.5h77q15 0 28.5 6.5t24.5 17.5t17.5 25t6.5 28v77h-154q-29 0 -56.5 13t-49.5 35t-35 49.5t-13 56.5v308h77v-308q0 -14 6.5 -28t17.5 -25t25 -17.5t28 -6.5h154v385h77v-539q0 -29 -13 -56.5t-35 -49.5t-49.5 -35
t-56.5 -13h-77q-29 0 -56.5 13t-49.5 35t-35 49.5t-13 56.5h77z" />
    <glyph glyph-name="afii10038" unicode="&#x424;" 
d="M0 462q0 29 13 56.5t35 49.5t49.5 35t56.5 13v77h77v-77q29 0 56.5 -13t49.5 -35t35 -49.5t13 -56.5v-231q0 -29 -13 -56.5t-35 -49.5t-49.5 -35t-56.5 -13v-77h-77v77q-29 0 -56.5 13t-49.5 35t-35 49.5t-13 56.5v231zM154 539q-14 0 -28 -6.5t-25 -17.5t-17.5 -24.5
t-6.5 -28.5v-231q0 -14 6.5 -28t17.5 -25t25 -17.5t28 -6.5v385zM231 154q15 0 28.5 6.5t24.5 17.5t17.5 25t6.5 28v231q0 15 -6.5 28.5t-17.5 24.5t-24.5 17.5t-28.5 6.5v-385z" />
    <glyph glyph-name="afii10039" unicode="&#x425;" 
d="M2 2l154 346l-154 346h77l115 -260l115 260h77l-154 -347l154 -347h-77l-116 260l-116 -260h-77z" />
    <glyph glyph-name="afii10040" unicode="&#x426;" 
d="M0 693h77v-616h154v616h77v-616h77v-154h-77v77h-308v693z" />
    <glyph glyph-name="afii10041" unicode="&#x427;" 
d="M308 308h-154q-29 0 -56.5 13t-49.5 35t-35 49.5t-13 56.5v231h77v-231q0 -14 6.5 -28t17.5 -25t25 -17.5t28 -6.5h154v308h77v-693h-77v308z" />
    <glyph glyph-name="afii10042" unicode="&#x428;" 
d="M0 693h77v-616h77v616h77v-616h77v616h77v-693h-385v693z" />
    <glyph glyph-name="afii10043" unicode="&#x429;" 
d="M0 693h77v-616h77v616h77v-616h77v616h77v-770h-77v77h-308v693z" />
    <glyph glyph-name="afii10044" unicode="&#x42a;" 
d="M0 693h154v-308h77q29 0 56.5 -13t49.5 -35t35 -49.5t13 -56.5v-77q0 -29 -13 -56.5t-35 -49.5t-49.5 -35t-56.5 -13h-154v616h-77v77zM231 77q15 0 28.5 6.5t24.5 17.5t17.5 25t6.5 28v77q0 15 -6.5 28.5t-17.5 24.5t-24.5 17.5t-28.5 6.5h-77v-231h77z" />
    <glyph glyph-name="afii10045" unicode="&#x42b;" 
d="M0 693h77v-308q29 0 56.5 -13t49.5 -35t35 -49.5t13 -56.5v-77q0 -29 -13 -56.5t-35 -49.5t-49.5 -35t-56.5 -13h-77v693zM77 77q15 0 28.5 6.5t24.5 17.5t17.5 25t6.5 28v77q0 15 -6.5 28.5t-17.5 24.5t-24.5 17.5t-28.5 6.5v-231zM308 693h77v-693h-77v693z" />
    <glyph glyph-name="afii10046" unicode="&#x42c;" 
d="M0 693h77v-308h154q29 0 56.5 -13t49.5 -35t35 -49.5t13 -56.5v-77q0 -29 -13 -56.5t-35 -49.5t-49.5 -35t-56.5 -13h-231v693zM231 77q15 0 28.5 6.5t24.5 17.5t17.5 25t6.5 28v77q0 15 -6.5 28.5t-17.5 24.5t-24.5 17.5t-28.5 6.5h-154v-231h154z" />
    <glyph glyph-name="afii10047" unicode="&#x42d;" 
d="M0 77h154q29 0 56.5 13t49.5 35t35 49.5t13 56.5v77h-231v77h231v77q0 29 -13 56.5t-35 49.5t-49.5 35t-56.5 13h-154v77h154q43 0 85 -20t74 -52t52 -74t20 -85v-231q0 -43 -20 -84.5t-52 -74t-74 -52.5t-85 -20h-154v77z" />
    <glyph glyph-name="afii10048" unicode="&#x42e;" 
d="M2 696h77v-308h77v192q0 21 10 42t26 37t36.5 26t42.5 10q21 0 42 -10t37 -26.5t26 -37t10 -42.5v-462q0 -22 -10 -42.5t-26.5 -37t-37 -26.5t-42.5 -10t-42.5 10t-37 26t-26.5 36.5t-10 42.5v192h-77v-308h-77zM235 121q0 -15 12 -27t26 -12t26 12t12 26v462
q0 14 -12.5 26t-26.5 12q-15 0 -27 -12.5t-12 -26.5z" />
    <glyph glyph-name="afii10049" unicode="&#x42f;" 
d="M0 109l199 199h-45q-29 0 -56.5 13t-49.5 35t-35 49.5t-13 56.5v77q0 29 13 56.5t35 49.5t49.5 35t56.5 13h231v-693h-77v308l-231 -231v-77h-77v109zM308 616h-154q-14 0 -28 -6.5t-25 -17.5t-17.5 -24.5t-6.5 -28.5v-77q0 -14 6.5 -28t17.5 -25t25 -17.5t28 -6.5h154
v231z" />
    <glyph glyph-name="afii10065" unicode="&#x430;" 
d="M154 0q-29 0 -56.5 13t-49.5 35t-35 49.5t-13 56.5t13 56.5t35 49.5t49.5 35t56.5 13h154q0 15 -6.5 28.5t-17.5 24.5t-24.5 17.5t-28.5 6.5h-154v77h154q29 0 56.5 -13t49.5 -35t35 -49.5t13 -56.5v-308h-231zM308 231h-154q-14 0 -28 -6.5t-25 -17.5t-17.5 -24.5
t-6.5 -28.5q0 -14 6.5 -28t17.5 -25t25 -17.5t28 -6.5h154v154z" />
    <glyph glyph-name="afii10066" unicode="&#x431;" 
d="M0 462q0 29 13 56.5t35 49.5t49.5 35t56.5 13h77q15 0 28.5 6.5t24.5 17.5t17.5 25t6.5 28h77q0 -29 -13 -56.5t-35 -49.5t-49.5 -35t-56.5 -13h-77q-14 0 -28 -6.5t-25 -17.5t-17.5 -24.5t-6.5 -28.5h154q29 0 56.5 -13t49.5 -35t35 -49.5t13 -56.5v-154
q0 -29 -13 -56.5t-35 -49.5t-49.5 -35t-56.5 -13h-77q-29 0 -56.5 13t-49.5 35t-35 49.5t-13 56.5v308zM231 77q15 0 28.5 6.5t24.5 17.5t17.5 25t6.5 28v154q0 15 -6.5 28.5t-17.5 24.5t-24.5 17.5t-28.5 6.5h-154v-231q0 -14 6.5 -28t17.5 -25t25 -17.5t28 -6.5h77z" />
    <glyph glyph-name="afii10067" unicode="&#x432;" 
d="M1 462h269q21 0 42 -10t37 -26.5t26 -37t10 -42.5q0 -25 -11 -48t-30 -40q20 -21 30.5 -48t10.5 -56t-13 -56.5t-35 -49.5t-49.5 -35t-56.5 -13h-231zM232 77q15 0 28.5 6.5t24.5 17.5t17.5 25t6.5 28q0 15 -6.5 28.5t-17.5 24.5t-24.5 17.5t-28.5 6.5h-154v-154h154z
M272 309q14 0 26 12t12 26t-12.5 26t-26.5 12h-193v-77z" />
    <glyph glyph-name="afii10068" unicode="&#x433;" 
d="M0 462h385v-77h-308v-385h-77v462z" />
    <glyph glyph-name="afii10069" unicode="&#x434;" 
d="M0 77q15 0 28.5 6.5t24.5 17.5t17.5 25t6.5 28v308h308v-539h-77v77h-231v-77h-77v154zM308 77v308h-154v-231q0 -20 -5.5 -40t-15.5 -37h175z" />
    <glyph glyph-name="afii10070" unicode="&#x435;" 
d="M154 0q-29 0 -56.5 13t-49.5 35t-35 49.5t-13 56.5v154q0 29 13 56.5t35 49.5t49.5 35t56.5 13h77q29 0 56.5 -13t49.5 -35t35 -49.5t13 -56.5v-77h-308v-77q0 -14 6.5 -28t17.5 -25t25 -17.5t28 -6.5h77q15 0 28.5 6.5t24.5 17.5t17.5 25t6.5 28h77q0 -29 -13 -56.5
t-35 -49.5t-49.5 -35t-56.5 -13h-77zM308 308q0 15 -6.5 28.5t-17.5 24.5t-24.5 17.5t-28.5 6.5h-77q-14 0 -28 -6.5t-25 -17.5t-17.5 -24.5t-6.5 -28.5h231z" />
    <glyph glyph-name="afii10072" unicode="&#x436;" 
d="M77 231l-77 231h81l73 -219v219h77v-219l73 219h81l-77 -231l77 -231h-81l-73 219v-219h-77v219l-73 -219h-81z" />
    <glyph glyph-name="afii10073" unicode="&#x437;" 
d="M80 155q0 -14 6.5 -28t17.5 -25t25 -17.5t28 -6.5h77q15 0 28.5 6.5t24.5 17.5t17.5 25t6.5 28q0 15 -6.5 28.5t-17.5 24.5t-24.5 17.5t-28.5 6.5h-77v77h115q14 0 26 12t12 26t-12.5 26t-26.5 12h-116q-14 0 -28 -6.5t-25 -17.5t-17.5 -24.5t-6.5 -28.5h-77
q0 29 13 56.5t35 49.5t49.5 35t56.5 13h115q21 0 42 -10t37 -26.5t26 -37t10 -42.5q0 -25 -11 -48t-30 -40q20 -21 30.5 -48t10.5 -56t-13 -56.5t-35 -49.5t-49.5 -35t-56.5 -13h-77q-29 0 -56.5 13t-49.5 35t-35 49.5t-13 56.5z" />
    <glyph glyph-name="afii10074" unicode="&#x438;" 
d="M0 462h77v-341l217 341h91v-462h-77v341l-217 -341h-91v462z" />
    <glyph glyph-name="afii10075" unicode="&#x439;" 
d="M0 462h77v-341l217 341h91v-462h-77v341l-217 -341h-91v462zM77 693q0 -14 6.5 -28t17.5 -25t25 -17.5t28 -6.5h77q15 0 28.5 6.5t24.5 17.5t17.5 25t6.5 28h77q0 -29 -13 -56.5t-35 -49.5t-49.5 -35t-56.5 -13h-77q-29 0 -56.5 13t-49.5 35t-35 49.5t-13 56.5h77z" />
    <glyph glyph-name="afii10076" unicode="&#x43a;" 
d="M0 462h77v-199l199 199h109l-231 -231l231 -231h-109l-199 199v-199h-77v462z" />
    <glyph glyph-name="afii10077" unicode="&#x43b;" 
d="M0 77q15 0 28.5 6.5t24.5 17.5t17.5 25t6.5 28v308h308v-462h-77v385h-154v-231q0 -29 -13 -56.5t-35 -49.5t-49.5 -35t-56.5 -13v77z" />
    <glyph glyph-name="afii10078" unicode="&#x43c;" 
d="M0 462h91l102 -163l102 163h91v-462h-77v339l-116 -185l-116 185v-339h-77v462z" />
    <glyph glyph-name="afii10079" unicode="&#x43d;" 
d="M0 462h77v-154h231v154h77v-462h-77v231h-231v-231h-77v462z" />
    <glyph glyph-name="afii10080" unicode="&#x43e;" 
d="M0 308q0 29 13 56.5t35 49.5t49.5 35t56.5 13h77q29 0 56.5 -13t49.5 -35t35 -49.5t13 -56.5v-154q0 -29 -13 -56.5t-35 -49.5t-49.5 -35t-56.5 -13h-77q-29 0 -56.5 13t-49.5 35t-35 49.5t-13 56.5v154zM231 77q15 0 28.5 6.5t24.5 17.5t17.5 25t6.5 28v154
q0 15 -6.5 28.5t-17.5 24.5t-24.5 17.5t-28.5 6.5h-77q-14 0 -28 -6.5t-25 -17.5t-17.5 -24.5t-6.5 -28.5v-154q0 -14 6.5 -28t17.5 -25t25 -17.5t28 -6.5h77z" />
    <glyph glyph-name="afii10081" unicode="&#x43f;" 
d="M0 462h385v-462h-77v385h-231v-385h-77v462z" />
    <glyph glyph-name="afii10082" unicode="&#x440;" 
d="M0 462h231q29 0 56.5 -13t49.5 -35t35 -49.5t13 -56.5v-77q0 -29 -13 -56.5t-35 -49.5t-49.5 -35t-56.5 -13h-154v-231h-77v616zM231 154q15 0 28.5 6.5t24.5 17.5t17.5 25t6.5 28v77q0 15 -6.5 28.5t-17.5 24.5t-24.5 17.5t-28.5 6.5h-154v-231h154z" />
    <glyph glyph-name="afii10083" unicode="&#x441;" 
d="M0 308q0 29 13 56.5t35 49.5t49.5 35t56.5 13h77q29 0 56.5 -13t49.5 -35t35 -49.5t13 -56.5h-77q0 15 -6.5 28.5t-17.5 24.5t-24.5 17.5t-28.5 6.5h-77q-14 0 -28 -6.5t-25 -17.5t-17.5 -24.5t-6.5 -28.5v-154q0 -14 6.5 -28t17.5 -25t25 -17.5t28 -6.5h77
q15 0 28.5 6.5t24.5 17.5t17.5 25t6.5 28h77q0 -29 -13 -56.5t-35 -49.5t-49.5 -35t-56.5 -13h-77q-29 0 -56.5 13t-49.5 35t-35 49.5t-13 56.5v154z" />
    <glyph glyph-name="afii10084" unicode="&#x442;" 
d="M154 385h-154v77h385v-77h-154v-385h-77v385z" />
    <glyph glyph-name="afii10085" unicode="&#x443;" 
d="M77 0q0 -14 6.5 -28t17.5 -25t25 -17.5t28 -6.5h77q15 0 28.5 6.5t24.5 17.5t17.5 25t6.5 28v98q-35 -21 -77 -21h-77q-29 0 -56.5 13t-49.5 35t-35 49.5t-13 56.5v231h77v-231q0 -14 6.5 -28t17.5 -25t25 -17.5t28 -6.5h77q15 0 28.5 6.5t24.5 17.5t17.5 25t6.5 28v231
h77v-462q0 -29 -13 -56.5t-35 -49.5t-49.5 -35t-56.5 -13h-77q-29 0 -56.5 13t-49.5 35t-35 49.5t-13 56.5h77z" />
    <glyph glyph-name="afii10086" unicode="&#x444;" 
d="M0 308q0 29 13 56.5t35 49.5t49.5 35t56.5 13v231h77v-231q29 0 56.5 -13t49.5 -35t35 -49.5t13 -56.5v-154q0 -29 -13 -56.5t-35 -49.5t-49.5 -35t-56.5 -13v-154h-77v154q-29 0 -56.5 13t-49.5 35t-35 49.5t-13 56.5v154zM154 385q-14 0 -28 -6.5t-25 -17.5
t-17.5 -24.5t-6.5 -28.5v-154q0 -14 6.5 -28t17.5 -25t25 -17.5t28 -6.5v308zM231 77q15 0 28.5 6.5t24.5 17.5t17.5 25t6.5 28v154q0 15 -6.5 28.5t-17.5 24.5t-24.5 17.5t-28.5 6.5v-308z" />
    <glyph glyph-name="afii10087" unicode="&#x445;" 
d="M156 231l-154 231h77l115 -173l115 173h77l-154 -231l154 -231h-77l-116 173l-116 -173h-77z" />
    <glyph glyph-name="afii10088" unicode="&#x446;" 
d="M0 462h77v-385h154v385h77v-385h77v-154h-77v77h-308v462z" />
    <glyph glyph-name="afii10089" unicode="&#x447;" 
d="M308 154h-154q-29 0 -56.5 13t-49.5 35t-35 49.5t-13 56.5v154h77v-154q0 -14 6.5 -28t17.5 -25t25 -17.5t28 -6.5h154v231h77v-462h-77v154z" />
    <glyph glyph-name="afii10090" unicode="&#x448;" 
d="M0 462h77v-385h77v385h77v-385h77v385h77v-462h-385v462z" />
    <glyph glyph-name="afii10091" unicode="&#x449;" 
d="M0 462h77v-385h77v385h77v-385h77v385h77v-539h-77v77h-308v462z" />
    <glyph glyph-name="afii10092" unicode="&#x44a;" 
d="M0 462h154v-154h77q29 0 56.5 -13t49.5 -35t35 -49.5t13 -56.5t-13 -56.5t-35 -49.5t-49.5 -35t-56.5 -13h-154v385h-77v77zM231 77q15 0 28.5 6.5t24.5 17.5t17.5 25t6.5 28q0 15 -6.5 28.5t-17.5 24.5t-24.5 17.5t-28.5 6.5h-77v-154h77z" />
    <glyph glyph-name="afii10093" unicode="&#x44b;" 
d="M0 462h77v-154q29 0 56.5 -13t49.5 -35t35 -49.5t13 -56.5t-13 -56.5t-35 -49.5t-49.5 -35t-56.5 -13h-77v462zM77 77q15 0 28.5 6.5t24.5 17.5t17.5 25t6.5 28q0 15 -6.5 28.5t-17.5 24.5t-24.5 17.5t-28.5 6.5v-154zM308 462h77v-462h-77v462z" />
    <glyph glyph-name="afii10094" unicode="&#x44c;" 
d="M0 462h77v-154h154q29 0 56.5 -13t49.5 -35t35 -49.5t13 -56.5t-13 -56.5t-35 -49.5t-49.5 -35t-56.5 -13h-231v462zM231 77q15 0 28.5 6.5t24.5 17.5t17.5 25t6.5 28q0 15 -6.5 28.5t-17.5 24.5t-24.5 17.5t-28.5 6.5h-154v-154h154z" />
    <glyph glyph-name="afii10095" unicode="&#x44d;" 
d="M0 77h231q15 0 28.5 6.5t24.5 17.5t17.5 25t6.5 28v77h-154v77h154q0 15 -6.5 28.5t-17.5 24.5t-24.5 17.5t-28.5 6.5h-231v77h231q29 0 56.5 -13t49.5 -35t35 -49.5t13 -56.5v-154q0 -29 -13 -56.5t-35 -49.5t-49.5 -35t-56.5 -13h-231v77z" />
    <glyph glyph-name="afii10096" unicode="&#x44e;" 
d="M2 465h77v-231h77v115q0 21 10 42t26 37t36.5 26t42.5 10q21 0 42 -10t37 -26.5t26 -37t10 -42.5v-231q0 -22 -10 -42.5t-26.5 -37t-37 -26.5t-42.5 -10t-42.5 10t-37 26t-26.5 36.5t-10 42.5v38h-77v-154h-77zM235 121q0 -15 12 -27t26 -12t26 12t12 26v231
q0 14 -12.5 26t-26.5 12q-15 0 -27 -12.5t-12 -26.5z" />
    <glyph glyph-name="afii10097" unicode="&#x44f;" 
d="M108 161q-23 7 -42.5 22t-34 34.5t-22.5 43t-8 47.5q0 29 13 56.5t35 49.5t49.5 35t56.5 13h231v-462h-77v154h-113l-103 -154h-93zM309 231v154h-154q-14 0 -28 -6.5t-25 -17.5t-17.5 -24.5t-6.5 -28.5q0 -14 6.5 -28t17.5 -25t25 -17.5t28 -6.5h154z" />
    <glyph glyph-name="afii10071" unicode="&#x451;" 
d="M154 0q-29 0 -56.5 13t-49.5 35t-35 49.5t-13 56.5v154q0 29 13 56.5t35 49.5t49.5 35t56.5 13h77q29 0 56.5 -13t49.5 -35t35 -49.5t13 -56.5v-77h-308v-77q0 -14 6.5 -28t17.5 -25t25 -17.5t28 -6.5h77q15 0 28.5 6.5t24.5 17.5t17.5 25t6.5 28h77q0 -29 -13 -56.5
t-35 -49.5t-49.5 -35t-56.5 -13h-77zM308 308q0 15 -6.5 28.5t-17.5 24.5t-24.5 17.5t-28.5 6.5h-77q-14 0 -28 -6.5t-25 -17.5t-17.5 -24.5t-6.5 -28.5h231zM118 542q-15 0 -27 12t-12 26t12 26t26 12t26 -12.5t12 -26.5q0 -15 -12.5 -27t-26.5 -12zM274 545q-15 0 -27 12
t-12 26t12 26t26 12t26 -12.5t12 -26.5q0 -15 -12.5 -27t-26.5 -12z" />
    <glyph glyph-name="Euro" unicode="&#x20ac;" 
d="M77 231h-77v77h77v77h-77v77h77v77q0 29 13 56.5t35 49.5t49.5 35t56.5 13h154v-77h-154q-14 0 -28 -6.5t-25 -17.5t-17.5 -24.5t-6.5 -28.5v-77h154v-77h-154v-77h154v-77h-154v-77q0 -14 6.5 -28t17.5 -25t25 -17.5t28 -6.5h154v-77h-154q-29 0 -56.5 13t-49.5 35
t-35 49.5t-13 56.5v77z" />
    <glyph glyph-name="Omega" unicode="&#x2126;" 
d="M0 77h90l-45 45q-21 22 -33 50.5t-12 58.5v308q0 29 13 56.5t35 49.5t49.5 35t56.5 13h77q29 0 56.5 -13t49.5 -35t35 -49.5t13 -56.5v-308q0 -30 -11.5 -58.5t-33.5 -50.5l-45 -45h90v-77h-154v122l54 54q11 11 17 25t6 29v308q0 15 -6.5 28.5t-17.5 24.5t-24.5 17.5
t-28.5 6.5h-77q-14 0 -28 -6.5t-25 -17.5t-17.5 -24.5t-6.5 -28.5v-308q0 -31 23 -54l54 -54v-122h-154v77z" />
    <glyph glyph-name="Delta" unicode="&#x2206;" 
d="M1 77l192 616l192 -616v-77h-385zM194 447l-116 -370h231z" />
    <glyph glyph-name="minus" unicode="&#x2212;" 
d="M0 385h385v-77h-385v77z" />
    <glyph glyph-name="afii9793" 
d="M1 495l192 192l192 -193v-494h-77v231h-231v-231h-77zM310 310v154l-116 115l-116 -116v-154z" />
    <glyph glyph-name="afii9794" 
d="M0 694h231q29 0 56.5 -13t49.5 -35t35 -49.5t13 -56.5v-77q0 -29 -1 -45t-5.5 -27t-15.5 -20t-30 -24q19 -15 30 -24t15.5 -20t5.5 -27t1 -45v-77q0 -29 -13 -56.5t-35 -49.5t-49.5 -35t-56.5 -13h-231v694zM231 78q15 0 28.5 6.5t24.5 17.5t17.5 25t6.5 28v77
q0 15 -6.5 28.5t-17.5 24.5t-24.5 17.5t-28.5 6.5h-154v-231h154zM231 386q15 0 28.5 6.5t24.5 17.5t17.5 25t6.5 28v77q0 15 -6.5 28.5t-17.5 24.5t-24.5 17.5t-28.5 6.5h-154v-231h154z" />
    <glyph glyph-name="afii9796" 
d="M0 693h385v-77h-308v-616h-77v693z" />
    <glyph glyph-name="afii9797" 
d="M1 77l192 616l192 -616v-77h-385zM194 447l-116 -370h231z" />
    <glyph glyph-name="afii9798" 
d="M0 693h385v-77h-308v-231h231v-77h-231v-231h308v-77h-385v693z" />
    <glyph glyph-name="afii9801" 
d="M0 77l308 539h-308v77h385v-77l-308 -539h308v-77h-385v77z" />
    <glyph glyph-name="afii9802" 
d="M0 693h77v-308h231v308h77v-693h-77v308h-231v-308h-77v693z" />
    <glyph glyph-name="afii9803" 
d="M0 539q0 29 13 56.5t35 49.5t49.5 35t56.5 13h77q29 0 56.5 -13t49.5 -35t35 -49.5t13 -56.5v-385q0 -29 -13 -56.5t-35 -49.5t-49.5 -35t-56.5 -13h-77q-29 0 -56.5 13t-49.5 35t-35 49.5t-13 56.5v385zM231 77q15 0 28.5 6.5t24.5 17.5t17.5 25t6.5 28v154h-231v-154
q0 -14 6.5 -28t17.5 -25t25 -17.5t28 -6.5h77zM308 385v154q0 15 -6.5 28.5t-17.5 24.5t-24.5 17.5t-28.5 6.5h-77q-14 0 -28 -6.5t-25 -17.5t-17.5 -24.5t-6.5 -28.5v-154h231z" />
    <glyph glyph-name="afii9804" 
d="M77 77h77v539h-77v77h231v-77h-77v-539h77v-77h-231v77z" />
    <glyph glyph-name="afii9805" 
d="M0 694h77v-308l231 231v77h77v-116l-231 -231l231 -231v-116h-77v77l-231 231v-308h-77v694z" />
    <glyph glyph-name="afii9806" 
d="M194 693l192 -693h-80l-113 405l-113 -405h-80z" />
    <glyph glyph-name="afii9807" 
d="M2 694h96l96 -193l96 192h96v-693h-77v539l-116 -231l-116 231v-539h-77z" />
    <glyph glyph-name="afii9808" 
d="M0 695h77l231 -501v500h77v-693h-77l-231 500v-501h-77v695z" />
    <glyph glyph-name="afii9809" 
d="M0 154h77v-77h231v77h77v-154h-385v154zM77 385h231v-77h-231v77zM0 693h385v-154h-77v77h-231v-77h-77v154z" />
    <glyph glyph-name="afii9810" 
d="M0 539q0 29 13 56.5t35 49.5t49.5 35t56.5 13h77q29 0 56.5 -13t49.5 -35t35 -49.5t13 -56.5v-385q0 -29 -13 -56.5t-35 -49.5t-49.5 -35t-56.5 -13h-77q-29 0 -56.5 13t-49.5 35t-35 49.5t-13 56.5v385zM231 77q15 0 28.5 6.5t24.5 17.5t17.5 25t6.5 28v385
q0 15 -6.5 28.5t-17.5 24.5t-24.5 17.5t-28.5 6.5h-77q-14 0 -28 -6.5t-25 -17.5t-17.5 -24.5t-6.5 -28.5v-385q0 -14 6.5 -28t17.5 -25t25 -17.5t28 -6.5h77z" />
    <glyph glyph-name="afii9811" 
d="M0 693h385v-693h-77v616h-231v-616h-77v693z" />
    <glyph glyph-name="afii9813" 
d="M0 693h231q29 0 56.5 -13t49.5 -35t35 -49.5t13 -56.5v-77q0 -29 -13 -56.5t-35 -49.5t-49.5 -35t-56.5 -13h-154v-308h-77v693zM231 385q15 0 28.5 6.5t24.5 17.5t17.5 25t6.5 28v77q0 15 -6.5 28.5t-17.5 24.5t-24.5 17.5t-28.5 6.5h-154v-231h154z" />
    <glyph glyph-name="afii9814" 
d="M0 79l210 269l-210 269v77h385v-77h-287l210 -270l-210 -270h287v-77h-385v79z" />
    <glyph glyph-name="afii9816" 
d="M154 616h-154v77h385v-77h-154v-616h-77v616z" />
    <glyph glyph-name="afii9817" 
d="M155 348l-154 346h77l115 -260l115 260h77l-154 -347v-347h-77z" />
    <glyph glyph-name="afii9818" 
d="M0 462q0 29 13 56.5t35 49.5t49.5 35t56.5 13v77h77v-77q29 0 56.5 -13t49.5 -35t35 -49.5t13 -56.5v-231q0 -29 -13 -56.5t-35 -49.5t-49.5 -35t-56.5 -13v-77h-77v77q-29 0 -56.5 13t-49.5 35t-35 49.5t-13 56.5v231zM154 539q-14 0 -28 -6.5t-25 -17.5t-17.5 -24.5
t-6.5 -28.5v-231q0 -14 6.5 -28t17.5 -25t25 -17.5t28 -6.5v385zM231 154q15 0 28.5 6.5t24.5 17.5t17.5 25t6.5 28v231q0 15 -6.5 28.5t-17.5 24.5t-24.5 17.5t-28.5 6.5v-385z" />
    <glyph glyph-name="afii9819" 
d="M2 2l154 346l-154 346h77l115 -260l115 260h77l-154 -347l154 -347h-77l-116 260l-116 -260h-77z" />
    <glyph glyph-name="afii9820" 
d="M154 231q-29 0 -56.5 13t-49.5 35t-35 49.5t-13 56.5v308h77v-308q0 -14 6.5 -28t17.5 -25t25 -17.5t28 -6.5v385h77v-385q15 0 28.5 6.5t24.5 17.5t17.5 25t6.5 28v308h77v-308q0 -29 -13 -56.5t-35 -49.5t-49.5 -35t-56.5 -13v-231h-77v231z" />
    <glyph glyph-name="afii9821" 
d="M0 77h90l-45 45q-21 22 -33 50.5t-12 58.5v308q0 29 13 56.5t35 49.5t49.5 35t56.5 13h77q29 0 56.5 -13t49.5 -35t35 -49.5t13 -56.5v-308q0 -30 -11.5 -58.5t-33.5 -50.5l-45 -45h90v-77h-154v122l54 54q11 11 17 25t6 29v308q0 15 -6.5 28.5t-17.5 24.5t-24.5 17.5
t-28.5 6.5h-77q-14 0 -28 -6.5t-25 -17.5t-17.5 -24.5t-6.5 -28.5v-308q0 -31 23 -54l54 -54v-122h-154v77z" />
    <glyph glyph-name="afii9825" 
d="M0 308q0 29 13 56.5t35 49.5t49.5 35t56.5 13q41 0 77.5 -21t56.5 -56l18 77h79l-55 -231l55 -231h-79l-18 77q-20 -35 -56.5 -56t-77.5 -21q-29 0 -56.5 13t-49.5 35t-35 49.5t-13 56.5v154zM77 154q0 -14 6.5 -28t17.5 -25t25 -17.5t28 -6.5q26 0 47.5 17t27.5 42
l22 95l-22 95q-6 25 -27.5 42t-47.5 17q-14 0 -28 -6.5t-25 -17.5t-17.5 -24.5t-6.5 -28.5v-154z" />
    <glyph glyph-name="afii9826" 
d="M0 539q0 29 13 56.5t35 49.5t49.5 35t56.5 13t56.5 -13t49.5 -35t35 -49.5t13 -56.5q0 -48 -26 -86q22 -8 41 -22.5t33 -34t21.5 -42t7.5 -46.5v-154q0 -29 -13 -56.5t-35 -49.5t-49.5 -35t-56.5 -13q-30 0 -58.5 11.5t-50.5 33.5l-45 45v-244h-77v693zM77 200l100 -100
q11 -11 25 -17t29 -6t28.5 6.5t24.5 17.5t17.5 25t6.5 28v154q0 15 -6.5 28.5t-17.5 24.5t-24.5 17.5t-28.5 6.5h-154v-185zM154 463q15 0 28.5 6.5t24.5 17.5t17.5 25t6.5 28q0 15 -6.5 28.5t-17.5 24.5t-24.5 17.5t-28.5 6.5q-14 0 -28 -6.5t-25 -17.5t-17.5 -24.5
t-6.5 -28.5v-77h77z" />
    <glyph glyph-name="afii9828" 
d="M80 462l88 -310l133 310h84l-183 -427l26 -91q3 -11 3 -21q0 -14 -6.5 -28t-17.5 -25t-24.5 -17.5t-28.5 -6.5q-14 0 -28 6.5t-25 17.5t-17.5 25t-6.5 28q0 15 6 30l37 87l-120 422h80z" />
    <glyph glyph-name="afii9829" 
d="M2 311q0 24 8 47t22 42.5t33 34t42 22.5l-40 19q-29 14 -47 43t-18 61q0 21 10 42t26 37t36.5 26t42.5 10h154q21 0 42 -10t37 -26.5t26 -37t10 -42.5h-77q0 14 -12.5 26t-26.5 12h-154q-15 0 -27 -12.5t-12 -26.5q0 -25 22 -35l199 -96q39 -19 63 -57t24 -82v-154
q0 -29 -13 -56.5t-35 -49.5t-49.5 -35t-56.5 -13h-77q-29 0 -56.5 13t-49.5 35t-35 49.5t-13 56.5zM233 80q15 0 28.5 6.5t24.5 17.5t17.5 25t6.5 28v154q0 15 -6.5 28.5t-17.5 24.5t-24.5 17.5t-28.5 6.5h-77q-14 0 -28 -6.5t-25 -17.5t-17.5 -24.5t-6.5 -28.5v-154
q0 -14 6.5 -28t17.5 -25t25 -17.5t28 -6.5h77z" />
    <glyph glyph-name="afii9830" 
d="M157 2q-29 0 -56.5 13t-49.5 35t-35 49.5t-13 56.5t10.5 56t30.5 48q-20 17 -30.5 40t-10.5 48q0 21 10 42t26 37t36.5 26t42.5 10h115q29 0 56.5 -13t49.5 -35t35 -49.5t13 -56.5h-77q0 15 -6.5 28.5t-17.5 24.5t-24.5 17.5t-28.5 6.5h-116q-15 0 -27 -12.5t-12 -26.5
q0 -15 12 -27t26 -12h115v-77h-77q-14 0 -28 -6.5t-25 -17.5t-17.5 -24.5t-6.5 -28.5q0 -14 6.5 -28t17.5 -25t25 -17.5t28 -6.5h77q15 0 28.5 6.5t24.5 17.5t17.5 25t6.5 28h77q0 -29 -13 -56.5t-35 -49.5t-49.5 -35t-56.5 -13z" />
    <glyph glyph-name="afii9833" 
d="M4 310q0 90 41 172t113 136h-154v77h385v-77q-58 0 -113 -26.5t-98.5 -70t-70 -98.5t-26.5 -113v-154q0 -14 6.5 -28t17.5 -25t25 -17.5t28 -6.5h115q21 0 42 -10t37 -26.5t26 -37t10 -42.5t-10 -42.5t-26.5 -37t-37 -26.5t-42.5 -10h-39v77h38q14 0 26 12t12 26
t-12.5 26t-26.5 12h-116q-29 0 -56.5 13t-49.5 35t-35 49.5t-13 56.5z" />
    <glyph glyph-name="afii9834" 
d="M0 462h77v-21q34 21 77 21h77q29 0 56.5 -13t49.5 -35t35 -49.5t13 -56.5v-462h-77v462q0 15 -6.5 28.5t-17.5 24.5t-24.5 17.5t-28.5 6.5h-77q-14 0 -28 -6.5t-25 -17.5t-17.5 -24.5t-6.5 -28.5v-308h-77v462z" />
    <glyph glyph-name="afii9835" 
d="M0 539q0 29 13 56.5t35 49.5t49.5 35t56.5 13t56.5 -13t49.5 -35t35 -49.5t13 -56.5v-385q0 -29 -13 -56.5t-35 -49.5t-49.5 -35t-56.5 -13t-56.5 13t-49.5 35t-35 49.5t-13 56.5v385zM77 154q0 -14 6.5 -28t17.5 -25t25 -17.5t28 -6.5q15 0 28.5 6.5t24.5 17.5t17.5 25
t6.5 28v154h-154v-154zM231 385v154q0 15 -6.5 28.5t-17.5 24.5t-24.5 17.5t-28.5 6.5q-14 0 -28 -6.5t-25 -17.5t-17.5 -24.5t-6.5 -28.5v-154h154z" />
    <glyph glyph-name="afii9836" 
d="M79 466h77v-347q0 -15 12 -27t26 -12t26 12t12 26v38h77v-39q0 -22 -10 -42.5t-26.5 -37t-37 -26.5t-42.5 -10t-42.5 10t-37 26t-26.5 36.5t-10 42.5z" />
    <glyph glyph-name="afii9837" 
d="M0 462h77v-199l199 199h109l-231 -231l231 -231h-109l-199 199v-199h-77v462z" />
    <glyph glyph-name="afii9838" 
d="M200 385l-48 174q-7 25 -28 41t-46 16h-77v77h77q25 0 48.5 -8.5t43.5 -24t34.5 -36t21.5 -44.5l160 -580h-80l-76 276l-143 -276h-87z" />
    <glyph glyph-name="afii9839" 
d="M77 462v-308q0 -14 6.5 -28t17.5 -25t25 -17.5t28 -6.5h77q15 0 28.5 6.5t24.5 17.5t17.5 25t6.5 28v308h77v-462h-77v21q-35 -21 -77 -21h-77q-20 0 -40 5.5t-37 15.5v-175h-77v616h77z" />
    <glyph glyph-name="afii9840" 
d="M81 462l118 -354q51 36 80 92.5t29 119.5v142h77v-142q0 -53 -17.5 -103t-48 -93t-73 -75.5t-92.5 -48.5l-154 462h81z" />
    <glyph glyph-name="afii9841" 
d="M158 2q-29 0 -56.5 13t-49.5 35t-35 49.5t-13 56.5q0 31 8.5 60.5t24 56t37.5 48.5t49 37q-20 21 -31 49t-11 57q0 42 15.5 82t43.5 72h-136v77h385v-77h-77q-29 0 -56.5 -13t-49.5 -35t-35 -49.5t-13 -56.5q0 -14 6.5 -28t17.5 -25t25 -17.5t28 -6.5h77v-77h-77
q-29 0 -56.5 -13t-49.5 -35t-35 -49.5t-13 -56.5q0 -14 6.5 -28t17.5 -25t25 -17.5t28 -6.5h115q21 0 42 -10t37 -26.5t26 -37t10 -42.5t-10 -42.5t-26.5 -37t-37 -26.5t-42.5 -10h-39v77h38q14 0 26 12t12 26t-12.5 26t-26.5 12z" />
    <glyph glyph-name="afii9842" 
d="M0 308q0 29 13 56.5t35 49.5t49.5 35t56.5 13h77q29 0 56.5 -13t49.5 -35t35 -49.5t13 -56.5v-154q0 -29 -13 -56.5t-35 -49.5t-49.5 -35t-56.5 -13h-77q-29 0 -56.5 13t-49.5 35t-35 49.5t-13 56.5v154zM231 77q15 0 28.5 6.5t24.5 17.5t17.5 25t6.5 28v154
q0 15 -6.5 28.5t-17.5 24.5t-24.5 17.5t-28.5 6.5h-77q-14 0 -28 -6.5t-25 -17.5t-17.5 -24.5t-6.5 -28.5v-154q0 -14 6.5 -28t17.5 -25t25 -17.5t28 -6.5h77z" />
    <glyph glyph-name="afii9843" 
d="M77 385h-77v77h385v-77h-77v-385h-77v385h-77v-385h-77v385z" />
    <glyph glyph-name="afii9845" 
d="M0 308q0 29 13 56.5t35 49.5t49.5 35t56.5 13h77q29 0 56.5 -13t49.5 -35t35 -49.5t13 -56.5v-154q0 -29 -13 -56.5t-35 -49.5t-49.5 -35t-56.5 -13h-154v-154h-77v462zM231 77q15 0 28.5 6.5t24.5 17.5t17.5 25t6.5 28v154q0 15 -6.5 28.5t-17.5 24.5t-24.5 17.5
t-28.5 6.5h-77q-14 0 -28 -6.5t-25 -17.5t-17.5 -24.5t-6.5 -28.5v-231h154z" />
    <glyph glyph-name="afii9847" 
d="M4 310q0 29 13 56.5t35 49.5t49.5 35t56.5 13h77q29 0 56.5 -13t49.5 -35t35 -49.5t13 -56.5h-77q0 15 -6.5 28.5t-17.5 24.5t-24.5 17.5t-28.5 6.5h-77q-14 0 -28 -6.5t-25 -17.5t-17.5 -24.5t-6.5 -28.5v-154q0 -14 6.5 -28t17.5 -25t25 -17.5t28 -6.5h115q21 0 42 -10
t37 -26.5t26 -37t10 -42.5t-10 -42.5t-26.5 -37t-37 -26.5t-42.5 -10h-116v77h115q14 0 26 12t12 26t-12.5 26t-26.5 12h-116q-29 0 -56.5 13t-49.5 35t-35 49.5t-13 56.5z" />
    <glyph glyph-name="afii9846" 
d="M0 308q0 29 13 56.5t35 49.5t49.5 35t56.5 13h231v-77h-90l45 -45q21 -22 33 -50.5t12 -58.5v-77q0 -29 -13 -56.5t-35 -49.5t-49.5 -35t-56.5 -13h-77q-29 0 -56.5 13t-49.5 35t-35 49.5t-13 56.5v154zM78 154q0 -14 6.5 -28t17.5 -25t25 -17.5t28 -6.5h77
q15 0 28.5 6.5t24.5 17.5t17.5 25t6.5 28v77q0 15 -6 29t-17 25l-100 100h-32q-14 0 -28 -6.5t-25 -17.5t-17.5 -24.5t-6.5 -28.5z" />
    <glyph glyph-name="afii9848" 
d="M0 462h385v-77h-154v-231q0 -14 6.5 -28t17.5 -25t25 -17.5t28 -6.5v-77q-29 0 -56.5 13t-49.5 35t-35 49.5t-13 56.5v231h-154v77z" />
    <glyph glyph-name="afii9849" 
d="M0 462h77v-308q0 -14 6.5 -28t17.5 -25t25 -17.5t28 -6.5h77q15 0 28.5 6.5t24.5 17.5t17.5 25t6.5 28v308h77v-308q0 -29 -13 -56.5t-35 -49.5t-49.5 -35t-56.5 -13h-77q-29 0 -56.5 13t-49.5 35t-35 49.5t-13 56.5v308z" />
    <glyph glyph-name="afii9850" 
d="M1 464h77v-308q0 -14 6.5 -28t17.5 -25t25 -17.5t28 -6.5v269q0 21 10 42t26 37t36.5 26t42.5 10q21 0 42 -10t37 -26.5t26 -37t10 -42.5v-193q0 -29 -13 -56.5t-35 -49.5t-49.5 -35t-56.5 -13v-154h-77v154q-29 0 -56.5 13t-49.5 35t-35 49.5t-13 56.5zM233 81
q15 0 28.5 6.5t24.5 17.5t17.5 25t6.5 28v192q0 14 -12.5 26t-26.5 12q-15 0 -27 -12.5t-12 -26.5z" />
    <glyph glyph-name="afii9851" 
d="M150 154l-150 308h86l107 -220l107 220h86l-150 -308l150 -308h-86l-107 220l-107 -220h-86z" />
    <glyph glyph-name="afii9852" 
d="M0 462h77v-308q0 -14 6.5 -28t17.5 -25t25 -17.5t28 -6.5v385h77v-385q15 0 28.5 6.5t24.5 17.5t17.5 25t6.5 28v308h77v-308q0 -29 -13 -56.5t-35 -49.5t-49.5 -35t-56.5 -13v-154h-77v154q-29 0 -56.5 13t-49.5 35t-35 49.5t-13 56.5v308z" />
    <glyph glyph-name="afii9853" 
d="M5 358q0 30 11.5 58.5t33.5 50.5l54 -54q-11 -11 -17 -25t-6 -29v-238q0 -15 12 -27t26 -12t26 12t12 26v115h77v-116q0 -15 12 -27t26 -12t26 12t12 26v238q0 15 -6 29t-17 25l54 54q21 -22 33 -50.5t12 -58.5v-238q0 -22 -10 -42.5t-26.5 -37t-37 -26.5t-42.5 -10
q-21 0 -41 7.5t-36 21.5q-16 -14 -36 -21.5t-41 -7.5q-22 0 -42.5 10t-37 26t-26.5 36.5t-10 42.5z" />
  </font>
</defs>
</svg>
