<svg xmlns="http://www.w3.org/2000/svg" width="256" height="256" viewBox="0 0 67.733 67.733">
  <defs/>
  <defs>
    <filter id="favicon_svg__a" color-interpolation-filters="sRGB">
      <feColorMatrix type="hueRotate" values="0"/>
      <feColorMatrix type="saturate" values="1"/>
      <feColorMatrix result="fbSourceGraphic" values="2 -1 0 0 0 0 2 -1 0 0 -1 0 2 0 0 0 0 0 1 0"/>
      <feColorMatrix in="fbSourceGraphic" result="fbSourceGraphicAlpha" values="0 0 0 -1 0 0 0 0 -1 0 0 0 0 -1 0 0 0 0 1 0"/>
      <feMorphology in="fbSourceGraphic" radius="2" result="result0"/>
      <feTurbulence baseFrequency=".078" result="result91"/>
      <feDisplacementMap in="result0" in2="result91" scale="6.3" xChannelSelector="R" yChannelSelector="G"/>
    </filter>
  </defs>
  <g style="line-height:1.25">
    <path style="-inkscape-font-specification:'Hobo BT Bold'" fill="#500" stroke-width="3.808" d="M101.262 41.747c-7.166 1.437-22.448-3.59-20.955 8.668 1.89 10.272 4.347 36.9 3.533 47.457-.285 13.881-3.09 37.893-10.258 49.937-9.984-18.313-8.037-66.503-6.723-86.54 3.025-9.155 1.974-12.795-11.188-9.414-9.485-1.705-24.297.946-17.571 13.971 2.258 21.776 1.76 71.658-9.864 90.97-6.172-4.023-6.099-19.518-7.461-28.098-1.017-14.596.773-45.647 3.466-59.919-1.062-11.068-14.676-5.925-22.056-6.854C-7.7 60.12-9.781 72.235-9.245 79.513c-2.105 33.188 2.44 84.307 20.103 113.099 3.258 7.857 14.79 16.953 20.926 6.684 6.484-9.004 11.846-18.714 16.528-28.771 6.064 11.61 10.375 15.218 21.3 23.354 11.2 1.765 15.188-12.362 20.592-19.628 16.659-29.71 23.795-100.845 19.849-134.695-1.023-3.96-4.425 2.084-8.791 2.191zm61.898-9.605c-13.326.393-26.676-.57-39.988.41-10.12 4.338-8.326 17.293-9.696 26.297-2.417 30.417-2.671 103.867 1.747 134.12 5.461 11.288 20.504 3.558 30.36 6.017 12.905-.108 26.71 11.328 38.827 6.137 16.756-10.392 17.565-51.82 6.955-66.934-3.227-6.695-12.458-12.328-14.115-17.847 10.297-9.86 18.585-52.018 11.441-65.996-4.864-8.97-15.886-22.38-25.53-22.204zm-6.388 25.344c14.055 3.483-3.632 43.483-9.373 47.637-5.24 5.123-10.67 4.415-7.784-3.599-1.147-8.145 3.958-44.915 13.435-43.886 1.24-.069 2.481-.097 3.722-.152zm.195 69.407c7.527 5.079 15.975 26.973 9.044 35.392-7.093 6.431-24.662-3.387-25.04-15.8-3.955-12.46 6.68-15.858 15.996-19.592z" aria-label="WB" filter="url(#favicon_svg__a)" font-family="Hobo BT" font-size="152.304" font-weight="700" letter-spacing="0" transform="matrix(.32398 0 0 .32398 2.78 -4.78)" word-spacing="0"/>
  </g>
</svg>
